<svg width="25" height="25" viewBox="0 0 25 25" fill="none" xmlns="http://www.w3.org/2000/svg">
<path d="M17.32 2.48279H7.68001C5.55001 2.48279 3.82001 4.22279 3.82001 6.34279V20.4328C3.82001 22.2328 5.11001 22.9928 6.69001 22.1228L11.57 19.4128C12.09 19.1228 12.93 19.1228 13.44 19.4128L18.32 22.1228C19.9 23.0028 21.19 22.2428 21.19 20.4328V6.34279C21.18 4.22279 19.45 2.48279 17.32 2.48279ZM15.51 10.2328C14.54 10.5828 13.52 10.7628 12.5 10.7628C11.48 10.7628 10.46 10.5828 9.49001 10.2328C9.10001 10.0928 8.90001 9.66279 9.04001 9.27279C9.19001 8.88279 9.62001 8.68279 10.01 8.82279C11.62 9.40279 13.39 9.40279 15 8.82279C15.39 8.68279 15.82 8.88279 15.96 9.27279C16.1 9.66279 15.9 10.0928 15.51 10.2328Z" fill="white"/>
</svg>
