<svg width="25" height="25" viewBox="0 0 25 25" fill="none" xmlns="http://www.w3.org/2000/svg">
<path d="M12.4998 10.7628C11.4798 10.7628 10.4598 10.5828 9.48976 10.2328C9.09976 10.0928 8.89976 9.66284 9.03976 9.27284C9.18976 8.88284 9.61976 8.68284 10.0098 8.82284C11.6198 9.40284 13.3898 9.40284 14.9998 8.82284C15.3898 8.68284 15.8198 8.88284 15.9598 9.27284C16.0998 9.66284 15.8998 10.0928 15.5098 10.2328C14.5398 10.5828 13.5198 10.7628 12.4998 10.7628Z" fill="white"/>
<path d="M19.5703 23.2328C19.0603 23.2328 18.5003 23.0828 17.9603 22.7728L13.0803 20.0628C12.7903 19.9028 12.2203 19.9028 11.9303 20.0628L7.05031 22.7728C6.06031 23.3228 5.05031 23.3828 4.28031 22.9228C3.51031 22.4728 3.07031 21.5628 3.07031 20.4328V6.34279C3.07031 3.80279 5.14031 1.73279 7.68031 1.73279H17.3303C19.8703 1.73279 21.9403 3.80279 21.9403 6.34279V20.4328C21.9403 21.5628 21.5003 22.4728 20.7303 22.9228C20.3803 23.1328 19.9803 23.2328 19.5703 23.2328ZM12.5003 18.4428C12.9703 18.4428 13.4303 18.5428 13.8003 18.7528L18.6803 21.4628C19.1903 21.7528 19.6603 21.8128 19.9603 21.6328C20.2603 21.4528 20.4303 21.0228 20.4303 20.4328V6.34279C20.4303 4.63279 19.0303 3.23279 17.3203 3.23279H7.68031C5.97031 3.23279 4.57031 4.63279 4.57031 6.34279V20.4328C4.57031 21.0228 4.74031 21.4628 5.04031 21.6328C5.34031 21.8028 5.80031 21.7528 6.32031 21.4628L11.2003 18.7528C11.5703 18.5428 12.0303 18.4428 12.5003 18.4428Z" fill="white"/>
<path d="M19.5703 23.2328C19.0603 23.2328 18.5003 23.0828 17.9603 22.7728L13.0803 20.0628C12.7903 19.9028 12.2203 19.9028 11.9303 20.0628L7.05031 22.7728C6.06031 23.3228 5.05031 23.3828 4.28031 22.9228C3.51031 22.4728 3.07031 21.5628 3.07031 20.4328V6.34279C3.07031 3.80279 5.14031 1.73279 7.68031 1.73279H17.3303C19.8703 1.73279 21.9403 3.80279 21.9403 6.34279V20.4328C21.9403 21.5628 21.5003 22.4728 20.7303 22.9228C20.3803 23.1328 19.9803 23.2328 19.5703 23.2328ZM12.5003 18.4428C12.9703 18.4428 13.4303 18.5428 13.8003 18.7528L18.6803 21.4628C19.1903 21.7528 19.6603 21.8128 19.9603 21.6328C20.2603 21.4528 20.4303 21.0228 20.4303 20.4328V6.34279C20.4303 4.63279 19.0303 3.23279 17.3203 3.23279H7.68031C5.97031 3.23279 4.57031 4.63279 4.57031 6.34279V20.4328C4.57031 21.0228 4.74031 21.4628 5.04031 21.6328C5.34031 21.8028 5.80031 21.7528 6.32031 21.4628L11.2003 18.7528C11.5703 18.5428 12.0303 18.4428 12.5003 18.4428Z" fill="white"/>
</svg>
