<svg width="25" height="25" viewBox="0 0 25 25" fill="none" xmlns="http://www.w3.org/2000/svg">
<path d="M12.1458 10.548C11.1258 10.548 10.1058 10.368 9.13576 10.018C8.74576 9.878 8.54576 9.448 8.68576 9.058C8.83576 8.668 9.26576 8.468 9.65576 8.608C11.2658 9.188 13.0358 9.188 14.6458 8.608C15.0358 8.468 15.4658 8.668 15.6058 9.058C15.7458 9.448 15.5458 9.878 15.1558 10.018C14.1858 10.368 13.1658 10.548 12.1458 10.548Z" fill="#17253F"/>
<path d="M19.2158 23.0179C18.7058 23.0179 18.1458 22.8679 17.6058 22.5579L12.7258 19.8479C12.4358 19.6879 11.8658 19.6879 11.5758 19.8479L6.69582 22.5579C5.70582 23.1079 4.69582 23.1679 3.92582 22.7079C3.15582 22.2579 2.71582 21.3479 2.71582 20.2179V6.12794C2.71582 3.58794 4.78582 1.51794 7.32582 1.51794H16.9758C19.5158 1.51794 21.5858 3.58794 21.5858 6.12794V20.2179C21.5858 21.3479 21.1458 22.2579 20.3758 22.7079C20.0258 22.9179 19.6258 23.0179 19.2158 23.0179ZM12.1458 18.2279C12.6158 18.2279 13.0758 18.3279 13.4458 18.5379L18.3258 21.2479C18.8358 21.5379 19.3058 21.5979 19.6058 21.4179C19.9058 21.2379 20.0758 20.8079 20.0758 20.2179V6.12794C20.0758 4.41794 18.6758 3.01794 16.9658 3.01794H7.32582C5.61582 3.01794 4.21582 4.41794 4.21582 6.12794V20.2179C4.21582 20.8079 4.38582 21.2479 4.68582 21.4179C4.98582 21.5879 5.44582 21.5379 5.96582 21.2479L10.8458 18.5379C11.2158 18.3279 11.6758 18.2279 12.1458 18.2279Z" fill="#17253F"/>
<path d="M19.2158 23.0179C18.7058 23.0179 18.1458 22.8679 17.6058 22.5579L12.7258 19.8479C12.4358 19.6879 11.8658 19.6879 11.5758 19.8479L6.69582 22.5579C5.70582 23.1079 4.69582 23.1679 3.92582 22.7079C3.15582 22.2579 2.71582 21.3479 2.71582 20.2179V6.12794C2.71582 3.58794 4.78582 1.51794 7.32582 1.51794H16.9758C19.5158 1.51794 21.5858 3.58794 21.5858 6.12794V20.2179C21.5858 21.3479 21.1458 22.2579 20.3758 22.7079C20.0258 22.9179 19.6258 23.0179 19.2158 23.0179ZM12.1458 18.2279C12.6158 18.2279 13.0758 18.3279 13.4458 18.5379L18.3258 21.2479C18.8358 21.5379 19.3058 21.5979 19.6058 21.4179C19.9058 21.2379 20.0758 20.8079 20.0758 20.2179V6.12794C20.0758 4.41794 18.6758 3.01794 16.9658 3.01794H7.32582C5.61582 3.01794 4.21582 4.41794 4.21582 6.12794V20.2179C4.21582 20.8079 4.38582 21.2479 4.68582 21.4179C4.98582 21.5879 5.44582 21.5379 5.96582 21.2479L10.8458 18.5379C11.2158 18.3279 11.6758 18.2279 12.1458 18.2279Z" fill="#17253F"/>
</svg>
