<svg width="25" height="25" viewBox="0 0 25 25" fill="none" xmlns="http://www.w3.org/2000/svg">
<path d="M12.5 10.7628C11.48 10.7628 10.46 10.5828 9.49 10.2328C9.1 10.0928 8.9 9.66284 9.04 9.27284C9.19 8.88284 9.62 8.68284 10.01 8.82284C11.62 9.40284 13.39 9.40284 15 8.82284C15.39 8.68284 15.82 8.88284 15.96 9.27284C16.1 9.66284 15.9 10.0928 15.51 10.2328C14.54 10.5828 13.52 10.7628 12.5 10.7628Z" fill="white"/>
<path d="M19.5701 23.2328C19.0601 23.2328 18.5001 23.0828 17.9601 22.7728L13.0801 20.0628C12.7901 19.9028 12.2201 19.9028 11.9301 20.0628L7.05007 22.7728C6.06007 23.3228 5.05007 23.3828 4.28007 22.9228C3.51007 22.4728 3.07007 21.5628 3.07007 20.4328V6.34279C3.07007 3.80279 5.14007 1.73279 7.68007 1.73279H17.3301C19.8701 1.73279 21.9401 3.80279 21.9401 6.34279V20.4328C21.9401 21.5628 21.5001 22.4728 20.7301 22.9228C20.3801 23.1328 19.9801 23.2328 19.5701 23.2328ZM12.5001 18.4428C12.9701 18.4428 13.4301 18.5428 13.8001 18.7528L18.6801 21.4628C19.1901 21.7528 19.6601 21.8128 19.9601 21.6328C20.2601 21.4528 20.4301 21.0228 20.4301 20.4328V6.34279C20.4301 4.63279 19.0301 3.23279 17.3201 3.23279H7.68007C5.97007 3.23279 4.57007 4.63279 4.57007 6.34279V20.4328C4.57007 21.0228 4.74007 21.4628 5.04007 21.6328C5.34007 21.8028 5.80007 21.7528 6.32007 21.4628L11.2001 18.7528C11.5701 18.5428 12.0301 18.4428 12.5001 18.4428Z" fill="white"/>
<path d="M19.5701 23.2328C19.0601 23.2328 18.5001 23.0828 17.9601 22.7728L13.0801 20.0628C12.7901 19.9028 12.2201 19.9028 11.9301 20.0628L7.05007 22.7728C6.06007 23.3228 5.05007 23.3828 4.28007 22.9228C3.51007 22.4728 3.07007 21.5628 3.07007 20.4328V6.34279C3.07007 3.80279 5.14007 1.73279 7.68007 1.73279H17.3301C19.8701 1.73279 21.9401 3.80279 21.9401 6.34279V20.4328C21.9401 21.5628 21.5001 22.4728 20.7301 22.9228C20.3801 23.1328 19.9801 23.2328 19.5701 23.2328ZM12.5001 18.4428C12.9701 18.4428 13.4301 18.5428 13.8001 18.7528L18.6801 21.4628C19.1901 21.7528 19.6601 21.8128 19.9601 21.6328C20.2601 21.4528 20.4301 21.0228 20.4301 20.4328V6.34279C20.4301 4.63279 19.0301 3.23279 17.3201 3.23279H7.68007C5.97007 3.23279 4.57007 4.63279 4.57007 6.34279V20.4328C4.57007 21.0228 4.74007 21.4628 5.04007 21.6328C5.34007 21.8028 5.80007 21.7528 6.32007 21.4628L11.2001 18.7528C11.5701 18.5428 12.0301 18.4428 12.5001 18.4428Z" fill="white"/>
</svg>
