<svg width="31" height="31" viewBox="0 0 31 31" fill="none" xmlns="http://www.w3.org/2000/svg">
<path d="M23.9396 2.91211H21.5646C18.8396 2.91211 17.4021 4.34961 17.4021 7.07461V9.44961C17.4021 12.1746 18.8396 13.6121 21.5646 13.6121H23.9396C26.6646 13.6121 28.1021 12.1746 28.1021 9.44961V7.07461C28.1021 4.34961 26.6646 2.91211 23.9396 2.91211Z" fill="#4558F9"/>
<path d="M9.65205 17.1996H7.27705C4.53955 17.1996 3.10205 18.6371 3.10205 21.3621V23.7371C3.10205 26.4746 4.53955 27.9121 7.26455 27.9121H9.63955C12.3646 27.9121 13.8021 26.4746 13.8021 23.7496V21.3746C13.8146 18.6371 12.3771 17.1996 9.65205 17.1996Z" fill="#4558F9"/>
<path d="M8.46455 13.6371C11.4262 13.6371 13.8271 11.2362 13.8271 8.27461C13.8271 5.31298 11.4262 2.91211 8.46455 2.91211C5.50292 2.91211 3.10205 5.31298 3.10205 8.27461C3.10205 11.2362 5.50292 13.6371 8.46455 13.6371Z" fill="#4558F9"/>
<path d="M22.7395 27.9121C25.7011 27.9121 28.102 25.5113 28.102 22.5496C28.102 19.588 25.7011 17.1871 22.7395 17.1871C19.7778 17.1871 17.377 19.588 17.377 22.5496C17.377 25.5113 19.7778 27.9121 22.7395 27.9121Z" fill="#4558F9"/>
</svg>
