<svg width="21" height="22" viewBox="0 0 21 22" fill="none" xmlns="http://www.w3.org/2000/svg">
<path d="M18.541 7.83812V5.31409C18.541 4.74679 18.3157 4.20272 17.9145 3.80158C17.5134 3.40043 16.9693 3.17507 16.402 3.17507H13.9314L12.1775 1.42108C11.7767 1.02269 11.2345 0.799072 10.6694 0.799072C10.1044 0.799072 9.56221 1.02269 9.16144 1.42108L7.46093 3.17507H4.93689C4.36959 3.17507 3.82552 3.40043 3.42438 3.80158C3.02324 4.20272 2.79788 4.74679 2.79788 5.31409V7.83812L1.04388 9.53864C0.645491 9.93941 0.421875 10.4815 0.421875 11.0466C0.421875 11.6117 0.645491 12.1539 1.04388 12.5546L2.79788 14.3086V16.7792C2.79788 17.3465 3.02324 17.8906 3.42438 18.2917C3.82552 18.6929 4.36959 18.9182 4.93689 18.9182H7.46093L9.16144 20.6722C9.56221 21.0706 10.1044 21.2942 10.6694 21.2942C11.2345 21.2942 11.7767 21.0706 12.1775 20.6722L13.9314 18.9182H16.402C16.9693 18.9182 17.5134 18.6929 17.9145 18.2917C18.3157 17.8906 18.541 17.3465 18.541 16.7792V14.3086L20.295 12.5546C20.6934 12.1539 20.917 11.6117 20.917 11.0466C20.917 10.4815 20.6934 9.93941 20.295 9.53864L18.541 7.83812Z" fill="#02A570"/>
<path d="M9.43941 14.9348L9.43224 14.9345L9.42506 14.9345C9.24333 14.9356 9.06317 14.9008 8.89493 14.832C8.72669 14.7633 8.57366 14.6621 8.44463 14.5341L8.44464 14.5341L8.44279 14.5323L5.88047 12.0365C5.62101 11.7764 5.47528 11.424 5.47528 11.0565C5.47528 10.6885 5.62148 10.3355 5.88173 10.0753C6.14197 9.81503 6.49493 9.66883 6.86297 9.66883C7.23072 9.66883 7.58341 9.8148 7.8436 10.0747C7.84381 10.0749 7.84401 10.0751 7.84422 10.0753L9.15812 11.4058L9.35928 11.6095L9.56128 11.4066L13.3736 7.5777L13.3736 7.57777L13.3786 7.57257C13.6403 7.2961 14.0011 7.13493 14.3817 7.1245C14.7622 7.11408 15.1313 7.25525 15.4078 7.51697L15.6029 7.31082L15.4078 7.51697C15.6843 7.77869 15.8454 8.13952 15.8559 8.52008C15.8663 8.89939 15.726 9.26734 15.4659 9.5435L10.4751 14.5344C10.475 14.5345 10.4749 14.5346 10.4747 14.5347C10.3393 14.6693 10.1774 14.7744 9.99927 14.8433C9.821 14.9122 9.63036 14.9434 9.43941 14.9348Z" fill="white" stroke="#02A570" stroke-width="0.567751"/>
</svg>
