<svg width="165" height="150" viewBox="0 0 165 150" fill="none" xmlns="http://www.w3.org/2000/svg">
<path fill-rule="evenodd" clip-rule="evenodd" d="M136.273 2.53247H13.6449C6.30967 2.53247 0.363281 8.47886 0.363281 15.8141V136.483C0.363281 143.819 6.30968 149.765 13.6449 149.765H146.212C153.547 149.765 159.493 143.819 159.493 136.483V31.3143C156.987 32.5348 154.172 33.2195 151.197 33.2195C140.719 33.2195 132.225 24.7254 132.225 14.2473C132.225 9.82611 133.737 5.75815 136.273 2.53247ZM95.2406 45.3985C83.6213 45.3985 73.4821 51.7358 68.0909 61.1425C64.7064 59.4059 60.8698 58.426 56.8042 58.426C43.1311 58.426 32.0468 69.5102 32.0468 83.1834C32.0468 96.8565 43.1311 107.941 56.8042 107.941C56.8598 107.941 56.9154 107.941 56.9709 107.94H97.3255V107.871C113.624 106.799 126.511 93.2389 126.511 76.6692C126.511 59.3989 112.511 45.3985 95.2406 45.3985Z" fill="#04DA8D"/>
<circle cx="151.008" cy="14.2476" r="13.4143" fill="#17253F"/>
<g clip-path="url(#clip0_2191_15850)">
<path d="M154.531 13.0732L152.182 10.7243M145.429 19.8264L147.417 19.6055C147.659 19.5786 147.781 19.5651 147.894 19.5283C147.995 19.4957 148.091 19.4497 148.179 19.3914C148.279 19.3258 148.365 19.2394 148.538 19.0666L156.293 11.3115C156.942 10.6628 156.942 9.61119 156.293 8.96255C155.644 8.31392 154.593 8.31391 153.944 8.96255L146.189 16.7177C146.016 16.8905 145.93 16.9768 145.864 17.0764C145.806 17.1648 145.76 17.2606 145.727 17.3612C145.69 17.4747 145.677 17.5961 145.65 17.8389L145.429 19.8264Z" stroke="#E7F4EF" stroke-width="1.17446" stroke-linecap="round" stroke-linejoin="round"/>
</g>
<defs>
<clipPath id="clip0_2191_15850">
<rect width="14.0936" height="14.0936" fill="white" transform="translate(143.961 7.20081)"/>
</clipPath>
</defs>
</svg>
