<svg width="15" height="17" viewBox="0 0 15 17" fill="none" xmlns="http://www.w3.org/2000/svg">
<path d="M10.4934 4.3468V3.78157C10.4934 2.99017 10.4934 2.59446 10.3394 2.29219C10.2039 2.0263 9.98774 1.81012 9.72185 1.67465C9.41957 1.52063 9.02387 1.52063 8.23247 1.52063H7.102C6.3106 1.52063 5.9149 1.52063 5.61262 1.67465C5.34673 1.81012 5.13056 2.0263 4.99508 2.29219C4.84106 2.59446 4.84106 2.99017 4.84106 3.78157V4.3468M6.25415 8.23279V11.7655M9.08032 8.23279V11.7655M1.30835 4.3468H14.0261M12.613 4.3468V12.2601C12.613 13.4472 12.613 14.0407 12.382 14.4942C12.1788 14.893 11.8545 15.2172 11.4557 15.4205C11.0023 15.6515 10.4087 15.6515 9.22163 15.6515H6.11284C4.92574 15.6515 4.33219 15.6515 3.87877 15.4205C3.47994 15.2172 3.15568 14.893 2.95246 14.4942C2.72144 14.0407 2.72144 13.4472 2.72144 12.2601V4.3468" stroke="#FF0000" stroke-width="1.41309" stroke-linecap="round" stroke-linejoin="round"/>
</svg>
