<svg width="41" height="56" viewBox="0 0 41 56" fill="none" xmlns="http://www.w3.org/2000/svg">
<path d="M4.53243 2.01603C8.44951 -0.234456 13.1242 2.75121 14.2419 6.7253C15.4886 11.1581 13.4076 15.568 10.6149 18.9338C9.30736 20.5117 7.72282 22.4835 5.75742 23.2473C3.5259 24.1122 1.87612 22.4126 2.02063 20.2048C2.31943 15.6609 9.19759 14.7542 12.6539 14.6827C17.0749 14.591 21.6256 16.2212 24.0663 20.0844C26.5271 23.9777 25.3006 28.5935 22.2995 31.7954C20.9278 33.2614 18.3732 35.5314 16.1854 34.5915C15.2954 34.2089 14.6045 33.2838 15.0619 32.3098C15.4743 31.4313 16.6501 31.0198 17.5196 30.7799C19.3556 30.2723 21.411 30.3092 23.3035 30.2826C25.3955 30.2537 27.4978 30.3573 29.55 30.7798C34.1823 31.7347 38.0071 34.7555 38.542 39.6761C39.1123 44.9325 35.9946 49.5543 32.0626 52.7387L33.2778 53.3293C33.2076 51.0164 33.1374 48.7035 33.0677 46.388C32.5391 46.4268 32.0105 46.4655 31.4819 46.5042C31.8052 49.1778 31.9055 51.8542 31.7731 54.5419C31.7496 55.0435 32.3974 55.4198 32.8315 55.2371C35.1987 54.2424 37.5639 53.2448 39.931 52.2501C40.8762 51.853 40.3597 50.3388 39.406 50.7395C37.0408 51.7371 34.6732 52.7343 32.3085 53.7295L33.3669 54.4247C33.4967 51.7365 33.3995 49.0581 33.0677 46.388C32.9405 45.379 31.4469 45.4796 31.4819 46.5042C31.5602 48.8161 31.6405 51.131 31.7188 53.4429C31.7376 53.9947 32.4782 54.4051 32.934 54.0335C37.2681 50.4983 40.6953 45.3846 40.0587 39.5645C39.4828 34.2834 35.6028 30.709 30.5852 29.4663C27.9227 28.808 25.1276 28.7132 22.3969 28.7955C20.0296 28.8663 17.3611 28.8461 15.2543 30.0855C13.506 31.1141 12.7486 33.2969 14.1813 34.9431C15.7821 36.7844 18.3516 36.4457 20.2664 35.3431C24.725 32.7773 27.958 27.2702 26.5601 22.108C25.1232 16.7998 19.8058 13.6893 14.5841 13.2647C10.2019 12.91 2.42128 13.7344 0.780269 18.7638C0.171772 20.6316 0.573443 23.0154 2.22216 24.2452C4.18811 25.7101 6.65096 24.7213 8.34712 23.3484C12.8999 19.6608 17.0073 13.4529 15.7272 7.36682C15.1851 4.7803 13.6476 2.43485 11.2161 1.27172C8.95698 0.189734 6.35496 0.203607 4.23234 1.57554C3.94427 1.76111 4.23524 2.18152 4.52537 2.01201L4.53243 2.01603Z" fill="#E7F4EF"/>
</svg>
