<svg width="18" height="17" viewBox="0 0 18 17" fill="none" xmlns="http://www.w3.org/2000/svg">
<g opacity="0.7">
<path d="M13.0426 7.20403L10.2785 4.43995M2.33179 15.1508L4.67045 14.8909C4.95618 14.8592 5.09905 14.8433 5.23258 14.8001C5.35105 14.7617 5.4638 14.7075 5.56775 14.639C5.68493 14.5617 5.78657 14.4601 5.98986 14.2568L15.1157 5.13097C15.8789 4.36769 15.8789 3.13017 15.1157 2.36689C14.3524 1.60361 13.1149 1.60361 12.3516 2.36689L3.22578 11.4927C3.02249 11.696 2.92085 11.7976 2.84358 11.9148C2.77503 12.0187 2.72084 12.1315 2.68249 12.25C2.63926 12.3835 2.62339 12.5264 2.59164 12.8121L2.33179 15.1508Z" stroke="#17253F" stroke-width="1.38204" stroke-linecap="round" stroke-linejoin="round"/>
</g>
</svg>
