<svg width="21" height="20" viewBox="0 0 21 20" fill="none" xmlns="http://www.w3.org/2000/svg">
<path d="M11.0243 9.79045C10.8659 9.79045 10.7076 9.73212 10.5826 9.60712C10.341 9.36546 10.341 8.96547 10.5826 8.7238L17.4158 1.8906C17.6575 1.64894 18.0575 1.64894 18.2991 1.8906C18.5408 2.13226 18.5408 2.53225 18.2991 2.77391L11.4659 9.60712C11.3409 9.73212 11.1826 9.79045 11.0243 9.79045Z" fill="#292D32"/>
<path d="M18.5243 6.29055C18.1827 6.29055 17.8993 6.00722 17.8993 5.66556V2.29063H14.5244C14.1827 2.29063 13.8994 2.0073 13.8994 1.66564C13.8994 1.32398 14.1827 1.04065 14.5244 1.04065H18.5243C18.866 1.04065 19.1493 1.32398 19.1493 1.66564V5.66556C19.1493 6.00722 18.866 6.29055 18.5243 6.29055Z" fill="#292D32"/>
<path d="M12.6915 18.957H7.69161C3.1667 18.957 1.2334 17.0237 1.2334 12.4988V7.49886C1.2334 2.97395 3.1667 1.04065 7.69161 1.04065H9.35825C9.69991 1.04065 9.98324 1.32398 9.98324 1.66564C9.98324 2.0073 9.69991 2.29063 9.35825 2.29063H7.69161C3.85002 2.29063 2.48338 3.65727 2.48338 7.49886V12.4988C2.48338 16.3404 3.85002 17.707 7.69161 17.707H12.6915C16.5331 17.707 17.8998 16.3404 17.8998 12.4988V10.8321C17.8998 10.4905 18.1831 10.2071 18.5247 10.2071C18.8664 10.2071 19.1497 10.4905 19.1497 10.8321V12.4988C19.1497 17.0237 17.2164 18.957 12.6915 18.957Z" fill="#292D32"/>
</svg>
