<svg width="25" height="25" viewBox="0 0 25 25" fill="none" xmlns="http://www.w3.org/2000/svg">
<path d="M3.67334 8.48279L15.6733 8.48279M15.6733 8.48279C15.6733 10.1396 17.0165 11.4828 18.6733 11.4828C20.3302 11.4828 21.6733 10.1396 21.6733 8.48279C21.6733 6.82593 20.3302 5.48279 18.6733 5.48279C17.0165 5.48279 15.6733 6.82593 15.6733 8.48279ZM9.67334 16.4828L21.6733 16.4828M9.67334 16.4828C9.67334 18.1396 8.33019 19.4828 6.67334 19.4828C5.01649 19.4828 3.67334 18.1396 3.67334 16.4828C3.67334 14.8259 5.01649 13.4828 6.67334 13.4828C8.33019 13.4828 9.67334 14.8259 9.67334 16.4828Z" stroke="#17253F" stroke-width="2" stroke-linecap="round" stroke-linejoin="round"/>
</svg>
