<svg width="25" height="25" viewBox="0 0 25 25" fill="none" xmlns="http://www.w3.org/2000/svg">
<path d="M20.54 7.30285L14.78 3.27285C13.21 2.17285 10.8 2.23285 9.28999 3.40285L4.27999 7.31285C3.27999 8.09285 2.48999 9.69285 2.48999 10.9528V17.8528C2.48999 20.4028 4.55999 22.4828 7.10999 22.4828H17.89C20.44 22.4828 22.51 20.4128 22.51 17.8628V11.0828C22.51 9.73285 21.64 8.07285 20.54 7.30285ZM13.25 18.4828C13.25 18.8928 12.91 19.2328 12.5 19.2328C12.09 19.2328 11.75 18.8928 11.75 18.4828V15.4828C11.75 15.0728 12.09 14.7328 12.5 14.7328C12.91 14.7328 13.25 15.0728 13.25 15.4828V18.4828Z" fill="white"/>
</svg>
