<svg width="25" height="25" viewBox="0 0 25 25" fill="none" xmlns="http://www.w3.org/2000/svg">
<path d="M18.29 23.2328H6.71C3.97 23.2328 1.75 21.0028 1.75 18.2628V10.8528C1.75 9.49276 2.59 7.78276 3.67 6.94276L9.06 2.74276C10.68 1.48276 13.27 1.42276 14.95 2.60276L21.13 6.93276C22.32 7.76276 23.25 9.54276 23.25 10.9928V18.2728C23.25 21.0028 21.03 23.2328 18.29 23.2328ZM9.98 3.92276L4.59 8.12276C3.88 8.68276 3.25 9.95276 3.25 10.8528V18.2628C3.25 20.1728 4.8 21.7328 6.71 21.7328H18.29C20.2 21.7328 21.75 20.1828 21.75 18.2728V10.9928C21.75 10.0328 21.06 8.70276 20.27 8.16276L14.09 3.83276C12.95 3.03276 11.07 3.07276 9.98 3.92276Z" fill="white"/>
<path d="M12.5 19.2328C12.09 19.2328 11.75 18.8928 11.75 18.4828V15.4828C11.75 15.0728 12.09 14.7328 12.5 14.7328C12.91 14.7328 13.25 15.0728 13.25 15.4828V18.4828C13.25 18.8928 12.91 19.2328 12.5 19.2328Z" fill="white"/>
</svg>
