<svg width="17" height="17" viewBox="0 0 17 17" fill="none" xmlns="http://www.w3.org/2000/svg">
<path d="M15.8556 11.5573C16.2002 11.1129 16.3655 10.6366 16.3444 10.146C16.3233 9.6056 16.0841 9.18256 15.8872 8.92305C16.1158 8.34714 16.2037 7.44061 15.4406 6.73672C14.8815 6.22125 13.9321 5.99017 12.6169 6.05416C11.6921 6.09682 10.9185 6.27102 10.8869 6.27813H10.8833C10.7075 6.31012 10.5212 6.34923 10.3313 6.39189C10.3172 6.16437 10.3559 5.59912 10.7708 4.32643C11.2631 2.812 11.235 1.65307 10.6794 0.878085C10.0957 0.06399 9.16381 0 8.88953 0C8.6258 0 8.38317 0.110205 8.21086 0.31284C7.82054 0.771435 7.86625 1.61752 7.91548 2.00857C7.45131 3.26704 6.15023 6.35278 5.04959 7.20954C5.02849 7.22376 5.01091 7.24153 4.99333 7.25931C4.66982 7.60414 4.4518 7.97742 4.30411 8.30448C4.09664 8.19072 3.86104 8.12673 3.60786 8.12673H1.46283C0.654056 8.12673 0 8.79151 0 9.60561V15.3825C0 16.2001 0.657572 16.8614 1.46283 16.8614H3.60786C3.92082 16.8614 4.21268 16.7618 4.4518 16.5912L5.27816 16.6907C5.40475 16.7085 7.65527 16.9964 9.96556 16.9502C10.384 16.9822 10.7779 17 11.1436 17C11.773 17 12.3216 16.9502 12.7787 16.8507C13.8547 16.6196 14.5897 16.1575 14.9624 15.4785C15.2472 14.9594 15.2472 14.444 15.2015 14.1169C15.9013 13.477 16.0244 12.7696 15.9998 12.2719C15.9857 11.9839 15.9224 11.7386 15.8556 11.5573ZM1.46283 15.9015C1.178 15.9015 0.949436 15.6669 0.949436 15.3825V9.60205C0.949436 9.31409 1.18152 9.08302 1.46283 9.08302H3.60786C3.89269 9.08302 4.12125 9.31765 4.12125 9.60205V15.3789C4.12125 15.6669 3.88917 15.898 3.60786 15.898H1.46283V15.9015ZM14.9554 11.1414C14.8077 11.2978 14.7796 11.536 14.8921 11.7208C14.8921 11.7244 15.0363 11.9732 15.0538 12.3145C15.0784 12.7802 14.8569 13.1926 14.3927 13.5445C14.2275 13.6725 14.1607 13.8929 14.231 14.092C14.231 14.0956 14.3822 14.5648 14.136 15.0092C13.9004 15.4358 13.3765 15.7415 12.5818 15.9122C11.9453 16.0508 11.0803 16.0757 10.0183 15.9904C10.0042 15.9904 9.98666 15.9904 9.96908 15.9904C7.70801 16.0401 5.42233 15.7415 5.39772 15.738H5.3942L5.03904 15.6953C5.06014 15.5958 5.07069 15.4891 5.07069 15.3825V9.60205C5.07069 9.44918 5.04608 9.29988 5.00388 9.16123C5.06717 8.92305 5.243 8.39335 5.65793 7.94187C7.23681 6.67629 8.78052 2.40673 8.84733 2.22187C8.87547 2.14722 8.8825 2.06545 8.86843 1.98369C8.80865 1.58553 8.82975 1.09849 8.91415 0.952739C9.10052 0.956294 9.60337 1.00962 9.90578 1.43266C10.2645 1.93392 10.2504 2.82978 9.86358 4.01715C9.27282 5.82664 9.22359 6.77938 9.69128 7.19887C9.92336 7.40862 10.2328 7.41928 10.4579 7.33752C10.6724 7.28775 10.8763 7.24509 11.0697 7.21309C11.0838 7.20954 11.1014 7.20598 11.1154 7.20243C12.195 6.96424 14.129 6.81849 14.8007 7.43706C15.3703 7.9632 14.9659 8.65998 14.9202 8.73463C14.7901 8.93371 14.8288 9.19322 15.0046 9.3532C15.0081 9.35676 15.3773 9.7087 15.3949 10.1815C15.409 10.4979 15.2613 10.8214 14.9554 11.1414Z" fill="#3A4F64"/>
</svg>
