<svg width="25" height="25" viewBox="0 0 25 25" fill="none" xmlns="http://www.w3.org/2000/svg">
<path d="M12.2504 15.1528C10.1204 15.1528 8.38037 13.4228 8.38037 11.2828C8.38037 9.14279 10.1204 7.42279 12.2504 7.42279C14.3804 7.42279 16.1204 9.15279 16.1204 11.2928C16.1204 13.4328 14.3804 15.1528 12.2504 15.1528ZM12.2504 8.92279C10.9504 8.92279 9.88037 9.98279 9.88037 11.2928C9.88037 12.6028 10.9404 13.6628 12.2504 13.6628C13.5604 13.6628 14.6204 12.6028 14.6204 11.2928C14.6204 9.98279 13.5504 8.92279 12.2504 8.92279Z" fill="#292D32"/>
<path d="M12.2507 23.7428C10.7707 23.7428 9.28066 23.1828 8.12066 22.0728C5.17066 19.2328 1.91066 14.7028 3.14066 9.31279C4.25066 4.42279 8.52066 2.23279 12.2507 2.23279C12.2507 2.23279 12.2507 2.23279 12.2607 2.23279C15.9907 2.23279 20.2607 4.42279 21.3707 9.32279C22.5907 14.7128 19.3307 19.2328 16.3807 22.0728C15.2207 23.1828 13.7307 23.7428 12.2507 23.7428ZM12.2507 3.73279C9.34066 3.73279 5.60066 5.28279 4.61066 9.64279C3.53066 14.3528 6.49066 18.4128 9.17066 20.9828C10.9007 22.6528 13.6107 22.6528 15.3407 20.9828C18.0107 18.4128 20.9707 14.3528 19.9107 9.64279C18.9107 5.28279 15.1607 3.73279 12.2507 3.73279Z" fill="#292D32"/>
</svg>
