<svg width="21" height="20" viewBox="0 0 21 20" fill="none" xmlns="http://www.w3.org/2000/svg">
<path d="M12.8904 18.556H12.7821C9.08215 18.556 7.29885 17.0977 6.99052 13.8311C6.95719 13.4895 7.20719 13.1811 7.55718 13.1478C7.89051 13.1145 8.20717 13.3728 8.2405 13.7145C8.48216 16.3311 9.71547 17.3061 12.7904 17.3061H12.8987C16.2904 17.3061 17.4903 16.1061 17.4903 12.7145V7.28126C17.4903 3.88965 16.2904 2.68967 12.8987 2.68967H12.7904C9.69881 2.68967 8.4655 3.68132 8.2405 6.34794C8.19883 6.6896 7.90717 6.94793 7.55718 6.9146C7.20719 6.8896 6.95719 6.58127 6.98219 6.23961C7.26552 2.923 9.05715 1.4397 12.7821 1.4397H12.8904C16.982 1.4397 18.732 3.18966 18.732 7.28126V12.7145C18.732 16.8061 16.982 18.556 12.8904 18.556Z" fill="#252525"/>
<path d="M12.6912 10.6229H3.208C2.86634 10.6229 2.58301 10.3396 2.58301 9.99791C2.58301 9.65625 2.86634 9.37292 3.208 9.37292H12.6912C13.0328 9.37292 13.3161 9.65625 13.3161 9.99791C13.3161 10.3396 13.0328 10.6229 12.6912 10.6229Z" fill="#252525"/>
<path d="M5.06686 13.4144C4.90853 13.4144 4.7502 13.356 4.62521 13.231L1.83359 10.4394C1.59193 10.1978 1.59193 9.79778 1.83359 9.55611L4.62521 6.7645C4.86687 6.52284 5.26686 6.52284 5.50852 6.7645C5.75018 7.00616 5.75018 7.40615 5.50852 7.64782L3.15857 9.99777L5.50852 12.3477C5.75018 12.5894 5.75018 12.9894 5.50852 13.231C5.39186 13.356 5.22519 13.4144 5.06686 13.4144Z" fill="#252525"/>
</svg>
