<svg width="152" height="47" viewBox="0 0 152 47" fill="none" xmlns="http://www.w3.org/2000/svg">
<path d="M0.486328 11.2147V35.6256C0.486328 39.7796 3.82484 43.1422 7.93159 43.1422H31.167C33.2274 43.1422 35.0859 42.3051 36.4346 40.9395C37.7847 39.5896 38.6108 37.7098 38.6108 35.6256C38.6108 35.1271 39.0458 34.7443 39.5542 34.8186L47.5658 36.0813C48.3496 36.2127 48.8142 35.2742 48.262 34.7157L38.8438 24.9836C38.6984 24.8222 38.6122 24.6308 38.6122 24.4108V11.2147C38.6122 7.06072 35.2893 3.68384 31.167 3.68384H7.93159C3.82484 3.68384 0.486328 7.06072 0.486328 11.2147Z" fill="white"/>
<path d="M17.1428 12.7579V18.4773H23.7956V12.7579H17.1428ZM18.2925 19.7025V36.6128C21.4179 36.0618 23.7942 33.3041 23.7942 29.9841V19.7025H18.2925ZM22.5326 12.7579V18.3428H24.2003V12.7579H22.5326ZM25.4102 12.7579V18.3428H29.1504C32.2002 18.3428 34.6717 15.8428 34.6717 12.7579H25.4102ZM22.5326 22.616V28.2008H34.1732V22.616H22.5326Z" fill="#17253F"/>
<path d="M8.99888 12.7579C5.87482 12.7579 3.34448 15.3188 3.34448 18.4773H24.2005V12.7579H8.99888ZM10.43 12.7579V36.7134H17.0828V12.7579H10.43Z" fill="#04DA8D"/>
<path d="M54.2661 7.3677V20H52.6184V7.3677H48.5501V5.76069H58.3345V7.3677H54.2661ZM61.5191 12.148V20H59.8714V12.148C59.8714 9.86975 61.7022 8.01864 64.0212 7.9983H65.14V9.62565H64.0212C62.6786 9.64599 61.5191 10.7444 61.5191 12.148ZM71.8307 20.2034C69.0439 20.2034 66.7452 17.9455 66.7046 15.179V7.9983H68.2912L68.3116 15.179C68.3726 17.0504 69.8982 18.5964 71.8307 18.5964C73.7428 18.5964 75.2685 17.0504 75.3295 15.179L75.3498 7.9983H76.9365V15.179C76.8958 17.9455 74.5972 20.2034 71.8307 20.2034ZM88.7192 18.8405V20H87.0919V18.8405C87.0715 17.2945 86.1765 16.3588 84.5695 16.3385H82.9421C80.6232 16.3181 78.7924 14.467 78.7924 12.1684C78.7924 9.86975 80.6232 8.01864 82.9421 7.9983H87.2343V9.62565H82.9421C81.5996 9.64599 80.4401 10.7444 80.4401 12.1684C80.4401 13.572 81.5996 14.6704 82.9421 14.6908H84.5695C87.3767 14.7111 88.7192 16.1554 88.7192 18.8405ZM95.7497 18.5557V20.2034H94.814C92.495 20.1831 90.6846 18.332 90.6846 16.0537V9.6053H90.1761V7.9983H90.6846V5.76069H92.2916V7.9983H94.6919V9.6053H92.2916V16.0537C92.2916 17.4573 93.4714 18.5354 94.814 18.5557H95.7497ZM106.967 7.9983V23.0513H105.36V18.8202C104.444 19.6745 103.204 20.2034 101.861 20.2034C99.0742 20.2034 96.7959 17.9455 96.7552 15.179V7.9983H98.3419L98.3622 15.179C98.4029 17.0504 99.9489 18.5964 101.861 18.5964C103.773 18.5964 105.36 17.0504 105.36 15.179V7.9983H106.967Z" fill="white"/>
<path d="M54.2661 7.3677V7.2197H54.1181V7.3677H54.2661ZM54.2661 20V20.148H54.4141V20H54.2661ZM52.6184 20H52.4704V20.148H52.6184V20ZM52.6184 7.3677H52.7664V7.2197H52.6184V7.3677ZM48.5501 7.3677H48.4021V7.51569H48.5501V7.3677ZM48.5501 5.76069V5.6127H48.4021V5.76069H48.5501ZM58.3345 5.76069H58.4825V5.6127H58.3345V5.76069ZM58.3345 7.3677V7.51569H58.4825V7.3677H58.3345ZM54.1181 7.3677V20H54.4141V7.3677H54.1181ZM54.2661 19.852H52.6184V20.148H54.2661V19.852ZM52.7664 20V7.3677H52.4704V20H52.7664ZM52.6184 7.2197H48.5501V7.51569H52.6184V7.2197ZM48.6981 7.3677V5.76069H48.4021V7.3677H48.6981ZM48.5501 5.90869H58.3345V5.6127H48.5501V5.90869ZM58.1865 5.76069V7.3677H58.4825V5.76069H58.1865ZM58.3345 7.2197H54.2661V7.51569H58.3345V7.2197ZM61.5191 20V20.148H61.6671V20H61.5191ZM59.8714 20H59.7234V20.148H59.8714V20ZM64.0212 7.9983V7.8503L64.0199 7.85031L64.0212 7.9983ZM65.14 7.9983H65.288V7.8503H65.14V7.9983ZM65.14 9.62565V9.77364H65.288V9.62565H65.14ZM64.0212 9.62565V9.47763L64.0189 9.47767L64.0212 9.62565ZM61.3711 12.148V20H61.6671V12.148H61.3711ZM61.5191 19.852H59.8714V20.148H61.5191V19.852ZM60.0194 20V12.148H59.7234V20H60.0194ZM60.0194 12.148C60.0194 9.95172 61.784 8.16592 64.0225 8.14629L64.0199 7.85031C61.6204 7.87136 59.7234 9.78777 59.7234 12.148H60.0194ZM64.0212 8.14629H65.14V7.8503H64.0212V8.14629ZM64.992 7.9983V9.62565H65.288V7.9983H64.992ZM65.14 9.47765H64.0212V9.77364H65.14V9.47765ZM64.0189 9.47767C62.5992 9.49918 61.3711 10.66 61.3711 12.148H61.6671C61.6671 10.8289 62.758 9.7928 64.0234 9.77362L64.0189 9.47767ZM66.7046 15.179H66.5565L66.5566 15.1812L66.7046 15.179ZM66.7046 7.9983V7.8503H66.5566V7.9983H66.7046ZM68.2912 7.9983L68.4392 7.99788L68.4388 7.8503H68.2912V7.9983ZM68.3116 15.179L68.1635 15.1794L68.1636 15.1838L68.3116 15.179ZM75.3295 15.179L75.4775 15.1838L75.4775 15.1794L75.3295 15.179ZM75.3498 7.9983V7.8503H75.2023L75.2019 7.99788L75.3498 7.9983ZM76.9365 7.9983H77.0845V7.8503H76.9365V7.9983ZM76.9365 15.179L77.0845 15.1812V15.179H76.9365ZM71.8307 20.0554C69.1241 20.0554 66.892 17.8618 66.8525 15.1768L66.5566 15.1812C66.5985 18.0292 68.9636 20.3514 71.8307 20.3514V20.0554ZM66.8525 15.179V7.9983H66.5566V15.179H66.8525ZM66.7046 8.14629H68.2912V7.8503H66.7046V8.14629ZM68.1432 7.99872L68.1636 15.1794L68.4596 15.1786L68.4392 7.99788L68.1432 7.99872ZM68.1636 15.1838C68.2272 17.1328 69.8161 18.7444 71.8307 18.7444V18.4484C69.9803 18.4484 68.518 16.968 68.4595 15.1742L68.1636 15.1838ZM71.8307 18.7444C73.8255 18.7444 75.4139 17.1323 75.4774 15.1838L75.1816 15.1742C75.1231 16.9686 73.6602 18.4484 71.8307 18.4484V18.7444ZM75.4775 15.1794L75.4978 7.99872L75.2019 7.99788L75.1815 15.1786L75.4775 15.1794ZM75.3498 8.14629H76.9365V7.8503H75.3498V8.14629ZM76.7885 7.9983V15.179H77.0845V7.9983H76.7885ZM76.7885 15.1768C76.749 17.8622 74.5166 20.0554 71.8307 20.0554V20.3514C74.6778 20.3514 77.0426 18.0288 77.0845 15.1812L76.7885 15.1768ZM88.7192 20V20.148H88.8672V20H88.7192ZM87.0919 20H86.9439V20.148H87.0919V20ZM87.0919 18.8405H87.2399L87.2399 18.8386L87.0919 18.8405ZM84.5695 16.3385L84.5714 16.1905H84.5695V16.3385ZM82.9421 16.3385L82.9408 16.4865H82.9421V16.3385ZM82.9421 7.9983V7.8503L82.9408 7.85031L82.9421 7.9983ZM87.2343 7.9983H87.3823V7.8503H87.2343V7.9983ZM87.2343 9.62565V9.77364H87.3823V9.62565H87.2343ZM82.9421 9.62565V9.47763L82.9399 9.47767L82.9421 9.62565ZM82.9421 14.6908L82.9399 14.8388H82.9421V14.6908ZM84.5695 14.6908L84.5706 14.5428H84.5695V14.6908ZM88.5712 18.8405V20H88.8672V18.8405H88.5712ZM88.7192 19.852H87.0919V20.148H88.7192V19.852ZM87.2399 20V18.8405H86.9439V20H87.2399ZM87.2399 18.8386C87.2293 18.0377 86.9915 17.3766 86.5306 16.913C86.0696 16.4492 85.4032 16.201 84.5714 16.1905L84.5676 16.4864C85.3428 16.4963 85.9274 16.7261 86.3207 17.1217C86.7142 17.5175 86.9341 18.0974 86.9439 18.8425L87.2399 18.8386ZM84.5695 16.1905H82.9421V16.4865H84.5695V16.1905ZM82.9434 16.1905C80.7054 16.1708 78.9404 14.3855 78.9404 12.1684H78.6444C78.6444 14.5485 80.5409 16.4654 82.9408 16.4865L82.9434 16.1905ZM78.9404 12.1684C78.9404 9.95125 80.7054 8.16592 82.9434 8.14629L82.9408 7.85031C80.5409 7.87136 78.6444 9.78824 78.6444 12.1684H78.9404ZM82.9421 8.14629H87.2343V7.8503H82.9421V8.14629ZM87.0863 7.9983V9.62565H87.3823V7.9983H87.0863ZM87.2343 9.47765H82.9421V9.77364H87.2343V9.47765ZM82.9399 9.47767C81.5194 9.49919 80.2921 10.6607 80.2921 12.1684H80.5881C80.5881 10.8282 81.6798 9.79278 82.9444 9.77362L82.9399 9.47767ZM80.2921 12.1684C80.2921 13.6565 81.5201 14.8172 82.9399 14.8387L82.9444 14.5428C81.679 14.5236 80.5881 13.4875 80.5881 12.1684H80.2921ZM82.9421 14.8388H84.5695V14.5428H82.9421V14.8388ZM84.5684 14.8388C85.9483 14.8488 86.9418 15.2083 87.5914 15.87C88.2414 16.532 88.5712 17.5208 88.5712 18.8405H88.8672C88.8672 17.4751 88.5258 16.3992 87.8026 15.6627C87.0792 14.9259 85.9979 14.5531 84.5706 14.5428L84.5684 14.8388ZM95.7497 18.5557H95.8977V18.4077H95.7497V18.5557ZM95.7497 20.2034V20.3514H95.8977V20.2034H95.7497ZM94.814 20.2034L94.8127 20.3514H94.814V20.2034ZM90.6846 9.6053H90.8326V9.45731H90.6846V9.6053ZM90.176 9.6053H90.0281V9.7533H90.176V9.6053ZM90.176 7.9983V7.8503H90.0281V7.9983H90.176ZM90.6846 7.9983V8.14629H90.8326V7.9983H90.6846ZM90.6846 5.76069V5.6127H90.5366V5.76069H90.6846ZM92.2916 5.76069H92.4396V5.6127H92.2916V5.76069ZM92.2916 7.9983H92.1436V8.14629H92.2916V7.9983ZM94.6919 7.9983H94.8399V7.8503H94.6919V7.9983ZM94.6919 9.6053V9.7533H94.8399V9.6053H94.6919ZM92.2916 9.6053V9.45731H92.1436V9.6053H92.2916ZM94.814 18.5557L94.8118 18.7037H94.814V18.5557ZM95.6017 18.5557V20.2034H95.8977V18.5557H95.6017ZM95.7497 20.0554H94.814V20.3514H95.7497V20.0554ZM94.8153 20.0554C92.5777 20.0358 90.8326 18.2509 90.8326 16.0537H90.5366C90.5366 18.413 92.4123 20.3304 94.8127 20.3514L94.8153 20.0554ZM90.8326 16.0537V9.6053H90.5366V16.0537H90.8326ZM90.6846 9.45731H90.176V9.7533H90.6846V9.45731ZM90.324 9.6053V7.9983H90.0281V9.6053H90.324ZM90.176 8.14629H90.6846V7.8503H90.176V8.14629ZM90.8326 7.9983V5.76069H90.5366V7.9983H90.8326ZM90.6846 5.90869H92.2916V5.6127H90.6846V5.90869ZM92.1436 5.76069V7.9983H92.4396V5.76069H92.1436ZM92.2916 8.14629H94.6919V7.8503H92.2916V8.14629ZM94.5439 7.9983V9.6053H94.8399V7.9983H94.5439ZM94.6919 9.45731H92.2916V9.7533H94.6919V9.45731ZM92.1436 9.6053V16.0537H92.4396V9.6053H92.1436ZM92.1436 16.0537C92.1436 17.5448 93.3952 18.6822 94.8118 18.7037L94.8162 18.4077C93.5477 18.3885 92.4396 17.3697 92.4396 16.0537H92.1436ZM94.814 18.7037H95.7497V18.4077H94.814V18.7037ZM106.967 7.9983H107.115V7.8503H106.967V7.9983ZM106.967 23.0513V23.1993H107.115V23.0513H106.967ZM105.36 23.0513H105.212V23.1993H105.36V23.0513ZM105.36 18.8202H105.508V18.4796L105.259 18.712L105.36 18.8202ZM96.7552 15.179H96.6072L96.6072 15.1812L96.7552 15.179ZM96.7552 7.9983V7.8503H96.6072V7.9983H96.7552ZM98.3419 7.9983L98.4899 7.99788L98.4895 7.8503H98.3419V7.9983ZM98.3622 15.179L98.2142 15.1794L98.2143 15.1822L98.3622 15.179ZM105.36 7.9983V7.8503H105.212V7.9983H105.36ZM106.819 7.9983V23.0513H107.115V7.9983H106.819ZM106.967 22.9033H105.36V23.1993H106.967V22.9033ZM105.508 23.0513V18.8202H105.212V23.0513H105.508ZM105.259 18.712C104.37 19.5419 103.164 20.0554 101.861 20.0554V20.3514C103.243 20.3514 104.519 19.8071 105.461 18.9284L105.259 18.712ZM101.861 20.0554C99.1552 20.0554 96.9427 17.8625 96.9032 15.1768L96.6072 15.1812C96.6491 18.0284 98.9932 20.3514 101.861 20.3514V20.0554ZM96.9032 15.179V7.9983H96.6072V15.179H96.9032ZM96.7552 8.14629H98.3419V7.8503H96.7552V8.14629ZM98.1939 7.99872L98.2142 15.1794L98.5102 15.1786L98.4899 7.99788L98.1939 7.99872ZM98.2143 15.1822C98.2567 17.1334 99.8676 18.7444 101.861 18.7444V18.4484C100.03 18.4484 98.5491 16.9675 98.5102 15.1758L98.2143 15.1822ZM101.861 18.7444C103.851 18.7444 105.508 17.1355 105.508 15.179H105.212C105.212 16.9653 103.695 18.4484 101.861 18.4484V18.7444ZM105.508 15.179V7.9983H105.212V15.179H105.508ZM105.36 8.14629H106.967V7.8503H105.36V8.14629Z" fill="white"/>
<path d="M51.3367 34.6732V40.5927H49.6686V26.3533H59.3514V27.8993H51.3367V33.1272L57.6223 31.4592L58.0088 32.9034L51.3367 34.6732ZM66.9409 40.7961C63.5235 40.7961 60.757 38.0296 60.757 34.5715C60.757 31.154 63.5235 28.3875 66.9409 28.3875C69.8905 28.3875 71.823 30.5438 72.3722 32.5373L63.5438 37.6431C64.3982 38.5788 65.5984 39.1687 66.9409 39.1891C68.2835 39.2297 69.504 38.6805 70.3991 37.7448L71.5789 38.8026C70.338 40.2672 68.3852 40.7961 66.9409 40.7961ZM62.7098 36.3209L70.4804 31.9067C69.7481 30.8082 68.5683 29.9945 66.9409 29.9945C64.4185 29.9945 62.364 32.0491 62.364 34.5715C62.364 35.1817 62.4861 35.7716 62.7098 36.3209ZM80.1711 40.7961C76.7537 40.7961 73.9872 38.0296 73.9872 34.5715C73.9872 31.154 76.7537 28.3875 80.1711 28.3875C83.1207 28.3875 85.0532 30.5438 85.6024 32.5373L76.774 37.6431C77.6284 38.5788 78.8285 39.1687 80.1711 39.1891C81.5137 39.2297 82.7342 38.6805 83.6292 37.7448L84.809 38.8026C83.5682 40.2672 81.6154 40.7961 80.1711 40.7961ZM75.94 36.3209L83.7106 31.9067C82.9783 30.8082 81.7985 29.9945 80.1711 29.9945C77.6487 29.9945 75.5942 32.0491 75.5942 34.5715C75.5942 35.1817 75.7162 35.7716 75.94 36.3209ZM93.4419 40.7961C89.9635 40.7961 87.2173 38.0499 87.2173 34.5511C87.2173 31.1337 89.9635 28.3875 93.4419 28.3875C95.2524 28.3875 96.8797 29.1605 97.9985 30.381V26.3533H99.6055V38.9246H97.9985V38.7822C96.8797 40.0231 95.2524 40.7961 93.4419 40.7961ZM93.4419 39.1687C95.9643 39.1687 97.9985 37.1345 97.9985 34.5511C97.9985 32.0491 95.944 29.9945 93.4419 29.9945C90.8992 29.9945 88.8447 32.0491 88.8447 34.5511C88.8447 37.1142 90.8992 39.1687 93.4419 39.1687ZM108.353 40.7961C106.542 40.7961 104.915 40.0231 103.796 38.7822V38.9246H102.189V26.3533H103.796V30.381C104.915 29.1605 106.542 28.3875 108.353 28.3875C111.831 28.3875 114.577 31.1337 114.577 34.5511C114.577 38.0499 111.831 40.7961 108.353 40.7961ZM108.353 39.1687C110.895 39.1687 112.95 37.1142 112.95 34.5511C112.95 32.0491 110.895 29.9945 108.353 29.9945C105.851 29.9945 103.796 32.0491 103.796 34.5511C103.796 37.1345 105.83 39.1687 108.353 39.1687ZM122.425 40.7961C118.947 40.7961 116.201 38.0499 116.201 34.5511C116.201 31.1337 118.947 28.3875 122.425 28.3875C125.843 28.3875 128.589 31.1337 128.589 34.5511V38.9246H126.982V38.7822C125.863 40.0231 124.236 40.7961 122.425 40.7961ZM122.425 39.1687C124.948 39.1687 126.982 37.1345 126.982 34.5511C126.982 32.0491 124.927 29.9945 122.425 29.9945C119.882 29.9945 117.828 32.0491 117.828 34.5511C117.828 37.1142 119.882 39.1687 122.425 39.1687ZM136.429 40.7961C132.991 40.7961 130.204 38.0296 130.204 34.5715C130.204 31.154 132.991 28.3875 136.429 28.3875C138.28 28.3875 139.969 29.2419 141.087 30.5438L140.192 31.9677C139.358 30.7675 137.995 29.9945 136.429 29.9945C133.907 29.9945 131.811 32.0491 131.811 34.5715C131.811 37.0938 133.907 39.1891 136.429 39.1891C137.873 39.1891 139.196 38.4771 140.009 37.399L141.169 38.5585C140.03 39.9417 138.321 40.7961 136.429 40.7961ZM145.197 33.9205V40.5927H143.61V25.7431H145.197V31.6219L148.024 28.5909H150.079L146.377 32.6186L151.808 40.5927H149.998L145.258 33.8392L145.197 33.9205Z" fill="white"/>
<path d="M51.3367 34.6732L51.2987 34.5301L51.1887 34.5593V34.6732H51.3367ZM51.3367 40.5927V40.7406H51.4847V40.5927H51.3367ZM49.6686 40.5927H49.5206V40.7406H49.6686V40.5927ZM49.6686 26.3533V26.2053H49.5206V26.3533H49.6686ZM59.3514 26.3533H59.4994V26.2053H59.3514V26.3533ZM59.3514 27.8993V28.0473H59.4994V27.8993H59.3514ZM51.3367 27.8993V27.7513H51.1887V27.8993H51.3367ZM51.3367 33.1272H51.1887V33.3196L51.3746 33.2702L51.3367 33.1272ZM57.6223 31.4592L57.7653 31.4209L57.7271 31.2782L57.5843 31.3161L57.6223 31.4592ZM58.0088 32.9034L58.0467 33.0465L58.1901 33.0084L58.1518 32.8652L58.0088 32.9034ZM51.1887 34.6732V40.5927H51.4847V34.6732H51.1887ZM51.3367 40.4447H49.6686V40.7406H51.3367V40.4447ZM49.8166 40.5927V26.3533H49.5206V40.5927H49.8166ZM49.6686 26.5013H59.3514V26.2053H49.6686V26.5013ZM59.2034 26.3533V27.8993H59.4994V26.3533H59.2034ZM59.3514 27.7513H51.3367V28.0473H59.3514V27.7513ZM51.1887 27.8993V33.1272H51.4847V27.8993H51.1887ZM51.3746 33.2702L57.6603 31.6022L57.5843 31.3161L51.2987 32.9841L51.3746 33.2702ZM57.4793 31.4974L57.8658 32.9417L58.1518 32.8652L57.7653 31.4209L57.4793 31.4974ZM57.9709 32.7604L51.2987 34.5301L51.3746 34.8162L58.0467 33.0465L57.9709 32.7604ZM72.3722 32.5373L72.4463 32.6654L72.5453 32.6082L72.5149 32.498L72.3722 32.5373ZM63.5438 37.6431L63.4698 37.515L63.3105 37.607L63.4346 37.7429L63.5438 37.6431ZM66.9409 39.1891L66.9454 39.0411L66.9432 39.0411L66.9409 39.1891ZM70.3991 37.7448L70.4979 37.6346L70.3912 37.5389L70.2921 37.6425L70.3991 37.7448ZM71.5789 38.8026L71.6918 38.8982L71.7848 38.7884L71.6777 38.6924L71.5789 38.8026ZM62.7098 36.3209L62.5728 36.3767L62.6364 36.5328L62.7829 36.4495L62.7098 36.3209ZM70.4804 31.9067L70.5535 32.0354L70.6917 31.9568L70.6036 31.8246L70.4804 31.9067ZM66.9409 40.6481C63.6059 40.6481 60.905 37.9485 60.905 34.5715H60.609C60.609 38.1107 63.4411 40.9441 66.9409 40.9441V40.6481ZM60.905 34.5715C60.905 31.2358 63.6052 28.5355 66.9409 28.5355V28.2395C63.4418 28.2395 60.609 31.0723 60.609 34.5715H60.905ZM66.9409 28.5355C69.8103 28.5355 71.6941 30.6331 72.2295 32.5766L72.5149 32.498C71.9519 30.4544 69.9708 28.2395 66.9409 28.2395V28.5355ZM72.2981 32.4092L63.4698 37.515L63.6179 37.7712L72.4463 32.6654L72.2981 32.4092ZM63.4346 37.7429C64.3147 38.7068 65.5528 39.316 66.9387 39.337L66.9432 39.0411C65.644 39.0214 64.4817 38.4508 63.6531 37.5433L63.4346 37.7429ZM66.9365 39.337C68.324 39.379 69.5841 38.8109 70.506 37.8471L70.2921 37.6425C69.4239 38.5501 68.2431 39.0805 66.9454 39.0411L66.9365 39.337ZM70.3003 37.855L71.4801 38.9128L71.6777 38.6924L70.4979 37.6346L70.3003 37.855ZM71.466 38.7069C70.2621 40.1278 68.3577 40.6481 66.9409 40.6481V40.9441C68.4127 40.9441 70.4139 40.4065 71.6918 38.8982L71.466 38.7069ZM62.7829 36.4495L70.5535 32.0354L70.4073 31.778L62.6367 36.1922L62.7829 36.4495ZM70.6036 31.8246C69.848 30.6912 68.6248 29.8465 66.9409 29.8465V30.1425C68.5118 30.1425 69.6483 30.9253 70.3573 31.9888L70.6036 31.8246ZM66.9409 29.8465C64.3368 29.8465 62.216 31.9673 62.216 34.5715H62.512C62.512 32.1308 64.5003 30.1425 66.9409 30.1425V29.8465ZM62.216 34.5715C62.216 35.2016 62.3421 35.8105 62.5728 36.3767L62.8469 36.265C62.63 35.7328 62.512 35.1618 62.512 34.5715H62.216ZM85.6024 32.5373L85.6765 32.6654L85.7754 32.6082L85.7451 32.498L85.6024 32.5373ZM76.774 37.6431L76.6999 37.515L76.5407 37.607L76.6647 37.7429L76.774 37.6431ZM80.1711 39.1891L80.1756 39.0411L80.1733 39.0411L80.1711 39.1891ZM83.6292 37.7448L83.728 37.6346L83.6213 37.5389L83.5223 37.6425L83.6292 37.7448ZM84.8091 38.8026L84.922 38.8982L85.015 38.7884L84.9078 38.6924L84.8091 38.8026ZM75.94 36.3209L75.8029 36.3767L75.8665 36.5328L76.0131 36.4495L75.94 36.3209ZM83.7106 31.9067L83.7837 32.0354L83.9219 31.9568L83.8337 31.8246L83.7106 31.9067ZM80.1711 40.6481C76.836 40.6481 74.1352 37.9485 74.1352 34.5715H73.8392C73.8392 38.1107 76.6713 40.9441 80.1711 40.9441V40.6481ZM74.1352 34.5715C74.1352 31.2358 76.8354 28.5355 80.1711 28.5355V28.2395C76.6719 28.2395 73.8392 31.0723 73.8392 34.5715H74.1352ZM80.1711 28.5355C83.0404 28.5355 84.9243 30.6331 85.4597 32.5766L85.7451 32.498C85.182 30.4544 83.2009 28.2395 80.1711 28.2395V28.5355ZM85.5283 32.4092L76.6999 37.515L76.8481 37.7712L85.6765 32.6654L85.5283 32.4092ZM76.6647 37.7429C77.5448 38.7068 78.783 39.316 80.1689 39.337L80.1733 39.0411C78.8741 39.0214 77.7119 38.4508 76.8833 37.5433L76.6647 37.7429ZM80.1666 39.337C81.5541 39.379 82.8143 38.8109 83.7362 37.8471L83.5223 37.6425C82.6541 38.5501 81.4732 39.0805 80.1756 39.0411L80.1666 39.337ZM83.5304 37.855L84.7103 38.9128L84.9078 38.6924L83.728 37.6346L83.5304 37.855ZM84.6961 38.7069C83.4923 40.1278 81.5878 40.6481 80.1711 40.6481V40.9441C81.6429 40.9441 83.6441 40.4065 84.922 38.8982L84.6961 38.7069ZM76.0131 36.4495L83.7837 32.0354L83.6375 31.778L75.8669 36.1922L76.0131 36.4495ZM83.8337 31.8246C83.0781 30.6912 81.855 29.8465 80.1711 29.8465V30.1425C81.7419 30.1425 82.8784 30.9253 83.5874 31.9888L83.8337 31.8246ZM80.1711 29.8465C77.567 29.8465 75.4462 31.9673 75.4462 34.5715H75.7422C75.7422 32.1308 77.7304 30.1425 80.1711 30.1425V29.8465ZM75.4462 34.5715C75.4462 35.2016 75.5723 35.8105 75.8029 36.3767L76.0771 36.265C75.8602 35.7328 75.7422 35.1618 75.7422 34.5715H75.4462ZM97.9985 30.381L97.8894 30.481L98.1465 30.7615V30.381H97.9985ZM97.9985 26.3533V26.2053H97.8505V26.3533H97.9985ZM99.6055 26.3533H99.7535V26.2053H99.6055V26.3533ZM99.6055 38.9246V39.0726H99.7535V38.9246H99.6055ZM97.9985 38.9246H97.8505V39.0726H97.9985V38.9246ZM97.9985 38.7822H98.1465V38.3971L97.8886 38.6831L97.9985 38.7822ZM93.4419 40.6481C90.0455 40.6481 87.3653 37.9685 87.3653 34.5511H87.0693C87.0693 38.1313 89.8814 40.9441 93.4419 40.9441V40.6481ZM87.3653 34.5511C87.3653 31.2164 90.0443 28.5355 93.4419 28.5355V28.2395C89.8827 28.2395 87.0693 31.051 87.0693 34.5511H87.3653ZM93.4419 28.5355C95.2096 28.5355 96.7977 29.2901 97.8894 30.481L98.1076 30.281C96.9617 29.0309 95.2952 28.2395 93.4419 28.2395V28.5355ZM98.1465 30.381V26.3533H97.8505V30.381H98.1465ZM97.9985 26.5013H99.6055V26.2053H97.9985V26.5013ZM99.4575 26.3533V38.9246H99.7535V26.3533H99.4575ZM99.6055 38.7766H97.9985V39.0726H99.6055V38.7766ZM98.1465 38.9246V38.7822H97.8505V38.9246H98.1465ZM97.8886 38.6831C96.7972 39.8936 95.2094 40.6481 93.4419 40.6481V40.9441C95.2953 40.9441 96.9623 40.1525 98.1084 38.8813L97.8886 38.6831ZM93.4419 39.3167C96.0474 39.3167 98.1465 37.215 98.1465 34.5511H97.8505C97.8505 37.0541 95.8813 39.0207 93.4419 39.0207V39.3167ZM98.1465 34.5511C98.1465 31.9673 96.0257 29.8465 93.4419 29.8465V30.1425C95.8623 30.1425 97.8505 32.1308 97.8505 34.5511H98.1465ZM93.4419 29.8465C90.8183 29.8465 88.6967 31.9665 88.6967 34.5511H88.9927C88.9927 32.1317 90.9801 30.1425 93.4419 30.1425V29.8465ZM88.6967 34.5511C88.6967 37.1955 90.8171 39.3167 93.4419 39.3167V39.0207C90.9814 39.0207 88.9927 37.0329 88.9927 34.5511H88.6967ZM103.796 38.7822L103.906 38.6831L103.648 38.3971V38.7822H103.796ZM103.796 38.9246V39.0726H103.944V38.9246H103.796ZM102.189 38.9246H102.041V39.0726H102.189V38.9246ZM102.189 26.3533V26.2053H102.041V26.3533H102.189ZM103.796 26.3533H103.944V26.2053H103.796V26.3533ZM103.796 30.381H103.648V30.7615L103.905 30.481L103.796 30.381ZM108.353 40.6481C106.585 40.6481 104.997 39.8936 103.906 38.6831L103.686 38.8813C104.832 40.1525 106.499 40.9441 108.353 40.9441V40.6481ZM103.648 38.7822V38.9246H103.944V38.7822H103.648ZM103.796 38.7766H102.189V39.0726H103.796V38.7766ZM102.337 38.9246V26.3533H102.041V38.9246H102.337ZM102.189 26.5013H103.796V26.2053H102.189V26.5013ZM103.648 26.3533V30.381H103.944V26.3533H103.648ZM103.905 30.481C104.997 29.2901 106.585 28.5355 108.353 28.5355V28.2395C106.499 28.2395 104.833 29.0309 103.687 30.281L103.905 30.481ZM108.353 28.5355C111.75 28.5355 114.429 31.2164 114.429 34.5511H114.725C114.725 31.051 111.912 28.2395 108.353 28.2395V28.5355ZM114.429 34.5511C114.429 37.9685 111.749 40.6481 108.353 40.6481V40.9441C111.913 40.9441 114.725 38.1313 114.725 34.5511H114.429ZM108.353 39.3167C110.978 39.3167 113.098 37.1955 113.098 34.5511H112.802C112.802 37.0329 110.813 39.0207 108.353 39.0207V39.3167ZM113.098 34.5511C113.098 31.9665 110.976 29.8465 108.353 29.8465V30.1425C110.815 30.1425 112.802 32.1317 112.802 34.5511H113.098ZM108.353 29.8465C105.769 29.8465 103.648 31.9673 103.648 34.5511H103.944C103.944 32.1308 105.932 30.1425 108.353 30.1425V29.8465ZM103.648 34.5511C103.648 37.215 105.747 39.3167 108.353 39.3167V39.0207C105.913 39.0207 103.944 37.0541 103.944 34.5511H103.648ZM128.589 38.9246V39.0726H128.737V38.9246H128.589ZM126.982 38.9246H126.834V39.0726H126.982V38.9246ZM126.982 38.7822H127.13V38.3971L126.872 38.6831L126.982 38.7822ZM122.425 40.6481C119.029 40.6481 116.349 37.9685 116.349 34.5511H116.053C116.053 38.1313 118.865 40.9441 122.425 40.9441V40.6481ZM116.349 34.5511C116.349 31.2164 119.027 28.5355 122.425 28.5355V28.2395C118.866 28.2395 116.053 31.051 116.053 34.5511H116.349ZM122.425 28.5355C125.761 28.5355 128.441 31.2154 128.441 34.5511H128.737C128.737 31.0519 125.924 28.2395 122.425 28.2395V28.5355ZM128.441 34.5511V38.9246H128.737V34.5511H128.441ZM128.589 38.7766H126.982V39.0726H128.589V38.7766ZM127.13 38.9246V38.7822H126.834V38.9246H127.13ZM126.872 38.6831C125.78 39.8936 124.193 40.6481 122.425 40.6481V40.9441C124.279 40.9441 125.945 40.1525 127.092 38.8813L126.872 38.6831ZM122.425 39.3167C125.031 39.3167 127.13 37.215 127.13 34.5511H126.834C126.834 37.0541 124.865 39.0207 122.425 39.0207V39.3167ZM127.13 34.5511C127.13 31.9673 125.009 29.8465 122.425 29.8465V30.1425C124.845 30.1425 126.834 32.1308 126.834 34.5511H127.13ZM122.425 29.8465C119.802 29.8465 117.68 31.9665 117.68 34.5511H117.976C117.976 32.1317 119.963 30.1425 122.425 30.1425V29.8465ZM117.68 34.5511C117.68 37.1955 119.8 39.3167 122.425 39.3167V39.0207C119.965 39.0207 117.976 37.0329 117.976 34.5511H117.68ZM141.087 30.5438L141.213 30.6225L141.271 30.5301L141.2 30.4473L141.087 30.5438ZM140.192 31.9677L140.071 32.0522L140.199 32.2359L140.318 32.0465L140.192 31.9677ZM140.009 37.399L140.114 37.2943L139.994 37.174L139.891 37.3098L140.009 37.399ZM141.169 38.5585L141.283 38.6525L141.368 38.5488L141.273 38.4538L141.169 38.5585ZM136.429 40.6481C133.073 40.6481 130.352 37.9475 130.352 34.5715H130.056C130.056 38.1116 132.91 40.9441 136.429 40.9441V40.6481ZM130.352 34.5715C130.352 31.2367 133.072 28.5355 136.429 28.5355V28.2395C132.911 28.2395 130.056 31.0713 130.056 34.5715H130.352ZM136.429 28.5355C138.234 28.5355 139.883 29.369 140.975 30.6402L141.2 30.4473C140.054 29.1148 138.326 28.2395 136.429 28.2395V28.5355ZM140.962 30.465L140.067 31.8889L140.318 32.0465L141.213 30.6225L140.962 30.465ZM140.314 31.8832C139.453 30.6451 138.046 29.8465 136.429 29.8465V30.1425C137.945 30.1425 139.263 30.8899 140.071 32.0522L140.314 31.8832ZM136.429 29.8465C133.827 29.8465 131.663 31.9656 131.663 34.5715H131.959C131.959 32.1325 133.987 30.1425 136.429 30.1425V29.8465ZM131.663 34.5715C131.663 37.1756 133.825 39.3371 136.429 39.3371V39.0411C133.988 39.0411 131.959 37.0121 131.959 34.5715H131.663ZM136.429 39.3371C137.922 39.3371 139.287 38.6016 140.127 37.4881L139.891 37.3098C139.104 38.3526 137.825 39.0411 136.429 39.0411V39.3371ZM139.905 37.5036L141.064 38.6631L141.273 38.4538L140.114 37.2943L139.905 37.5036ZM141.054 38.4644C139.943 39.8145 138.275 40.6481 136.429 40.6481V40.9441C138.366 40.9441 140.117 40.0689 141.283 38.6525L141.054 38.4644ZM145.197 33.9205L145.079 33.8317L145.049 33.8712V33.9205H145.197ZM145.197 40.5927V40.7406H145.345V40.5927H145.197ZM143.61 40.5927H143.462V40.7406H143.61V40.5927ZM143.61 25.7431V25.5951H143.462V25.7431H143.61ZM145.197 25.7431H145.345V25.5951H145.197V25.7431ZM145.197 31.6219H145.049V31.9975L145.305 31.7228L145.197 31.6219ZM148.024 28.5909V28.443H147.96L147.916 28.49L148.024 28.5909ZM150.079 28.5909L150.188 28.6911L150.416 28.443H150.079V28.5909ZM146.377 32.6186L146.268 32.5185L146.188 32.6049L146.254 32.702L146.377 32.6186ZM151.808 40.5927V40.7406H152.088L151.93 40.5093L151.808 40.5927ZM149.998 40.5927L149.876 40.6777L149.921 40.7406H149.998V40.5927ZM145.258 33.8392L145.379 33.7541L145.262 33.5872L145.14 33.7504L145.258 33.8392ZM145.049 33.9205V40.5927H145.345V33.9205H145.049ZM145.197 40.4447H143.61V40.7406H145.197V40.4447ZM143.758 40.5927V25.7431H143.462V40.5927H143.758ZM143.61 25.8911H145.197V25.5951H143.61V25.8911ZM145.049 25.7431V31.6219H145.345V25.7431H145.049ZM145.305 31.7228L148.133 28.6919L147.916 28.49L145.089 31.5209L145.305 31.7228ZM148.024 28.7389H150.079V28.443H148.024V28.7389ZM149.97 28.4908L146.268 32.5185L146.486 32.7188L150.188 28.6911L149.97 28.4908ZM146.254 32.702L151.686 40.676L151.93 40.5093L146.499 32.5353L146.254 32.702ZM151.808 40.4447H149.998V40.7406H151.808V40.4447ZM150.119 40.5076L145.379 33.7541L145.137 33.9242L149.876 40.6777L150.119 40.5076ZM145.14 33.7504L145.079 33.8317L145.315 34.0093L145.376 33.9279L145.14 33.7504Z" fill="white"/>
</svg>
