<svg width="186" height="65" viewBox="0 0 186 65" fill="none" xmlns="http://www.w3.org/2000/svg">
<g clip-path="url(#clip0_2191_8075)">
<path d="M27.3311 25.035C27.2785 25.035 27.2244 25.035 27.1719 25.0381V25.035L35.58 0.515625L43.1904 25.035H27.3311Z" fill="white"/>
<path d="M20.8511 31.3237H29.185V53.8737L13.7153 64.5141L21.9193 40.1879L0.919922 24.6207L26.9899 25.035L27.163 25.0381C25.8274 25.0706 24.5937 25.4942 23.575 26.196C22.9211 26.6489 22.3568 27.2178 21.9147 27.8702C21.2407 28.8611 20.8496 30.0484 20.8496 31.3237H20.8511Z" fill="white"/>
<path d="M48.0694 40.9053L49.2366 44.7298H41.7653V46.7241C41.7653 46.8956 41.7622 47.0657 41.756 47.2342C41.7251 48.0489 41.6215 48.8404 41.453 49.5917C41.1067 51.1376 40.4884 52.5289 39.6737 53.6666L35.4766 50.5254V31.3239H41.7653V38.4411H51.5461L48.0694 40.9053Z" fill="white"/>
<path d="M54.4065 25.5715C54.0865 28.7931 50.9082 31.3238 47.0326 31.3238H43.1973V25.0505L43.3055 25.3953L54.4065 25.5715Z" fill="white"/>
<path d="M41.7633 31.3239V46.7241C41.7633 46.8956 41.7602 47.0657 41.754 47.2342C41.7231 48.0489 41.6195 48.8404 41.451 49.5917C41.1048 51.1376 40.4864 52.5289 39.6717 53.6666C39.2837 54.2077 38.8508 54.6916 38.3824 55.1074C38.2232 55.2497 38.0609 55.381 37.8939 55.5063C37.155 56.0597 36.3403 56.4539 35.4746 56.6533V31.3239H41.7633Z" fill="white"/>
<path d="M54.4332 25.0349C54.4332 25.2158 54.4239 25.3951 54.4053 25.5713C54.0853 28.793 50.907 31.3236 47.0314 31.3236H43.196V25.0504L43.1914 25.0349H54.4332Z" fill="white"/>
<path d="M54.4323 38.4409H41.7637V44.7296H54.4323V38.4409Z" fill="white"/>
<path d="M43.1914 25.0349L43.1957 25.0494V25.0349H43.1914Z" fill="white"/>
<path d="M67.1783 33.1233H63.7619V44.7314H61.4848V33.1233H58.0684V31.1724H67.1768V33.1233H67.1783Z" fill="white"/>
<path d="M67.2227 44.7331V36.175H69.4101V36.948C69.693 36.6496 69.9975 36.4131 70.3253 36.2368C70.6824 36.0467 71.1291 35.9524 71.6656 35.9524C72.3056 35.9524 72.8791 36.0884 73.3846 36.359L72.4911 38.1677C72.134 37.9652 71.7614 37.8631 71.3749 37.8631C70.7952 37.8631 70.3407 38.0193 70.013 38.33C69.6111 38.7226 69.4101 39.3812 69.4101 40.3025V44.7346H67.2227V44.7331Z" fill="white"/>
<path d="M73.296 36.1735H75.4835V41.0724C75.4835 41.7912 75.618 42.306 75.8854 42.6167C76.2131 43.0094 76.6893 43.2057 77.3138 43.2057C77.9384 43.2057 78.4145 43.0094 78.7422 42.6167C79.0097 42.3045 79.1442 41.7897 79.1442 41.0724V36.1735H81.3316V41.1342C81.3316 42.3941 80.9962 43.3294 80.3268 43.94C79.5523 44.645 78.5335 44.9974 77.2675 44.9974C76.0014 44.9974 75.0568 44.645 74.2978 43.94C73.6284 43.3294 73.293 42.3957 73.293 41.1342V36.1735H73.296Z" fill="white"/>
<path d="M88.7207 37.4549L87.0914 38.4303C86.7636 37.9418 86.3169 37.6991 85.7511 37.6991C85.4682 37.6991 85.2456 37.7733 85.0817 37.9233C84.9472 38.0454 84.8807 38.1938 84.8807 38.3701C84.8807 38.5726 84.9843 38.7364 85.193 38.8586C85.2378 38.8864 85.2827 38.9096 85.3275 38.9297C85.3723 38.9498 85.4543 38.9869 85.5733 39.041C85.6923 39.0951 85.8114 39.1492 85.9304 39.2033L87.0465 39.7119C87.6711 39.9963 88.1101 40.2607 88.3636 40.5049C88.8243 40.9254 89.0562 41.4541 89.0562 42.091C89.0562 42.85 88.781 43.5009 88.2307 44.0419C87.5907 44.6789 86.7126 44.9973 85.5965 44.9973C84.7632 44.9973 84.0861 44.8149 83.5652 44.4485C82.9994 44.0698 82.5974 43.5473 82.3594 42.8825L84.1449 42.1096C84.2933 42.5022 84.4649 42.7743 84.6581 42.9227C84.8962 43.1391 85.2162 43.2474 85.6181 43.2474C86.0201 43.2474 86.3029 43.153 86.5116 42.9629C86.7203 42.7728 86.8239 42.5501 86.8239 42.292C86.8239 42.0477 86.7265 41.8313 86.5333 41.6412C86.3246 41.451 86.0123 41.2748 85.5949 41.1125L84.7911 40.7662C84.1665 40.4957 83.7337 40.2514 83.4956 40.035C83.0488 39.6423 82.8262 39.1616 82.8262 38.5911C82.8262 37.8723 83.086 37.2632 83.6069 36.7608C84.1727 36.2182 84.9395 35.9476 85.9072 35.9476C86.5766 35.9476 87.1578 36.0976 87.6479 36.3944C88.0947 36.6526 88.4517 37.005 88.7192 37.4518L88.7207 37.4549Z" fill="white"/>
<path d="M93.8354 38.0035H92.1612V44.7328H89.9738V38.0035H89.0586V36.1732H89.9738V33.0427H92.1612V36.1732H93.8354V38.0035Z" fill="white"/>
<path d="M93.9463 49.3878L97.406 43.3912L93.3867 36.1735H96.0209L98.7 41.1744L101.424 36.1735H103.88L96.4012 49.3878H93.9448H93.9463Z" fill="white"/>
<path d="M116.225 31.1723V33.1232H111.045V36.5582H116.046V38.5091H111.045V44.7298H108.768V31.1692H116.225V31.1723Z" fill="white"/>
<path d="M123.438 41.8452L125.268 42.7805C124.851 43.4576 124.322 43.9801 123.684 44.3464C122.954 44.7793 122.031 44.9973 120.915 44.9973C119.606 44.9973 118.548 44.6309 117.744 43.8997C116.822 43.0587 116.359 41.9688 116.359 40.627C116.359 39.2172 116.857 38.0454 117.856 37.1101C118.704 36.3372 119.754 35.9507 121.003 35.9507C122.252 35.9507 123.228 36.3232 124.018 37.0684C124.896 37.8954 125.335 39.1012 125.335 40.6873V40.9315H118.593C118.652 41.6504 118.921 42.2255 119.397 42.6599C119.799 43.0262 120.357 43.2087 121.071 43.2087C121.653 43.2087 122.15 43.0664 122.568 42.782C122.909 42.5377 123.2 42.227 123.438 41.8467V41.8452ZM118.749 39.3037H123.103C123.013 38.8291 122.79 38.4427 122.433 38.1443C122.045 37.8197 121.555 37.6558 120.96 37.6558C120.335 37.6558 119.821 37.8382 119.42 38.2046C119.093 38.4751 118.87 38.8415 118.751 39.3022L118.749 39.3037Z" fill="white"/>
<path d="M133.083 41.8452L134.913 42.7805C134.496 43.4576 133.967 43.9801 133.328 44.3464C132.599 44.7793 131.676 44.9973 130.56 44.9973C129.25 44.9973 128.193 44.6309 127.389 43.8997C126.466 43.0587 126.004 41.9688 126.004 40.627C126.004 39.2172 126.502 38.0454 127.5 37.1101C128.349 36.3372 129.399 35.9507 130.648 35.9507C131.897 35.9507 132.872 36.3232 133.662 37.0684C134.54 37.8954 134.979 39.1012 134.979 40.6873V40.9315H128.238C128.296 41.6504 128.565 42.2255 129.042 42.6599C129.444 43.0262 130.002 43.2087 130.716 43.2087C131.297 43.2087 131.795 43.0664 132.212 42.782C132.554 42.5377 132.844 42.227 133.083 41.8467V41.8452ZM128.394 39.3037H132.747C132.657 38.8291 132.435 38.4427 132.078 38.1443C131.69 37.8197 131.2 37.6558 130.604 37.6558C129.98 37.6558 129.465 37.8382 129.065 38.2046C128.737 38.4751 128.514 38.8415 128.395 39.3022L128.394 39.3037Z" fill="white"/>
<path d="M143.018 37.169V29.911H145.206V44.7315H143.018V43.8364C142.288 44.6094 141.35 44.9958 140.205 44.9958C138.821 44.9958 137.716 44.5491 136.889 43.654C136.063 42.7589 135.65 41.6892 135.65 40.4416C135.65 39.0859 136.093 37.9991 136.978 37.1783C137.864 36.3589 138.946 35.9477 140.226 35.9477C141.401 35.9477 142.332 36.3543 143.017 37.1674L143.018 37.169ZM140.495 37.7394C139.721 37.7394 139.092 38.0038 138.609 38.5325C138.125 39.0612 137.884 39.712 137.884 40.4834C137.884 41.2548 138.125 41.8855 138.609 42.4142C139.093 42.9429 139.722 43.2072 140.495 43.2072C141.268 43.2072 141.868 42.9707 142.381 42.4961C142.894 42.0215 143.151 41.3584 143.151 40.5035C143.151 39.6486 142.894 38.9421 142.381 38.4598C141.868 37.979 141.239 37.7379 140.495 37.7379V37.7394Z" fill="white"/>
<path d="M149.046 29.9125V37.1704C149.731 36.3573 150.661 35.9507 151.836 35.9507C153.116 35.9507 154.198 36.3604 155.084 37.1813C155.97 38.0021 156.412 39.0889 156.412 40.4447C156.412 41.6922 155.999 42.7619 155.172 43.657C154.347 44.5521 153.242 44.9989 151.856 44.9989C150.709 44.9989 149.773 44.6124 149.043 43.8394V44.7345H146.855V29.914H149.043L149.046 29.9125ZM151.569 37.7393C150.824 37.7393 150.196 37.9805 149.683 38.4613C149.17 38.942 148.913 39.6238 148.913 40.505C148.913 41.3861 149.17 42.023 149.683 42.4976C150.196 42.9722 150.825 43.2087 151.569 43.2087C152.312 43.2087 152.971 42.9444 153.455 42.4157C153.939 41.887 154.18 41.2439 154.18 40.4849C154.18 39.7258 153.937 39.0611 153.455 38.5339C152.971 38.0052 152.342 37.7409 151.569 37.7409V37.7393Z" fill="white"/>
<path d="M164.45 37.1689V36.1733H166.637V44.7314H164.45V43.8363C163.72 44.6093 162.783 44.9958 161.636 44.9958C160.253 44.9958 159.147 44.549 158.32 43.6539C157.495 42.7589 157.082 41.6891 157.082 40.4416C157.082 39.0858 157.524 37.999 158.41 37.1782C159.296 36.3589 160.378 35.9476 161.658 35.9476C162.834 35.9476 163.763 36.3542 164.448 37.1673L164.45 37.1689ZM161.927 37.7393C161.152 37.7393 160.523 38.0037 160.041 38.5324C159.557 39.0611 159.316 39.7119 159.316 40.4833C159.316 41.2547 159.557 41.8854 160.041 42.4141C160.525 42.9428 161.154 43.2072 161.927 43.2072C162.7 43.2072 163.3 42.9706 163.813 42.4961C164.326 42.0215 164.583 41.3583 164.583 40.5034C164.583 39.6485 164.326 38.942 163.813 38.4597C163.3 37.9789 162.67 37.7378 161.927 37.7378V37.7393Z" fill="white"/>
<path d="M175.568 36.5598V38.7967C174.78 38.0918 173.894 37.7393 172.911 37.7393C172.077 37.7393 171.385 37.9897 170.835 38.4921C170.298 38.9806 170.031 39.6377 170.031 40.4647C170.031 41.2918 170.314 42.0029 170.879 42.5176C171.416 42.9783 172.077 43.2087 172.866 43.2087C173.953 43.2087 174.852 42.8423 175.568 42.1111V44.3263C174.78 44.7731 173.827 44.9973 172.71 44.9973C171.206 44.9973 170.015 44.5768 169.137 43.7373C168.244 42.8964 167.797 41.8266 167.797 40.525C167.797 39.2234 168.273 38.0794 169.225 37.2106C170.148 36.3696 171.405 35.9507 172.999 35.9507C173.906 35.9507 174.763 36.1532 175.567 36.5598H175.568Z" fill="white"/>
<path d="M176.549 29.9125H178.736V39.041L181.796 36.1749H184.699L180.658 39.732L184.989 44.733H182.221L179.14 41.0738L178.738 41.4402V44.733H176.55V29.9125H176.549Z" fill="white"/>
</g>
<defs>
<clipPath id="clip0_2191_8075">
<rect width="184.271" height="64" fill="white" transform="translate(0.820312 0.515625)"/>
</clipPath>
</defs>
</svg>
