<svg width="29" height="29" viewBox="0 0 29 29" fill="none" xmlns="http://www.w3.org/2000/svg">
<path d="M14.8293 3.97925C10.9983 3.97925 7.88486 7.09267 7.88486 10.9237V14.2686C7.88486 14.9746 7.58394 16.051 7.22514 16.6529L5.89412 18.8635C5.07236 20.2292 5.63949 21.7455 7.14412 22.2547C12.1325 23.9214 17.5145 23.9214 22.5029 22.2547C23.9034 21.7917 24.5168 20.1367 23.7529 18.8635L22.4219 16.6529C22.0747 16.051 21.7738 14.9746 21.7738 14.2686V10.9237C21.7738 7.10425 18.6488 3.97925 14.8293 3.97925Z" stroke="#17253F" stroke-width="1.66667" stroke-miterlimit="10" stroke-linecap="round"/>
<path d="M16.9705 4.31478C16.6117 4.21061 16.2414 4.12959 15.8594 4.0833C14.7483 3.94441 13.6835 4.02543 12.6881 4.31478C13.0238 3.4583 13.8571 2.85645 14.8293 2.85645C15.8015 2.85645 16.6349 3.4583 16.9705 4.31478Z" stroke="#17253F" stroke-width="1.66667" stroke-miterlimit="10" stroke-linecap="round" stroke-linejoin="round"/>
<path d="M18.3017 22.6713C18.3017 24.581 16.7392 26.1435 14.8295 26.1435C13.8804 26.1435 13.0008 25.75 12.3758 25.125C11.7508 24.5 11.3573 23.6203 11.3573 22.6713" stroke="#17253F" stroke-width="1.66667" stroke-miterlimit="10"/>
</svg>
