<svg width="22" height="23" viewBox="0 0 22 23" fill="none" xmlns="http://www.w3.org/2000/svg">
<path d="M21.2205 17.8128C21.2205 18.1728 21.1405 18.5428 20.9705 18.9028C20.8005 19.2628 20.5805 19.6028 20.2905 19.9228C19.8005 20.4628 19.2605 20.8528 18.6505 21.1028C18.0505 21.3528 17.4005 21.4828 16.7005 21.4828C15.6805 21.4828 14.5905 21.2428 13.4405 20.7528C12.2905 20.2628 11.1405 19.6028 10.0005 18.7728C8.85049 17.9328 7.76049 17.0028 6.72049 15.9728C5.69049 14.9328 4.76049 13.8428 3.93049 12.7028C3.11049 11.5628 2.45049 10.4228 1.97049 9.29279C1.49049 8.15279 1.25049 7.06279 1.25049 6.02279C1.25049 5.34279 1.37049 4.69279 1.61049 4.09279C1.85049 3.48279 2.23049 2.92279 2.76049 2.42279C3.40049 1.79279 4.10049 1.48279 4.84049 1.48279C5.12049 1.48279 5.40049 1.54279 5.65049 1.66279C5.91049 1.78279 6.14049 1.96279 6.32049 2.22279L8.64049 5.49279C8.82049 5.74279 8.95049 5.97279 9.04049 6.19279C9.13049 6.40279 9.18049 6.61279 9.18049 6.80279C9.18049 7.04279 9.11049 7.28279 8.97049 7.51279C8.84049 7.74279 8.65049 7.98279 8.41049 8.22279L7.65049 9.01279C7.54049 9.12279 7.49049 9.25279 7.49049 9.41279C7.49049 9.49279 7.50049 9.56279 7.52049 9.64279C7.55049 9.72279 7.58049 9.78279 7.60049 9.84279C7.78049 10.1728 8.09049 10.6028 8.53049 11.1228C8.98049 11.6428 9.46049 12.1728 9.98049 12.7028C10.5205 13.2328 11.0405 13.7228 11.5705 14.1728C12.0905 14.6128 12.5205 14.9128 12.8605 15.0928C12.9105 15.1128 12.9705 15.1428 13.0405 15.1728C13.1205 15.2028 13.2005 15.2128 13.2905 15.2128C13.4605 15.2128 13.5905 15.1528 13.7005 15.0428L14.4605 14.2928C14.7105 14.0428 14.9505 13.8528 15.1805 13.7328C15.4105 13.5928 15.6405 13.5228 15.8905 13.5228C16.0805 13.5228 16.2805 13.5628 16.5005 13.6528C16.7205 13.7428 16.9505 13.8728 17.2005 14.0428L20.5105 16.3928C20.7705 16.5728 20.9505 16.7828 21.0605 17.0328C21.1605 17.2828 21.2205 17.5328 21.2205 17.8128Z" stroke="#292D32" stroke-width="1.5" stroke-miterlimit="10"/>
</svg>
