<svg width="145" height="129" viewBox="0 0 145 129" fill="none" xmlns="http://www.w3.org/2000/svg">
<g clip-path="url(#clip0_536_2687)">
<path fill-rule="evenodd" clip-rule="evenodd" d="M1.46555 99.672C2.05081 99.4886 2.59833 99.2014 3.082 98.8243C3.56353 98.3853 3.88421 97.7977 3.99289 97.1552C4.18771 96.3548 4.26143 95.5019 4.51943 94.7015C4.56615 94.5166 4.677 94.3542 4.83224 94.2433C4.98747 94.1324 5.17702 94.0802 5.36714 94.096C5.50607 94.1 5.64128 94.1418 5.75819 94.217C5.8751 94.2921 5.96928 94.3978 6.03057 94.5225C6.06535 94.5929 6.09185 94.6671 6.10955 94.7437C6.10955 94.8174 6.10955 95.0491 6.15694 95.1438C6.19906 95.3808 6.23592 95.6124 6.27277 95.8494C6.32319 96.5989 6.50127 97.3344 6.7993 98.024C7.28898 99.0033 7.78391 99.6035 8.44734 99.8668C9.23072 100.1 10.0649 100.1 10.8483 99.8668L11.1274 99.8089C11.325 99.7944 11.521 99.8528 11.6785 99.9729C11.836 100.093 11.944 100.267 11.9823 100.461C12.0205 100.655 11.9862 100.857 11.886 101.028C11.7857 101.199 11.6264 101.327 11.438 101.388L11.1748 101.441C9.71258 101.929 8.41105 102.807 7.41008 103.979C7.13102 104.295 6.73085 105.179 6.32016 105.748C6.09016 106.096 5.76477 106.37 5.38294 106.538C5.22482 106.584 5.05665 106.584 4.89853 106.538C4.70484 106.493 4.53433 106.379 4.41938 106.217C4.33741 106.106 4.28161 105.978 4.25616 105.843C4.25616 105.769 4.25616 105.58 4.25616 105.49C4.17192 105.201 4.07188 104.921 3.99816 104.627C3.79949 103.999 3.47725 103.417 3.0504 102.915C2.68254 102.404 2.17399 102.011 1.58665 101.783C1.50767 101.783 0.86004 101.61 0.633632 101.52C0.408665 101.428 0.222623 101.26 0.107101 101.046C0.0280404 100.883 -0.00125615 100.7 0.0228543 100.52C0.0555349 100.314 0.162233 100.126 0.322976 99.9932C0.459855 99.8767 0.625193 99.7985 0.802121 99.7668C0.965346 99.6983 1.40763 99.6772 1.46555 99.672ZM5.24077 98.5399L5.33555 98.7453C6.0569 100.177 6.85722 100.978 7.8313 101.378H7.86816C7.24871 101.831 6.68025 102.35 6.17273 102.926C5.91271 103.279 5.67866 103.65 5.47244 104.037C5.21554 103.293 4.83262 102.598 4.34041 101.983C3.99857 101.489 3.56837 101.063 3.07147 100.725C3.44753 100.536 3.80083 100.304 4.12453 100.035C4.60753 99.6301 4.98969 99.1182 5.24077 98.5399Z" fill="#17253F"/>
<path d="M15.8027 7.20801C17.5475 7.20801 18.9619 5.7936 18.9619 4.04883C18.9619 2.30406 17.5475 0.889648 15.8027 0.889648C14.058 0.889648 12.6436 2.30406 12.6436 4.04883C12.6436 5.7936 14.058 7.20801 15.8027 7.20801Z" fill="#17253F"/>
<path d="M141.644 73.0243C143.388 73.0243 144.803 71.6099 144.803 69.8651C144.803 68.1203 143.388 66.7059 141.644 66.7059C139.899 66.7059 138.484 68.1203 138.484 69.8651C138.484 71.6099 139.899 73.0243 141.644 73.0243Z" fill="#17253F"/>
<path d="M67.9298 120.939C79.8015 120.939 91.4066 117.418 101.278 110.823C111.149 104.227 118.842 94.8526 123.385 83.8845C127.928 72.9165 129.117 60.8476 126.801 49.204C124.485 37.5604 118.768 26.865 110.373 18.4704C101.979 10.0759 91.2836 4.35909 79.6399 2.04303C67.9963 -0.273029 55.9274 0.915657 44.9594 5.45877C33.9913 10.0019 24.6168 17.6954 18.0212 27.5663C11.4256 37.4373 7.90527 49.0424 7.90527 60.9142C7.90527 76.8336 14.2293 92.1011 25.486 103.358C36.7428 114.615 52.0103 120.939 67.9298 120.939Z" fill="#EDFCF7"/>
<path fill-rule="evenodd" clip-rule="evenodd" d="M67.6663 24.5835C70.0094 24.5835 72.2999 23.8887 74.2481 22.587C76.1963 21.2852 77.7147 19.435 78.6114 17.2702C79.5081 15.1055 79.7427 12.7234 79.2856 10.4254C78.8285 8.12728 77.7001 6.01636 76.0433 4.35954C74.3865 2.70272 72.2756 1.57441 69.9775 1.11729C67.6794 0.660174 65.2974 0.894779 63.1326 1.79145C60.9679 2.68811 59.1177 4.20657 57.8159 6.15479C56.5141 8.103 55.8193 10.3935 55.8193 12.7366C55.8193 15.8786 57.0675 18.8919 59.2892 21.1136C61.511 23.3354 64.5243 24.5835 67.6663 24.5835ZM67.403 19.3182C68.6527 19.3182 69.8743 18.9477 70.9133 18.2534C71.9524 17.5591 72.7622 16.5723 73.2404 15.4178C73.7186 14.2633 73.8438 12.9928 73.6 11.7672C73.3562 10.5416 72.7544 9.41573 71.8708 8.53209C70.9871 7.64845 69.8613 7.04669 68.6357 6.80289C67.41 6.5591 66.1396 6.68422 64.9851 7.16245C63.8305 7.64067 62.8438 8.45051 62.1495 9.48956C61.4552 10.5286 61.0846 11.7502 61.0846 12.9999C61.0846 14.6756 61.7503 16.2827 62.9353 17.4676C64.1202 18.6525 65.7273 19.3182 67.403 19.3182Z" fill="#04DA8D"/>
<path d="M67.429 107.828C72.0163 107.828 76.5006 106.468 80.3148 103.919C84.1289 101.371 87.1017 97.7483 88.8572 93.5102C90.6127 89.2721 91.072 84.6086 90.1771 80.1095C89.2821 75.6104 87.0731 71.4776 83.8294 68.234C80.5857 64.9903 76.453 62.7813 71.9539 61.8863C67.4548 60.9914 62.7913 61.4507 58.5532 63.2062C54.3151 64.9617 50.6928 67.9345 48.1442 71.7486C45.5957 75.5628 44.2354 80.0471 44.2354 84.6343C44.2319 87.6812 44.8295 90.6987 45.9938 93.5143C47.1582 96.3298 48.8665 98.8881 51.0209 101.042C53.1753 103.197 55.7336 104.905 58.5491 106.07C61.3647 107.234 64.3822 107.831 67.429 107.828Z" fill="#04DA8D"/>
<path d="M104.138 67.3904V49.5937C103.976 39.9959 100.049 30.8463 93.2036 24.1164C86.3587 17.3866 77.1437 13.6154 67.5446 13.6154C57.9454 13.6154 48.7304 17.3866 41.8855 24.1164C35.0405 30.8463 31.1135 39.9959 30.9507 49.5937V67.3904C30.95 71.4781 29.7934 75.4822 27.6142 78.9406C25.435 82.3989 22.3222 85.1705 18.6351 86.9352C17.7867 87.337 17.0706 87.9727 16.5711 88.7676C16.0757 89.5565 15.8112 90.4686 15.8077 91.4002V91.495C15.8056 91.8347 15.8718 92.1713 16.0025 92.4849C16.1333 92.7986 16.3227 93.0845 16.5606 93.3273C16.8024 93.5639 17.0864 93.7533 17.3978 93.8854C17.7115 94.0156 18.048 94.0818 18.3877 94.0802H116.696C117.034 94.0818 117.369 94.0155 117.681 93.8854C117.996 93.7578 118.283 93.568 118.523 93.3274C118.764 93.0868 118.954 92.8003 119.081 92.4849C119.21 92.1705 119.276 91.8344 119.276 91.495V91.4002C119.277 90.4644 119.012 89.5475 118.513 88.7562C118.013 87.9649 117.299 87.3316 116.454 86.93C112.765 85.163 109.652 82.3888 107.472 78.9276C105.293 75.4664 104.137 71.4594 104.138 67.3694V67.3904Z" fill="#ABE3CE"/>
<path fill-rule="evenodd" clip-rule="evenodd" d="M119.529 94.0856H15.8027V90.9264H119.529V94.0856Z" fill="#04DA8D"/>
<path d="M96.8884 46.6978C99.8042 46.6978 102.655 45.8331 105.079 44.2131C107.504 42.5932 109.393 40.2906 110.509 37.5967C111.625 34.9028 111.917 31.9385 111.348 29.0787C110.779 26.2189 109.375 23.5919 107.313 21.5301C105.251 19.4683 102.624 18.0642 99.7645 17.4953C96.9047 16.9265 93.9404 17.2184 91.2465 18.3343C88.5526 19.4501 86.2501 21.3398 84.6301 23.7642C83.0102 26.1887 82.1455 29.039 82.1455 31.9549C82.1455 35.8649 83.6988 39.6149 86.4636 42.3797C89.2284 45.1445 92.9783 46.6978 96.8884 46.6978Z" fill="#17253F"/>
<path d="M93.203 31.9549C93.1409 30.8545 93.4567 29.7658 94.0981 28.8695C94.8444 28.1473 95.8423 27.7435 96.8808 27.7435C97.9194 27.7435 98.9172 28.1473 99.6635 28.8695C100.318 29.7603 100.64 30.8517 100.574 31.9549C100.635 33.0609 100.313 34.154 99.6635 35.0509C98.9159 35.7707 97.9186 36.1728 96.8808 36.1728C95.8431 36.1728 94.8457 35.7707 94.0981 35.0509C93.4582 34.1499 93.1427 33.0585 93.203 31.9549ZM97.8839 31.9549C97.907 31.4921 97.8409 31.0291 97.689 30.5912C97.607 30.4503 97.4895 30.3333 97.3481 30.252C97.2068 30.1707 97.0465 30.1279 96.8835 30.1279C96.7204 30.1279 96.5601 30.1707 96.4188 30.252C96.2774 30.3333 96.1599 30.4503 96.0779 30.5912C95.926 31.0291 95.8599 31.4921 95.883 31.9549C95.8602 32.4247 95.9263 32.8945 96.0779 33.3397C96.1619 33.4781 96.2802 33.5925 96.4213 33.6719C96.5624 33.7513 96.7215 33.793 96.8835 33.793C97.0454 33.793 97.2045 33.7513 97.3456 33.6719C97.4867 33.5925 97.605 33.4781 97.689 33.3397C97.8406 32.8945 97.9067 32.4247 97.8839 31.9549Z" fill="white"/>
<path fill-rule="evenodd" clip-rule="evenodd" d="M39.0284 102.141C36.5063 104.421 33.9895 106.659 31.5358 109.013C31.4006 109.129 31.2905 109.272 31.2123 109.433C31.134 109.593 31.0892 109.768 31.0806 109.946C31.072 110.124 31.0998 110.303 31.1622 110.47C31.2246 110.637 31.3204 110.79 31.4438 110.919C31.5671 111.048 31.7155 111.151 31.8797 111.221C32.044 111.291 32.2207 111.326 32.3993 111.326C32.5778 111.325 32.7544 111.289 32.9182 111.218C33.0821 111.147 33.2298 111.043 33.3524 110.913C35.7955 108.576 38.286 106.359 40.7922 104.095C40.9251 103.98 41.0338 103.84 41.1118 103.683C41.1899 103.526 41.2357 103.355 41.2467 103.18C41.2576 103.005 41.2335 102.829 41.1757 102.664C41.1178 102.498 41.0275 102.346 40.9099 102.216C40.7923 102.085 40.6499 101.98 40.491 101.906C40.3322 101.831 40.16 101.789 39.9847 101.782C39.8094 101.775 39.6345 101.804 39.4703 101.865C39.3061 101.927 39.1558 102.021 39.0284 102.141Z" fill="#04DA8D"/>
<path fill-rule="evenodd" clip-rule="evenodd" d="M96.0035 102.141C98.515 104.427 101.016 106.659 103.454 109.013C103.58 109.133 103.681 109.276 103.752 109.435C103.823 109.595 103.861 109.766 103.866 109.94C103.87 110.114 103.84 110.287 103.778 110.45C103.715 110.612 103.621 110.761 103.501 110.887C103.381 111.013 103.238 111.115 103.079 111.185C102.919 111.256 102.748 111.295 102.574 111.299C102.4 111.303 102.227 111.274 102.064 111.211C101.902 111.148 101.753 111.055 101.627 110.935C99.1995 108.597 96.7196 106.38 94.2291 104.116C93.97 103.881 93.8148 103.553 93.7975 103.204C93.7802 102.855 93.9023 102.514 94.1369 102.255C94.3715 101.996 94.6994 101.84 95.0485 101.823C95.3975 101.806 95.7392 101.928 95.9982 102.163L96.0035 102.141Z" fill="#04DA8D"/>
<path fill-rule="evenodd" clip-rule="evenodd" d="M65.9018 116.884C65.865 120.275 65.7965 123.634 65.8544 127.025C65.8558 127.198 65.8913 127.368 65.9588 127.527C66.0264 127.685 66.1247 127.829 66.248 127.949C66.3714 128.07 66.5174 128.165 66.6775 128.228C66.8377 128.292 67.0089 128.323 67.1813 128.321C67.5314 128.314 67.8645 128.169 68.1081 127.917C68.3517 127.666 68.4861 127.328 68.4818 126.978C68.4239 123.608 68.4818 120.275 68.5345 116.905C68.5345 116.556 68.3958 116.222 68.1489 115.975C67.9021 115.728 67.5673 115.589 67.2181 115.589C66.869 115.589 66.5342 115.728 66.2874 115.975C66.0405 116.222 65.9018 116.556 65.9018 116.905V116.884Z" fill="#04DA8D"/>
</g>
<defs>
<clipPath id="clip0_536_2687">
<rect width="144.796" height="127.431" fill="white" transform="translate(0.00683594 0.889648)"/>
</clipPath>
</defs>
</svg>
