<svg width="27" height="31" viewBox="0 0 27 31" fill="none" xmlns="http://www.w3.org/2000/svg">
<g clip-path="url(#clip0_536_1410)">
<path d="M26.2187 21.5161V9.63647C26.2187 8.90128 25.8265 8.22206 25.1899 7.85457L14.9018 1.91466C14.2652 1.54717 13.4808 1.54717 12.8442 1.91466L2.55615 7.85457C1.91952 8.22206 1.52734 8.90149 1.52734 9.63647V21.5161C1.52734 22.2513 1.91952 22.9305 2.55615 23.298L12.8442 29.2379C13.4808 29.6054 14.2652 29.6054 14.9018 29.2379L25.1899 23.298C25.8265 22.9305 26.2187 22.2513 26.2187 21.5161Z" fill="#FFC91D"/>
<path d="M25.1906 7.85458L24.9956 7.74182C25.1199 8.00931 25.1906 8.30273 25.1906 8.60766V20.4873C25.1906 21.2225 24.7985 21.9017 24.1618 22.2692L13.8738 28.2089C13.2371 28.5764 12.4528 28.5764 11.8161 28.2089L1.72314 22.3817C1.89866 22.7591 2.18425 23.0828 2.55689 23.2978L12.845 29.2375C13.4816 29.605 14.2659 29.605 14.9026 29.2375L25.1906 23.2978C25.8273 22.9303 26.2194 22.2509 26.2194 21.5159V9.63627C26.2194 8.90129 25.8273 8.22207 25.1906 7.85458Z" fill="#FFA91A"/>
<path d="M23.3705 19.8712V11.2813C23.3705 10.5461 22.9783 9.86692 22.3417 9.49943L14.9026 5.20457C14.266 4.83708 13.4816 4.83708 12.845 5.20457L5.40588 9.49943C4.76926 9.86692 4.37708 10.5463 4.37708 11.2813V19.8712C4.37708 20.6064 4.76926 21.2856 5.40588 21.6531L12.845 25.948C13.4816 26.3155 14.266 26.3155 14.9026 25.948L22.3417 21.6531C22.9783 21.2856 23.3705 20.6064 23.3705 19.8712Z" fill="#F79219"/>
<path d="M22.3413 9.4996L22.1463 9.38684C22.2705 9.65433 22.3413 9.94775 22.3413 10.2527V18.8426C22.3413 19.5778 21.9491 20.257 21.3125 20.6245L13.8734 24.9194C13.2368 25.2868 12.4524 25.2868 11.8158 24.9194L4.57178 20.737C4.74729 21.1144 5.03289 21.4381 5.40552 21.6531L12.8446 25.948C13.4812 26.3154 14.2656 26.3154 14.9022 25.948L22.3413 21.6531C22.9779 21.2856 23.3701 20.6062 23.3701 19.8712V11.2813C23.3701 10.5463 22.9779 9.86709 22.3413 9.4996Z" fill="#EF7816"/>
<path d="M14.2652 9.96801L15.5179 13.8231H19.5716C19.9701 13.8231 20.136 14.3332 19.8136 14.5676L16.5341 16.9503L17.7868 20.8055C17.9101 21.1847 17.4761 21.4999 17.1535 21.2655L13.8741 18.8828L10.5946 21.2655C10.2722 21.4999 9.83825 21.1847 9.9613 20.8055L11.214 16.9503L7.93455 14.5676C7.61212 14.3332 7.77776 13.8231 8.17652 13.8231H12.23L13.4827 9.96801C13.6055 9.58879 14.142 9.58879 14.2652 9.96801Z" fill="white"/>
</g>
<defs>
<clipPath id="clip0_536_1410">
<rect width="26" height="30" fill="white" transform="translate(0.806274 0.5)"/>
</clipPath>
</defs>
</svg>
