<svg width="16" height="17" viewBox="0 0 16 17" fill="none" xmlns="http://www.w3.org/2000/svg">
<path d="M12.3599 11.435C11.5454 11.435 10.8115 11.7867 10.3022 12.3462L5.72108 9.50893C5.84338 9.19584 5.91122 8.85577 5.91122 8.5C5.91122 8.1441 5.84338 7.80403 5.72108 7.49107L10.3022 4.65363C10.8115 5.21315 11.5454 5.56503 12.3599 5.56503C13.8942 5.56503 15.1425 4.3168 15.1425 2.78245C15.1425 1.2481 13.8942 0 12.3599 0C10.8255 0 9.57731 1.24823 9.57731 2.78258C9.57731 3.13834 9.64527 3.47842 9.76745 3.79151L5.18645 6.62882C4.67712 6.0693 3.94328 5.71742 3.12877 5.71742C1.59442 5.71742 0.346191 6.96578 0.346191 8.5C0.346191 10.0343 1.59442 11.2826 3.12877 11.2826C3.94328 11.2826 4.67712 10.9308 5.18645 10.3712L9.76745 13.2085C9.64527 13.5216 9.57731 13.8617 9.57731 14.2176C9.57731 15.7518 10.8255 17 12.3599 17C13.8942 17 15.1425 15.7518 15.1425 14.2176C15.1425 12.6832 13.8942 11.435 12.3599 11.435ZM10.5919 2.78258C10.5919 1.80775 11.3851 1.01464 12.3599 1.01464C13.3347 1.01464 14.1278 1.80775 14.1278 2.78258C14.1278 3.7574 13.3347 4.55051 12.3599 4.55051C11.3851 4.55051 10.5919 3.7574 10.5919 2.78258ZM3.12877 10.2679C2.15382 10.2679 1.3607 9.47482 1.3607 8.5C1.3607 7.52518 2.15382 6.73206 3.12877 6.73206C4.10359 6.73206 4.89658 7.52518 4.89658 8.5C4.89658 9.47482 4.10359 10.2679 3.12877 10.2679ZM10.5919 14.2174C10.5919 13.2426 11.3851 12.4495 12.3599 12.4495C13.3347 12.4495 14.1278 13.2426 14.1278 14.2174C14.1278 15.1922 13.3347 15.9854 12.3599 15.9854C11.3851 15.9854 10.5919 15.1922 10.5919 14.2174Z" fill="#3A4F64"/>
</svg>
