<svg width="25" height="25" viewBox="0 0 25 25" fill="none" xmlns="http://www.w3.org/2000/svg">
<path d="M17.2505 21.7328H7.25049C3.60049 21.7328 1.50049 19.6328 1.50049 15.9828V8.98279C1.50049 5.33279 3.60049 3.23279 7.25049 3.23279H17.2505C20.9005 3.23279 23.0005 5.33279 23.0005 8.98279V15.9828C23.0005 19.6328 20.9005 21.7328 17.2505 21.7328ZM7.25049 4.73279C4.39049 4.73279 3.00049 6.12279 3.00049 8.98279V15.9828C3.00049 18.8428 4.39049 20.2328 7.25049 20.2328H17.2505C20.1105 20.2328 21.5005 18.8428 21.5005 15.9828V8.98279C21.5005 6.12279 20.1105 4.73279 17.2505 4.73279H7.25049Z" fill="#292D32"/>
<path d="M12.2503 13.3528C11.4103 13.3528 10.5603 13.0928 9.91027 12.5628L6.78026 10.0628C6.46026 9.80276 6.40027 9.33276 6.66027 9.01276C6.92027 8.69276 7.39027 8.63276 7.71027 8.89276L10.8403 11.3928C11.6003 12.0028 12.8903 12.0028 13.6503 11.3928L16.7803 8.89276C17.1003 8.63276 17.5803 8.68276 17.8303 9.01276C18.0903 9.33276 18.0403 9.81276 17.7103 10.0628L14.5803 12.5628C13.9403 13.0928 13.0903 13.3528 12.2503 13.3528Z" fill="#292D32"/>
</svg>
