<svg width="133" height="25" viewBox="0 0 133 25" fill="none" xmlns="http://www.w3.org/2000/svg">
<rect x="0.0922852" y="0.5" width="24" height="24" rx="3" fill="#4558F9"/>
<path d="M11.871 3.72144L13.8419 9.78736H20.22L15.06 13.5363L17.031 19.6022L11.871 15.8533L6.71099 19.6022L8.68193 13.5363L3.52194 9.78736H9.90003L11.871 3.72144Z" fill="#EAF0F8"/>
<rect x="27.0923" y="0.5" width="24" height="24" rx="3" fill="#4558F9"/>
<path d="M38.871 3.72144L40.8419 9.78736H47.22L42.06 13.5363L44.031 19.6022L38.871 15.8533L33.711 19.6022L35.6819 13.5363L30.5219 9.78736H36.9L38.871 3.72144Z" fill="#EAF0F8"/>
<rect x="54.0923" y="0.5" width="24" height="24" rx="3" fill="#4558F9"/>
<path d="M65.871 3.72144L67.8419 9.78736H74.22L69.06 13.5363L71.031 19.6022L65.871 15.8533L60.711 19.6022L62.6819 13.5363L57.5219 9.78736H63.9L65.871 3.72144Z" fill="#EAF0F8"/>
<rect x="81.0923" y="0.5" width="24" height="24" rx="3" fill="#4558F9"/>
<path d="M92.871 3.72144L94.8419 9.78736H101.22L96.06 13.5363L98.031 19.6022L92.871 15.8533L87.711 19.6022L89.6819 13.5363L84.5219 9.78736H90.9L92.871 3.72144Z" fill="#EAF0F8"/>
<rect x="108.092" y="0.5" width="24" height="24" rx="3" fill="#4558F9"/>
<path d="M119.871 3.72131L121.842 9.78724H128.22L123.06 13.5362L125.031 19.6021L119.871 15.8532L114.711 19.6021L116.682 13.5362L111.522 9.78724H117.9L119.871 3.72131Z" fill="#EAF0F8"/>
</svg>
