<svg width="47" height="47" viewBox="0 0 47 47" fill="none" xmlns="http://www.w3.org/2000/svg">
<path d="M23.576 46.592C36.436 46.592 46.861 36.1669 46.861 23.307C46.861 10.447 36.436 0.0219727 23.576 0.0219727C10.7161 0.0219727 0.291016 10.447 0.291016 23.307C0.291016 36.1669 10.7161 46.592 23.576 46.592Z" fill="#0077B5"/>
<g clip-path="url(#clip0_1_2376)">
<path d="M15.7561 11.6262C14.3939 11.6262 13.2912 12.7308 13.291 14.09C13.291 15.4505 14.3937 16.5549 15.7564 16.5549C17.1153 16.5549 18.2195 15.4505 18.2195 14.09C18.2195 12.7306 17.1151 11.6262 15.7561 11.6262Z" fill="white"/>
<path d="M13.6289 18.4241H17.8797V32.1005H13.6289V18.4241Z" fill="white"/>
<path d="M28.7016 18.0842C26.6339 18.0842 25.2474 19.2179 24.6799 20.293H24.623V18.4243H20.5461H20.5459V32.1005H24.7929V25.3348C24.7929 23.5511 25.1325 21.8235 27.344 21.8235C29.5237 21.8235 29.5528 23.8634 29.5528 25.4492V32.1003H33.8005V24.5989C33.8005 20.9168 33.006 18.0842 28.7016 18.0842Z" fill="white"/>
</g>
<defs>
<clipPath id="clip0_1_2376">
<rect width="20.51" height="20.51" fill="white" transform="translate(13.291 12.022)"/>
</clipPath>
</defs>
</svg>
