<svg width="46" height="46" viewBox="0 0 46 46" fill="none" xmlns="http://www.w3.org/2000/svg">
<path d="M23.1045 45.8071C35.5309 45.8071 45.6045 35.7335 45.6045 23.3071C45.6045 10.8807 35.5309 0.807129 23.1045 0.807129C10.6781 0.807129 0.604492 10.8807 0.604492 23.3071C0.604492 35.7335 10.6781 45.8071 23.1045 45.8071Z" fill="#3B5998"/>
<path d="M24.6838 33.9453V23.8601H27.9076L28.3916 19.9116H24.6838V17.399C24.6838 16.2573 24.9832 15.4831 26.5336 15.4831H28.4982V11.9628C28.1578 11.9152 26.9848 11.8071 25.6189 11.8071C22.7684 11.8071 20.816 13.6408 20.816 17.0098V19.916H17.6045V23.8644H20.816V33.9453H24.6838Z" fill="white"/>
</svg>
