<svg width="48" height="47" viewBox="0 0 48 47" fill="none" xmlns="http://www.w3.org/2000/svg">
<path d="M47.1745 23.307C47.1745 10.447 36.7494 0.0219727 23.8895 0.0219727C11.0295 0.0219727 0.604492 10.447 0.604492 23.307C0.604492 36.1669 11.0295 46.592 23.8895 46.592C36.7494 46.592 47.1745 36.1669 47.1745 23.307Z" fill="#1DA1F2"/>
<path d="M26.0707 21.3593L33.2432 13.022H31.5435L25.3157 20.2612L20.3416 13.022H14.6045L22.1264 23.969L14.6045 32.712H16.3042L22.881 25.0671L28.134 32.712H33.8711L26.0703 21.3593H26.0707ZM16.9167 14.3015H19.5273L31.5443 31.4906H28.9336L16.9167 14.3015Z" fill="white"/>
<path d="M21.8296 13.5034H16.5312L29.0546 32.2884H34.3529L21.8296 13.5034Z" fill="white" stroke="white" stroke-width="0.816326"/>
</svg>
