<svg width="167" height="51" viewBox="0 0 167 51" fill="none" xmlns="http://www.w3.org/2000/svg">
<path d="M0.426819 12.4889V38.8786C0.426819 43.3692 4.07742 47.0044 8.56809 47.0044H33.9756C36.2286 47.0044 38.2609 46.0995 39.7356 44.6232C41.2119 43.1638 42.1153 41.1316 42.1153 38.8786C42.1153 38.3396 42.5909 37.9258 43.1469 38.0061L51.9074 39.3712C52.7644 39.5132 53.2725 38.4987 52.6687 37.8949L42.3701 27.3739C42.211 27.1994 42.1169 26.9925 42.1169 26.7547V12.4889C42.1169 7.99826 38.4832 4.34766 33.9756 4.34766H8.56809C4.07742 4.34766 0.426819 7.99826 0.426819 12.4889Z" fill="#17253F"/>
<path d="M18.6406 14.1572V20.3402H25.9154V14.1572H18.6406ZM19.8977 21.6647V39.9457C23.3154 39.35 25.9138 36.3688 25.9138 32.7797V21.6647H19.8977ZM24.5342 14.1572V20.1947H26.3579V14.1572H24.5342ZM27.6808 14.1572V20.1947H31.7707C35.1056 20.1947 37.8082 17.4922 37.8082 14.1572H27.6808ZM24.5342 24.8144V30.8519H37.2631V24.8144H24.5342Z" fill="white"/>
<path d="M9.73535 14.1572C6.31925 14.1572 3.55237 16.9256 3.55237 20.3402H26.3581V14.1572H9.73535ZM11.3002 14.1572V40.0544H18.575V14.1572H11.3002Z" fill="#04DA8D"/>
<path d="M116.861 8.81055V25.2707H115.104V20.6441C114.103 21.5783 112.746 22.1566 111.278 22.1566C108.231 22.1566 105.74 19.6876 105.695 16.6625V8.81055H107.43L107.452 16.6625C107.497 18.7089 109.187 20.3994 111.278 20.3994C113.369 20.3994 115.104 18.7089 115.104 16.6625V8.81055H116.861Z" fill="#17253F"/>
<path d="M104.596 20.3554V22.1571H103.573C101.037 22.1349 99.0572 20.1107 99.0572 17.6195V10.5683H98.5011V8.81104H99.0572V6.36426H100.814V8.81104H103.439V10.5683H100.814V17.6195C100.814 19.1543 102.105 20.3332 103.573 20.3554H104.596Z" fill="#17253F"/>
<path d="M96.9079 20.6663V21.9342H95.1284V20.6663C95.1061 18.9758 94.1274 17.9526 92.3702 17.9304H90.5907C88.055 17.9081 86.053 15.884 86.053 13.3705C86.053 10.8569 88.055 8.83279 90.5907 8.81055H95.2841V10.59H90.5907C89.1226 10.6123 87.8548 11.8134 87.8548 13.3705C87.8548 14.9053 89.1226 16.1064 90.5907 16.1287H92.3702C95.4398 16.1509 96.9079 17.7302 96.9079 20.6663Z" fill="#17253F"/>
<path d="M78.4406 22.1566C75.3932 22.1566 72.8797 19.6876 72.8352 16.6625V8.81055H74.5702L74.5924 16.6625C74.6592 18.7089 76.3274 20.3994 78.4406 20.3994C80.5314 20.3994 82.1997 18.7089 82.2664 16.6625L82.2887 8.81055H84.0237V16.6625C83.9792 19.6876 81.4657 22.1566 78.4406 22.1566Z" fill="#17253F"/>
<path d="M67.1652 13.3482V21.9342H65.3635V13.3482C65.3635 10.8569 67.3654 8.83279 69.9012 8.81055H71.1246V10.59H69.9012C68.4331 10.6123 67.1652 11.8134 67.1652 13.3482Z" fill="#17253F"/>
<path d="M59.2342 8.12149V21.9347H57.4324V8.12149H52.9837V6.36426H63.6828V8.12149H59.2342Z" fill="#17253F"/>
<path fill-rule="evenodd" clip-rule="evenodd" d="M98.8953 6.20215H100.976V8.64893H103.601V10.7298H100.976V17.6192C100.976 19.0579 102.187 20.1717 103.574 20.1933H104.758V22.3187H103.573L103.571 22.3187C100.946 22.2956 98.8953 20.1991 98.8953 17.6192V10.7298H98.3392V8.64893H98.8953V6.20215ZM99.2189 6.52581V8.97259H98.6628V10.4062H99.2189V17.6192C99.2189 20.0216 101.127 21.9732 103.573 21.995H104.434V20.517H103.573L103.57 20.5169C102.021 20.4935 100.652 19.2497 100.652 17.6192V10.4062H103.277V8.97259H100.652V6.52581H99.2189Z" fill="#17253F"/>
<path fill-rule="evenodd" clip-rule="evenodd" d="M90.5892 8.64943L90.5906 8.64941L95.4458 8.64942V10.7526H90.5919C89.2096 10.7741 88.0165 11.9061 88.0165 13.3712C88.0165 14.8131 89.2087 15.9459 90.5918 15.9675H92.3713C93.932 15.9788 95.1145 16.3864 95.9055 17.1921C96.6962 17.9975 97.0696 19.1739 97.0696 20.667V22.0967H94.9665V20.6682C94.9556 19.8539 94.7152 19.2202 94.2851 18.7875C93.8552 18.3551 93.2162 18.1038 92.3691 18.0929H90.5906L90.5892 18.0929C87.965 18.0699 85.8911 15.9738 85.8911 13.3712C85.8911 10.7685 87.965 8.67245 90.5892 8.64943ZM95.1222 8.97308H90.5914C88.1445 8.99491 86.2148 10.947 86.2148 13.3712C86.2148 15.7953 88.1445 17.7474 90.5914 17.7692H92.3722C93.2818 17.7808 94.0105 18.0522 94.5146 18.5594C95.0186 19.0663 95.2786 19.7891 95.2901 20.6649L95.2902 20.667L95.2901 21.7731H96.746V20.667C96.746 19.224 96.3853 18.1427 95.6746 17.4189C94.9643 16.6954 93.8781 16.3022 92.3696 16.2912H90.5906L90.5882 16.2912C89.0357 16.2676 87.6929 14.9983 87.6929 13.3712C87.6929 11.7226 89.0349 10.4525 90.5882 10.4289L90.5906 10.4289L95.1222 10.4289V8.97308Z" fill="#17253F"/>
<path fill-rule="evenodd" clip-rule="evenodd" d="M72.6733 8.64941H74.7315L74.7542 16.6603C74.8194 18.6208 76.418 20.2383 78.4405 20.2383C80.4402 20.2383 82.0394 18.6214 82.1046 16.6603L82.1272 8.64941H84.1854V16.6632L84.1854 16.6656C84.1396 19.7794 81.5538 22.3192 78.4405 22.3192C75.3054 22.3192 72.7191 19.7798 72.6733 16.6656L72.6733 16.6632V8.64941ZM72.997 8.97307V16.662C73.0408 19.5975 75.4813 21.9955 78.4405 21.9955C81.3771 21.9955 83.818 19.5978 83.8618 16.6618V8.97307H82.45L82.4282 16.6685C82.3587 18.7991 80.6217 20.5619 78.4405 20.5619C76.2376 20.5619 74.5001 18.7997 74.4306 16.6685L74.4305 16.6637L74.4088 8.97307H72.997Z" fill="#17253F"/>
<path fill-rule="evenodd" clip-rule="evenodd" d="M69.8993 8.64943L69.9007 8.64941L71.286 8.64942V10.7526H69.902C68.5188 10.7742 67.3266 11.9069 67.3266 13.3489V22.0967H65.2012V13.3489C65.2012 10.768 67.2756 8.67244 69.8993 8.64943ZM70.9623 8.97308H69.9015C67.454 8.99491 65.5249 10.9475 65.5249 13.3489V21.7731H67.003V13.3489C67.003 11.7217 68.3458 10.4524 69.8983 10.4289L69.9007 10.4289L70.9623 10.4289V8.97308Z" fill="#17253F"/>
<path fill-rule="evenodd" clip-rule="evenodd" d="M52.8216 6.20215H63.8444V8.28304H59.3957V22.0962H57.2703V8.28304H52.8216V6.20215ZM53.1453 6.52581V7.95938H57.594V21.7726H59.072V7.95938H63.5207V6.52581H53.1453Z" fill="#17253F"/>
<path d="M158.665 36.9018V44.1977H156.931V27.96H158.665V34.3883L161.757 31.074H164.004L159.956 35.4783L165.895 44.1977H163.915L158.732 36.8129L158.665 36.9018Z" fill="#17253F"/>
<path d="M149.078 44.4201C145.319 44.4201 142.271 41.395 142.271 37.6136C142.271 33.8767 145.319 30.8516 149.078 30.8516C151.102 30.8516 152.948 31.7858 154.172 33.2094L153.193 34.7664C152.281 33.4541 150.791 32.6088 149.078 32.6088C146.32 32.6088 144.029 34.8554 144.029 37.6136C144.029 40.3718 146.32 42.6629 149.078 42.6629C150.657 42.6629 152.103 41.8843 152.993 40.7054L154.261 41.9733C153.015 43.4859 151.147 44.4201 149.078 44.4201Z" fill="#17253F"/>
<path d="M133.765 44.4201C129.961 44.4201 126.958 41.4172 126.958 37.5913C126.958 33.8544 129.961 30.8516 133.765 30.8516C137.502 30.8516 140.505 33.8544 140.505 37.5913V42.3737H138.747V42.218C137.524 43.5748 135.745 44.4201 133.765 44.4201ZM133.765 42.6406C136.523 42.6406 138.747 40.4163 138.747 37.5913C138.747 34.8554 136.501 32.6088 133.765 32.6088C130.984 32.6088 128.738 34.8554 128.738 37.5913C128.738 40.394 130.984 42.6406 133.765 42.6406Z" fill="#17253F"/>
<path d="M118.377 44.4198C116.397 44.4198 114.618 43.5746 113.394 42.2177V42.3734H111.637V28.627H113.394V33.0312C114.618 31.6966 116.397 30.8513 118.377 30.8513C122.181 30.8513 125.183 33.8542 125.183 37.5911C125.183 41.417 122.181 44.4198 118.377 44.4198ZM118.377 42.6403C121.157 42.6403 123.404 40.3938 123.404 37.5911C123.404 34.8551 121.157 32.6085 118.377 32.6085C115.641 32.6085 113.394 34.8551 113.394 37.5911C113.394 40.416 115.619 42.6403 118.377 42.6403Z" fill="#17253F"/>
<path d="M102.072 44.4198C98.2684 44.4198 95.2655 41.417 95.2655 37.5911C95.2655 33.8542 98.2684 30.8513 102.072 30.8513C104.052 30.8513 105.831 31.6966 107.055 33.0312V28.627H108.812V42.3734H107.055V42.2177C105.831 43.5746 104.052 44.4198 102.072 44.4198ZM102.072 42.6403C104.83 42.6403 107.055 40.416 107.055 37.5911C107.055 34.8551 104.808 32.6085 102.072 32.6085C99.2916 32.6085 97.045 34.8551 97.045 37.5911C97.045 40.3938 99.2916 42.6403 102.072 42.6403Z" fill="#17253F"/>
<path d="M87.5608 44.4201C83.8239 44.4201 80.7987 41.395 80.7987 37.6136C80.7987 33.8767 83.8239 30.8516 87.5608 30.8516C90.7861 30.8516 92.8992 33.2094 93.4998 35.3892L83.8461 40.9723C84.7803 41.9955 86.0927 42.6406 87.5608 42.6629C89.0288 42.7073 90.3634 42.1068 91.3421 41.0836L92.6323 42.2402C91.2754 43.8418 89.14 44.4201 87.5608 44.4201ZM82.9341 39.5265L91.4311 34.6997C90.6304 33.4985 89.3402 32.6088 87.5608 32.6088C84.8026 32.6088 82.556 34.8554 82.556 37.6136C82.556 38.2809 82.6894 38.9259 82.9341 39.5265Z" fill="#17253F"/>
<path d="M73.094 44.4201C69.3571 44.4201 66.3319 41.395 66.3319 37.6136C66.3319 33.8767 69.3571 30.8516 73.094 30.8516C76.3193 30.8516 78.4324 33.2094 79.033 35.3892L69.3793 40.9723C70.3135 41.9955 71.6259 42.6406 73.094 42.6629C74.562 42.7073 75.8966 42.1068 76.8754 41.0836L78.1655 42.2402C76.8086 43.8418 74.6732 44.4201 73.094 44.4201ZM68.4673 39.5265L76.9643 34.6997C76.1636 33.4985 74.8734 32.6088 73.094 32.6088C70.3358 32.6088 68.0892 34.8554 68.0892 37.6136C68.0892 38.2809 68.2226 38.9259 68.4673 39.5265Z" fill="#17253F"/>
<path d="M56.0309 37.7245V44.1974H54.2069V28.627H64.7948V30.3175H56.0309V36.034L62.9041 34.2101L63.3268 35.7894L56.0309 37.7245Z" fill="#17253F"/>
<path fill-rule="evenodd" clip-rule="evenodd" d="M156.769 27.7959H158.827V33.9754L161.687 30.91H164.372L160.162 35.491L166.201 44.3573H163.831L158.827 37.2278V44.3573H156.769V27.7959ZM157.092 28.1196V44.0336H158.504V36.8457L158.737 36.5351L163.999 44.0336H165.589L159.75 35.461L163.635 31.2336H161.828L158.504 34.7968V28.1196H157.092Z" fill="#17253F"/>
<path fill-rule="evenodd" clip-rule="evenodd" d="M149.078 31.0112C145.407 31.0112 142.433 33.9649 142.433 37.6113C142.433 41.303 145.408 44.256 149.078 44.256C151.045 44.256 152.826 43.3906 154.041 41.9805L153.007 40.9467C152.082 42.0821 150.644 42.8224 149.078 42.8224C146.23 42.8224 143.867 40.4589 143.867 37.6113C143.867 34.7619 146.232 32.4447 149.078 32.4447C150.759 32.4447 152.233 33.2343 153.183 34.4759L153.97 33.223C152.776 31.8835 151.009 31.0112 149.078 31.0112ZM142.11 37.6113C142.11 33.784 145.23 30.6875 149.078 30.6875C151.152 30.6875 153.042 31.6446 154.294 33.1017L154.372 33.1922L153.2 35.0575L153.06 34.8565C152.177 33.5857 150.735 32.7684 149.078 32.7684C146.407 32.7684 144.19 34.9444 144.19 37.6113C144.19 40.2802 146.409 42.4988 149.078 42.4988C150.604 42.4988 152.003 41.746 152.864 40.6057L152.976 40.4572L154.479 41.9605L154.386 42.0739C153.11 43.6227 151.196 44.5797 149.078 44.5797C145.23 44.5797 142.11 41.4825 142.11 37.6113Z" fill="#17253F"/>
<path fill-rule="evenodd" clip-rule="evenodd" d="M133.765 31.0112C130.05 31.0112 127.12 33.9426 127.12 37.5891C127.12 41.326 130.051 44.256 133.765 44.256C135.698 44.256 137.434 43.4311 138.627 42.1074L138.909 41.7946V42.2096H140.343V37.5891C140.343 33.9416 137.412 31.0112 133.765 31.0112ZM138.671 42.5333H140.666V37.5891C140.666 33.7628 137.591 30.6875 133.765 30.6875C129.873 30.6875 126.797 33.7618 126.797 37.5891C126.797 41.504 129.872 44.5797 133.765 44.5797C135.688 44.5797 137.427 43.8004 138.671 42.5333ZM128.576 37.5891C128.576 34.7628 130.896 32.4447 133.765 32.4447C136.59 32.4447 138.909 34.7638 138.909 37.5891C138.909 40.502 136.614 42.8002 133.765 42.8002C130.895 42.8002 128.576 40.4807 128.576 37.5891ZM133.765 32.7684C131.073 32.7684 128.9 34.9435 128.9 37.5891C128.9 40.3029 131.074 42.4765 133.765 42.4765C136.432 42.4765 138.586 40.3261 138.586 37.5891C138.586 34.9425 136.411 32.7684 133.765 32.7684Z" fill="#17253F"/>
<path fill-rule="evenodd" clip-rule="evenodd" d="M111.475 28.4629H113.556V32.6306C114.793 31.4318 116.497 30.6872 118.377 30.6872C122.269 30.6872 125.345 33.7615 125.345 37.5888C125.345 41.5038 122.27 44.5794 118.377 44.5794C116.454 44.5794 114.714 43.8002 113.471 42.533H111.475V28.4629ZM113.232 42.2094H111.799V28.7865H113.232V33.445L113.514 33.1383C114.707 31.836 116.444 31.0109 118.377 31.0109C122.092 31.0109 125.022 33.9424 125.022 37.5888C125.022 41.3257 122.091 44.2558 118.377 44.2558C116.444 44.2558 114.708 43.4308 113.515 42.1071L113.232 41.7943V42.2094ZM113.232 37.5888C113.232 34.7635 115.552 32.4445 118.377 32.4445C121.246 32.4445 123.566 34.7626 123.566 37.5888C123.566 40.4804 121.247 42.7999 118.377 42.7999C115.528 42.7999 113.232 40.5017 113.232 37.5888ZM118.377 32.7681C115.73 32.7681 113.556 34.9423 113.556 37.5888C113.556 40.3258 115.709 42.4763 118.377 42.4763C121.067 42.4763 123.242 40.3026 123.242 37.5888C123.242 34.9432 121.069 32.7681 118.377 32.7681Z" fill="#17253F"/>
<path fill-rule="evenodd" clip-rule="evenodd" d="M106.893 28.4629H108.974V42.533H106.978C105.734 43.8002 103.995 44.5794 102.072 44.5794C98.1786 44.5794 95.1037 41.5038 95.1037 37.5888C95.1037 33.7615 98.18 30.6872 102.072 30.6872C103.952 30.6872 105.656 31.4318 106.893 32.6306V28.4629ZM107.216 42.2094H108.65V28.7865H107.216V33.445L106.935 33.1383C105.742 31.836 104.005 31.0109 102.072 31.0109C98.3567 31.0109 95.4273 33.9424 95.4273 37.5888C95.4273 41.3257 98.3581 44.2558 102.072 44.2558C104.005 44.2558 105.741 43.4308 106.934 42.1071L107.216 41.7943V42.2094ZM96.8831 37.5888C96.8831 34.7626 99.2031 32.4445 102.072 32.4445C104.897 32.4445 107.216 34.7635 107.216 37.5888C107.216 40.5017 104.921 42.7999 102.072 42.7999C99.2017 42.7999 96.8831 40.4804 96.8831 37.5888ZM102.072 32.7681C99.38 32.7681 97.2068 34.9432 97.2068 37.5888C97.2068 40.3026 99.3814 42.4763 102.072 42.4763C104.739 42.4763 106.893 40.3258 106.893 37.5888C106.893 34.9423 104.719 32.7681 102.072 32.7681Z" fill="#17253F"/>
<path fill-rule="evenodd" clip-rule="evenodd" d="M87.5607 31.0112C83.9132 31.0112 80.9605 33.9638 80.9605 37.6113C80.9605 41.3041 83.9139 44.256 87.5607 44.256C89.0699 44.256 91.0852 43.7161 92.4052 42.2518L91.3491 41.305C90.3522 42.2905 89.0194 42.8664 87.5571 42.8224C86.0421 42.7991 84.6887 42.133 83.7265 41.0792L83.5909 40.9307L93.3092 35.3102C92.6806 33.2196 90.6394 31.0112 87.5607 31.0112ZM80.6369 37.6113C80.6369 33.7851 83.7344 30.6875 87.5607 30.6875C90.8738 30.6875 93.0401 33.1095 93.6557 35.344L93.6889 35.4645L84.1046 41.0075C84.9995 41.9144 86.2137 42.4784 87.5632 42.4988L87.5656 42.4989C88.9846 42.5419 90.2758 41.962 91.2252 40.9695L91.3335 40.8562L92.8574 42.2225L92.7557 42.3426C91.3584 43.9919 89.1701 44.5797 87.5607 44.5797C83.7337 44.5797 80.6369 41.4814 80.6369 37.6113ZM82.3941 37.6113C82.3941 34.7638 84.7132 32.4447 87.5607 32.4447C89.402 32.4447 90.7395 33.3683 91.5657 34.6077L91.6621 34.7523L82.8537 39.756L82.7842 39.5853C82.532 38.9662 82.3941 38.3004 82.3941 37.6113ZM87.5607 32.7684C84.8919 32.7684 82.7178 34.9425 82.7178 37.6113C82.7178 38.1936 82.8228 38.7586 83.0173 39.2909L91.1975 34.644C90.4172 33.5547 89.2071 32.7684 87.5607 32.7684Z" fill="#17253F"/>
<path fill-rule="evenodd" clip-rule="evenodd" d="M73.0939 31.0112C69.4464 31.0112 66.4937 33.9638 66.4937 37.6113C66.4937 41.3041 69.4471 44.256 73.0939 44.256C74.6031 44.256 76.6184 43.7161 77.9384 42.2518L76.8823 41.305C75.8854 42.2905 74.5526 42.8664 73.0903 42.8224C71.5753 42.7991 70.2219 42.133 69.2598 41.0792L69.1241 40.9307L78.8424 35.3102C78.2138 33.2196 76.1726 31.0112 73.0939 31.0112ZM66.1701 37.6113C66.1701 33.7851 69.2676 30.6875 73.0939 30.6875C76.407 30.6875 78.5733 33.1095 79.1889 35.344L79.2221 35.4645L69.6378 41.0075C70.5327 41.9144 71.7469 42.4784 73.0964 42.4988L73.0988 42.4988C74.5178 42.5418 75.809 41.962 76.7584 40.9695L76.8667 40.8562L78.3906 42.2225L78.2889 42.3426C76.8916 43.9919 74.7033 44.5797 73.0939 44.5797C69.267 44.5797 66.1701 41.4814 66.1701 37.6113ZM67.9273 37.6113C67.9273 34.7638 70.2464 32.4447 73.0939 32.4447C74.9352 32.4447 76.2727 33.3683 77.0989 34.6077L77.1954 34.7523L68.387 39.756L68.3174 39.5853C68.0652 38.9662 67.9273 38.3004 67.9273 37.6113ZM73.0939 32.7684C70.4251 32.7684 68.251 34.9425 68.251 37.6113C68.251 38.1936 68.356 38.7586 68.5505 39.2909L76.7307 34.644C75.9504 33.5547 74.7403 32.7684 73.0939 32.7684Z" fill="#17253F"/>
<path fill-rule="evenodd" clip-rule="evenodd" d="M54.0451 28.4629H64.9566V30.4771H56.1927V35.8214L63.0187 34.01L63.525 35.902L56.1927 37.8468V44.357H54.0451V28.4629ZM54.3687 28.7865V44.0333H55.869V37.5978L63.1285 35.6723L62.7895 34.4057L55.869 36.2422V30.1534H64.633V28.7865H54.3687Z" fill="#17253F"/>
</svg>
