<svg width="22" height="20" viewBox="0 0 22 20" fill="none" xmlns="http://www.w3.org/2000/svg">
<path d="M21.4858 8.50453H20.6387V8.4651H11.1742V12.265H17.1174C16.2504 14.4771 13.9205 16.065 11.1742 16.065C7.68973 16.065 4.86458 13.5128 4.86458 10.3651C4.86458 7.2173 7.68973 4.66517 11.1742 4.66517C12.7827 4.66517 14.246 5.21331 15.3602 6.10867L18.3347 3.42164C16.4565 1.84039 13.9442 0.865234 11.1742 0.865234C5.36672 0.865234 0.658142 5.11879 0.658142 10.3651C0.658142 15.6114 5.36672 19.8649 11.1742 19.8649C16.9818 19.8649 21.6903 15.6114 21.6903 10.3651C21.6903 9.72811 21.6178 9.10634 21.4858 8.50453Z" fill="#FFC107"/>
<path d="M1.8699 5.94337L5.32497 8.23236C6.25985 6.14144 8.52396 4.66517 11.1735 4.66517C12.7819 4.66517 14.2452 5.21331 15.3594 6.10867L18.3339 3.42164C16.4557 1.84039 13.9434 0.865234 11.1735 0.865234C7.13426 0.865234 3.63135 2.92527 1.8699 5.94337Z" fill="#FF3D00"/>
<path d="M11.1744 19.8652C13.8907 19.8652 16.3588 18.9262 18.2249 17.3991L14.9701 14.9111C13.8789 15.6608 12.5454 16.0663 11.1744 16.0653C8.43913 16.0653 6.11665 14.4898 5.24171 12.291L1.81241 14.6778C3.55282 17.7544 7.08728 19.8652 11.1744 19.8652Z" fill="#4CAF50"/>
<path d="M21.4858 8.50427H20.6387V8.46484H11.1742V12.2648H17.1174C16.7026 13.3176 15.9556 14.2375 14.9684 14.911L14.97 14.91L18.2247 17.398C17.9944 17.5871 21.6903 15.1147 21.6903 10.3648C21.6903 9.72785 21.6178 9.10608 21.4858 8.50427Z" fill="#1976D2"/>
</svg>
