<svg width="37" height="41" viewBox="0 0 37 41" fill="none" xmlns="http://www.w3.org/2000/svg">
<path d="M11.25 20.8704H24.2" stroke="#00C67F" stroke-width="3" stroke-miterlimit="10" stroke-linecap="round" stroke-linejoin="round"/>
<path d="M11.25 28.2705H19.353" stroke="#00C67F" stroke-width="3" stroke-miterlimit="10" stroke-linecap="round" stroke-linejoin="round"/>
<path d="M26.05 5.73645C32.2105 6.06945 35.3 8.34495 35.3 16.7994V27.8994C35.3 35.2994 33.45 38.9994 24.2 38.9994H13.1C3.85 38.9994 2 35.2994 2 27.8994V16.7994C2 8.36345 5.0895 6.06945 11.25 5.73645" stroke="#17253F" stroke-width="3" stroke-miterlimit="10" stroke-linecap="round" stroke-linejoin="round"/>
<path d="M14.95 9.39999H22.35C26.05 9.39999 26.05 7.54999 26.05 5.7C26.05 2 24.2 2 22.35 2H14.95C13.1 2 11.25 2 11.25 5.7C11.25 9.39999 13.1 9.39999 14.95 9.39999Z" stroke="#00C67F" stroke-width="3" stroke-miterlimit="10" stroke-linecap="round" stroke-linejoin="round"/>
</svg>
