<svg width="21" height="21" viewBox="0 0 21 21" fill="none" xmlns="http://www.w3.org/2000/svg">
<g clip-path="url(#clip0_213_29625)">
<path fill-rule="evenodd" clip-rule="evenodd" d="M1.39547 16.5704L0.360474 20.3654L4.15547 19.3304L11.9805 11.5054C13.2269 12.0986 14.6427 12.2326 15.9783 11.8837C17.3138 11.5348 18.4832 10.7254 19.2802 9.5984C20.0772 8.47137 20.4505 7.09908 20.3344 5.72362C20.2183 4.34815 19.6201 3.05789 18.6455 2.08043C17.6691 1.10252 16.3783 0.501476 15.0014 0.383639C13.6245 0.265802 12.2504 0.638768 11.122 1.43655C9.99364 2.23433 9.18382 3.40551 8.83583 4.74288C8.48783 6.08025 8.62408 7.4976 9.22047 8.74418L5.68297 12.2817L5.65297 14.3817L3.57422 14.4492L3.54547 16.4904L1.40547 16.5592L1.39547 16.5704ZM17.2655 3.46043C17.1299 3.32288 16.9685 3.21352 16.7905 3.13864C16.6125 3.06376 16.4214 3.02485 16.2283 3.02414C16.0351 3.02344 15.8438 3.06096 15.6652 3.13453C15.4867 3.20811 15.3245 3.3163 15.1879 3.45285C15.0513 3.58941 14.9432 3.75164 14.8696 3.9302C14.796 4.10875 14.7585 4.3001 14.7592 4.49322C14.7599 4.68634 14.7988 4.87741 14.8737 5.05543C14.9486 5.23344 15.0579 5.39488 15.1955 5.53043C15.4707 5.80163 15.8419 5.95303 16.2283 5.95162C16.6146 5.95021 16.9848 5.79611 17.2579 5.52291C17.5311 5.24971 17.6853 4.87958 17.6867 4.49322C17.6881 4.10686 17.5367 3.73562 17.2655 3.46043Z" fill="#00B57A"/>
</g>
<defs>
<clipPath id="clip0_213_29625">
<rect width="20" height="20" fill="white" transform="translate(0.360474 0.365234)"/>
</clipPath>
</defs>
</svg>
