<svg width="41" height="41" viewBox="0 0 41 41" fill="none" xmlns="http://www.w3.org/2000/svg">
<g clip-path="url(#clip0_29_514)">
<mask id="mask0_29_514" style="mask-type:luminance" maskUnits="userSpaceOnUse" x="0" y="0" width="41" height="41">
<path d="M0.5 0.500004H40.5V40.5H0.5V0.500004Z" fill="white"/>
</mask>
<g mask="url(#mask0_29_514)">
<path d="M18.7966 26.3818C18.3896 25.6873 18.1562 24.8786 18.1562 24.0154C18.1562 21.4266 20.2549 19.3279 22.8438 19.3279C25.4326 19.3279 27.5312 21.4266 27.5312 24.0154C27.5312 24.4369 27.4756 24.8454 27.3713 25.2339" stroke="#04DA8D" stroke-width="2" stroke-miterlimit="10"/>
<path d="M13.4922 30.7216C13.6562 28.3075 15.6953 26.3856 18.1562 26.3856C19.8437 26.3856 21.625 26.3387 25.0703 25.5419C29.4971 24.5259 30.5459 26.0364 39.3281 29.8751V38.9102C34.6406 37.4844 30.8255 34.3932 25.6891 35.6173C19.4466 37.1051 10.631 37.7469 2.05469 28.7404C3.67219 26.719 6.62195 26.3914 8.64351 28.0085C12.1977 30.8518 12.2732 31.052 14.2821 31.047H24.0156" stroke="black" stroke-width="2" stroke-miterlimit="10"/>
<path d="M27.5078 10.2784C27.3437 12.6924 25.3047 14.6143 22.8437 14.6143C21.1562 14.6143 19.375 14.6612 15.9297 15.4581C11.5029 16.4741 10.4541 14.9635 1.67188 11.1248V2.08196C6.35937 3.50766 10.1745 6.60672 15.3109 5.38258C21.5534 3.89485 30.369 3.25305 38.9452 12.2595C37.3278 14.2809 34.378 14.6085 32.3565 12.9914C28.8022 10.1481 28.7268 9.94797 26.7179 9.95297H16.9844" stroke="black" stroke-width="2" stroke-miterlimit="10"/>
</g>
</g>
<defs>
<clipPath id="clip0_29_514">
<rect width="40" height="40" fill="white" transform="translate(0.5 0.5)"/>
</clipPath>
</defs>
</svg>
