<svg width="211" height="65" viewBox="0 0 211 65" fill="none" xmlns="http://www.w3.org/2000/svg">
<path d="M50.9892 56.4L50.9888 56.4005C49.142 58.2492 46.5973 59.3824 43.7755 59.3824H11.6532C6.02942 59.3824 1.45797 54.83 1.45797 49.2067V15.8427C1.45797 10.2191 6.02966 5.64742 11.6532 5.64742H43.7755C49.4204 5.64742 53.9708 10.219 53.9708 15.8427V33.8786C53.9708 34.2075 54.1017 34.4918 54.3164 34.7273L54.3164 34.7273L54.3188 34.7298L67.3391 48.0313L67.3399 48.032C68.0372 48.7294 67.4508 49.897 66.4624 49.7332L66.4614 49.733L55.3857 48.0071L55.3846 48.007C54.6243 47.8971 53.9688 48.4644 53.9688 49.2067C53.9688 52.0285 52.8375 54.573 50.9892 56.4Z" fill="white" stroke="white" stroke-width="0.195237"/>
<path d="M24.3887 17.9524V25.7694H33.586V17.9524H24.3887ZM25.978 27.444V50.5563C30.2989 49.8033 33.5841 46.0341 33.5841 41.4964V27.444H25.978ZM31.8398 17.9524V25.5855H34.1455V17.9524H31.8398ZM35.8181 17.9524V25.5855H40.9888C45.2051 25.5855 48.6219 22.1687 48.6219 17.9524H35.8181ZM31.8398 31.426V39.0592H47.9327V31.426H31.8398Z" fill="#17253F"/>
<path d="M13.1305 17.9521C8.8116 17.9521 5.31348 21.4522 5.31348 25.7692H34.1463V17.9521H13.1305ZM15.109 17.9521V50.6935H24.3063V17.9521H15.109Z" fill="#04DA8D"/>
<path d="M75.7101 10.0518V27.5156H73.4322V10.0518H67.8078V7.83016H81.3345V10.0518H75.7101ZM85.7371 16.6605V27.5156H83.4592V16.6605C83.4592 13.5108 85.9902 10.9517 89.1961 10.9236H90.7429V13.1734H89.1961C87.3401 13.2015 85.7371 14.7201 85.7371 16.6605ZM99.9926 27.7968C96.1399 27.7968 92.9621 24.6753 92.9058 20.8507V10.9236H95.0994L95.1275 20.8507C95.2119 23.4379 97.321 25.5752 99.9926 25.5752C102.636 25.5752 104.745 23.4379 104.83 20.8507L104.858 10.9236H107.051V20.8507C106.995 24.6753 103.817 27.7968 99.9926 27.7968ZM123.341 25.9127V27.5156H121.091V25.9127C121.063 23.7754 119.825 22.4818 117.604 22.4536H115.354C112.148 22.4255 109.617 19.8664 109.617 16.6886C109.617 13.5108 112.148 10.9517 115.354 10.9236H121.288V13.1734H115.354C113.498 13.2015 111.895 14.7201 111.895 16.6886C111.895 18.629 113.498 20.1476 115.354 20.1758H117.604C121.484 20.2039 123.341 22.2005 123.341 25.9127ZM133.06 25.519V27.7968H131.766C128.56 27.7687 126.058 25.2096 126.058 22.0599V13.1452H125.355V10.9236H126.058V7.83016H128.279V10.9236H131.598V13.1452H128.279V22.0599C128.279 24.0004 129.91 25.4908 131.766 25.519H133.06ZM148.567 10.9236V31.7339H146.346V25.8845C145.08 27.0657 143.365 27.7968 141.509 27.7968C137.656 27.7968 134.506 24.6753 134.45 20.8507V10.9236H136.644L136.672 20.8507C136.728 23.4379 138.865 25.5752 141.509 25.5752C144.152 25.5752 146.346 23.4379 146.346 20.8507V10.9236H148.567Z" fill="white"/>
<path d="M75.7101 10.0518V9.84721H75.5055V10.0518H75.7101ZM75.7101 27.5156V27.7202H75.9147V27.5156H75.7101ZM73.4322 27.5156H73.2276V27.7202H73.4322V27.5156ZM73.4322 10.0518H73.6368V9.84721H73.4322V10.0518ZM67.8078 10.0518H67.6032V10.2564H67.8078V10.0518ZM67.8078 7.83016V7.62556H67.6032V7.83016H67.8078ZM81.3345 7.83016H81.5391V7.62556H81.3345V7.83016ZM81.3345 10.0518V10.2564H81.5391V10.0518H81.3345ZM75.5055 10.0518V27.5156H75.9147V10.0518H75.5055ZM75.7101 27.311H73.4322V27.7202H75.7101V27.311ZM73.6368 27.5156V10.0518H73.2276V27.5156H73.6368ZM73.4322 9.84721H67.8078V10.2564H73.4322V9.84721ZM68.0124 10.0518V7.83016H67.6032V10.0518H68.0124ZM67.8078 8.03476H81.3345V7.62556H67.8078V8.03476ZM81.1299 7.83016V10.0518H81.5391V7.83016H81.1299ZM81.3345 9.84721H75.7101V10.2564H81.3345V9.84721ZM85.7371 27.5156V27.7202H85.9417V27.5156H85.7371ZM83.4592 27.5156H83.2546V27.7202H83.4592V27.5156ZM89.1961 10.9236V10.719L89.1943 10.719L89.1961 10.9236ZM90.7429 10.9236H90.9475V10.719H90.7429V10.9236ZM90.7429 13.1734V13.378H90.9475V13.1734H90.7429ZM89.1961 13.1734V12.9687L89.193 12.9688L89.1961 13.1734ZM85.5325 16.6605V27.5156H85.9417V16.6605H85.5325ZM85.7371 27.311H83.4592V27.7202H85.7371V27.311ZM83.6638 27.5156V16.6605H83.2546V27.5156H83.6638ZM83.6638 16.6605C83.6638 13.6242 86.1033 11.1553 89.1979 11.1282L89.1943 10.719C85.8772 10.7481 83.2546 13.3975 83.2546 16.6605H83.6638ZM89.1961 11.1282H90.7429V10.719H89.1961V11.1282ZM90.5383 10.9236V13.1734H90.9475V10.9236H90.5383ZM90.7429 12.9688H89.1961V13.378H90.7429V12.9688ZM89.193 12.9688C87.2303 12.9985 85.5325 14.6033 85.5325 16.6605H85.9417C85.9417 14.8369 87.4499 13.4044 89.1992 13.3779L89.193 12.9688ZM92.9058 20.8507H92.7012L92.7013 20.8537L92.9058 20.8507ZM92.9058 10.9236V10.719H92.7012V10.9236H92.9058ZM95.0994 10.9236L95.304 10.923L95.3034 10.719H95.0994V10.9236ZM95.1275 20.8507L94.9228 20.8513L94.923 20.8574L95.1275 20.8507ZM104.83 20.8507L105.034 20.8574L105.034 20.8513L104.83 20.8507ZM104.858 10.9236V10.719H104.654L104.653 10.923L104.858 10.9236ZM107.051 10.9236H107.256V10.719H107.051V10.9236ZM107.051 20.8507L107.256 20.8537V20.8507H107.051ZM99.9926 27.5922C96.2508 27.5922 93.165 24.5596 93.1104 20.8477L92.7013 20.8537C92.7592 24.791 96.029 28.0014 99.9926 28.0014V27.5922ZM93.1104 20.8507V10.9236H92.7012V20.8507H93.1104ZM92.9058 11.1282H95.0994V10.719H92.9058V11.1282ZM94.8948 10.9242L94.9229 20.8513L95.3321 20.8501L95.304 10.923L94.8948 10.9242ZM94.923 20.8574C95.0109 23.5518 97.2075 25.7798 99.9926 25.7798V25.3706C97.4345 25.3706 95.4128 23.324 95.332 20.844L94.923 20.8574ZM99.9926 25.7798C102.75 25.7798 104.946 23.551 105.034 20.8574L104.625 20.844C104.544 23.3248 102.522 25.3706 99.9926 25.3706V25.7798ZM105.034 20.8513L105.062 10.9242L104.653 10.923L104.625 20.8501L105.034 20.8513ZM104.858 11.1282H107.051V10.719H104.858V11.1282ZM106.847 10.9236V20.8507H107.256V10.9236H106.847ZM106.847 20.8477C106.792 24.5601 103.706 27.5922 99.9926 27.5922V28.0014C103.929 28.0014 107.198 24.7905 107.256 20.8537L106.847 20.8477ZM123.341 27.5156V27.7202H123.545V27.5156H123.341ZM121.091 27.5156H120.886V27.7202H121.091V27.5156ZM121.091 25.9127H121.295L121.295 25.91L121.091 25.9127ZM117.604 22.4536L117.606 22.2491H117.604V22.4536ZM115.354 22.4536L115.352 22.6582H115.354V22.4536ZM115.354 10.9236V10.719L115.352 10.719L115.354 10.9236ZM121.288 10.9236H121.492V10.719H121.288V10.9236ZM121.288 13.1734V13.378H121.492V13.1734H121.288ZM115.354 13.1734V12.9687L115.351 12.9688L115.354 13.1734ZM115.354 20.1758L115.351 20.3804H115.354V20.1758ZM117.604 20.1758L117.605 19.9712H117.604V20.1758ZM123.136 25.9127V27.5156H123.545V25.9127H123.136ZM123.341 27.311H121.091V27.7202H123.341V27.311ZM121.295 27.5156V25.9127H120.886V27.5156H121.295ZM121.295 25.91C121.281 24.8027 120.952 23.8889 120.315 23.248C119.677 22.6068 118.756 22.2636 117.606 22.2491L117.601 22.6582C118.673 22.6718 119.481 22.9895 120.025 23.5365C120.569 24.0837 120.873 24.8853 120.886 25.9154L121.295 25.91ZM117.604 22.2491H115.354V22.6582H117.604V22.2491ZM115.356 22.2491C112.262 22.2219 109.822 19.7537 109.822 16.6886H109.412C109.412 19.9791 112.034 22.6291 115.352 22.6582L115.356 22.2491ZM109.822 16.6886C109.822 13.6235 112.262 11.1553 115.356 11.1282L115.352 10.719C112.034 10.7481 109.412 13.3981 109.412 16.6886H109.822ZM115.354 11.1282H121.288V10.719H115.354V11.1282ZM121.083 10.9236V13.1734H121.492V10.9236H121.083ZM121.288 12.9688H115.354V13.378H121.288V12.9688ZM115.351 12.9688C113.387 12.9985 111.69 14.6043 111.69 16.6886H112.099C112.099 14.8358 113.609 13.4044 115.357 13.3779L115.351 12.9688ZM111.69 16.6886C111.69 18.7458 113.388 20.3506 115.351 20.3803L115.357 19.9712C113.608 19.9447 112.099 18.5123 112.099 16.6886H111.69ZM115.354 20.3804H117.604V19.9712H115.354V20.3804ZM117.602 20.3804C119.51 20.3942 120.883 20.8913 121.781 21.8061C122.68 22.7213 123.136 24.0883 123.136 25.9127H123.545C123.545 24.025 123.073 22.5376 122.073 21.5194C121.073 20.5008 119.578 19.9855 117.605 19.9712L117.602 20.3804ZM133.06 25.519H133.265V25.3144H133.06V25.519ZM133.06 27.7968V28.0014H133.265V27.7968H133.06ZM131.766 27.7968L131.765 28.0014H131.766V27.7968ZM126.058 13.1452H126.262V12.9406H126.058V13.1452ZM125.355 13.1452H125.15V13.3498H125.355V13.1452ZM125.355 10.9236V10.719H125.15V10.9236H125.355ZM126.058 10.9236V11.1282H126.262V10.9236H126.058ZM126.058 7.83016V7.62556H125.853V7.83016H126.058ZM128.279 7.83016H128.484V7.62556H128.279V7.83016ZM128.279 10.9236H128.075V11.1282H128.279V10.9236ZM131.598 10.9236H131.802V10.719H131.598V10.9236ZM131.598 13.1452V13.3498H131.802V13.1452H131.598ZM128.279 13.1452V12.9406H128.075V13.1452H128.279ZM131.766 25.519L131.763 25.7236H131.766V25.519ZM132.855 25.519V27.7968H133.265V25.519H132.855ZM133.06 27.5922H131.766V28.0014H133.06V27.5922ZM131.768 27.5923C128.675 27.5651 126.262 25.0976 126.262 22.0599H125.853C125.853 25.3216 128.446 27.9723 131.765 28.0014L131.768 27.5923ZM126.262 22.0599V13.1452H125.853V22.0599H126.262ZM126.058 12.9406H125.355V13.3498H126.058V12.9406ZM125.559 13.1452V10.9236H125.15V13.1452H125.559ZM125.355 11.1282H126.058V10.719H125.355V11.1282ZM126.262 10.9236V7.83016H125.853V10.9236H126.262ZM126.058 8.03476H128.279V7.62556H126.058V8.03476ZM128.075 7.83016V10.9236H128.484V7.83016H128.075ZM128.279 11.1282H131.598V10.719H128.279V11.1282ZM131.393 10.9236V13.1452H131.802V10.9236H131.393ZM131.598 12.9406H128.279V13.3498H131.598V12.9406ZM128.075 13.1452V22.0599H128.484V13.1452H128.075ZM128.075 22.0599C128.075 24.1214 129.805 25.6939 131.763 25.7235L131.769 25.3144C130.016 25.2878 128.484 23.8794 128.484 22.0599H128.075ZM131.766 25.7236H133.06V25.3144H131.766V25.7236ZM148.567 10.9236H148.772V10.719H148.567V10.9236ZM148.567 31.7339V31.9385H148.772V31.7339H148.567ZM146.346 31.7339H146.141V31.9385H146.346V31.7339ZM146.346 25.8845H146.55V25.4137L146.206 25.735L146.346 25.8845ZM134.45 20.8507H134.245L134.246 20.8537L134.45 20.8507ZM134.45 10.9236V10.719H134.245V10.9236H134.45ZM136.644 10.9236L136.848 10.923L136.848 10.719H136.644V10.9236ZM136.672 20.8507L136.467 20.8513L136.467 20.8551L136.672 20.8507ZM146.346 10.9236V10.719H146.141V10.9236H146.346ZM148.363 10.9236V31.7339H148.772V10.9236H148.363ZM148.567 31.5293H146.346V31.9385H148.567V31.5293ZM146.55 31.7339V25.8845H146.141V31.7339H146.55ZM146.206 25.735C144.977 26.8824 143.311 27.5922 141.509 27.5922V28.0014C143.419 28.0014 145.184 27.249 146.485 26.0341L146.206 25.735ZM141.509 27.5922C137.768 27.5922 134.709 24.5606 134.655 20.8477L134.246 20.8537C134.303 24.79 137.544 28.0014 141.509 28.0014V27.5922ZM134.655 20.8507V10.9236H134.245V20.8507H134.655ZM134.45 11.1282H136.644V10.719H134.45V11.1282ZM136.439 10.9242L136.467 20.8513L136.876 20.8501L136.848 10.923L136.439 10.9242ZM136.467 20.8551C136.526 23.5526 138.753 25.7798 141.509 25.7798V25.3706C138.978 25.3706 136.93 23.3233 136.876 20.8462L136.467 20.8551ZM141.509 25.7798C144.26 25.7798 146.55 23.5556 146.55 20.8507H146.141C146.141 23.3203 144.044 25.3706 141.509 25.3706V25.7798ZM146.55 20.8507V10.9236H146.141V20.8507H146.55ZM146.346 11.1282H148.567V10.719H146.346V11.1282Z" fill="white"/>
<path d="M71.6605 47.4766V55.6602H69.3545V35.9747H82.7406V38.112H71.6605V45.3393L80.3502 43.0333L80.8845 45.03L71.6605 47.4766ZM93.233 55.9414C88.5085 55.9414 84.6839 52.1168 84.6839 47.336C84.6839 42.6115 88.5085 38.7869 93.233 38.7869C97.3107 38.7869 99.9823 41.7678 100.742 44.5238L88.5366 51.5825C89.7177 52.8761 91.3769 53.6916 93.233 53.7197C95.089 53.776 96.7764 53.0167 98.0137 51.7231L99.6448 53.1854C97.9294 55.2102 95.2297 55.9414 93.233 55.9414ZM87.3836 49.7545L98.1262 43.652C97.1138 42.1334 95.4827 41.0085 93.233 41.0085C89.7458 41.0085 86.9055 43.8489 86.9055 47.336C86.9055 48.1797 87.0742 48.9952 87.3836 49.7545ZM111.523 55.9414C106.799 55.9414 102.974 52.1168 102.974 47.336C102.974 42.6115 106.799 38.7869 111.523 38.7869C115.601 38.7869 118.273 41.7678 119.032 44.5238L106.827 51.5825C108.008 52.8761 109.667 53.6916 111.523 53.7197C113.379 53.776 115.067 53.0167 116.304 51.7231L117.935 53.1854C116.22 55.2102 113.52 55.9414 111.523 55.9414ZM105.674 49.7545L116.417 43.652C115.404 42.1334 113.773 41.0085 111.523 41.0085C108.036 41.0085 105.196 43.8489 105.196 47.336C105.196 48.1797 105.365 48.9952 105.674 49.7545ZM129.87 55.9414C125.061 55.9414 121.265 52.1449 121.265 47.3079C121.265 42.5834 125.061 38.7869 129.87 38.7869C132.373 38.7869 134.623 39.8555 136.169 41.5429V35.9747H138.391V53.3541H136.169V53.1573C134.623 54.8727 132.373 55.9414 129.87 55.9414ZM129.87 53.6916C133.357 53.6916 136.169 50.8794 136.169 47.3079C136.169 43.8489 133.329 41.0085 129.87 41.0085C126.355 41.0085 123.514 43.8489 123.514 47.3079C123.514 50.8513 126.355 53.6916 129.87 53.6916ZM150.484 55.9414C147.981 55.9414 145.731 54.8727 144.184 53.1573V53.3541H141.963V35.9747H144.184V41.5429C145.731 39.8555 147.981 38.7869 150.484 38.7869C155.293 38.7869 159.089 42.5834 159.089 47.3079C159.089 52.1449 155.293 55.9414 150.484 55.9414ZM150.484 53.6916C153.999 53.6916 156.839 50.8513 156.839 47.3079C156.839 43.8489 153.999 41.0085 150.484 41.0085C147.025 41.0085 144.184 43.8489 144.184 47.3079C144.184 50.8794 146.996 53.6916 150.484 53.6916ZM169.938 55.9414C165.13 55.9414 161.333 52.1449 161.333 47.3079C161.333 42.5834 165.13 38.7869 169.938 38.7869C174.663 38.7869 178.459 42.5834 178.459 47.3079V53.3541H176.238V53.1573C174.691 54.8727 172.441 55.9414 169.938 55.9414ZM169.938 53.6916C173.426 53.6916 176.238 50.8794 176.238 47.3079C176.238 43.8489 173.397 41.0085 169.938 41.0085C166.423 41.0085 163.583 43.8489 163.583 47.3079C163.583 50.8513 166.423 53.6916 169.938 53.6916ZM189.298 55.9414C184.546 55.9414 180.693 52.1168 180.693 47.336C180.693 42.6115 184.546 38.7869 189.298 38.7869C191.858 38.7869 194.192 39.968 195.738 41.7678L194.501 43.7364C193.348 42.0772 191.464 41.0085 189.298 41.0085C185.811 41.0085 182.915 43.8489 182.915 47.336C182.915 50.8232 185.811 53.7197 189.298 53.7197C191.295 53.7197 193.123 52.7355 194.248 51.245L195.851 52.8479C194.276 54.7602 191.914 55.9414 189.298 55.9414ZM201.42 46.4361V55.6602H199.226V35.131H201.42V43.2583L205.329 39.0681H208.169L203.051 44.6363L210.559 55.6602H208.057L201.504 46.3236L201.42 46.4361Z" fill="white"/>
<path d="M71.6605 47.4766L71.608 47.2789L71.4559 47.3192V47.4766H71.6605ZM71.6605 55.6602V55.8648H71.8651V55.6602H71.6605ZM69.3545 55.6602H69.1499V55.8648H69.3545V55.6602ZM69.3545 35.9747V35.7701H69.1499V35.9747H69.3545ZM82.7406 35.9747H82.9452V35.7701H82.7406V35.9747ZM82.7406 38.112V38.3166H82.9452V38.112H82.7406ZM71.6605 38.112V37.9074H71.4559V38.112H71.6605ZM71.6605 45.3393H71.4559V45.6053L71.713 45.5371L71.6605 45.3393ZM80.3502 43.0333L80.5479 42.9804L80.4951 42.7832L80.2977 42.8356L80.3502 43.0333ZM80.8845 45.03L80.937 45.2278L81.1352 45.1752L81.0822 44.9771L80.8845 45.03ZM71.4559 47.4766V55.6602H71.8651V47.4766H71.4559ZM71.6605 55.4556H69.3545V55.8648H71.6605V55.4556ZM69.5591 55.6602V35.9747H69.1499V55.6602H69.5591ZM69.3545 36.1793H82.7406V35.7701H69.3545V36.1793ZM82.536 35.9747V38.112H82.9452V35.9747H82.536ZM82.7406 37.9074H71.6605V38.3166H82.7406V37.9074ZM71.4559 38.112V45.3393H71.8651V38.112H71.4559ZM71.713 45.5371L80.4027 43.2311L80.2977 42.8356L71.608 45.1416L71.713 45.5371ZM80.1526 43.0862L80.6869 45.0829L81.0822 44.9771L80.5479 42.9804L80.1526 43.0862ZM80.8321 44.8322L71.608 47.2789L71.7129 47.6744L80.937 45.2278L80.8321 44.8322ZM100.742 44.5238L100.844 44.7009L100.981 44.6218L100.939 44.4695L100.742 44.5238ZM88.5366 51.5825L88.4342 51.4053L88.2141 51.5326L88.3855 51.7204L88.5366 51.5825ZM93.233 53.7197L93.2392 53.5152L93.2361 53.5152L93.233 53.7197ZM98.0137 51.7231L98.1503 51.5707L98.0028 51.4385L97.8659 51.5816L98.0137 51.7231ZM99.6448 53.1854L99.8009 53.3177L99.9295 53.1659L99.7814 53.0331L99.6448 53.1854ZM87.3836 49.7545L87.1941 49.8317L87.282 50.0475L87.4846 49.9324L87.3836 49.7545ZM98.1262 43.652L98.2273 43.8299L98.4184 43.7214L98.2965 43.5385L98.1262 43.652ZM93.233 55.7368C88.6223 55.7368 84.8885 52.0047 84.8885 47.336H84.4793C84.4793 52.2289 88.3946 56.146 93.233 56.146V55.7368ZM84.8885 47.336C84.8885 42.7245 88.6215 38.9915 93.233 38.9915V38.5823C88.3955 38.5823 84.4793 42.4985 84.4793 47.336H84.8885ZM93.233 38.9915C97.1998 38.9915 99.8041 41.8913 100.544 44.5782L100.939 44.4695C100.16 41.6443 97.4216 38.5823 93.233 38.5823V38.9915ZM100.639 44.3467L88.4342 51.4053L88.639 51.7596L100.844 44.7009L100.639 44.3467ZM88.3855 51.7204C89.6022 53.053 91.3139 53.8953 93.2299 53.9243L93.2361 53.5152C91.4399 53.4879 89.8332 52.6991 88.6877 51.4445L88.3855 51.7204ZM93.2268 53.9242C95.145 53.9824 96.8871 53.1969 98.1616 51.8645L97.8659 51.5816C96.6656 52.8364 95.0331 53.5696 93.2392 53.5152L93.2268 53.9242ZM97.8772 51.8754L99.5082 53.3377L99.7814 53.0331L98.1503 51.5707L97.8772 51.8754ZM99.4887 53.0532C97.8244 55.0175 95.1916 55.7368 93.233 55.7368V56.146C95.2677 56.146 98.0343 55.4029 99.8009 53.3177L99.4887 53.0532ZM87.4846 49.9324L98.2273 43.8299L98.0252 43.4741L87.2825 49.5766L87.4846 49.9324ZM98.2965 43.5385C97.2518 41.9716 95.5609 40.8039 93.233 40.8039V41.2131C95.4046 41.2131 96.9758 42.2953 97.956 43.7655L98.2965 43.5385ZM93.233 40.8039C89.6328 40.8039 86.7009 43.7359 86.7009 47.336H87.1101C87.1101 43.9619 89.8588 41.2131 93.233 41.2131V40.8039ZM86.7009 47.336C86.7009 48.2072 86.8752 49.0489 87.1941 49.8317L87.5731 49.6773C87.2733 48.9415 87.1101 48.1521 87.1101 47.336H86.7009ZM119.032 44.5238L119.134 44.7009L119.271 44.6218L119.229 44.4695L119.032 44.5238ZM106.827 51.5825L106.725 51.4053L106.504 51.5326L106.676 51.7204L106.827 51.5825ZM111.523 53.7197L111.53 53.5152L111.526 53.5152L111.523 53.7197ZM116.304 51.7231L116.441 51.5707L116.293 51.4385L116.156 51.5816L116.304 51.7231ZM117.935 53.1854L118.091 53.3177L118.22 53.1659L118.072 53.0331L117.935 53.1854ZM105.674 49.7545L105.484 49.8317L105.572 50.0475L105.775 49.9324L105.674 49.7545ZM116.417 43.652L116.518 43.8299L116.709 43.7214L116.587 43.5385L116.417 43.652ZM111.523 55.7368C106.913 55.7368 103.179 52.0047 103.179 47.336H102.77C102.77 52.2289 106.685 56.146 111.523 56.146V55.7368ZM103.179 47.336C103.179 42.7245 106.912 38.9915 111.523 38.9915V38.5823C106.686 38.5823 102.77 42.4985 102.77 47.336H103.179ZM111.523 38.9915C115.49 38.9915 118.094 41.8913 118.835 44.5782L119.229 44.4695C118.451 41.6443 115.712 38.5823 111.523 38.5823V38.9915ZM118.929 44.3467L106.725 51.4053L106.929 51.7596L119.134 44.7009L118.929 44.3467ZM106.676 51.7204C107.893 53.053 109.604 53.8953 111.52 53.9243L111.526 53.5152C109.73 53.4879 108.124 52.6991 106.978 51.4445L106.676 51.7204ZM111.517 53.9242C113.435 53.9824 115.177 53.1969 116.452 51.8645L116.156 51.5816C114.956 52.8364 113.323 53.5696 111.53 53.5152L111.517 53.9242ZM116.168 51.8754L117.799 53.3377L118.072 53.0331L116.441 51.5707L116.168 51.8754ZM117.779 53.0532C116.115 55.0175 113.482 55.7368 111.523 55.7368V56.146C113.558 56.146 116.325 55.4029 118.091 53.3177L117.779 53.0532ZM105.775 49.9324L116.518 43.8299L116.316 43.4741L105.573 49.5766L105.775 49.9324ZM116.587 43.5385C115.542 41.9716 113.851 40.8039 111.523 40.8039V41.2131C113.695 41.2131 115.266 42.2953 116.246 43.7655L116.587 43.5385ZM111.523 40.8039C107.923 40.8039 104.991 43.7359 104.991 47.336H105.4C105.4 43.9619 108.149 41.2131 111.523 41.2131V40.8039ZM104.991 47.336C104.991 48.2072 105.166 49.0489 105.484 49.8317L105.863 49.6773C105.564 48.9415 105.4 48.1521 105.4 47.336H104.991ZM136.169 41.5429L136.018 41.6811L136.374 42.0688V41.5429H136.169ZM136.169 35.9747V35.7701H135.965V35.9747H136.169ZM138.391 35.9747H138.596V35.7701H138.391V35.9747ZM138.391 53.3541V53.5587H138.596V53.3541H138.391ZM136.169 53.3541H135.965V53.5587H136.169V53.3541ZM136.169 53.1573H136.374V52.6248L136.017 53.0203L136.169 53.1573ZM129.87 55.7368C125.174 55.7368 121.469 52.0323 121.469 47.3079H121.06C121.06 52.2575 124.948 56.146 129.87 56.146V55.7368ZM121.469 47.3079C121.469 42.6977 125.173 38.9915 129.87 38.9915V38.5823C124.949 38.5823 121.06 42.4691 121.06 47.3079H121.469ZM129.87 38.9915C132.314 38.9915 134.509 40.0347 136.018 41.6811L136.32 41.4046C134.736 39.6764 132.432 38.5823 129.87 38.5823V38.9915ZM136.374 41.5429V35.9747H135.965V41.5429H136.374ZM136.169 36.1793H138.391V35.7701H136.169V36.1793ZM138.186 35.9747V53.3541H138.596V35.9747H138.186ZM138.391 53.1495H136.169V53.5587H138.391V53.1495ZM136.374 53.3541V53.1573H135.965V53.3541H136.374ZM136.017 53.0203C134.508 54.6938 132.313 55.7368 129.87 55.7368V56.146C132.432 56.146 134.737 55.0517 136.321 53.2943L136.017 53.0203ZM129.87 53.8962C133.472 53.8962 136.374 50.9906 136.374 47.3079H135.965C135.965 50.7682 133.242 53.487 129.87 53.487V53.8962ZM136.374 47.3079C136.374 43.7359 133.442 40.8039 129.87 40.8039V41.2131C133.216 41.2131 135.965 43.9619 135.965 47.3079H136.374ZM129.87 40.8039C126.243 40.8039 123.31 43.7347 123.31 47.3079H123.719C123.719 43.9631 126.466 41.2131 129.87 41.2131V40.8039ZM123.31 47.3079C123.31 50.9637 126.241 53.8962 129.87 53.8962V53.487C126.468 53.487 123.719 50.7389 123.719 47.3079H123.31ZM144.184 53.1573L144.336 53.0203L143.98 52.6248V53.1573H144.184ZM144.184 53.3541V53.5587H144.389V53.3541H144.184ZM141.963 53.3541H141.758V53.5587H141.963V53.3541ZM141.963 35.9747V35.7701H141.758V35.9747H141.963ZM144.184 35.9747H144.389V35.7701H144.184V35.9747ZM144.184 41.5429H143.98V42.0688L144.335 41.6811L144.184 41.5429ZM150.484 55.7368C148.04 55.7368 145.845 54.6938 144.336 53.0203L144.032 53.2943C145.617 55.0517 147.921 56.146 150.484 56.146V55.7368ZM143.98 53.1573V53.3541H144.389V53.1573H143.98ZM144.184 53.1495H141.963V53.5587H144.184V53.1495ZM142.167 53.3541V35.9747H141.758V53.3541H142.167ZM141.963 36.1793H144.184V35.7701H141.963V36.1793ZM143.98 35.9747V41.5429H144.389V35.9747H143.98ZM144.335 41.6811C145.844 40.0347 148.04 38.9915 150.484 38.9915V38.5823C147.922 38.5823 145.618 39.6764 144.033 41.4046L144.335 41.6811ZM150.484 38.9915C155.181 38.9915 158.884 42.6977 158.884 47.3079H159.294C159.294 42.4691 155.404 38.5823 150.484 38.5823V38.9915ZM158.884 47.3079C158.884 52.0323 155.179 55.7368 150.484 55.7368V56.146C155.406 56.146 159.294 52.2575 159.294 47.3079H158.884ZM150.484 53.8962C154.112 53.8962 157.044 50.9637 157.044 47.3079H156.635C156.635 50.7389 153.885 53.487 150.484 53.487V53.8962ZM157.044 47.3079C157.044 43.7347 154.111 40.8039 150.484 40.8039V41.2131C153.887 41.2131 156.635 43.9631 156.635 47.3079H157.044ZM150.484 40.8039C146.912 40.8039 143.98 43.7359 143.98 47.3079H144.389C144.389 43.9619 147.138 41.2131 150.484 41.2131V40.8039ZM143.98 47.3079C143.98 50.9906 146.882 53.8962 150.484 53.8962V53.487C147.111 53.487 144.389 50.7682 144.389 47.3079H143.98ZM178.459 53.3541V53.5587H178.664V53.3541H178.459ZM176.238 53.3541H176.033V53.5587H176.238V53.3541ZM176.238 53.1573H176.442V52.6248L176.086 53.0203L176.238 53.1573ZM169.938 55.7368C165.243 55.7368 161.538 52.0323 161.538 47.3079H161.128C161.128 52.2575 165.016 56.146 169.938 56.146V55.7368ZM161.538 47.3079C161.538 42.6977 165.241 38.9915 169.938 38.9915V38.5823C165.018 38.5823 161.128 42.4691 161.128 47.3079H161.538ZM169.938 38.9915C174.55 38.9915 178.255 42.6964 178.255 47.3079H178.664C178.664 42.4704 174.776 38.5823 169.938 38.5823V38.9915ZM178.255 47.3079V53.3541H178.664V47.3079H178.255ZM178.459 53.1495H176.238V53.5587H178.459V53.1495ZM176.442 53.3541V53.1573H176.033V53.3541H176.442ZM176.086 53.0203C174.577 54.6938 172.382 55.7368 169.938 55.7368V56.146C172.501 56.146 174.805 55.0517 176.39 53.2943L176.086 53.0203ZM169.938 53.8962C173.54 53.8962 176.442 50.9906 176.442 47.3079H176.033C176.033 50.7682 173.311 53.487 169.938 53.487V53.8962ZM176.442 47.3079C176.442 43.7359 173.51 40.8039 169.938 40.8039V41.2131C173.284 41.2131 176.033 43.9619 176.033 47.3079H176.442ZM169.938 40.8039C166.311 40.8039 163.378 43.7347 163.378 47.3079H163.787C163.787 43.9631 166.535 41.2131 169.938 41.2131V40.8039ZM163.378 47.3079C163.378 50.9637 166.31 53.8962 169.938 53.8962V53.487C166.537 53.487 163.787 50.7389 163.787 47.3079H163.378ZM195.738 41.7678L195.912 41.8767L195.992 41.749L195.894 41.6345L195.738 41.7678ZM194.501 43.7364L194.333 43.8531L194.51 44.1072L194.674 43.8453L194.501 43.7364ZM194.248 51.245L194.393 51.1003L194.226 50.934L194.085 51.1217L194.248 51.245ZM195.851 52.8479L196.009 52.978L196.127 52.8346L195.996 52.7033L195.851 52.8479ZM189.298 55.7368C184.658 55.7368 180.898 52.0033 180.898 47.336H180.489C180.489 52.2302 184.433 56.146 189.298 56.146V55.7368ZM180.898 47.336C180.898 42.7258 184.658 38.9915 189.298 38.9915V38.5823C184.434 38.5823 180.489 42.4972 180.489 47.336H180.898ZM189.298 38.9915C191.794 38.9915 194.073 40.1437 195.583 41.9012L195.894 41.6345C194.311 39.7923 191.921 38.5823 189.298 38.5823V38.9915ZM195.565 41.659L194.328 43.6275L194.674 43.8453L195.912 41.8767L195.565 41.659ZM194.669 43.6196C193.48 41.908 191.534 40.8039 189.298 40.8039V41.2131C191.394 41.2131 193.216 42.2464 194.333 43.8531L194.669 43.6196ZM189.298 40.8039C185.701 40.8039 182.71 43.7335 182.71 47.336H183.119C183.119 43.9642 185.922 41.2131 189.298 41.2131V40.8039ZM182.71 47.336C182.71 50.9362 185.698 53.9243 189.298 53.9243V53.5151C185.924 53.5151 183.119 50.7102 183.119 47.336H182.71ZM189.298 53.9243C191.362 53.9243 193.25 52.9075 194.411 51.3682L194.085 51.1217C192.997 52.5634 191.228 53.5151 189.298 53.5151V53.9243ZM194.103 51.3897L195.706 52.9926L195.996 52.7033L194.393 51.1003L194.103 51.3897ZM195.693 52.7179C194.156 54.5844 191.851 55.7368 189.298 55.7368V56.146C191.977 56.146 194.396 54.9361 196.009 52.978L195.693 52.7179ZM201.42 46.4361L201.256 46.3134L201.215 46.3679V46.4361H201.42ZM201.42 55.6602V55.8648H201.624V55.6602H201.42ZM199.226 55.6602H199.022V55.8648H199.226V55.6602ZM199.226 35.131V34.9264H199.022V35.131H199.226ZM201.42 35.131H201.624V34.9264H201.42V35.131ZM201.42 43.2583H201.215V43.7776L201.569 43.3979L201.42 43.2583ZM205.329 39.0681V38.8635H205.24L205.179 38.9286L205.329 39.0681ZM208.169 39.0681L208.32 39.2066L208.635 38.8635H208.169V39.0681ZM203.051 44.6363L202.9 44.4978L202.79 44.6173L202.882 44.7515L203.051 44.6363ZM210.559 55.6602V55.8648H210.946L210.729 55.545L210.559 55.6602ZM208.057 55.6602L207.889 55.7777L207.95 55.8648H208.057V55.6602ZM201.504 46.3236L201.672 46.2061L201.51 45.9753L201.34 46.2009L201.504 46.3236ZM201.215 46.4361V55.6602H201.624V46.4361H201.215ZM201.42 55.4556H199.226V55.8648H201.42V55.4556ZM199.431 55.6602V35.131H199.022V55.6602H199.431ZM199.226 35.3356H201.42V34.9264H199.226V35.3356ZM201.215 35.131V43.2583H201.624V35.131H201.215ZM201.569 43.3979L205.478 39.2077L205.179 38.9286L201.27 43.1187L201.569 43.3979ZM205.329 39.2727H208.169V38.8635H205.329V39.2727ZM208.018 38.9297L202.9 44.4978L203.201 44.7748L208.32 39.2066L208.018 38.9297ZM202.882 44.7515L210.39 55.7753L210.729 55.545L203.22 44.5211L202.882 44.7515ZM210.559 55.4556H208.057V55.8648H210.559V55.4556ZM208.224 55.5426L201.672 46.2061L201.337 46.4412L207.889 55.7777L208.224 55.5426ZM201.34 46.2009L201.256 46.3134L201.583 46.5589L201.668 46.4464L201.34 46.2009Z" fill="white"/>
</svg>
