<svg width="33" height="32" viewBox="0 0 33 32" fill="none" xmlns="http://www.w3.org/2000/svg">
<path d="M32.7093 0.274637C32.4441 0.0093862 32.0462 -0.0721764 31.6982 0.0670738L1.57323 12.117C1.22854 12.2548 0.997732 12.5831 0.984482 12.9542C0.971294 13.3252 1.17829 13.669 1.51229 13.831L13.3915 19.5923L19.1529 31.4716C19.31 31.7956 19.6381 32 19.9962 32C20.0073 32 20.0185 31.9998 20.0297 31.9994C20.4006 31.9862 20.729 31.7554 20.8668 31.4107L32.9168 1.28576C33.0561 0.937513 32.9745 0.539825 32.7093 0.274637ZM4.23973 13.0698L28.1538 3.50427L13.902 17.756L4.23973 13.0698ZM19.914 28.7442L15.2278 19.0817L29.4797 4.83002L19.914 28.7442Z" fill="#17253F"/>
</svg>
