<svg width="108" height="108" viewBox="0 0 108 108" fill="none" xmlns="http://www.w3.org/2000/svg">
<g opacity="0.1" clip-path="url(#clip0_76_1139)">
<path d="M0 57.3237H26.1949C25.7471 38.2328 20.3324 36.0657 13.5316 35.4471L10.9091 35.122L10.9091 14.1297L13.932 14.2917C22.8125 14.7913 32.6307 16.3922 39.1811 24.4786C44.9231 31.5673 47.4545 43.1484 47.4545 60.9264L47.4545 93.8691H0L0 57.3237Z" fill="white"/>
<path d="M60.5469 93.8691L60.5469 57.3237H86.3921C85.9443 38.2328 80.7047 36.0657 73.904 35.4471L71.456 35.122L71.456 14.1297L74.3043 14.2917C83.1849 14.7913 93.0909 16.3922 99.6412 24.4786C105.383 31.5673 108.001 43.1484 108.001 60.9264V93.8691H60.5469Z" fill="white"/>
</g>
<defs>
<clipPath id="clip0_76_1139">
<rect width="108" height="108" fill="white" transform="matrix(1 0 0 -1 0 108)"/>
</clipPath>
</defs>
</svg>
