<svg width="17" height="17" viewBox="0 0 17 17" fill="none" xmlns="http://www.w3.org/2000/svg">
<path d="M6.96251 13.9319C8.39597 13.9319 9.72021 13.495 10.826 12.7578L14.8261 16.7578C15.1402 17.0718 15.659 17.0718 15.9865 16.7578L16.7646 15.9797C17.0786 15.6657 17.0786 15.1469 16.7646 14.8192L12.751 10.8329C13.488 9.72705 13.925 8.40281 13.925 6.96935C13.925 3.13314 10.7987 0.00683594 6.96251 0.00683594C3.1263 0.00683594 0 3.13314 0 6.96935C0 10.8054 3.11265 13.9319 6.96251 13.9319ZM6.96251 2.73723C9.297 2.73723 11.1946 4.63486 11.1946 6.96935C11.1946 9.30384 9.297 11.2015 6.96251 11.2015C4.62802 11.2015 2.7304 9.30384 2.7304 6.96935C2.7304 4.63486 4.62802 2.73723 6.96251 2.73723Z" fill="white"/>
</svg>
