<svg width="239" height="73" viewBox="0 0 239 73" fill="none" xmlns="http://www.w3.org/2000/svg">
<path d="M0.612793 17.392V55.2492C0.612793 61.6912 5.84974 66.906 12.2918 66.906H48.74C51.9721 66.906 54.8875 65.6079 57.0031 63.4901C59.1209 61.3966 60.4168 58.4813 60.4168 55.2492C60.4168 54.476 61.0991 53.8823 61.8966 53.9975L74.464 55.9558C75.6935 56.1596 76.4223 54.7042 75.5561 53.838L60.7823 38.7452C60.5542 38.4949 60.419 38.1981 60.419 37.8569V17.392C60.419 10.95 55.2065 5.71301 48.74 5.71301H12.2918C5.84974 5.71301 0.612793 10.95 0.612793 17.392Z" fill="white"/>
<path d="M26.7412 19.7854V28.6552H37.1771V19.7854H26.7412ZM28.5446 30.5552V56.7801C33.4474 55.9257 37.1749 51.6489 37.1749 46.5001V30.5552H28.5446ZM35.1958 19.7854V28.4465H37.812V19.7854H35.1958ZM39.7098 19.7854V28.4465H45.5768C50.361 28.4465 54.2379 24.5695 54.2379 19.7854H39.7098ZM35.1958 35.0736V43.7347H53.456V35.0736H35.1958Z" fill="#17253F"/>
<path d="M13.9662 19.7854C9.06565 19.7854 5.09644 23.7568 5.09644 28.6552H37.8122V19.7854H13.9662ZM16.2111 19.7854V56.9361H26.647V19.7854H16.2111Z" fill="#04DA8D"/>
<path d="M84.9746 11.1843V31H82.39V11.1843H76.0081V8.6635H91.3565V11.1843H84.9746ZM96.3521 18.683V31H93.7674V18.683C93.7674 15.1092 96.6392 12.2054 100.277 12.1735H102.032V14.7263H100.277C98.1709 14.7582 96.3521 16.4813 96.3521 18.683ZM112.527 31.3191C108.156 31.3191 104.55 27.7772 104.486 23.4375V12.1735H106.975L107.007 23.4375C107.103 26.3732 109.496 28.7983 112.527 28.7983C115.527 28.7983 117.92 26.3732 118.016 23.4375L118.048 12.1735H120.537V23.4375C120.473 27.7772 116.867 31.3191 112.527 31.3191ZM139.02 29.1812V31H136.467V29.1812C136.435 26.7561 135.031 25.2882 132.51 25.2563H129.957C126.32 25.2244 123.448 22.3207 123.448 18.7149C123.448 15.1092 126.32 12.2054 129.957 12.1735H136.69V14.7263H129.957C127.851 14.7582 126.032 16.4813 126.032 18.7149C126.032 20.9167 127.851 22.6398 129.957 22.6717H132.51C136.913 22.7036 139.02 24.9691 139.02 29.1812ZM150.048 28.7344V31.3191H148.58C144.942 31.2872 142.102 28.3834 142.102 24.8096V14.6944H141.305V12.1735H142.102V8.6635H144.623V12.1735H148.389V14.6944H144.623V24.8096C144.623 27.0113 146.474 28.7025 148.58 28.7344H150.048ZM167.644 12.1735V35.7864H165.123V29.1493C163.687 30.4895 161.74 31.3191 159.634 31.3191C155.263 31.3191 151.689 27.7772 151.625 23.4375V12.1735H154.114L154.146 23.4375C154.21 26.3732 156.635 28.7983 159.634 28.7983C162.634 28.7983 165.123 26.3732 165.123 23.4375V12.1735H167.644Z" fill="white"/>
<path d="M84.9746 11.1843V10.9522H84.7425V11.1843H84.9746ZM84.9746 31V31.2322H85.2068V31H84.9746ZM82.39 31H82.1578V31.2322H82.39V31ZM82.39 11.1843H82.6221V10.9522H82.39V11.1843ZM76.0081 11.1843H75.776V11.4165H76.0081V11.1843ZM76.0081 8.6635V8.43134H75.776V8.6635H76.0081ZM91.3565 8.6635H91.5887V8.43134H91.3565V8.6635ZM91.3565 11.1843V11.4165H91.5887V11.1843H91.3565ZM84.7425 11.1843V31H85.2068V11.1843H84.7425ZM84.9746 30.7678H82.39V31.2322H84.9746V30.7678ZM82.6221 31V11.1843H82.1578V31H82.6221ZM82.39 10.9522H76.0081V11.4165H82.39V10.9522ZM76.2403 11.1843V8.6635H75.776V11.1843H76.2403ZM76.0081 8.89565H91.3565V8.43134H76.0081V8.89565ZM91.1243 8.6635V11.1843H91.5887V8.6635H91.1243ZM91.3565 10.9522H84.9746V11.4165H91.3565V10.9522ZM96.3521 31V31.2322H96.5842V31H96.3521ZM93.7674 31H93.5352V31.2322H93.7674V31ZM100.277 12.1735V11.9414L100.275 11.9414L100.277 12.1735ZM102.032 12.1735H102.264V11.9414H102.032V12.1735ZM102.032 14.7263V14.9584H102.264V14.7263H102.032ZM100.277 14.7263V14.4941L100.273 14.4941L100.277 14.7263ZM96.1199 18.683V31H96.5842V18.683H96.1199ZM96.3521 30.7678H93.7674V31.2322H96.3521V30.7678ZM93.9995 31V18.683H93.5352V31H93.9995ZM93.9995 18.683C93.9995 15.2378 96.7675 12.4365 100.279 12.4057L100.275 11.9414C96.511 11.9744 93.5352 14.9806 93.5352 18.683H93.9995ZM100.277 12.4057H102.032V11.9414H100.277V12.4057ZM101.8 12.1735V14.7263H102.264V12.1735H101.8ZM102.032 14.4941H100.277V14.9584H102.032V14.4941ZM100.273 14.4941C98.0463 14.5279 96.1199 16.3488 96.1199 18.683H96.5842C96.5842 16.6138 98.2955 14.9885 100.28 14.9584L100.273 14.4941ZM104.486 23.4375H104.254L104.254 23.4409L104.486 23.4375ZM104.486 12.1735V11.9414H104.254V12.1735H104.486ZM106.975 12.1735L107.207 12.1729L107.207 11.9414H106.975V12.1735ZM107.007 23.4375L106.775 23.4382L106.775 23.4451L107.007 23.4375ZM118.016 23.4375L118.248 23.4451L118.248 23.4382L118.016 23.4375ZM118.048 12.1735V11.9414H117.816L117.815 12.1729L118.048 12.1735ZM120.537 12.1735H120.769V11.9414H120.537V12.1735ZM120.537 23.4375L120.769 23.4409V23.4375H120.537ZM112.527 31.0869C108.282 31.0869 104.78 27.6459 104.718 23.4341L104.254 23.4409C104.32 27.9085 108.03 31.5512 112.527 31.5512V31.0869ZM104.718 23.4375V12.1735H104.254V23.4375H104.718ZM104.486 12.4057H106.975V11.9414H104.486V12.4057ZM106.743 12.1742L106.775 23.4382L107.239 23.4368L107.207 12.1729L106.743 12.1742ZM106.775 23.4451C106.875 26.5024 109.367 29.0304 112.527 29.0304V28.5661C109.625 28.5661 107.331 26.2439 107.239 23.4299L106.775 23.4451ZM112.527 29.0304C115.656 29.0304 118.148 26.5015 118.248 23.4451L117.784 23.4299C117.692 26.2448 115.397 28.5661 112.527 28.5661V29.0304ZM118.248 23.4382L118.28 12.1742L117.815 12.1729L117.784 23.4368L118.248 23.4382ZM118.048 12.4057H120.537V11.9414H118.048V12.4057ZM120.304 12.1735V23.4375H120.769V12.1735H120.304ZM120.304 23.4341C120.242 27.6465 116.741 31.0869 112.527 31.0869V31.5512C116.993 31.5512 120.703 27.9079 120.769 23.4409L120.304 23.4341ZM139.02 31V31.2322H139.252V31H139.02ZM136.467 31H136.235V31.2322H136.467V31ZM136.467 29.1812H136.699L136.699 29.1781L136.467 29.1812ZM132.51 25.2563L132.513 25.0242H132.51V25.2563ZM129.957 25.2563L129.955 25.4885H129.957V25.2563ZM129.957 12.1735V11.9414L129.955 11.9414L129.957 12.1735ZM136.69 12.1735H136.922V11.9414H136.69V12.1735ZM136.69 14.7263V14.9584H136.922V14.7263H136.69ZM129.957 14.7263V14.4941L129.954 14.4941L129.957 14.7263ZM129.957 22.6717L129.954 22.9038H129.957V22.6717ZM132.51 22.6717L132.512 22.4395H132.51V22.6717ZM138.787 29.1812V31H139.252V29.1812H138.787ZM139.02 30.7678H136.467V31.2322H139.02V30.7678ZM136.699 31V29.1812H136.235V31H136.699ZM136.699 29.1781C136.682 27.9218 136.309 26.8849 135.586 26.1576C134.863 25.4301 133.818 25.0407 132.513 25.0242L132.507 25.4885C133.723 25.5039 134.64 25.8643 135.257 26.485C135.874 27.1059 136.219 28.0155 136.235 29.1842L136.699 29.1781ZM132.51 25.0242H129.957V25.4885H132.51V25.0242ZM129.959 25.0242C126.449 24.9934 123.68 22.1928 123.68 18.7149H123.216C123.216 22.4485 126.191 25.4554 129.955 25.4885L129.959 25.0242ZM123.68 18.7149C123.68 15.237 126.449 12.4365 129.959 12.4057L129.955 11.9414C126.191 11.9744 123.216 14.9813 123.216 18.7149H123.68ZM129.957 12.4057H136.69V11.9414H129.957V12.4057ZM136.458 12.1735V14.7263H136.922V12.1735H136.458ZM136.69 14.4941H129.957V14.9584H136.69V14.4941ZM129.954 14.4941C127.725 14.5279 125.8 16.35 125.8 18.7149H126.265C126.265 16.6126 127.977 14.9884 129.961 14.9584L129.954 14.4941ZM125.8 18.7149C125.8 21.0492 127.727 22.8701 129.954 22.9038L129.961 22.4395C127.976 22.4095 126.265 20.7841 126.265 18.7149H125.8ZM129.957 22.9038H132.51V22.4395H129.957V22.9038ZM132.508 22.9038C134.673 22.9195 136.231 23.4835 137.25 24.5215C138.27 25.56 138.787 27.1111 138.787 29.1812H139.252C139.252 27.0392 138.716 25.3515 137.582 24.1962C136.447 23.0405 134.751 22.4558 132.512 22.4395L132.508 22.9038ZM150.048 28.7344H150.28V28.5023H150.048V28.7344ZM150.048 31.3191V31.5512H150.28V31.3191H150.048ZM148.58 31.3191L148.578 31.5512H148.58V31.3191ZM142.102 14.6944H142.335V14.4622H142.102V14.6944ZM141.305 14.6944H141.073V14.9265H141.305V14.6944ZM141.305 12.1735V11.9414H141.073V12.1735H141.305ZM142.102 12.1735V12.4057H142.335V12.1735H142.102ZM142.102 8.6635V8.43134H141.87V8.6635H142.102ZM144.623 8.6635H144.855V8.43134H144.623V8.6635ZM144.623 12.1735H144.391V12.4057H144.623V12.1735ZM148.389 12.1735H148.621V11.9414H148.389V12.1735ZM148.389 14.6944V14.9265H148.621V14.6944H148.389ZM144.623 14.6944V14.4622H144.391V14.6944H144.623ZM148.58 28.7344L148.577 28.9666H148.58V28.7344ZM149.816 28.7344V31.3191H150.28V28.7344H149.816ZM150.048 31.0869H148.58V31.5512H150.048V31.0869ZM148.582 31.087C145.072 31.0562 142.335 28.2563 142.335 24.8096H141.87C141.87 28.5105 144.813 31.5182 148.578 31.5512L148.582 31.087ZM142.335 24.8096V14.6944H141.87V24.8096H142.335ZM142.102 14.4622H141.305V14.9265H142.102V14.4622ZM141.537 14.6944V12.1735H141.073V14.6944H141.537ZM141.305 12.4057H142.102V11.9414H141.305V12.4057ZM142.335 12.1735V8.6635H141.87V12.1735H142.335ZM142.102 8.89565H144.623V8.43134H142.102V8.89565ZM144.391 8.6635V12.1735H144.855V8.6635H144.391ZM144.623 12.4057H148.389V11.9414H144.623V12.4057ZM148.156 12.1735V14.6944H148.621V12.1735H148.156ZM148.389 14.4622H144.623V14.9265H148.389V14.4622ZM144.391 14.6944V24.8096H144.855V14.6944H144.391ZM144.391 24.8096C144.391 27.1486 146.354 28.9329 148.577 28.9666L148.584 28.5023C146.594 28.4722 144.855 26.8741 144.855 24.8096H144.391ZM148.58 28.9666H150.048V28.5023H148.58V28.9666ZM167.644 12.1735H167.876V11.9414H167.644V12.1735ZM167.644 35.7864V36.0185H167.876V35.7864H167.644ZM165.123 35.7864H164.891V36.0185H165.123V35.7864ZM165.123 29.1493H165.355V28.615L164.964 28.9795L165.123 29.1493ZM151.625 23.4375H151.393L151.393 23.4409L151.625 23.4375ZM151.625 12.1735V11.9414H151.393V12.1735H151.625ZM154.114 12.1735L154.346 12.1729L154.346 11.9414H154.114V12.1735ZM154.146 23.4375L153.914 23.4382L153.914 23.4425L154.146 23.4375ZM165.123 12.1735V11.9414H164.891V12.1735H165.123ZM167.411 12.1735V35.7864H167.876V12.1735H167.411ZM167.644 35.5542H165.123V36.0185H167.644V35.5542ZM165.355 35.7864V29.1493H164.891V35.7864H165.355ZM164.964 28.9795C163.57 30.2814 161.679 31.0869 159.634 31.0869V31.5512C161.802 31.5512 163.804 30.6975 165.281 29.319L164.964 28.9795ZM159.634 31.0869C155.39 31.0869 151.919 27.6471 151.857 23.4341L151.393 23.4409C151.459 27.9073 155.136 31.5512 159.634 31.5512V31.0869ZM151.857 23.4375V12.1735H151.393V23.4375H151.857ZM151.625 12.4057H154.114V11.9414H151.625V12.4057ZM153.882 12.1742L153.914 23.4382L154.378 23.4368L154.346 12.1729L153.882 12.1742ZM153.914 23.4425C153.98 26.5032 156.507 29.0304 159.634 29.0304V28.5661C156.762 28.5661 154.439 26.2431 154.378 23.4325L153.914 23.4425ZM159.634 29.0304C162.757 29.0304 165.355 26.5067 165.355 23.4375H164.891C164.891 26.2397 162.511 28.5661 159.634 28.5661V29.0304ZM165.355 23.4375V12.1735H164.891V23.4375H165.355ZM165.123 12.4057H167.644V11.9414H165.123V12.4057Z" fill="white"/>
<path d="M80.3795 53.6501V62.9357H77.7629V40.5992H92.9517V43.0243H80.3795V51.225L90.2394 48.6084L90.8457 50.874L80.3795 53.6501ZM104.857 63.2548C99.4964 63.2548 95.1567 58.9151 95.1567 53.4905C95.1567 48.1298 99.4964 43.7901 104.857 43.7901C109.484 43.7901 112.515 47.1725 113.377 50.2996L99.5283 58.3088C100.868 59.7766 102.751 60.702 104.857 60.7339C106.963 60.7977 108.878 59.9362 110.282 58.4684L112.132 60.1277C110.186 62.4251 107.123 63.2548 104.857 63.2548ZM98.22 56.2347L110.409 49.3104C109.261 47.5873 107.41 46.3109 104.857 46.3109C100.9 46.3109 97.6775 49.5338 97.6775 53.4905C97.6775 54.4478 97.869 55.3732 98.22 56.2347ZM125.611 63.2548C120.25 63.2548 115.91 58.9151 115.91 53.4905C115.91 48.1298 120.25 43.7901 125.611 43.7901C130.237 43.7901 133.269 47.1725 134.13 50.2996L120.282 58.3088C121.622 59.7766 123.505 60.702 125.611 60.7339C127.717 60.7977 129.631 59.9362 131.035 58.4684L132.886 60.1277C130.939 62.4251 127.876 63.2548 125.611 63.2548ZM118.973 56.2347L131.163 49.3104C130.014 47.5873 128.163 46.3109 125.611 46.3109C121.654 46.3109 118.431 49.5338 118.431 53.4905C118.431 54.4478 118.622 55.3732 118.973 56.2347ZM146.428 63.2548C140.971 63.2548 136.664 58.947 136.664 53.4586C136.664 48.0978 140.971 43.7901 146.428 43.7901C149.268 43.7901 151.821 45.0026 153.576 46.9172V40.5992H156.096V60.3191H153.576V60.0957C151.821 62.0422 149.268 63.2548 146.428 63.2548ZM146.428 60.702C150.385 60.702 153.576 57.5111 153.576 53.4586C153.576 49.5338 150.353 46.3109 146.428 46.3109C142.439 46.3109 139.216 49.5338 139.216 53.4586C139.216 57.4792 142.439 60.702 146.428 60.702ZM169.818 63.2548C166.978 63.2548 164.425 62.0422 162.67 60.0957V60.3191H160.149V40.5992H162.67V46.9172C164.425 45.0026 166.978 43.7901 169.818 43.7901C175.274 43.7901 179.582 48.0978 179.582 53.4586C179.582 58.947 175.274 63.2548 169.818 63.2548ZM169.818 60.702C173.806 60.702 177.029 57.4792 177.029 53.4586C177.029 49.5338 173.806 46.3109 169.818 46.3109C165.893 46.3109 162.67 49.5338 162.67 53.4586C162.67 57.5111 165.861 60.702 169.818 60.702ZM191.892 63.2548C186.436 63.2548 182.128 58.947 182.128 53.4586C182.128 48.0978 186.436 43.7901 191.892 43.7901C197.253 43.7901 201.561 48.0978 201.561 53.4586V60.3191H199.04V60.0957C197.285 62.0422 194.732 63.2548 191.892 63.2548ZM191.892 60.702C195.849 60.702 199.04 57.5111 199.04 53.4586C199.04 49.5338 195.817 46.3109 191.892 46.3109C187.904 46.3109 184.681 49.5338 184.681 53.4586C184.681 57.4792 187.904 60.702 191.892 60.702ZM213.86 63.2548C208.467 63.2548 204.096 58.9151 204.096 53.4905C204.096 48.1298 208.467 43.7901 213.86 43.7901C216.764 43.7901 219.412 45.1303 221.167 47.1725L219.763 49.4061C218.455 47.5235 216.317 46.3109 213.86 46.3109C209.903 46.3109 206.616 49.5338 206.616 53.4905C206.616 57.4473 209.903 60.7339 213.86 60.7339C216.125 60.7339 218.199 59.6171 219.476 57.9259L221.295 59.7447C219.508 61.9146 216.827 63.2548 213.86 63.2548ZM227.613 52.4694V62.9357H225.124V39.6419H227.613V48.8637L232.049 44.1092H235.272L229.464 50.4272L237.984 62.9357H235.144L227.709 52.3418L227.613 52.4694Z" fill="white"/>
<path d="M80.3795 53.6501L80.3199 53.4257L80.1473 53.4715V53.6501H80.3795ZM80.3795 62.9357V63.1678H80.6116V62.9357H80.3795ZM77.7629 62.9357H77.5307V63.1678H77.7629V62.9357ZM77.7629 40.5992V40.367H77.5307V40.5992H77.7629ZM92.9517 40.5992H93.1839V40.367H92.9517V40.5992ZM92.9517 43.0243V43.2564H93.1839V43.0243H92.9517ZM80.3795 43.0243V42.7921H80.1473V43.0243H80.3795ZM80.3795 51.225H80.1473V51.5268L80.439 51.4493L80.3795 51.225ZM90.2394 48.6084L90.4637 48.5484L90.4038 48.3246L90.1799 48.384L90.2394 48.6084ZM90.8457 50.874L90.9052 51.0983L91.1301 51.0387L91.07 50.8139L90.8457 50.874ZM80.1473 53.6501V62.9357H80.6116V53.6501H80.1473ZM80.3795 62.7035H77.7629V63.1678H80.3795V62.7035ZM77.9951 62.9357V40.5992H77.5307V62.9357H77.9951ZM77.7629 40.8313H92.9517V40.367H77.7629V40.8313ZM92.7196 40.5992V43.0243H93.1839V40.5992H92.7196ZM92.9517 42.7921H80.3795V43.2564H92.9517V42.7921ZM80.1473 43.0243V51.225H80.6116V43.0243H80.1473ZM80.439 51.4493L90.299 48.8328L90.1799 48.384L80.3199 51.0006L80.439 51.4493ZM90.0152 48.6684L90.6214 50.934L91.07 50.8139L90.4637 48.5484L90.0152 48.6684ZM90.7862 50.6496L80.3199 53.4257L80.439 53.8745L90.9052 51.0983L90.7862 50.6496ZM113.377 50.2996L113.493 50.5006L113.648 50.4108L113.601 50.2379L113.377 50.2996ZM99.5283 58.3088L99.4121 58.1079L99.1623 58.2523L99.3568 58.4654L99.5283 58.3088ZM104.857 60.7339L104.864 60.5019L104.861 60.5018L104.857 60.7339ZM110.282 58.4684L110.437 58.2955L110.269 58.1455L110.114 58.3079L110.282 58.4684ZM112.132 60.1277L112.31 60.2777L112.455 60.1055L112.287 59.9548L112.132 60.1277ZM98.22 56.2347L98.005 56.3223L98.1048 56.5672L98.3347 56.4366L98.22 56.2347ZM110.409 49.3104L110.524 49.5123L110.741 49.3891L110.603 49.1816L110.409 49.3104ZM104.857 63.0226C99.6256 63.0226 95.3889 58.7879 95.3889 53.4905H94.9246C94.9246 59.0423 99.3672 63.4869 104.857 63.4869V63.0226ZM95.3889 53.4905C95.3889 48.258 99.6246 44.0222 104.857 44.0222V43.5579C99.3682 43.5579 94.9246 48.0015 94.9246 53.4905H95.3889ZM104.857 44.0222C109.358 44.0222 112.313 47.3126 113.153 50.3613L113.601 50.2379C112.718 47.0324 109.61 43.5579 104.857 43.5579V44.0222ZM113.261 50.0986L99.4121 58.1079L99.6445 58.5098L113.493 50.5006L113.261 50.0986ZM99.3568 58.4654C100.737 59.9774 102.68 60.9331 104.854 60.9661L104.861 60.5018C102.823 60.4709 101 59.5759 99.6997 58.1523L99.3568 58.4654ZM104.85 60.966C107.027 61.0319 109.003 60.1407 110.449 58.6288L110.114 58.3079C108.752 59.7317 106.9 60.5636 104.864 60.5019L104.85 60.966ZM110.127 58.6412L111.977 60.3005L112.287 59.9548L110.437 58.2955L110.127 58.6412ZM111.955 59.9776C110.067 62.2065 107.08 63.0226 104.857 63.0226V63.4869C107.166 63.4869 110.305 62.6437 112.31 60.2777L111.955 59.9776ZM98.3347 56.4366L110.524 49.5123L110.295 49.1085L98.1053 56.0329L98.3347 56.4366ZM110.603 49.1816C109.417 47.4037 107.499 46.0788 104.857 46.0788V46.5431C107.321 46.5431 109.104 47.7709 110.216 49.4392L110.603 49.1816ZM104.857 46.0788C100.772 46.0788 97.4454 49.4056 97.4454 53.4905H97.9097C97.9097 49.662 101.029 46.5431 104.857 46.5431V46.0788ZM97.4454 53.4905C97.4454 54.4791 97.6431 55.4341 98.005 56.3223L98.435 56.1471C98.0948 55.3122 97.9097 54.4165 97.9097 53.4905H97.4454ZM134.13 50.2996L134.247 50.5006L134.402 50.4108L134.354 50.2379L134.13 50.2996ZM120.282 58.3088L120.166 58.1079L119.916 58.2523L120.11 58.4654L120.282 58.3088ZM125.611 60.7339L125.618 60.5019L125.614 60.5018L125.611 60.7339ZM131.035 58.4684L131.19 58.2955L131.023 58.1455L130.867 58.3079L131.035 58.4684ZM132.886 60.1277L133.063 60.2777L133.209 60.1055L133.041 59.9548L132.886 60.1277ZM118.973 56.2347L118.759 56.3223L118.858 56.5672L119.088 56.4366L118.973 56.2347ZM131.163 49.3104L131.278 49.5123L131.494 49.3891L131.356 49.1816L131.163 49.3104ZM125.611 63.0226C120.379 63.0226 116.142 58.7879 116.142 53.4905H115.678C115.678 59.0423 120.121 63.4869 125.611 63.4869V63.0226ZM116.142 53.4905C116.142 48.258 120.378 44.0222 125.611 44.0222V43.5579C120.122 43.5579 115.678 48.0015 115.678 53.4905H116.142ZM125.611 44.0222C130.112 44.0222 133.067 47.3126 133.907 50.3613L134.354 50.2379C133.471 47.0324 130.363 43.5579 125.611 43.5579V44.0222ZM134.014 50.0986L120.166 58.1079L120.398 58.5098L134.247 50.5006L134.014 50.0986ZM120.11 58.4654C121.491 59.9774 123.433 60.9331 125.607 60.9661L125.614 60.5018C123.576 60.4709 121.753 59.5759 120.453 58.1523L120.11 58.4654ZM125.604 60.966C127.78 61.0319 129.757 60.1407 131.203 58.6288L130.867 58.3079C129.506 59.7317 127.653 60.5636 125.618 60.5019L125.604 60.966ZM130.88 58.6412L132.731 60.3005L133.041 59.9548L131.19 58.2955L130.88 58.6412ZM132.709 59.9776C130.82 62.2065 127.833 63.0226 125.611 63.0226V63.4869C127.919 63.4869 131.059 62.6437 133.063 60.2777L132.709 59.9776ZM119.088 56.4366L131.278 49.5123L131.048 49.1085L118.859 56.0329L119.088 56.4366ZM131.356 49.1816C130.171 47.4037 128.252 46.0788 125.611 46.0788V46.5431C128.075 46.5431 129.858 47.7709 130.97 49.4392L131.356 49.1816ZM125.611 46.0788C121.526 46.0788 118.199 49.4056 118.199 53.4905H118.663C118.663 49.662 121.782 46.5431 125.611 46.5431V46.0788ZM118.199 53.4905C118.199 54.4791 118.397 55.4341 118.759 56.3223L119.188 56.1471C118.848 55.3122 118.663 54.4165 118.663 53.4905H118.199ZM153.576 46.9172L153.405 47.0741L153.808 47.514V46.9172H153.576ZM153.576 40.5992V40.367H153.343V40.5992H153.576ZM156.096 40.5992H156.329V40.367H156.096V40.5992ZM156.096 60.3191V60.5513H156.329V60.3191H156.096ZM153.576 60.3191H153.343V60.5513H153.576V60.3191ZM153.576 60.0957H153.808V59.4916L153.403 59.9403L153.576 60.0957ZM146.428 63.0226C141.1 63.0226 136.896 58.8193 136.896 53.4586H136.432C136.432 59.0747 140.843 63.4869 146.428 63.4869V63.0226ZM136.896 53.4586C136.896 48.2276 141.098 44.0222 146.428 44.0222V43.5579C140.845 43.5579 136.432 47.9681 136.432 53.4586H136.896ZM146.428 44.0222C149.201 44.0222 151.692 45.2059 153.405 47.0741L153.747 46.7603C151.949 44.7994 149.335 43.5579 146.428 43.5579V44.0222ZM153.808 46.9172V40.5992H153.343V46.9172H153.808ZM153.576 40.8313H156.096V40.367H153.576V40.8313ZM155.864 40.5992V60.3191H156.329V40.5992H155.864ZM156.096 60.087H153.576V60.5513H156.096V60.087ZM153.808 60.3191V60.0957H153.343V60.3191H153.808ZM153.403 59.9403C151.691 61.8392 149.201 63.0226 146.428 63.0226V63.4869C149.335 63.4869 151.95 62.2453 153.748 60.2512L153.403 59.9403ZM146.428 60.9342C150.515 60.9342 153.808 57.6373 153.808 53.4586H153.343C153.343 57.3849 150.254 60.4699 146.428 60.4699V60.9342ZM153.808 53.4586C153.808 49.4056 150.481 46.0788 146.428 46.0788V46.5431C150.225 46.5431 153.343 49.662 153.343 53.4586H153.808ZM146.428 46.0788C142.312 46.0788 138.984 49.4042 138.984 53.4586H139.449C139.449 49.6633 142.566 46.5431 146.428 46.5431V46.0788ZM138.984 53.4586C138.984 57.6067 142.31 60.9342 146.428 60.9342V60.4699C142.568 60.4699 139.449 57.3516 139.449 53.4586H138.984ZM162.67 60.0957L162.842 59.9403L162.438 59.4916V60.0957H162.67ZM162.67 60.3191V60.5513H162.902V60.3191H162.67ZM160.149 60.3191H159.917V60.5513H160.149V60.3191ZM160.149 40.5992V40.367H159.917V40.5992H160.149ZM162.67 40.5992H162.902V40.367H162.67V40.5992ZM162.67 46.9172H162.438V47.514L162.841 47.0741L162.67 46.9172ZM169.818 63.0226C167.045 63.0226 164.555 61.8392 162.842 59.9403L162.498 60.2512C164.296 62.2453 166.91 63.4869 169.818 63.4869V63.0226ZM162.438 60.0957V60.3191H162.902V60.0957H162.438ZM162.67 60.087H160.149V60.5513H162.67V60.087ZM160.381 60.3191V40.5992H159.917V60.3191H160.381ZM160.149 40.8313H162.67V40.367H160.149V40.8313ZM162.438 40.5992V46.9172H162.902V40.5992H162.438ZM162.841 47.0741C164.554 45.2059 167.045 44.0222 169.818 44.0222V43.5579C166.911 43.5579 164.296 44.7994 162.499 46.7603L162.841 47.0741ZM169.818 44.0222C175.147 44.0222 179.35 48.2276 179.35 53.4586H179.814C179.814 47.9681 175.401 43.5579 169.818 43.5579V44.0222ZM179.35 53.4586C179.35 58.8193 175.145 63.0226 169.818 63.0226V63.4869C175.403 63.4869 179.814 59.0747 179.814 53.4586H179.35ZM169.818 60.9342C173.935 60.9342 177.261 57.6067 177.261 53.4586H176.797C176.797 57.3516 173.677 60.4699 169.818 60.4699V60.9342ZM177.261 53.4586C177.261 49.4042 173.933 46.0788 169.818 46.0788V46.5431C173.68 46.5431 176.797 49.6633 176.797 53.4586H177.261ZM169.818 46.0788C165.765 46.0788 162.438 49.4056 162.438 53.4586H162.902C162.902 49.662 166.021 46.5431 169.818 46.5431V46.0788ZM162.438 53.4586C162.438 57.6373 165.731 60.9342 169.818 60.9342V60.4699C165.991 60.4699 162.902 57.3849 162.902 53.4586H162.438ZM201.561 60.3191V60.5513H201.793V60.3191H201.561ZM199.04 60.3191H198.808V60.5513H199.04V60.3191ZM199.04 60.0957H199.272V59.4916L198.868 59.9403L199.04 60.0957ZM191.892 63.0226C186.565 63.0226 182.36 58.8193 182.36 53.4586H181.896C181.896 59.0747 186.307 63.4869 191.892 63.4869V63.0226ZM182.36 53.4586C182.36 48.2276 186.563 44.0222 191.892 44.0222V43.5579C186.309 43.5579 181.896 47.9681 181.896 53.4586H182.36ZM191.892 44.0222C197.125 44.0222 201.329 48.2261 201.329 53.4586H201.793C201.793 47.9696 197.381 43.5579 191.892 43.5579V44.0222ZM201.329 53.4586V60.3191H201.793V53.4586H201.329ZM201.561 60.087H199.04V60.5513H201.561V60.087ZM199.272 60.3191V60.0957H198.808V60.3191H199.272ZM198.868 59.9403C197.156 61.8392 194.665 63.0226 191.892 63.0226V63.4869C194.8 63.4869 197.415 62.2453 199.213 60.2512L198.868 59.9403ZM191.892 60.9342C195.979 60.9342 199.272 57.6373 199.272 53.4586H198.808C198.808 57.3849 195.719 60.4699 191.892 60.4699V60.9342ZM199.272 53.4586C199.272 49.4056 195.946 46.0788 191.892 46.0788V46.5431C195.689 46.5431 198.808 49.662 198.808 53.4586H199.272ZM191.892 46.0788C187.777 46.0788 184.449 49.4042 184.449 53.4586H184.913C184.913 49.6633 188.031 46.5431 191.892 46.5431V46.0788ZM184.449 53.4586C184.449 57.6067 187.775 60.9342 191.892 60.9342V60.4699C188.033 60.4699 184.913 57.3516 184.913 53.4586H184.449ZM221.167 47.1725L221.364 47.296L221.455 47.151L221.343 47.0212L221.167 47.1725ZM219.763 49.4061L219.572 49.5386L219.773 49.8269L219.96 49.5297L219.763 49.4061ZM219.476 57.9259L219.64 57.7618L219.451 57.5731L219.29 57.7861L219.476 57.9259ZM221.295 59.7447L221.474 59.8923L221.608 59.7296L221.459 59.5806L221.295 59.7447ZM213.86 63.0226C208.595 63.0226 204.328 58.7864 204.328 53.4905H203.863C203.863 59.0438 208.339 63.4869 213.86 63.4869V63.0226ZM204.328 53.4905C204.328 48.2595 208.594 44.0222 213.86 44.0222V43.5579C208.34 43.5579 203.863 48.0001 203.863 53.4905H204.328ZM213.86 44.0222C216.692 44.0222 219.277 45.3296 220.991 47.3238L221.343 47.0212C219.547 44.9309 216.835 43.5579 213.86 43.5579V44.0222ZM220.97 47.0489L219.566 49.2826L219.96 49.5297L221.364 47.296L220.97 47.0489ZM219.954 49.2737C218.604 47.3315 216.396 46.0788 213.86 46.0788V46.5431C216.237 46.5431 218.305 47.7155 219.572 49.5386L219.954 49.2737ZM213.86 46.0788C209.777 46.0788 206.384 49.4029 206.384 53.4905H206.849C206.849 49.6646 210.029 46.5431 213.86 46.5431V46.0788ZM206.384 53.4905C206.384 57.5755 209.775 60.9661 213.86 60.9661V60.5018C210.031 60.5018 206.849 57.3191 206.849 53.4905H206.384ZM213.86 60.9661C216.201 60.9661 218.343 59.8124 219.661 58.0658L219.29 57.7861C218.056 59.4218 216.049 60.5018 213.86 60.5018V60.9661ZM219.312 58.0901L221.13 59.9089L221.459 59.5806L219.64 57.7618L219.312 58.0901ZM221.115 59.5972C219.371 61.7151 216.756 63.0226 213.86 63.0226V63.4869C216.899 63.4869 219.644 62.1141 221.474 59.8923L221.115 59.5972ZM227.613 52.4694L227.428 52.3301L227.381 52.392V52.4694H227.613ZM227.613 62.9357V63.1678H227.846V62.9357H227.613ZM225.124 62.9357H224.892V63.1678H225.124V62.9357ZM225.124 39.6419V39.4097H224.892V39.6419H225.124ZM227.613 39.6419H227.846V39.4097H227.613V39.6419ZM227.613 48.8637H227.381V49.4529L227.783 49.022L227.613 48.8637ZM232.049 44.1092V43.877H231.948L231.879 43.9508L232.049 44.1092ZM235.272 44.1092L235.443 44.2663L235.8 43.877H235.272V44.1092ZM229.464 50.4272L229.293 50.2701L229.169 50.4057L229.272 50.5579L229.464 50.4272ZM237.984 62.9357V63.1678H238.423L238.176 62.805L237.984 62.9357ZM235.144 62.9357L234.954 63.069L235.023 63.1678H235.144V62.9357ZM227.709 52.3418L227.899 52.2084L227.715 51.9465L227.523 52.2025L227.709 52.3418ZM227.381 52.4694V62.9357H227.846V52.4694H227.381ZM227.613 62.7035H225.124V63.1678H227.613V62.7035ZM225.357 62.9357V39.6419H224.892V62.9357H225.357ZM225.124 39.874H227.613V39.4097H225.124V39.874ZM227.381 39.6419V48.8637H227.846V39.6419H227.381ZM227.783 49.022L232.219 44.2675L231.879 43.9508L227.444 48.7053L227.783 49.022ZM232.049 44.3413H235.272V43.877H232.049V44.3413ZM235.101 43.9521L229.293 50.2701L229.635 50.5843L235.443 44.2663L235.101 43.9521ZM229.272 50.5579L237.792 63.0664L238.176 62.805L229.656 50.2965L229.272 50.5579ZM237.984 62.7035H235.144V63.1678H237.984V62.7035ZM235.334 62.8023L227.899 52.2084L227.519 52.4751L234.954 63.069L235.334 62.8023ZM227.523 52.2025L227.428 52.3301L227.799 52.6087L227.895 52.4811L227.523 52.2025Z" fill="white"/>
</svg>
