<svg width="125" height="22" viewBox="0 0 125 22" fill="none" xmlns="http://www.w3.org/2000/svg">
<path d="M10.1031 1.61829C10.3757 0.775024 11.5628 0.775021 11.8355 1.61829L13.7298 7.47729C13.8517 7.85441 14.2014 8.10974 14.596 8.10974L20.7262 8.10974C21.6085 8.10974 21.9753 9.24435 21.2615 9.76552L16.3021 13.3866C15.9829 13.6197 15.8493 14.0328 15.9713 14.4099L17.8656 20.2689C18.1382 21.1122 17.1778 21.8134 16.464 21.2922L11.5046 17.6712C11.1854 17.4381 10.7531 17.4381 10.4339 17.6712L5.4745 21.2922C4.7607 21.8134 3.8003 21.1122 4.07294 20.2689L5.96727 14.4099C6.0892 14.0328 5.95563 13.6197 5.63641 13.3866L0.676989 9.76552C-0.0368063 9.24435 0.330039 8.10974 1.21234 8.10974L7.34252 8.10974C7.73709 8.10974 8.08679 7.85441 8.20872 7.47729L10.1031 1.61829Z" fill="#FFC91D"/>
<path d="M35.7095 1.61829C35.9821 0.775024 37.1693 0.775021 37.4419 1.61829L39.3362 7.47729C39.4582 7.85441 39.8079 8.10974 40.2025 8.10974L46.3326 8.10974C47.2149 8.10974 47.5818 9.24435 46.868 9.76552L41.9086 13.3866C41.5893 13.6197 41.4558 14.0328 41.5777 14.4099L43.472 20.2689C43.7447 21.1122 42.7843 21.8134 42.0705 21.2922L37.1111 17.6712C36.7918 17.4381 36.3596 17.4381 36.0404 17.6712L31.0809 21.2922C30.3671 21.8134 29.4067 21.1122 29.6794 20.2689L31.5737 14.4099C31.6956 14.0328 31.5621 13.6197 31.2429 13.3866L26.2834 9.76552C25.5696 9.24435 25.9365 8.10974 26.8188 8.10974L32.949 8.10974C33.3435 8.10974 33.6932 7.85441 33.8152 7.47729L35.7095 1.61829Z" fill="#FFC91D"/>
<path d="M61.3164 1.61829C61.5891 0.775024 62.7762 0.775021 63.0489 1.61829L64.9432 7.47729C65.0651 7.85441 65.4148 8.10974 65.8094 8.10974L71.9396 8.10974C72.8219 8.10974 73.1887 9.24435 72.4749 9.76552L67.5155 13.3866C67.1963 13.6197 67.0627 14.0328 67.1846 14.4099L69.079 20.2689C69.3516 21.1122 68.3912 21.8134 67.6774 21.2922L62.718 17.6712C62.3988 17.4381 61.9665 17.4381 61.6473 17.6712L56.6879 21.2922C55.9741 21.8134 55.0137 21.1122 55.2863 20.2689L57.1806 14.4099C57.3026 14.0328 57.169 13.6197 56.8498 13.3866L51.8904 9.76552C51.1766 9.24435 51.5434 8.10974 52.4257 8.10974L58.5559 8.10974C58.9505 8.10974 59.3002 7.85441 59.4221 7.47729L61.3164 1.61829Z" fill="#FFC91D"/>
<path d="M86.9229 1.61829C87.1955 0.775024 88.3826 0.775021 88.6553 1.61829L90.5496 7.47729C90.6716 7.85441 91.0213 8.10974 91.4158 8.10974L97.546 8.10974C98.4283 8.10974 98.7952 9.24435 98.0814 9.76552L93.1219 13.3866C92.8027 13.6197 92.6691 14.0328 92.7911 14.4099L94.6854 20.2689C94.9581 21.1122 93.9976 21.8134 93.2838 21.2922L88.3244 17.6712C88.0052 17.4381 87.573 17.4381 87.2537 17.6712L82.2943 21.2922C81.5805 21.8134 80.6201 21.1122 80.8928 20.2689L82.7871 14.4099C82.909 14.0328 82.7755 13.6197 82.4562 13.3866L77.4968 9.76552C76.783 9.24435 77.1499 8.10974 78.0322 8.10974L84.1623 8.10974C84.5569 8.10974 84.9066 7.85441 85.0285 7.47729L86.9229 1.61829Z" fill="#FFC91D"/>
<path d="M112.53 1.61829C112.802 0.775024 113.99 0.775021 114.262 1.61829L116.157 7.47729C116.278 7.85441 116.628 8.10974 117.023 8.10974L123.153 8.10974C124.035 8.10974 124.402 9.24435 123.688 9.76552L118.729 13.3866C118.41 13.6197 118.276 14.0328 118.398 14.4099L120.292 20.2689C120.565 21.1122 119.605 21.8134 118.891 21.2922L113.931 17.6712C113.612 17.4381 113.18 17.4381 112.861 17.6712L107.901 21.2922C107.187 21.8134 106.227 21.1122 106.5 20.2689L108.394 14.4099C108.516 14.0328 108.382 13.6197 108.063 13.3866L103.104 9.76552C102.39 9.24435 102.757 8.10974 103.639 8.10974L109.769 8.10974C110.164 8.10974 110.514 7.85441 110.635 7.47729L112.53 1.61829Z" fill="#FFC91D"/>
</svg>
