<svg width="107" height="18" viewBox="0 0 107 18" fill="none" xmlns="http://www.w3.org/2000/svg">
<path d="M8.91648 0.747541C9.14922 0.0276768 10.1626 0.027674 10.3954 0.747539L12.0125 5.74912C12.1166 6.07105 12.4151 6.28902 12.7519 6.28902L17.985 6.28902C18.7382 6.28902 19.0513 7.25759 18.442 7.70249L14.2084 10.7936C13.9359 10.9926 13.8218 11.3453 13.9259 11.6672L15.543 16.6688C15.7758 17.3887 14.9559 17.9873 14.3466 17.5424L10.1129 14.4512C9.84042 14.2523 9.47143 14.2523 9.19892 14.4512L4.96527 17.5424C4.35593 17.9873 3.53608 17.3887 3.76882 16.6688L5.38593 11.6672C5.49002 11.3453 5.37599 10.9926 5.10349 10.7936L0.869838 7.70249C0.260501 7.25759 0.573661 6.28902 1.32684 6.28902L6.55992 6.28902C6.89676 6.28902 7.19528 6.07105 7.29937 5.74912L8.91648 0.747541Z" fill="#FFC91D"/>
<path d="M30.7759 0.747541C31.0086 0.0276768 32.022 0.027674 32.2547 0.747539L33.8719 5.74912C33.9759 6.07105 34.2745 6.28902 34.6113 6.28902L39.8444 6.28902C40.5976 6.28902 40.9107 7.25759 40.3014 7.70249L36.0677 10.7936C35.7952 10.9926 35.6812 11.3453 35.7853 11.6672L37.4024 16.6688C37.6351 17.3887 36.8153 17.9873 36.206 17.5424L31.9723 14.4512C31.6998 14.2523 31.3308 14.2523 31.0583 14.4512L26.8246 17.5424C26.2153 17.9873 25.3955 17.3887 25.6282 16.6688L27.2453 11.6672C27.3494 11.3453 27.2354 10.9926 26.9629 10.7936L22.7292 7.70249C22.1199 7.25759 22.433 6.28902 23.1862 6.28902L28.4193 6.28902C28.7561 6.28902 29.0547 6.07105 29.1587 5.74912L30.7759 0.747541Z" fill="#FFC91D"/>
<path d="M52.6352 0.747541C52.868 0.0276768 53.8814 0.027674 54.1141 0.747539L55.7312 5.74912C55.8353 6.07105 56.1338 6.28902 56.4707 6.28902L61.7038 6.28902C62.4569 6.28902 62.7701 7.25759 62.1608 7.70249L57.9271 10.7936C57.6546 10.9926 57.5406 11.3453 57.6447 11.6672L59.2618 16.6688C59.4945 17.3887 58.6747 17.9873 58.0653 17.5424L53.8317 14.4512C53.5592 14.2523 53.1902 14.2523 52.9177 14.4512L48.684 17.5424C48.0747 17.9873 47.2548 17.3887 47.4876 16.6688L49.1047 11.6672C49.2088 11.3453 49.0947 10.9926 48.8222 10.7936L44.5886 7.70249C43.9793 7.25759 44.2924 6.28902 45.0456 6.28902L50.2787 6.28902C50.6155 6.28902 50.914 6.07105 51.0181 5.74912L52.6352 0.747541Z" fill="#FFC91D"/>
<path d="M74.4946 0.747541C74.7273 0.0276768 75.7408 0.027674 75.9735 0.747539L77.5906 5.74912C77.6947 6.07105 77.9932 6.28902 78.3301 6.28902L83.5631 6.28902C84.3163 6.28902 84.6295 7.25759 84.0201 7.70249L79.7865 10.7936C79.514 10.9926 79.4 11.3453 79.504 11.6672L81.1212 16.6688C81.3539 17.3887 80.534 17.9873 79.9247 17.5424L75.6911 14.4512C75.4185 14.2523 75.0496 14.2523 74.777 14.4512L70.5434 17.5424C69.9341 17.9873 69.1142 17.3887 69.3469 16.6688L70.9641 11.6672C71.0681 11.3453 70.9541 10.9926 70.6816 10.7936L66.448 7.70249C65.8386 7.25759 66.1518 6.28902 66.905 6.28902L72.138 6.28902C72.4749 6.28902 72.7734 6.07105 72.8775 5.74912L74.4946 0.747541Z" fill="#FFC91D"/>
<path d="M96.354 0.747541C96.5867 0.0276768 97.6001 0.027674 97.8329 0.747539L99.45 5.74912C99.5541 6.07105 99.8526 6.28902 100.189 6.28902L105.423 6.28902C106.176 6.28902 106.489 7.25759 105.88 7.70249L101.646 10.7936C101.373 10.9926 101.259 11.3453 101.363 11.6672L102.981 16.6688C103.213 17.3887 102.393 17.9873 101.784 17.5424L97.5504 14.4512C97.2779 14.2523 96.9089 14.2523 96.6364 14.4512L92.4028 17.5424C91.7934 17.9873 90.9736 17.3887 91.2063 16.6688L92.8234 11.6672C92.9275 11.3453 92.8135 10.9926 92.541 10.7936L88.3073 7.70249C87.698 7.25759 88.0112 6.28902 88.7643 6.28902L93.9974 6.28902C94.3343 6.28902 94.6328 6.07105 94.7369 5.74912L96.354 0.747541Z" fill="#FFC91D"/>
</svg>
