<svg width="41" height="42" viewBox="0 0 41 42" fill="none" xmlns="http://www.w3.org/2000/svg">
<g clip-path="url(#clip0_213_17664)">
<path d="M11.861 14.1701H6.51515C6.03757 14.1701 5.65039 13.7829 5.65039 13.3053V7.95949C5.65039 7.4819 6.03757 7.09473 6.51515 7.09473H11.861C12.3386 7.09473 12.7257 7.4819 12.7257 7.95949V13.3053C12.7257 13.7829 12.3386 14.1701 11.861 14.1701ZM7.37992 12.4405H10.9962V8.82425H7.37992V12.4405Z" fill="#04DA8D"/>
<path d="M20.9801 14.1701H15.6343C15.1567 14.1701 14.7695 13.7829 14.7695 13.3053V7.95949C14.7695 7.4819 15.1567 7.09473 15.6343 7.09473H20.9801C21.4577 7.09473 21.8449 7.4819 21.8449 7.95949V13.3053C21.8449 13.7829 21.4577 14.1701 20.9801 14.1701ZM16.4991 12.4405H20.1153V8.82425H16.4991V12.4405Z" fill="#04DA8D"/>
<path d="M30.0973 14.1701H24.7515C24.2739 14.1701 23.8867 13.7829 23.8867 13.3053V7.95949C23.8867 7.4819 24.2739 7.09473 24.7515 7.09473H30.0973C30.5749 7.09473 30.9621 7.4819 30.9621 7.95949V13.3053C30.9621 13.7829 30.5749 14.1701 30.0973 14.1701ZM25.6162 12.4405H29.2325V8.82425H25.6162V12.4405Z" fill="#04DA8D"/>
<path d="M35.1657 30.8302H29.8198C29.3423 30.8302 28.9551 30.443 28.9551 29.9655V24.6196C28.9551 24.1421 29.3423 23.7549 29.8198 23.7549H35.1657C35.6432 23.7549 36.0304 24.1421 36.0304 24.6196V29.9655C36.0304 30.443 35.6432 30.8302 35.1657 30.8302ZM30.6846 29.1007H34.3009V25.4844H30.6846V29.1007Z" fill="#04DA8D"/>
<path d="M7.22609 17.6289H11.1568C11.6344 17.6289 12.0216 17.2418 12.0216 16.7642C12.0216 16.2866 11.6344 15.8994 11.1568 15.8994H7.22609C6.74851 15.8994 6.36133 16.2866 6.36133 16.7642C6.36133 17.2418 6.74851 17.6289 7.22609 17.6289Z" fill="#17253F"/>
<path d="M16.355 17.6289H20.2857C20.7633 17.6289 21.1505 17.2418 21.1505 16.7642C21.1505 16.2866 20.7633 15.8994 20.2857 15.8994H16.355C15.8774 15.8994 15.4902 16.2866 15.4902 16.7642C15.4902 17.2418 15.8774 17.6289 16.355 17.6289Z" fill="#17253F"/>
<path d="M7.22609 21.0938H11.1568C11.6344 21.0938 12.0216 20.7066 12.0216 20.229C12.0216 19.7514 11.6344 19.3643 11.1568 19.3643H7.22609C6.74851 19.3643 6.36133 19.7514 6.36133 20.229C6.36133 20.7066 6.74851 21.0938 7.22609 21.0938Z" fill="#17253F"/>
<path d="M16.355 21.0938H20.2857C20.7633 21.0938 21.1505 20.7066 21.1505 20.229C21.1505 19.7514 20.7633 19.3643 20.2857 19.3643H16.355C15.8774 19.3643 15.4902 19.7514 15.4902 20.229C15.4902 20.7066 15.8774 21.0938 16.355 21.0938Z" fill="#17253F"/>
<path d="M37.886 16.8382H36.2351V4.60802C36.2351 2.5954 34.5977 0.958008 32.5851 0.958008H4.03673C2.02411 0.958008 0.386719 2.5954 0.386719 4.60802V25.3578C0.386719 27.3704 2.02411 29.0078 4.03673 29.0078H14.0623V32.9172C14.0623 34.108 13.0935 35.0769 11.9025 35.0769H10.1618C9.68419 35.0769 9.29701 35.4641 9.29701 35.9417C9.29701 36.4193 9.68419 36.8065 10.1618 36.8065H24.3389V38.4574C24.3389 39.9746 25.5732 41.2089 27.0904 41.2089H37.886C39.4032 41.2089 40.6375 39.9746 40.6375 38.4574V19.5897C40.6375 18.0725 39.4032 16.8382 37.886 16.8382ZM38.908 19.5897V20.2973H26.0685V19.5897C26.0685 19.0262 26.5269 18.5677 27.0905 18.5677H37.886C38.4495 18.5677 38.908 19.0262 38.908 19.5897ZM22.5595 29.0078H24.3389V35.0427C23.3289 34.8624 22.5595 33.9782 22.5595 32.9172V29.0078ZM26.0685 22.0268H38.908V36.0202H26.0685V22.0268ZM4.03673 2.68753H32.5852C33.6441 2.68753 34.5056 3.54908 34.5056 4.60802V16.8382H27.0905C25.5733 16.8382 24.3389 18.0725 24.3389 19.5897V22.8219H2.11625V4.60802C2.11625 3.54908 2.97771 2.68753 4.03673 2.68753ZM2.11625 25.3578V24.5514H24.3389V27.2783H4.03673C2.97771 27.2783 2.11625 26.4167 2.11625 25.3578ZM15.7919 32.9171V29.0078H20.83V32.9172C20.83 33.7157 21.0722 34.4586 21.4866 35.0769H15.1352C15.5496 34.4586 15.7919 33.7157 15.7919 32.9171ZM37.886 39.4793H27.0905C26.5269 39.4793 26.0685 39.0208 26.0685 38.4573V37.7498H38.908V38.4573C38.908 39.0208 38.4495 39.4793 37.886 39.4793Z" fill="#17253F"/>
<path d="M34.4557 32.5635H30.5249C30.0473 32.5635 29.6602 32.9507 29.6602 33.4282C29.6602 33.9058 30.0473 34.293 30.5249 34.293H34.4557C34.9332 34.293 35.3204 33.9058 35.3204 33.4282C35.3204 32.9507 34.9332 32.5635 34.4557 32.5635Z" fill="#17253F"/>
</g>
<defs>
<clipPath id="clip0_213_17664">
<rect width="40.3294" height="40.2509" fill="white" transform="translate(0.351562 0.954102)"/>
</clipPath>
</defs>
</svg>
