<svg width="65" height="89" viewBox="0 0 65 89" fill="none" xmlns="http://www.w3.org/2000/svg">
<path d="M58.0949 2.83514C51.7774 -0.794446 44.2381 4.02084 42.4354 10.4303C40.4248 17.5795 43.7809 24.6917 48.2851 30.1202C50.3938 32.665 52.9494 35.8451 56.1192 37.0769C59.7182 38.472 62.379 35.7307 62.1459 32.1701C61.664 24.8416 50.5709 23.3793 44.9966 23.2639C37.8664 23.1161 30.527 25.7453 26.5907 31.9759C22.6218 38.255 24.6 45.6993 29.4401 50.8633C31.6524 53.2277 35.7725 56.8889 39.3009 55.3729C40.7364 54.7558 41.8507 53.2639 41.1129 51.693C40.4478 50.2761 38.5515 49.6125 37.1492 49.2256C34.188 48.4069 30.8731 48.4665 27.8208 48.4235C24.4469 48.3769 21.0563 48.544 17.7465 49.2255C10.2756 50.7655 4.10683 55.6374 3.24425 63.5733C2.3244 72.0509 7.35259 79.505 13.6942 84.6407L11.7343 85.5933C11.8475 81.863 11.9607 78.1327 12.0732 74.3984C12.9257 74.4609 13.7782 74.5233 14.6306 74.5858C14.1092 78.8978 13.9476 83.2142 14.161 87.5489C14.199 88.3579 13.1542 88.9648 12.454 88.6701C8.63626 87.066 4.82171 85.457 1.00393 83.8528C-0.520424 83.2123 0.31261 80.7702 1.85075 81.4164C5.66527 83.0255 9.48383 84.6337 13.2975 86.2387L11.5906 87.3599C11.3812 83.0244 11.538 78.7047 12.0732 74.3984C12.2783 72.7711 14.6872 72.9332 14.6306 74.5858C14.5044 78.3144 14.375 82.0479 14.2487 85.7766C14.2183 86.6664 13.0239 87.3283 12.2887 86.7291C5.29871 81.0275 -0.228646 72.7801 0.798024 63.3933C1.72689 54.8761 7.98453 49.1112 16.0769 47.107C20.371 46.0453 24.8789 45.8924 29.283 46.0251C33.101 46.1394 37.4048 46.1068 40.8027 48.1057C43.6224 49.7646 44.8438 53.285 42.5332 55.94C39.9515 58.9096 35.8073 58.3634 32.7191 56.5852C25.5282 52.4469 20.3141 43.5651 22.5685 35.2395C24.8861 26.6785 33.462 21.6618 41.8836 20.9771C48.9512 20.405 61.4997 21.7345 64.1464 29.8459C65.1278 32.8584 64.4799 36.703 61.8209 38.6864C58.6502 41.0489 54.6781 39.4543 51.9425 37.24C44.5999 31.2927 37.9754 21.2805 40.04 11.4649C40.9143 7.29336 43.3939 3.51062 47.3154 1.63472C50.9589 -0.110312 55.1555 -0.0879368 58.5789 2.12472C59.0435 2.42401 58.5742 3.10205 58.1063 2.82867L58.0949 2.83514Z" fill="#E7F4EF"/>
</svg>
