<svg width="32" height="32" viewBox="0 0 32 32" fill="none" xmlns="http://www.w3.org/2000/svg">
<g clip-path="url(#clip0_213_18492)">
<path d="M30.0346 13.2311L17.6006 13.2305C17.0515 13.2305 16.6064 13.6755 16.6064 14.2245V18.1967C16.6064 18.7456 17.0515 19.1907 17.6005 19.1907H24.6026C23.8359 21.1806 22.4048 22.847 20.579 23.9058L23.5647 29.0743C28.3541 26.3044 31.1857 21.4443 31.1857 16.0038C31.1857 15.2291 31.1286 14.6754 31.0144 14.0518C30.9275 13.5781 30.5163 13.2311 30.0346 13.2311Z" fill="#167EE6"/>
<path d="M15.9431 25.1584C12.5164 25.1584 9.52498 23.2861 7.91833 20.5156L2.75 23.4946C5.38013 28.053 10.3072 31.1226 15.9431 31.1226C18.708 31.1226 21.3168 30.3782 23.5641 29.0809V29.0739L20.5784 23.9053C19.2127 24.6974 17.6323 25.1584 15.9431 25.1584Z" fill="#12B347"/>
<path d="M23.5663 29.0829V29.0758L20.5806 23.9072C19.2149 24.6993 17.6346 25.1603 15.9453 25.1603V31.1246C18.7101 31.1246 21.319 30.3802 23.5663 29.0829Z" fill="#0F993E"/>
<path d="M6.66737 15.8824C6.66737 14.1934 7.12831 12.6132 7.92024 11.2475L2.75191 8.26855C1.44748 10.5088 0.703125 13.1105 0.703125 15.8824C0.703125 18.6543 1.44748 21.2561 2.75191 23.4963L7.92024 20.5174C7.12831 19.1517 6.66737 17.5715 6.66737 15.8824Z" fill="#FFD500"/>
<path d="M15.9471 6.60291C18.1816 6.60291 20.2341 7.39692 21.8373 8.71767C22.2329 9.04347 22.8077 9.01995 23.17 8.65766L25.9844 5.84326C26.3955 5.4322 26.3662 4.75935 25.9271 4.37842C23.241 2.04813 19.746 0.638672 15.9471 0.638672C10.3111 0.638672 5.38403 3.70832 2.75391 8.26673L7.92223 11.2457C9.52889 8.47517 12.5204 6.60291 15.9471 6.60291Z" fill="#FF4B26"/>
<path d="M21.8356 8.71767C22.2311 9.04347 22.806 9.01995 23.1683 8.65766L25.9827 5.84326C26.3937 5.4322 26.3644 4.75935 25.9253 4.37842C23.2392 2.04807 19.7443 0.638672 15.9453 0.638672V6.60291C18.1798 6.60291 20.2324 7.39692 21.8356 8.71767Z" fill="#D93F21"/>
</g>
<defs>
<clipPath id="clip0_213_18492">
<rect width="30.4839" height="30.4839" fill="white" transform="translate(0.703125 0.638672)"/>
</clipPath>
</defs>
</svg>
