<svg width="29" height="35" viewBox="0 0 29 35" fill="none" xmlns="http://www.w3.org/2000/svg">
<path d="M25.9718 30.098C24.5662 32.198 23.0758 34.2472 20.8065 34.2811C18.5371 34.3319 17.8089 32.9432 15.2347 32.9432C12.6436 32.9432 11.8476 34.2472 9.6968 34.3319C7.47825 34.4166 5.80164 32.0964 4.37906 30.0472C1.48309 25.8642 -0.735455 18.1585 2.24519 12.9763C3.71858 10.4021 6.36051 8.77626 9.22261 8.72546C11.3904 8.69158 13.4565 10.1988 14.7944 10.1988C16.1153 10.1988 18.6218 8.38675 21.2468 8.65771C22.3476 8.70852 25.4299 9.09803 27.4113 12.0109C27.2589 12.1126 23.7363 14.1787 23.7702 18.4634C23.821 23.5779 28.2581 25.2884 28.3089 25.3053C28.2581 25.4238 27.5976 27.744 25.9718 30.098ZM16.3016 3.00126C17.5379 1.59562 19.5871 0.528679 21.2807 0.460938C21.5008 2.44239 20.7049 4.44078 19.5194 5.86336C18.3508 7.30287 16.4202 8.42062 14.5234 8.2682C14.2694 6.32062 15.2178 4.28836 16.3016 3.00126Z" fill="white"/>
</svg>
