<svg width="21" height="21" viewBox="0 0 21 21" fill="none" xmlns="http://www.w3.org/2000/svg">
<g opacity="0.4">
<path d="M15.1436 2.96094H6.81022C4.31022 2.96094 2.64355 4.21094 2.64355 7.1276V12.9609C2.64355 15.8776 4.31022 17.1276 6.81022 17.1276H15.1436C17.6436 17.1276 19.3102 15.8776 19.3102 12.9609V7.1276C19.3102 4.21094 17.6436 2.96094 15.1436 2.96094ZM15.5352 8.03594L12.9269 10.1193C12.3769 10.5609 11.6769 10.7776 10.9769 10.7776C10.2769 10.7776 9.56855 10.5609 9.02689 10.1193L6.41856 8.03594C6.15189 7.81927 6.11022 7.41927 6.31855 7.1526C6.53522 6.88594 6.92689 6.83594 7.19355 7.0526L9.80189 9.13594C10.4352 9.64427 11.5102 9.64427 12.1436 9.13594L14.7519 7.0526C15.0186 6.83594 15.4186 6.8776 15.6269 7.1526C15.8436 7.41927 15.8019 7.81927 15.5352 8.03594Z" fill="#17253F"/>
</g>
</svg>
