<svg width="20" height="15" viewBox="0 0 20 15" fill="none" xmlns="http://www.w3.org/2000/svg">
<path d="M9.56092 0.537374V4.83283C9.56092 6.05253 9.32229 7.29874 8.84502 8.57147C8.381 9.83094 7.75789 11.0241 6.9757 12.151C6.1935 13.2646 5.33839 14.2126 4.41036 14.9948L0.67172 12.7874C1.3346 11.74 1.91793 10.58 2.42172 9.30726C2.93877 8.03453 3.19729 6.55631 3.19729 4.8726V0.537374H9.56092ZM19.5638 0.537374V4.83283C19.5638 6.05253 19.3251 7.29874 18.8479 8.57147C18.3838 9.83094 17.7607 11.0241 16.9785 12.151C16.1963 13.2646 15.3346 14.2126 14.3933 14.9948L10.6547 12.7874C11.3308 11.74 11.9208 10.58 12.4246 9.30726C12.9416 8.03453 13.2001 6.55631 13.2001 4.8726V0.537374H19.5638Z" fill="#4558F9"/>
</svg>
