<svg width="20" height="15" viewBox="0 0 20 15" fill="none" xmlns="http://www.w3.org/2000/svg">
<path d="M9.56092 0.538351V4.83381C9.56092 6.0535 9.32229 7.29972 8.84502 8.57244C8.381 9.83191 7.75789 11.0251 6.9757 12.152C6.1935 13.2656 5.33839 14.2135 4.41036 14.9957L0.67172 12.7884C1.3346 11.741 1.91793 10.581 2.42172 9.30824C2.93877 8.03551 3.19729 6.55729 3.19729 4.87358V0.538351H9.56092ZM19.5638 0.538351V4.83381C19.5638 6.0535 19.3251 7.29972 18.8479 8.57244C18.3838 9.83191 17.7607 11.0251 16.9785 12.152C16.1963 13.2656 15.3346 14.2135 14.3933 14.9957L10.6547 12.7884C11.3308 11.741 11.9208 10.581 12.4246 9.30824C12.9416 8.03551 13.2001 6.55729 13.2001 4.87358V0.538351H19.5638Z" fill="#04DA8D"/>
</svg>
