<svg width="19" height="15" viewBox="0 0 19 15" fill="none" xmlns="http://www.w3.org/2000/svg">
<path d="M0.00157601 14.7383V10.4428C0.00157601 9.22313 0.240212 7.97692 0.717485 6.70419C1.19476 5.43146 1.82449 4.23165 2.60669 3.10476C3.38889 1.97786 4.23737 1.03657 5.15214 0.280894L8.89078 2.48828C8.14836 3.65495 7.53851 4.87464 7.06123 6.14737C6.59722 7.4201 6.36521 8.83866 6.36521 10.4031V14.7383H0.00157601ZM10.0442 14.7383V10.4428C10.0442 9.22313 10.2828 7.97692 10.7601 6.70419C11.2374 5.43146 11.8671 4.23165 12.6493 3.10476C13.4315 1.97786 14.28 1.03657 15.1948 0.280894L18.9334 2.48828C18.191 3.65495 17.5811 4.87464 17.1038 6.14737C16.6398 7.4201 16.4078 8.83866 16.4078 10.4031V14.7383H10.0442Z" fill="#04DA8D"/>
</svg>
