<svg width="19" height="15" viewBox="0 0 19 15" fill="none" xmlns="http://www.w3.org/2000/svg">
<path d="M0.00157601 14.7378V10.4423C0.00157601 9.22264 0.240212 7.97643 0.717485 6.7037C1.19476 5.43097 1.82449 4.23116 2.60669 3.10427C3.38889 1.97737 4.23737 1.03609 5.15214 0.280406L8.89078 2.48779C8.14836 3.65446 7.53851 4.87416 7.06123 6.14688C6.59722 7.41961 6.36521 8.83817 6.36521 10.4026V14.7378H0.00157601ZM10.0442 14.7378V10.4423C10.0442 9.22264 10.2828 7.97643 10.7601 6.7037C11.2374 5.43097 11.8671 4.23116 12.6493 3.10427C13.4315 1.97737 14.28 1.03609 15.1948 0.280406L18.9334 2.48779C18.191 3.65446 17.5811 4.87416 17.1038 6.14688C16.6398 7.41961 16.4078 8.83817 16.4078 10.4026V14.7378H10.0442Z" fill="#4558F9"/>
</svg>
