<svg width="18" height="18" viewBox="0 0 18 18" fill="none" xmlns="http://www.w3.org/2000/svg">
<g clip-path="url(#clip0_511_195)">
<path d="M17.5483 8.87435C17.5483 9.60573 16.6521 10.1922 16.4677 10.884C16.2832 11.5759 16.7576 12.551 16.4018 13.1572C16.046 13.7634 14.9654 13.8491 14.4646 14.3564C13.9638 14.8638 13.8847 15.9378 13.2654 16.2936C12.646 16.6494 11.684 16.175 10.9922 16.3595C10.3003 16.544 9.71389 17.4401 8.9825 17.4401C8.25112 17.4401 7.66469 16.544 7.00579 16.3595C6.34689 16.175 5.33876 16.6494 4.73257 16.2936C4.12638 15.9378 4.04072 14.8572 3.53336 14.3564C3.02601 13.8557 1.95199 13.7766 1.59619 13.1572C1.24038 12.5379 1.71479 11.5759 1.5303 10.884C1.3458 10.1922 0.416748 9.60573 0.416748 8.87435C0.416748 8.14296 1.31286 7.55654 1.49735 6.89763C1.68184 6.23873 1.20743 5.23061 1.56324 4.62442C1.91905 4.01822 2.99965 3.89962 3.50042 3.39227C4.00119 2.88491 4.08026 1.8109 4.69963 1.45509C5.31899 1.09928 6.28099 1.57369 6.97284 1.3892C7.66469 1.2047 8.25112 0.308594 8.9825 0.308594C9.71389 0.308594 10.3003 1.2047 10.9922 1.3892C11.684 1.57369 12.6592 1.09928 13.2654 1.45509C13.8716 1.8109 13.9572 2.8915 14.4646 3.39227C14.9719 3.89303 16.046 3.9721 16.4018 4.59147C16.7576 5.21084 16.2832 6.17284 16.4677 6.86469C16.6521 7.55654 17.5483 8.14296 17.5483 8.87435Z" fill="#109138"/>
<path d="M8.98252 14.4748C12.0757 14.4748 14.5832 11.9673 14.5832 8.87412C14.5832 5.78095 12.0757 3.27344 8.98252 3.27344C5.88935 3.27344 3.38184 5.78095 3.38184 8.87412C3.38184 11.9673 5.88935 14.4748 8.98252 14.4748Z" fill="#20BF55"/>
<path d="M8.40912 10.4362C8.34419 10.4365 8.27985 10.4238 8.21988 10.3989C8.15992 10.374 8.10552 10.3374 8.0599 10.2912L6.52465 8.78233C6.43211 8.68967 6.38013 8.56407 6.38013 8.43311C6.38013 8.30216 6.43211 8.17655 6.52465 8.08389C6.61731 7.99135 6.74291 7.93937 6.87387 7.93937C7.00483 7.93937 7.13043 7.99135 7.22309 8.08389L8.40912 9.25674L10.7416 6.95717C10.8351 6.86455 10.9616 6.81286 11.0932 6.81348C11.2248 6.8141 11.3508 6.86697 11.4434 6.96046C11.536 7.05396 11.5877 7.18041 11.5871 7.31201C11.5864 7.44361 11.5336 7.56958 11.4401 7.6622L8.75175 10.2978C8.70726 10.3433 8.65386 10.379 8.59489 10.4028C8.53593 10.4266 8.47268 10.438 8.40912 10.4362Z" fill="#EDEBEA"/>
</g>
<defs>
<clipPath id="clip0_511_195">
<rect width="17.1727" height="17.1727" fill="white" transform="translate(0.381836 0.298828)"/>
</clipPath>
</defs>
</svg>
