<svg width="25" height="25" viewBox="0 0 25 25" fill="none" xmlns="http://www.w3.org/2000/svg">
<path d="M17.4199 2.51001H7.77992C5.64992 2.51001 3.91992 4.25001 3.91992 6.37001V20.46C3.91992 22.26 5.20992 23.02 6.78992 22.15L11.6699 19.44C12.1899 19.15 13.0299 19.15 13.5399 19.44L18.4199 22.15C19.9999 23.03 21.2899 22.27 21.2899 20.46V6.37001C21.2799 4.25001 19.5499 2.51001 17.4199 2.51001ZM15.6099 10.26C14.6399 10.61 13.6199 10.79 12.5999 10.79C11.5799 10.79 10.5599 10.61 9.58992 10.26C9.19992 10.12 8.99992 9.69001 9.13992 9.30001C9.28992 8.91001 9.71992 8.71001 10.1099 8.85001C11.7199 9.43001 13.4899 9.43001 15.0999 8.85001C15.4899 8.71001 15.9199 8.91001 16.0599 9.30001C16.1999 9.69001 15.9999 10.12 15.6099 10.26Z" fill="#17253F"/>
</svg>
