<svg width="61" height="61" viewBox="0 0 61 61" fill="none" xmlns="http://www.w3.org/2000/svg">
<rect x="0.363281" y="0.772827" width="60" height="60" rx="15" fill="#E8FFD7"/>
<g clip-path="url(#clip0_2191_17895)">
<path fill-rule="evenodd" clip-rule="evenodd" d="M50.4374 18.995C51.245 19.8026 51.245 21.112 50.4374 21.9196L33.8932 38.4638C33.0856 39.2714 31.7762 39.2714 30.9686 38.4638L24.8899 32.3853C24.4861 31.9814 23.8315 31.9814 23.4276 32.3853L13.213 42.5999C12.4053 43.4074 11.0959 43.4074 10.2883 42.5999C9.48072 41.7923 9.48072 40.4828 10.2883 39.6753L22.6965 27.2671C23.5041 26.4595 24.8135 26.4595 25.6211 27.2671L31.6997 33.3457C32.1035 33.7495 32.7583 33.7495 33.1622 33.3457L47.5128 18.995C48.3204 18.1874 49.6298 18.1874 50.4374 18.995Z" fill="#58A700"/>
<path fill-rule="evenodd" clip-rule="evenodd" d="M38.6348 20.4573C38.6348 19.3152 39.5606 18.3893 40.7028 18.3893H48.9749C50.1171 18.3893 51.0429 19.3152 51.0429 20.4573V28.7294C51.0429 29.8716 50.1171 30.7974 48.9749 30.7974C47.8327 30.7974 46.9069 29.8716 46.9069 28.7294V23.5593C46.9069 22.9883 46.4438 22.5253 45.8729 22.5253H40.7028C39.5606 22.5253 38.6348 21.5994 38.6348 20.4573Z" fill="#58CC02"/>
</g>
<defs>
<clipPath id="clip0_2191_17895">
<rect width="41.4898" height="24.9133" fill="white" transform="translate(9.61816 18.3162)"/>
</clipPath>
</defs>
</svg>
