<svg width="98" height="20" viewBox="0 0 98 20" fill="none" xmlns="http://www.w3.org/2000/svg">
<rect x="0.0527344" y="0.636719" width="18.42" height="18.42" rx="9.21" fill="#17253F"/>
<path d="M8.66158 4.60282C8.85081 4.02042 9.67475 4.02042 9.86398 4.60281L10.8329 7.58492C10.9176 7.84537 11.1603 8.02172 11.4341 8.02172H14.5697C15.1821 8.02172 15.4367 8.80533 14.9413 9.16527L12.4045 11.0083C12.183 11.1693 12.0903 11.4546 12.1749 11.7151L13.1438 14.6972C13.3331 15.2796 12.6665 15.7639 12.1711 15.4039L9.63434 13.5609C9.41279 13.3999 9.11277 13.3999 8.89122 13.5609L6.35449 15.4039C5.85907 15.7639 5.19249 15.2796 5.38172 14.6972L6.35067 11.7151C6.43529 11.4546 6.34258 11.1693 6.12103 11.0083L3.5843 9.16527C3.08888 8.80533 3.34349 8.02172 3.95586 8.02172H7.09143C7.36529 8.02172 7.60801 7.84537 7.69263 7.58492L8.66158 4.60282Z" fill="#04DA8D"/>
<rect x="19.8105" y="0.636719" width="18.42" height="18.42" rx="9.21" fill="#17253F"/>
<path d="M28.4194 4.60282C28.6086 4.02042 29.4326 4.02042 29.6218 4.60281L30.5907 7.58492C30.6754 7.84537 30.9181 8.02172 31.1919 8.02172H34.3275C34.9399 8.02172 35.1945 8.80533 34.6991 9.16527L32.1623 11.0083C31.9408 11.1693 31.8481 11.4546 31.9327 11.7151L32.9017 14.6972C33.0909 15.2796 32.4243 15.7639 31.9289 15.4039L29.3922 13.5609C29.1706 13.3999 28.8706 13.3999 28.649 13.5609L26.1123 15.4039C25.6169 15.7639 24.9503 15.2796 25.1395 14.6972L26.1085 11.7151C26.1931 11.4546 26.1004 11.1693 25.8788 11.0083L23.3421 9.16527C22.8467 8.80533 23.1013 8.02172 23.7137 8.02172H26.8492C27.1231 8.02172 27.3658 7.84537 27.4504 7.58492L28.4194 4.60282Z" fill="#04DA8D"/>
<rect x="39.5686" y="0.636719" width="18.42" height="18.42" rx="9.21" fill="#17253F"/>
<path d="M48.1774 4.60282C48.3667 4.02042 49.1906 4.02042 49.3799 4.60281L50.3488 7.58492C50.4334 7.84537 50.6761 8.02172 50.95 8.02172H54.0856C54.6979 8.02172 54.9525 8.80533 54.4571 9.16527L51.9204 11.0083C51.6988 11.1693 51.6061 11.4546 51.6908 11.7151L52.6597 14.6972C52.8489 15.2796 52.1824 15.7639 51.6869 15.4039L49.1502 13.5609C48.9287 13.3999 48.6286 13.3999 48.4071 13.5609L45.8704 15.4039C45.3749 15.7639 44.7084 15.2796 44.8976 14.6972L45.8665 11.7151C45.9512 11.4546 45.8585 11.1693 45.6369 11.0083L43.1002 9.16527C42.6048 8.80533 42.8594 8.02172 43.4717 8.02172H46.6073C46.8812 8.02172 47.1239 7.84537 47.2085 7.58492L48.1774 4.60282Z" fill="#04DA8D"/>
<rect x="59.3264" y="0.636719" width="18.42" height="18.42" rx="9.21" fill="#17253F"/>
<path d="M67.9353 4.60282C68.1245 4.02042 68.9484 4.02042 69.1377 4.60281L70.1066 7.58492C70.1912 7.84537 70.434 8.02172 70.7078 8.02172H73.8434C74.4558 8.02172 74.7104 8.80533 74.2149 9.16527L71.6782 11.0083C71.4567 11.1693 71.3639 11.4546 71.4486 11.7151L72.4175 14.6972C72.6068 15.2796 71.9402 15.7639 71.4448 15.4039L68.908 13.5609C68.6865 13.3999 68.3865 13.3999 68.1649 13.5609L65.6282 15.4039C65.1328 15.7639 64.4662 15.2796 64.6554 14.6972L65.6243 11.7151C65.709 11.4546 65.6163 11.1693 65.3947 11.0083L62.858 9.16527C62.3626 8.80533 62.6172 8.02172 63.2295 8.02172H66.3651C66.639 8.02172 66.8817 7.84537 66.9663 7.58492L67.9353 4.60282Z" fill="#04DA8D"/>
<rect x="79.0842" y="0.636719" width="18.42" height="18.42" rx="9.21" fill="#17253F"/>
<path d="M87.6931 4.60282C87.8823 4.02042 88.7062 4.02042 88.8955 4.60281L89.8644 7.58492C89.949 7.84537 90.1918 8.02172 90.4656 8.02172H93.6012C94.2136 8.02172 94.4682 8.80533 93.9728 9.16527L91.436 11.0083C91.2145 11.1693 91.1218 11.4546 91.2064 11.7151L92.1753 14.6972C92.3646 15.2796 91.698 15.7639 91.2026 15.4039L88.6658 13.5609C88.4443 13.3999 88.1443 13.3999 87.9227 13.5609L85.386 15.4039C84.8906 15.7639 84.224 15.2796 84.4132 14.6972L85.3822 11.7151C85.4668 11.4546 85.3741 11.1693 85.1525 11.0083L82.6158 9.16527C82.1204 8.80533 82.375 8.02172 82.9874 8.02172H86.1229C86.3968 8.02172 86.6395 7.84537 86.7241 7.58492L87.6931 4.60282Z" fill="#04DA8D"/>
</svg>
