<svg width="81" height="16" viewBox="0 0 81 16" fill="none" xmlns="http://www.w3.org/2000/svg">
<rect x="0.362061" y="0.591064" width="14.52" height="14.52" rx="1.815" fill="#4558F9"/>
<path d="M7.48835 2.54004L8.68077 6.20992H12.5395L9.41773 8.47804L10.6101 12.1479L7.48835 9.87981L4.36656 12.1479L5.55898 8.47804L2.43719 6.20992H6.29594L7.48835 2.54004Z" fill="#EAF0F8"/>
<rect x="16.6973" y="0.591064" width="14.52" height="14.52" rx="1.815" fill="#4558F9"/>
<path d="M23.8236 2.54004L25.016 6.20992H28.8747L25.7529 8.47804L26.9453 12.1479L23.8236 9.87981L20.7018 12.1479L21.8942 8.47804L18.7724 6.20992H22.6311L23.8236 2.54004Z" fill="#EAF0F8"/>
<rect x="33.0322" y="0.591064" width="14.52" height="14.52" rx="1.815" fill="#4558F9"/>
<path d="M40.158 2.54004L41.3504 6.20992H45.2092L42.0874 8.47804L43.2798 12.1479L40.158 9.87981L37.0362 12.1479L38.2287 8.47804L35.1069 6.20992H38.9656L40.158 2.54004Z" fill="#EAF0F8"/>
<rect x="49.3672" y="0.591064" width="14.52" height="14.52" rx="1.815" fill="#4558F9"/>
<path d="M56.493 2.54004L57.6854 6.20992H61.5442L58.4224 8.47804L59.6148 12.1479L56.493 9.87981L53.3712 12.1479L54.5636 8.47804L51.4418 6.20992H55.3006L56.493 2.54004Z" fill="#EAF0F8"/>
<rect x="65.7021" y="0.591064" width="14.52" height="14.52" rx="1.815" fill="#4558F9"/>
<path d="M72.8282 2.54004L74.0206 6.20992H77.8794L74.7576 8.47804L75.95 12.1479L72.8282 9.87981L69.7064 12.1479L70.8988 8.47804L67.777 6.20992H71.6358L72.8282 2.54004Z" fill="#EAF0F8"/>
</svg>
