<svg width="25" height="25" viewBox="0 0 25 25" fill="none" xmlns="http://www.w3.org/2000/svg">
<path d="M12.7452 11.2642C11.7252 11.2642 10.7052 11.0842 9.73524 10.7342C9.34524 10.5942 9.14524 10.1642 9.28524 9.77418C9.43524 9.38418 9.86524 9.18418 10.2552 9.32418C11.8652 9.90418 13.6352 9.90418 15.2452 9.32418C15.6352 9.18418 16.0652 9.38418 16.2052 9.77418C16.3452 10.1642 16.1452 10.5942 15.7552 10.7342C14.7852 11.0842 13.7652 11.2642 12.7452 11.2642Z" fill="#17253F"/>
<path d="M19.8152 23.7341C19.3052 23.7341 18.7452 23.5841 18.2052 23.2741L13.3252 20.5641C13.0352 20.4041 12.4652 20.4041 12.1752 20.5641L7.29519 23.2741C6.30519 23.8241 5.29519 23.8841 4.52519 23.4241C3.75519 22.9741 3.31519 22.0641 3.31519 20.9341V6.84413C3.31519 4.30413 5.38519 2.23413 7.92519 2.23413H17.5752C20.1152 2.23413 22.1852 4.30413 22.1852 6.84413V20.9341C22.1852 22.0641 21.7452 22.9741 20.9752 23.4241C20.6252 23.6341 20.2252 23.7341 19.8152 23.7341ZM12.7452 18.9441C13.2152 18.9441 13.6752 19.0441 14.0452 19.2541L18.9252 21.9641C19.4352 22.2541 19.9052 22.3141 20.2052 22.1341C20.5052 21.9541 20.6752 21.5241 20.6752 20.9341V6.84413C20.6752 5.13413 19.2752 3.73413 17.5652 3.73413H7.92519C6.21519 3.73413 4.81519 5.13413 4.81519 6.84413V20.9341C4.81519 21.5241 4.98519 21.9641 5.28519 22.1341C5.58519 22.3041 6.04519 22.2541 6.56519 21.9641L11.4452 19.2541C11.8152 19.0441 12.2752 18.9441 12.7452 18.9441Z" fill="#17253F"/>
<path d="M19.8152 23.7341C19.3052 23.7341 18.7452 23.5841 18.2052 23.2741L13.3252 20.5641C13.0352 20.4041 12.4652 20.4041 12.1752 20.5641L7.29519 23.2741C6.30519 23.8241 5.29519 23.8841 4.52519 23.4241C3.75519 22.9741 3.31519 22.0641 3.31519 20.9341V6.84413C3.31519 4.30413 5.38519 2.23413 7.92519 2.23413H17.5752C20.1152 2.23413 22.1852 4.30413 22.1852 6.84413V20.9341C22.1852 22.0641 21.7452 22.9741 20.9752 23.4241C20.6252 23.6341 20.2252 23.7341 19.8152 23.7341ZM12.7452 18.9441C13.2152 18.9441 13.6752 19.0441 14.0452 19.2541L18.9252 21.9641C19.4352 22.2541 19.9052 22.3141 20.2052 22.1341C20.5052 21.9541 20.6752 21.5241 20.6752 20.9341V6.84413C20.6752 5.13413 19.2752 3.73413 17.5652 3.73413H7.92519C6.21519 3.73413 4.81519 5.13413 4.81519 6.84413V20.9341C4.81519 21.5241 4.98519 21.9641 5.28519 22.1341C5.58519 22.3041 6.04519 22.2541 6.56519 21.9641L11.4452 19.2541C11.8152 19.0441 12.2752 18.9441 12.7452 18.9441Z" fill="#17253F"/>
</svg>
