<svg width="15" height="15" viewBox="0 0 15 15" fill="none" xmlns="http://www.w3.org/2000/svg">
<path d="M10.2709 2.71762V1.80762C10.2709 1.56845 10.0725 1.37012 9.83337 1.37012C9.5942 1.37012 9.39587 1.56845 9.39587 1.80762V2.68262H5.60422V1.80762C5.60422 1.56845 5.40589 1.37012 5.16672 1.37012C4.92755 1.37012 4.72922 1.56845 4.72922 1.80762V2.71762C3.15422 2.86345 2.39005 3.80262 2.27339 5.19678C2.26172 5.36595 2.40172 5.50595 2.56505 5.50595H12.435C12.6042 5.50595 12.7442 5.36012 12.7267 5.19678C12.61 3.80262 11.8459 2.86345 10.2709 2.71762Z" fill="#17253F"/>
<path d="M12.1667 6.38086H2.83333C2.5125 6.38086 2.25 6.64337 2.25 6.9642V10.5575C2.25 12.3075 3.125 13.4742 5.16667 13.4742H9.83333C11.875 13.4742 12.75 12.3075 12.75 10.5575V6.9642C12.75 6.64337 12.4875 6.38086 12.1667 6.38086ZM5.8725 11.2634C5.84333 11.2867 5.81417 11.3159 5.785 11.3334C5.75 11.3567 5.715 11.3742 5.68 11.3859C5.645 11.4034 5.61 11.415 5.575 11.4209C5.53417 11.4267 5.49917 11.4325 5.45833 11.4325C5.3825 11.4325 5.30667 11.415 5.23667 11.3859C5.16083 11.3567 5.1025 11.3159 5.04417 11.2634C4.93917 11.1525 4.875 11.0009 4.875 10.8492C4.875 10.6975 4.93917 10.5459 5.04417 10.435C5.1025 10.3825 5.16083 10.3417 5.23667 10.3125C5.34167 10.2659 5.45833 10.2542 5.575 10.2775C5.61 10.2834 5.645 10.295 5.68 10.3125C5.715 10.3242 5.75 10.3417 5.785 10.365L5.8725 10.435C5.9775 10.5459 6.04167 10.6975 6.04167 10.8492C6.04167 11.0009 5.9775 11.1525 5.8725 11.2634ZM5.8725 9.2217C5.76167 9.3267 5.61 9.39087 5.45833 9.39087C5.30667 9.39087 5.155 9.3267 5.04417 9.2217C4.93917 9.11087 4.875 8.9592 4.875 8.80753C4.875 8.65587 4.93917 8.5042 5.04417 8.39337C5.2075 8.23003 5.46417 8.17753 5.68 8.27087C5.75583 8.30003 5.82 8.34087 5.8725 8.39337C5.9775 8.5042 6.04167 8.65587 6.04167 8.80753C6.04167 8.9592 5.9775 9.11087 5.8725 9.2217ZM7.91417 11.2634C7.80333 11.3684 7.65167 11.4325 7.5 11.4325C7.34833 11.4325 7.19667 11.3684 7.08583 11.2634C6.98083 11.1525 6.91667 11.0009 6.91667 10.8492C6.91667 10.6975 6.98083 10.5459 7.08583 10.435C7.30167 10.2192 7.69833 10.2192 7.91417 10.435C8.01917 10.5459 8.08333 10.6975 8.08333 10.8492C8.08333 11.0009 8.01917 11.1525 7.91417 11.2634ZM7.91417 9.2217C7.885 9.24503 7.85583 9.26837 7.82667 9.2917C7.79167 9.31503 7.75667 9.33253 7.72167 9.3442C7.68667 9.3617 7.65167 9.37337 7.61667 9.3792C7.57583 9.38503 7.54083 9.39087 7.5 9.39087C7.34833 9.39087 7.19667 9.3267 7.08583 9.2217C6.98083 9.11087 6.91667 8.9592 6.91667 8.80753C6.91667 8.65587 6.98083 8.5042 7.08583 8.39337C7.13833 8.34087 7.2025 8.30003 7.27833 8.27087C7.49417 8.17753 7.75083 8.23003 7.91417 8.39337C8.01917 8.5042 8.08333 8.65587 8.08333 8.80753C8.08333 8.9592 8.01917 9.11087 7.91417 9.2217ZM9.95583 11.2634C9.845 11.3684 9.69333 11.4325 9.54167 11.4325C9.39 11.4325 9.23833 11.3684 9.1275 11.2634C9.0225 11.1525 8.95833 11.0009 8.95833 10.8492C8.95833 10.6975 9.0225 10.5459 9.1275 10.435C9.34333 10.2192 9.74 10.2192 9.95583 10.435C10.0608 10.5459 10.125 10.6975 10.125 10.8492C10.125 11.0009 10.0608 11.1525 9.95583 11.2634ZM9.95583 9.2217C9.92667 9.24503 9.8975 9.26837 9.86833 9.2917C9.83333 9.31503 9.79833 9.33253 9.76333 9.3442C9.72833 9.3617 9.69333 9.37337 9.65833 9.3792C9.6175 9.38503 9.57667 9.39087 9.54167 9.39087C9.39 9.39087 9.23833 9.3267 9.1275 9.2217C9.0225 9.11087 8.95833 8.9592 8.95833 8.80753C8.95833 8.65587 9.0225 8.5042 9.1275 8.39337C9.18583 8.34087 9.24417 8.30003 9.32 8.27087C9.425 8.2242 9.54167 8.21253 9.65833 8.23587C9.69333 8.2417 9.72833 8.25337 9.76333 8.27087C9.79833 8.28253 9.83333 8.30003 9.86833 8.32337C9.8975 8.3467 9.92667 8.37003 9.95583 8.39337C10.0608 8.5042 10.125 8.65587 10.125 8.80753C10.125 8.9592 10.0608 9.11087 9.95583 9.2217Z" fill="#17253F"/>
</svg>
