<svg width="21" height="21" viewBox="0 0 21 21" fill="none" xmlns="http://www.w3.org/2000/svg">
<g clip-path="url(#clip0_571_600)">
<path d="M9.50341 9.64509H4.17632C3.29454 9.64509 2.44887 9.2948 1.82536 8.67129C1.20185 8.04778 0.851563 7.20211 0.851562 6.32033V3.65679C0.851562 2.77501 1.20185 1.92934 1.82536 1.30583C2.44887 0.682317 3.29454 0.332031 4.17632 0.332031H6.83987C7.72165 0.332031 8.56731 0.682317 9.19082 1.30583C9.81434 1.92934 10.1646 2.77501 10.1646 3.65679V8.97764C10.1646 9.15359 10.0952 9.32242 9.97134 9.44741C9.84752 9.5724 9.67935 9.64345 9.50341 9.64509ZM4.17632 1.66069C3.64692 1.66069 3.1392 1.87099 2.76486 2.24533C2.39052 2.61967 2.18022 3.12739 2.18022 3.65679V6.32033C2.18022 6.84973 2.39052 7.35745 2.76486 7.73179C3.1392 8.10613 3.64692 8.31644 4.17632 8.31644H8.83597V3.65679C8.83597 3.12739 8.62566 2.61967 8.25132 2.24533C7.87698 1.87099 7.36926 1.66069 6.83987 1.66069H4.17632Z" fill="#17253F"/>
<path d="M17.4877 9.6451H12.1606C11.9836 9.6451 11.8138 9.57478 11.6887 9.44961C11.5635 9.32444 11.4932 9.15467 11.4932 8.97765V3.65679C11.4932 3.21966 11.5794 2.78681 11.7468 2.38302C11.9143 1.97924 12.1598 1.61244 12.4692 1.30363C12.7786 0.994814 13.1458 0.750044 13.5499 0.583326C13.954 0.416609 14.387 0.331217 14.8242 0.332037H17.4877C18.3695 0.332037 19.2152 0.682323 19.8387 1.30584C20.4622 1.92935 20.8125 2.77501 20.8125 3.65679V6.32034C20.8125 7.20212 20.4622 8.04779 19.8387 8.6713C19.2152 9.29481 18.3695 9.6451 17.4877 9.6451ZM12.8281 8.31644H17.4877C18.0171 8.31644 18.5248 8.10614 18.8992 7.7318C19.2735 7.35746 19.4838 6.84974 19.4838 6.32034V3.65679C19.4838 3.12739 19.2735 2.61968 18.8992 2.24534C18.5248 1.871 18.0171 1.66069 17.4877 1.66069H14.8242C14.2948 1.66069 13.787 1.871 13.4127 2.24534C13.0384 2.61968 12.8281 3.12739 12.8281 3.65679V8.31644Z" fill="#17253F"/>
<path d="M6.83987 20.2935H4.17632C3.29454 20.2935 2.44887 19.9432 1.82536 19.3197C1.20185 18.6962 0.851563 17.8506 0.851562 16.9688V14.3052C0.851562 13.4234 1.20185 12.5778 1.82536 11.9543C2.44887 11.3308 3.29454 10.9805 4.17632 10.9805H9.49717C9.67419 10.9805 9.84396 11.0508 9.96913 11.176C10.0943 11.3011 10.1646 11.4709 10.1646 11.6479V16.9688C10.1646 17.8506 9.81434 18.6962 9.19082 19.3197C8.56731 19.9432 7.72165 20.2935 6.83987 20.2935ZM4.17632 12.3091C3.64692 12.3091 3.1392 12.5194 2.76486 12.8938C2.39052 13.2681 2.18022 13.7758 2.18022 14.3052V16.9688C2.18022 17.4982 2.39052 18.0059 2.76486 18.3802C3.1392 18.7546 3.64692 18.9649 4.17632 18.9649H6.83987C7.36926 18.9649 7.87698 18.7546 8.25132 18.3802C8.62566 18.0059 8.83597 17.4982 8.83597 16.9688V12.3091H4.17632Z" fill="#17253F"/>
<path d="M17.4878 20.2929H14.8243C13.9425 20.2929 13.0968 19.9426 12.4733 19.3191C11.8498 18.6956 11.4995 17.85 11.4995 16.9682V11.6411C11.4995 11.4641 11.5698 11.2943 11.695 11.1691C11.8202 11.044 11.9899 10.9736 12.167 10.9736H17.4878C17.925 10.9736 18.3578 11.0598 18.7616 11.2273C19.1654 11.3948 19.5322 11.6402 19.841 11.9496C20.1498 12.259 20.3946 12.6263 20.5613 13.0304C20.728 13.4345 20.8134 13.8675 20.8126 14.3046V16.9682C20.8126 17.85 20.4623 18.6956 19.8388 19.3191C19.2153 19.9426 18.3696 20.2929 17.4878 20.2929ZM12.8282 12.3085V16.9682C12.8282 17.4976 13.0385 18.0053 13.4128 18.3796C13.7872 18.754 14.2949 18.9643 14.8243 18.9643H17.4878C18.0172 18.9643 18.5249 18.754 18.8993 18.3796C19.2736 18.0053 19.4839 17.4976 19.4839 16.9682V14.3046C19.4839 13.7752 19.2736 13.2675 18.8993 12.8932C18.5249 12.5188 18.0172 12.3085 17.4878 12.3085H12.8282Z" fill="#17253F"/>
</g>
<defs>
<clipPath id="clip0_571_600">
<rect width="20" height="20" fill="white" transform="translate(0.832031 0.324219)"/>
</clipPath>
</defs>
</svg>
