<svg width="166" height="34" viewBox="0 0 166 34" fill="none" xmlns="http://www.w3.org/2000/svg">
<rect x="13.2996" y="26.9473" width="21.7408" height="6.64951" fill="#04DA8D"/>
<circle cx="13.2994" cy="20.3123" r="13.284" fill="#04DA8D"/>
<circle cx="33.9236" cy="16.8179" r="16.7788" fill="#17253F"/>
<path d="M71.7811 26.0021C69.8149 26.0021 68.1108 25.5808 66.669 24.7381C65.2458 23.8767 64.1504 22.6877 63.3826 21.1709C62.6149 19.6354 62.231 17.8658 62.231 15.8621C62.231 13.8585 62.6149 12.0889 63.3826 10.5534C64.1504 9.01792 65.2458 7.81947 66.669 6.95809C68.1108 6.09671 69.8149 5.66602 71.7811 5.66602C74.178 5.66602 76.1348 6.25588 77.6516 7.4356C79.1871 8.61531 80.1421 10.2819 80.5166 12.4354H76.3314C76.1067 11.3867 75.6011 10.5721 74.8146 9.99165C74.0469 9.39243 73.0263 9.09282 71.753 9.09282C70.5733 9.09282 69.5621 9.3737 68.7194 9.93547C67.8768 10.4785 67.2307 11.2556 66.7813 12.2668C66.3319 13.278 66.1072 14.4764 66.1072 15.8621C66.1072 17.2478 66.3319 18.4463 66.7813 19.4575C67.2307 20.4687 67.8768 21.2458 68.7194 21.7888C69.5621 22.3131 70.5733 22.5753 71.753 22.5753C73.0263 22.5753 74.0469 22.3038 74.8146 21.7607C75.5824 21.2177 76.088 20.4499 76.3314 19.4575H80.5166C80.1421 21.4986 79.1871 23.0996 77.6516 24.2606C76.1348 25.4216 74.178 26.0021 71.7811 26.0021ZM83.3915 25.665V5.58175H87.1835V25.665H83.3915ZM97.2078 26.0021C95.8782 26.0021 94.6704 25.6931 93.5843 25.0752C92.4983 24.4572 91.6369 23.5959 91.0002 22.491C90.3823 21.3862 90.0733 20.1222 90.0733 18.6991C90.0733 17.2572 90.3916 15.9932 91.0283 14.9071C91.665 13.8023 92.5263 12.9409 93.6124 12.323C94.6985 11.705 95.9063 11.3961 97.2359 11.3961C98.5841 11.3961 99.8013 11.705 100.887 12.323C101.973 12.9409 102.825 13.8023 103.443 14.9071C104.08 15.9932 104.398 17.2572 104.398 18.6991C104.398 20.141 104.08 21.4143 103.443 22.5191C102.807 23.6052 101.945 24.4572 100.859 25.0752C99.7919 25.6931 98.5747 26.0021 97.2078 26.0021ZM97.2078 22.7438C97.8257 22.7438 98.3781 22.594 98.865 22.2944C99.3706 21.9948 99.7732 21.5454 100.073 20.9462C100.372 20.3469 100.522 19.5979 100.522 18.6991C100.522 17.8003 100.372 17.0512 100.073 16.452C99.7732 15.8528 99.3706 15.4034 98.865 15.1038C98.3781 14.8041 97.8351 14.6543 97.2359 14.6543C96.6554 14.6543 96.1123 14.8041 95.6067 15.1038C95.1011 15.4034 94.6985 15.8528 94.3989 16.452C94.0993 17.0512 93.9495 17.8003 93.9495 18.6991C93.9495 19.5979 94.0993 20.3469 94.3989 20.9462C94.6985 21.5454 95.0918 21.9948 95.5786 22.2944C96.0842 22.594 96.6273 22.7438 97.2078 22.7438ZM112.48 26.0021C111.319 26.0021 110.335 25.7587 109.53 25.2718C108.725 24.7849 108.107 24.064 107.676 23.109C107.246 22.1352 107.03 20.9462 107.03 19.5417V11.7331H110.822V19.2047C110.822 20.3657 111.056 21.2551 111.525 21.8731C111.993 22.491 112.732 22.8 113.744 22.8C114.38 22.8 114.951 22.6502 115.457 22.3506C115.963 22.0323 116.356 21.5922 116.637 21.0304C116.918 20.4499 117.058 19.7477 117.058 18.9238V11.7331H120.85V25.665H117.536L117.255 23.3618H117.227C116.777 24.167 116.15 24.813 115.345 25.2999C114.558 25.768 113.603 26.0021 112.48 26.0021ZM130.472 26.0021C129.161 26.0021 127.991 25.6838 126.961 25.0471C125.95 24.4104 125.154 23.5397 124.573 22.4349C123.993 21.33 123.703 20.0754 123.703 18.671C123.703 17.2666 123.993 16.0213 124.573 14.9352C125.154 13.8304 125.959 12.969 126.989 12.3511C128.019 11.7144 129.189 11.3961 130.5 11.3961C131.549 11.3961 132.457 11.5927 133.225 11.9859C134.011 12.3792 134.638 12.9035 135.107 13.5589V5.58175H138.899V25.665H135.584L135.219 23.5865H135.191C134.891 24.0359 134.517 24.4479 134.067 24.8224C133.637 25.1782 133.122 25.4591 132.522 25.665C131.923 25.8897 131.24 26.0021 130.472 26.0021ZM131.371 22.7438C132.139 22.7438 132.803 22.5753 133.365 22.2382C133.946 21.8825 134.395 21.4049 134.713 20.8057C135.05 20.1878 135.219 19.4856 135.219 18.6991C135.219 17.8939 135.05 17.1917 134.713 16.5925C134.395 15.9932 133.946 15.5251 133.365 15.188C132.785 14.8322 132.12 14.6543 131.371 14.6543C130.641 14.6543 129.985 14.8322 129.405 15.188C128.824 15.5251 128.365 16.0026 128.028 16.6205C127.71 17.2198 127.551 17.9032 127.551 18.671C127.551 19.4762 127.71 20.1878 128.028 20.8057C128.365 21.4049 128.824 21.8825 129.405 22.2382C129.985 22.5753 130.641 22.7438 131.371 22.7438ZM142.284 25.665V5.58175H146.076V25.665H142.284ZM151.297 31.7041L154.724 24.0921H153.881L148.179 11.7331H152.308L156.381 20.6934H156.409L160.033 11.7331H164.078L155.342 31.7041H151.297Z" fill="#17253F"/>
</svg>
