<svg width="112" height="46" viewBox="0 0 112 46" fill="none" xmlns="http://www.w3.org/2000/svg">
<path d="M1.56781 20.6284C1.87217 12.5413 10.8482 8.27916 17.9455 10.3579C25.862 12.6768 30.5817 20.0273 33.0395 27.4667C34.1933 30.9517 35.6821 35.2317 34.9745 38.9421C34.1676 43.1529 30.0188 44.0433 26.8034 41.726C20.1867 36.9546 25.3454 25.6476 28.521 20.3307C32.5826 13.5297 39.3825 8.16788 47.5684 8.13222C55.8193 8.09447 61.6635 14.3431 63.6744 21.9431C64.5973 25.4193 65.6173 31.4558 62.111 33.8851C60.6842 34.8732 58.6229 35.0434 57.5785 33.4232C56.6361 31.9622 57.1285 29.7856 57.5903 28.2372C58.5641 24.9666 60.5732 21.8803 62.331 18.9808C64.2749 15.7765 66.43 12.6823 69.0216 9.96724C74.8734 3.83979 83.0952 0.901539 91.076 4.76491C99.6006 8.89347 103.657 18.0198 104.757 27.017L106.808 25.7327C103.229 23.6415 99.6499 21.5504 96.0674 19.4562C95.624 20.2957 95.1806 21.1352 94.7371 21.9747C99.1046 24.0243 103.264 26.4151 107.22 29.1699C107.959 29.6823 109.147 29.0561 109.282 28.2232C110.02 23.6832 110.753 19.1434 111.491 14.6033C111.786 12.7906 108.996 12.1363 108.698 13.9653C107.966 18.5051 107.231 23.0483 106.495 27.5849L108.557 26.6382C104.598 23.8867 100.438 21.4893 96.0674 19.4562C94.4143 18.6905 93.1477 21.0543 94.7371 21.9747C98.3224 24.0526 101.914 26.1304 105.5 28.2083C106.355 28.7039 107.682 27.9692 107.551 26.9239C106.301 16.9828 101.791 6.9191 92.3478 2.35546C83.7805 -1.78798 74.6654 0.707865 68.0105 7.14704C64.4809 10.5648 61.681 14.7194 59.2112 18.9447C57.0694 22.607 54.503 26.6405 54.3833 31.0176C54.2841 34.65 56.8793 37.8742 60.7407 37.2627C65.058 36.5814 66.9853 32.3573 67.1303 28.4018C67.4703 19.1926 62.179 9.04998 53.0113 6.26772C43.5846 3.40607 33.8082 8.5257 28.2017 16.0521C23.4991 22.3701 17.3578 34.9693 23.4363 42.2404C25.6947 44.9393 29.6965 46.5945 33.1307 45.2592C37.2234 43.6655 38.0621 38.9858 37.5888 35.1054C36.3147 24.6874 30.79 12.5509 20.3311 8.71195C15.8879 7.07749 10.8651 7.18368 6.78834 9.77103C2.99857 12.1737 0.547179 16.1384 0.613723 20.6655C0.621809 21.2794 1.53675 21.237 1.555 20.6353L1.56781 20.6284Z" fill="#17253F"/>
</svg>
