<svg width="71" height="83" viewBox="0 0 71 83" fill="none" xmlns="http://www.w3.org/2000/svg">
<path d="M5.36317 0.792571C-0.20758 5.48843 1.73991 14.2197 7.14676 18.1051C13.1778 22.4389 21.0089 21.7165 27.6501 19.3397C30.7626 18.2281 34.6248 16.9138 36.8661 14.3562C39.4075 11.451 37.7411 8.01335 34.3154 7.01503C27.2638 4.96234 22.0969 14.887 20.0827 20.086C17.506 26.7359 17.4676 34.532 21.9769 40.3613C26.5207 46.2378 34.1927 46.9239 40.7003 44.141C43.6786 42.8704 48.5278 40.2503 48.3095 36.4162C48.2204 34.8562 47.1993 33.2991 45.4709 33.4553C43.9119 33.5959 42.64 35.151 41.7969 36.3365C40.0152 38.8394 38.9379 41.9749 37.8539 44.8286C36.6566 47.9832 35.6545 51.2267 35.1632 54.57C34.0562 62.1173 36.5254 69.5799 43.6883 73.1037C51.3405 76.8666 60.0645 74.6899 67.0589 70.4862L67.284 72.6537C63.8172 71.272 60.3504 69.8902 56.8796 68.5078C57.2297 67.7281 57.5799 66.9483 57.9301 66.1686C61.804 68.1328 65.805 69.7605 69.9515 71.0419C70.7246 71.2828 70.9378 72.4722 70.4215 73.0293C67.6087 76.0686 64.7925 79.1032 61.9798 82.1424C60.8566 83.3559 58.8466 81.7382 59.9797 80.5137C62.796 77.4791 65.6128 74.4405 68.4249 71.4053L68.895 73.3928C64.7492 72.1073 60.7434 70.4831 56.8796 68.5078C55.4204 67.7587 56.3964 65.5504 57.9301 66.1686C61.3908 67.562 64.8551 68.9601 68.3159 70.3535C69.1417 70.6863 69.3553 72.0351 68.5409 72.5211C60.7931 77.1405 51.1529 79.5151 42.6828 75.341C34.9964 71.5561 31.7183 63.7046 32.6017 55.4147C33.072 51.0164 34.4695 46.7279 36.1 42.6345C37.5127 39.0857 38.9535 35.03 41.9936 32.5203C44.5166 30.4378 48.2424 30.4935 49.9475 33.5726C51.8555 37.014 49.9254 40.7218 47.1984 43.0159C40.8511 48.3586 30.7218 50.2219 23.6687 45.2569C16.4159 40.152 14.6336 30.3777 16.8694 22.2296C18.7481 15.3923 24.2878 4.05441 32.8153 4.34051C35.9817 4.44819 39.3732 6.37142 40.3279 9.54832C41.464 13.3357 38.6075 16.5232 35.5913 18.3369C27.492 23.2037 15.8184 26.006 7.30009 20.7099C3.67885 18.4621 0.971817 14.8386 0.549694 10.512C0.155506 6.49146 1.61129 2.55545 4.86103 0.0948686C5.30114 -0.239421 5.77788 0.433395 5.36099 0.77965L5.36317 0.792571Z" fill="#E7F4EF"/>
</svg>
