<svg width="29" height="52" viewBox="0 0 29 52" fill="none" xmlns="http://www.w3.org/2000/svg">
<path d="M18.9688 18.8366C18.9688 16.2417 16.8605 14.2145 14.3467 14.2145C11.7519 14.2145 9.72461 16.3228 9.72461 18.8366C9.72461 21.4315 11.7519 23.4587 14.3467 23.4587C16.9416 23.4587 18.9688 21.4315 18.9688 18.8366ZM14.3467 21.918C12.6438 21.918 11.2653 20.5395 11.2653 18.8366C11.2653 17.1337 12.6438 15.7552 14.3467 15.7552C16.0496 15.7552 17.4281 17.1337 17.4281 18.8366C17.4281 20.5395 16.0496 21.918 14.3467 21.918Z" fill="white"/>
<path d="M26.9168 50.1337C26.9168 50.5392 27.2412 50.9446 27.7277 50.9446C28.1332 50.9446 28.5386 50.6203 28.5386 50.1337C28.5386 47.6199 26.187 45.5927 23.1867 45.2683C22.7813 43.2411 20.754 41.6193 18.2402 41.376V36.1863C18.4835 35.6998 18.8079 35.2132 19.1322 34.6456C21.3217 36.1052 23.8354 39.0244 24.8085 41.376C24.8896 41.7004 25.214 41.8626 25.5383 41.8626C25.8627 41.8626 26.187 41.6193 26.2681 41.2949C26.3492 41.1328 27.6466 36.7539 27.8088 35.2132C28.3765 30.51 26.6736 26.3744 23.1867 24.3472C23.6733 22.401 23.9165 20.4549 23.9165 18.5087C23.8354 7.23726 15.1588 0.425721 14.8345 0.182452C14.5912 -0.0608173 14.1858 -0.0608173 13.8614 0.182452C13.456 0.425721 4.86046 7.23726 4.86046 18.5087C4.86046 20.4549 5.10373 22.401 5.59027 24.3472C2.1845 26.4555 0.40053 30.5911 0.968157 35.2132C1.21143 36.7539 2.50886 41.1328 2.50886 41.2949C2.58995 41.6193 2.91431 41.8626 3.23867 41.8626C3.56303 41.8626 3.88738 41.7004 3.96847 41.376C4.94155 39.0244 7.37424 36.1052 9.56366 34.6456C9.88802 35.1321 10.1313 35.6998 10.3746 36.1863V41.376C7.86078 41.6193 5.83353 43.2411 5.42809 45.2683C2.42777 45.5927 0.0761719 47.6199 0.0761719 50.1337C0.0761719 50.5392 0.40053 50.9446 0.887067 50.9446C1.29252 50.9446 1.69796 50.6203 1.69796 50.1337C1.69796 48.2687 3.7252 46.8091 6.15789 46.8091C6.56334 46.8091 6.96879 46.4847 6.96879 45.9982C6.96879 44.2953 8.83385 42.9167 11.1855 42.9167C11.5909 42.9167 11.9963 42.5924 11.9963 42.1058V36.7539H16.5374V42.1058C16.5374 42.5113 16.8617 42.9167 17.3483 42.9167C19.6999 42.9167 21.5649 44.2953 21.5649 45.9982C21.5649 46.4036 21.8893 46.8091 22.3758 46.8091C24.8896 46.8091 26.9168 48.3498 26.9168 50.1337ZM26.187 35.051C26.1059 35.8619 25.6194 37.6459 25.214 39.0244C23.8354 36.835 21.7271 34.5645 19.781 33.3482C20.9162 31.1587 21.9704 28.6449 22.7002 25.969C25.3761 27.753 26.6736 31.0776 26.187 35.051ZM14.3479 1.80425C15.321 2.69623 17.6726 4.96675 19.5377 8.29142C16.4563 10.3998 12.3207 10.3998 9.15821 8.29142C11.0233 4.96675 13.3749 2.69623 14.3479 1.80425ZM3.48194 38.9433C3.07649 37.5648 2.58995 35.7808 2.50886 34.9699C2.02232 31.0776 3.31976 27.753 5.99571 25.8879C6.72552 28.5639 7.77969 31.0776 8.91494 33.2671C6.96879 34.5645 4.86046 36.7539 3.48194 38.9433ZM11.672 35.2132C8.83385 30.2667 6.40116 24.185 6.40116 18.5087C6.40116 15.1841 7.29315 12.1837 8.4284 9.75104C10.2124 10.8863 12.2396 11.535 14.3479 11.535C16.4563 11.535 18.4835 10.9674 20.2675 9.75104C21.4027 12.1837 22.2947 15.1841 22.2947 18.5087C22.2947 24.5905 19.4566 30.9155 16.9428 35.2132H11.672Z" fill="white"/>
<path d="M18.6468 48.189C18.2414 48.189 17.8359 48.5133 17.8359 48.9999C17.8359 49.4864 18.1603 49.8108 18.6468 49.8108C19.701 49.8108 20.6741 50.4595 20.6741 51.1893C20.6741 51.5947 20.9984 52.0002 21.485 52.0002C21.8904 52.0002 22.2959 51.6758 22.2959 51.1893C22.2148 49.4864 20.593 48.189 18.6468 48.189Z" fill="white"/>
<path d="M6.48242 51.1095C6.48242 51.5149 6.80678 51.9203 7.29332 51.9203C7.69877 51.9203 8.10421 51.596 8.10421 51.1095C8.10421 50.3796 8.9962 49.7309 10.1315 49.7309C10.5369 49.7309 10.9424 49.4066 10.9424 48.92C10.9424 48.4335 10.618 48.1091 10.1315 48.1091C8.02312 48.1902 6.48242 49.4877 6.48242 51.1095Z" fill="white"/>
<path d="M11.1855 44.7838V46.4867C11.1855 46.8921 11.5099 47.2976 11.9964 47.2976C12.4019 47.2976 12.8073 46.9732 12.8073 46.4867V44.7838C12.8073 44.3783 12.483 43.9729 11.9964 43.9729C11.5099 44.054 11.1855 44.3783 11.1855 44.7838Z" fill="white"/>
<path d="M13.9434 41.1324V44.8626C13.9434 45.268 14.2677 45.6735 14.7543 45.6735C15.1597 45.6735 15.5652 45.3491 15.5652 44.8626V41.1324C15.5652 40.727 15.2408 40.3215 14.7543 40.3215C14.3488 40.3215 13.9434 40.6459 13.9434 41.1324Z" fill="white"/>
</svg>
