<svg width="258" height="265" viewBox="0 0 258 265" fill="none" xmlns="http://www.w3.org/2000/svg">
<path d="M0 214.192V50.9311C0.0108429 37.5751 5.32243 24.7694 14.7681 15.3268C24.2138 5.88424 37.0211 0.576821 50.3772 0.570318H207.524C214.139 0.567091 220.689 1.86751 226.8 4.39723C232.912 6.92696 238.465 10.6364 243.142 15.3135C247.819 19.9905 251.529 25.5435 254.058 31.6551C256.588 37.7666 257.888 44.3167 257.885 50.9311V139.155L257.877 214.192C257.876 220.802 256.572 227.346 254.039 233.45C251.506 239.555 247.794 245.1 243.115 249.769C238.437 254.437 232.884 258.137 226.774 260.657C220.664 263.177 214.117 264.468 207.508 264.455H50.3608C37.018 264.466 24.2171 259.177 14.7731 249.751C5.32905 240.326 0.0151875 227.535 0 214.192Z" fill="#17253F"/>
<path d="M133.412 94.7445L112.45 55.8096C111.903 54.7905 111.086 53.9414 110.089 53.3546C109.092 52.7678 107.953 52.466 106.797 52.4821C105.64 52.4981 104.51 52.8314 103.53 53.4456C102.549 54.0597 101.756 54.9313 101.237 55.9651L71.3139 115.452H33.664C32.2691 115.456 30.9144 115.92 29.8109 116.773C28.7073 117.627 27.9166 118.821 27.5618 120.17C27.207 121.519 27.3081 122.947 27.8492 124.233C28.3903 125.519 29.3411 126.589 30.5538 127.279L68.3428 148.633C70.4208 149.799 71.9656 151.726 72.6525 154.008C73.3393 156.29 73.1148 158.749 72.026 160.869L51.3758 200.852C50.7471 202.074 50.5338 203.467 50.7683 204.821C51.0028 206.175 51.6724 207.416 52.6755 208.355C53.6786 209.294 54.9606 209.881 56.3271 210.026C57.6936 210.171 59.0701 209.867 60.2481 209.159L108.415 180.177" fill="#04DA8D"/>
<path d="M140.271 89.3582V113.651C140.271 114.159 140.472 114.646 140.831 115.005C141.191 115.364 141.678 115.566 142.186 115.566H171.438C171.689 115.566 171.938 115.516 172.17 115.42C172.402 115.324 172.612 115.182 172.789 115.004C172.967 114.826 173.107 114.615 173.202 114.383C173.298 114.151 173.346 113.902 173.345 113.651V89.3582C173.345 89.1078 173.296 88.8598 173.2 88.6284C173.104 88.397 172.964 88.1868 172.787 88.0097C172.609 87.8326 172.399 87.6922 172.168 87.5963C171.936 87.5005 171.688 87.4512 171.438 87.4512H142.186C141.679 87.4512 141.193 87.6518 140.834 88.0092C140.475 88.3666 140.273 88.8517 140.271 89.3582ZM146 123.497V202.332C145.999 202.622 146.064 202.909 146.19 203.17C146.317 203.431 146.501 203.66 146.729 203.839C146.957 204.018 147.223 204.143 147.506 204.204C147.79 204.265 148.084 204.26 148.365 204.19C155.507 202.388 161.842 198.255 166.369 192.444C170.895 186.634 173.353 179.48 173.353 172.114V123.497C173.354 123.246 173.306 122.997 173.21 122.765C173.115 122.532 172.975 122.321 172.798 122.143C172.62 121.965 172.41 121.824 172.178 121.728C171.946 121.631 171.697 121.582 171.446 121.582H147.907C147.399 121.582 146.912 121.783 146.553 122.143C146.193 122.502 145.992 122.989 145.992 123.497H146ZM178.739 89.3582V113.863C178.738 114.114 178.786 114.363 178.882 114.596C178.977 114.828 179.117 115.039 179.295 115.217C179.472 115.395 179.682 115.536 179.914 115.633C180.146 115.729 180.395 115.779 180.646 115.779H222.871C223.122 115.779 223.371 115.729 223.603 115.633C223.835 115.536 224.045 115.395 224.222 115.217C224.4 115.039 224.54 114.828 224.635 114.596C224.731 114.363 224.779 114.114 224.778 113.863V89.3582C224.778 88.8524 224.577 88.3674 224.22 88.0097C223.862 87.6521 223.377 87.4512 222.871 87.4512H180.654C180.148 87.4512 179.663 87.6521 179.306 88.0097C178.948 88.3674 178.747 88.8524 178.747 89.3582H178.739ZM167.059 137.812V161.441C167.059 161.692 167.109 161.94 167.204 162.171C167.3 162.403 167.441 162.613 167.618 162.79C167.795 162.967 168.005 163.107 168.236 163.203C168.468 163.299 168.716 163.348 168.966 163.348H222.986C223.237 163.349 223.486 163.301 223.718 163.206C223.95 163.11 224.161 162.97 224.339 162.793C224.517 162.616 224.659 162.405 224.755 162.173C224.851 161.941 224.901 161.692 224.901 161.441V137.812C224.901 137.561 224.851 137.312 224.755 137.08C224.659 136.848 224.517 136.638 224.339 136.461C224.161 136.283 223.95 136.143 223.718 136.048C223.486 135.952 223.237 135.904 222.986 135.905H168.966C168.462 135.907 167.979 136.109 167.623 136.466C167.267 136.824 167.067 137.308 167.067 137.812H167.059Z" fill="white"/>
<path d="M99.7885 87.4512C92.332 87.4512 85.1809 90.4132 79.9084 95.6858C74.6359 100.958 71.6738 108.109 71.6738 115.566H171.692C171.943 115.566 172.191 115.516 172.423 115.42C172.655 115.324 172.866 115.182 173.043 115.004C173.22 114.826 173.36 114.615 173.456 114.383C173.551 114.151 173.6 113.902 173.599 113.651V89.3582C173.599 89.1078 173.549 88.8598 173.453 88.6284C173.358 88.397 173.217 88.1868 173.04 88.0097C172.863 87.8326 172.653 87.6922 172.421 87.5963C172.19 87.5005 171.942 87.4512 171.692 87.4512H99.7885ZM106.901 87.4512V203.282C106.901 203.532 106.95 203.78 107.046 204.012C107.142 204.243 107.282 204.453 107.46 204.63C107.637 204.807 107.847 204.948 108.078 205.044C108.31 205.14 108.558 205.189 108.808 205.189H138.06C138.311 205.189 138.559 205.14 138.79 205.044C139.022 204.948 139.232 204.807 139.409 204.63C139.586 204.453 139.726 204.243 139.822 204.012C139.918 203.78 139.967 203.532 139.967 203.282V87.4512H106.901Z" fill="white"/>
</svg>
