<svg width="18" height="18" viewBox="0 0 18 18" fill="none" xmlns="http://www.w3.org/2000/svg">
<path d="M17.9999 12.771C17.9999 16.047 16.0469 18 12.7709 18H11.6999C11.2049 18 10.7999 17.595 10.7999 17.1V11.907C10.7999 11.664 10.9979 11.457 11.2409 11.457L12.8249 11.43C12.9509 11.421 13.0589 11.331 13.0859 11.205L13.4009 9.48601C13.4279 9.32401 13.3019 9.171 13.1309 9.171L11.2139 9.198C10.9619 9.198 10.764 9.00001 10.755 8.75701L10.7189 6.552C10.7189 6.408 10.8359 6.28201 10.9889 6.28201L13.1489 6.246C13.3019 6.246 13.4189 6.12901 13.4189 5.97601L13.3829 3.81599C13.3829 3.66299 13.2659 3.546 13.1129 3.546L10.6829 3.58201C9.18895 3.60901 8.00097 4.833 8.02797 6.327L8.07296 8.802C8.08196 9.054 7.88397 9.25201 7.63197 9.26101L6.55197 9.279C6.39897 9.279 6.28198 9.39599 6.28198 9.54899L6.30898 11.259C6.30898 11.412 6.42597 11.529 6.57896 11.529L7.65897 11.511C7.91097 11.511 8.10895 11.709 8.11795 11.952L8.19895 17.082C8.20795 17.586 7.80295 18 7.29895 18H5.22897C1.95299 18 0 16.047 0 12.762V5.229C0 1.953 1.95299 0 5.22897 0H12.7709C16.0469 0 17.9999 1.953 17.9999 5.229V12.771V12.771Z" fill="white"/>
</svg>
