<svg width="20" height="19" viewBox="0 0 20 19" fill="none" xmlns="http://www.w3.org/2000/svg">
<path d="M9.64421 17.4163C14.0165 17.4163 17.5609 13.8719 17.5609 9.49967C17.5609 5.12742 14.0165 1.58301 9.64421 1.58301C5.27195 1.58301 1.72754 5.12742 1.72754 9.49967C1.72754 13.8719 5.27195 17.4163 9.64421 17.4163Z" stroke="#292D32" stroke-width="1.5" stroke-linecap="round" stroke-linejoin="round"/>
<path d="M6.47747 2.375H7.26914C5.72539 6.99833 5.72539 12.0017 7.26914 16.625H6.47747" stroke="#292D32" stroke-width="1.5" stroke-linecap="round" stroke-linejoin="round"/>
<path d="M12.0195 2.375C13.5633 6.99833 13.5633 12.0017 12.0195 16.625" stroke="#292D32" stroke-width="1.5" stroke-linecap="round" stroke-linejoin="round"/>
<path d="M2.51953 12.6667V11.875C7.14286 13.4187 12.1462 13.4187 16.7695 11.875V12.6667" stroke="#292D32" stroke-width="1.5" stroke-linecap="round" stroke-linejoin="round"/>
<path d="M2.51953 7.12461C7.14286 5.58086 12.1462 5.58086 16.7695 7.12461" stroke="#292D32" stroke-width="1.5" stroke-linecap="round" stroke-linejoin="round"/>
</svg>
