<svg width="41" height="41" viewBox="0 0 41 41" fill="none" xmlns="http://www.w3.org/2000/svg">
<g clip-path="url(#clip0_213_19831)">
<path d="M11.4375 13.7803H6.125C5.65039 13.7803 5.26562 13.3955 5.26562 12.9209V7.6084C5.26562 7.13379 5.65039 6.74902 6.125 6.74902H11.4375C11.9121 6.74902 12.2969 7.13379 12.2969 7.6084V12.9209C12.2969 13.3955 11.9121 13.7803 11.4375 13.7803ZM6.98437 12.0615H10.5781V8.46777H6.98437V12.0615Z" fill="#04DA8D"/>
<path d="M20.5 13.7803H15.1875C14.7129 13.7803 14.3281 13.3955 14.3281 12.9209V7.6084C14.3281 7.13379 14.7129 6.74902 15.1875 6.74902H20.5C20.9746 6.74902 21.3594 7.13379 21.3594 7.6084V12.9209C21.3594 13.3955 20.9746 13.7803 20.5 13.7803ZM16.0469 12.0615H19.6406V8.46777H16.0469V12.0615Z" fill="#04DA8D"/>
<path d="M29.5605 13.7803H24.248C23.7734 13.7803 23.3887 13.3955 23.3887 12.9209V7.6084C23.3887 7.13379 23.7734 6.74902 24.248 6.74902H29.5605C30.0351 6.74902 30.4199 7.13379 30.4199 7.6084V12.9209C30.4199 13.3955 30.0351 13.7803 29.5605 13.7803ZM25.1074 12.0615H28.7012V8.46777H25.1074V12.0615Z" fill="#04DA8D"/>
<path d="M34.5967 30.3369H29.2842C28.8096 30.3369 28.4248 29.9521 28.4248 29.4775V24.165C28.4248 23.6904 28.8096 23.3057 29.2842 23.3057H34.5967C35.0713 23.3057 35.456 23.6904 35.456 24.165V29.4775C35.456 29.9521 35.0713 30.3369 34.5967 30.3369ZM30.1436 28.6182H33.7373V25.0244H30.1436V28.6182Z" fill="#04DA8D"/>
<path d="M6.83203 17.2178H10.7383C11.2129 17.2178 11.5976 16.833 11.5976 16.3584C11.5976 15.8838 11.2129 15.499 10.7383 15.499H6.83203C6.35742 15.499 5.97266 15.8838 5.97266 16.3584C5.97266 16.833 6.35742 17.2178 6.83203 17.2178Z" fill="#17253F"/>
<path d="M15.9043 17.2178H19.8105C20.2851 17.2178 20.6699 16.833 20.6699 16.3584C20.6699 15.8838 20.2851 15.499 19.8105 15.499H15.9043C15.4297 15.499 15.0449 15.8838 15.0449 16.3584C15.0449 16.833 15.4297 17.2178 15.9043 17.2178Z" fill="#17253F"/>
<path d="M6.83203 20.6602H10.7383C11.2129 20.6602 11.5976 20.2754 11.5976 19.8008C11.5976 19.3262 11.2129 18.9414 10.7383 18.9414H6.83203C6.35742 18.9414 5.97266 19.3262 5.97266 19.8008C5.97266 20.2754 6.35742 20.6602 6.83203 20.6602Z" fill="#17253F"/>
<path d="M15.9043 20.6602H19.8105C20.2851 20.6602 20.6699 20.2754 20.6699 19.8008C20.6699 19.3262 20.2851 18.9414 19.8105 18.9414H15.9043C15.4297 18.9414 15.0449 19.3262 15.0449 19.8008C15.0449 20.2754 15.4297 20.6602 15.9043 20.6602Z" fill="#17253F"/>
<path d="M37.3007 16.4316H35.6601V4.27765C35.6601 2.27758 34.0329 0.650391 32.0328 0.650391H3.66242C1.66234 0.650391 0.0351562 2.27758 0.0351562 4.27765V24.8981C0.0351562 26.8982 1.66234 28.5253 3.66242 28.5253H13.6255V32.4103C13.6255 33.5938 12.6627 34.5567 11.4792 34.5567H9.74928C9.27467 34.5567 8.8899 34.9414 8.8899 35.416C8.8899 35.8906 9.27467 36.2754 9.74928 36.2754H23.838V37.916C23.838 39.4238 25.0646 40.6504 26.5724 40.6504H37.3007C38.8084 40.6504 40.0351 39.4238 40.0351 37.916V19.166C40.0351 17.6582 38.8084 16.4316 37.3007 16.4316ZM38.3163 19.166V19.8691H25.5568V19.166C25.5568 18.606 26.0125 18.1504 26.5725 18.1504H37.3007C37.8607 18.1504 38.3163 18.606 38.3163 19.166ZM22.0697 28.5253H23.8381V34.5226C22.8343 34.3435 22.0697 33.4648 22.0697 32.4103V28.5253ZM25.5568 21.5879H38.3163V35.4941H25.5568V21.5879ZM3.66242 2.36914H32.0329C33.0852 2.36914 33.9413 3.22531 33.9413 4.27765V16.4316H26.5725C25.0647 16.4316 23.8381 17.6582 23.8381 19.166V22.378H1.7539V4.27765C1.7539 3.22531 2.61 2.36914 3.66242 2.36914ZM1.7539 24.8981V24.0968H23.8381V26.8066H3.66242C2.61 26.8066 1.7539 25.9504 1.7539 24.8981ZM15.3443 32.4103V28.5253H20.351V32.4103C20.351 33.2039 20.5917 33.9422 21.0035 34.5567H14.6917C15.1036 33.9422 15.3443 33.2039 15.3443 32.4103ZM37.3007 38.9316H26.5725C26.0125 38.9316 25.5568 38.4759 25.5568 37.9159V37.2128H38.3163V37.9159C38.3163 38.4759 37.8607 38.9316 37.3007 38.9316Z" fill="#17253F"/>
<path d="M33.8916 32.0586H29.9854C29.5107 32.0586 29.126 32.4434 29.126 32.918C29.126 33.3926 29.5107 33.7773 29.9854 33.7773H33.8916C34.3662 33.7773 34.751 33.3926 34.751 32.918C34.751 32.4434 34.3662 32.0586 33.8916 32.0586Z" fill="#17253F"/>
</g>
<defs>
<clipPath id="clip0_213_19831">
<rect width="40.0781" height="40" fill="white" transform="translate(0 0.646484)"/>
</clipPath>
</defs>
</svg>
