<svg width="41" height="41" viewBox="0 0 41 41" fill="none" xmlns="http://www.w3.org/2000/svg">
<path d="M6.83203 17.2176H10.7383C11.2129 17.2176 11.5976 16.8328 11.5976 16.3582C11.5976 15.8836 11.2129 15.4988 10.7383 15.4988H6.83203C6.35742 15.4988 5.97266 15.8836 5.97266 16.3582C5.97266 16.8328 6.35742 17.2176 6.83203 17.2176Z" fill="#17253F"/>
<path d="M15.9043 17.2176H19.8105C20.2851 17.2176 20.6699 16.8328 20.6699 16.3582C20.6699 15.8836 20.2851 15.4988 19.8105 15.4988H15.9043C15.4297 15.4988 15.0449 15.8836 15.0449 16.3582C15.0449 16.8328 15.4297 17.2176 15.9043 17.2176Z" fill="#17253F"/>
<path d="M6.83203 20.6605H10.7383C11.2129 20.6605 11.5976 20.2757 11.5976 19.8011C11.5976 19.3265 11.2129 18.9417 10.7383 18.9417H6.83203C6.35742 18.9417 5.97266 19.3265 5.97266 19.8011C5.97266 20.2757 6.35742 20.6605 6.83203 20.6605Z" fill="#17253F"/>
<path d="M15.9043 20.6605H19.8105C20.2851 20.6605 20.6699 20.2757 20.6699 19.8011C20.6699 19.3265 20.2851 18.9417 19.8105 18.9417H15.9043C15.4297 18.9417 15.0449 19.3265 15.0449 19.8011C15.0449 20.2757 15.4297 20.6605 15.9043 20.6605Z" fill="#17253F"/>
<path d="M37.3007 16.4316H35.6601V4.27768C35.6601 2.27761 34.0329 0.650421 32.0328 0.650421H3.66242C1.66234 0.650421 0.0351562 2.27761 0.0351562 4.27768V24.8981C0.0351562 26.8982 1.66234 28.5254 3.66242 28.5254H13.6255V32.4104C13.6255 33.5938 12.6627 34.5567 11.4792 34.5567H9.74928C9.27467 34.5567 8.8899 34.9414 8.8899 35.4161C8.8899 35.8907 9.27467 36.2754 9.74928 36.2754H23.838V37.9161C23.838 39.4238 25.0646 40.6504 26.5724 40.6504H37.3007C38.8084 40.6504 40.0351 39.4238 40.0351 37.9161V19.166C40.0351 17.6583 38.8084 16.4316 37.3007 16.4316ZM38.3163 19.166V19.8691H25.5568V19.166C25.5568 18.606 26.0125 18.1504 26.5725 18.1504H37.3007C37.8607 18.1504 38.3163 18.606 38.3163 19.166ZM22.0697 28.5254H23.8381V34.5226C22.8343 34.3435 22.0697 33.4648 22.0697 32.4104V28.5254ZM25.5568 21.5879H38.3163V35.4941H25.5568V21.5879ZM3.66242 2.36917H32.0329C33.0852 2.36917 33.9413 3.22534 33.9413 4.27768V16.4316H26.5725C25.0647 16.4316 23.8381 17.6583 23.8381 19.166V22.378H1.7539V4.27768C1.7539 3.22534 2.61 2.36917 3.66242 2.36917ZM1.7539 24.8981V24.0968H23.8381V26.8066H3.66242C2.61 26.8066 1.7539 25.9505 1.7539 24.8981ZM15.3443 32.4103V28.5254H20.351V32.4104C20.351 33.204 20.5917 33.9422 21.0035 34.5567H14.6917C15.1036 33.9422 15.3443 33.204 15.3443 32.4103ZM37.3007 38.9316H26.5725C26.0125 38.9316 25.5568 38.476 25.5568 37.916V37.2129H38.3163V37.916C38.3163 38.476 37.8607 38.9316 37.3007 38.9316Z" fill="#17253F"/>
<path d="M33.8916 32.059H29.9854C29.5107 32.059 29.126 32.4437 29.126 32.9183C29.126 33.3929 29.5107 33.7777 29.9854 33.7777H33.8916C34.3662 33.7777 34.751 33.3929 34.751 32.9183C34.751 32.4437 34.3662 32.059 33.8916 32.059Z" fill="#17253F"/>
</svg>
