<svg width="127" height="24" viewBox="0 0 127 24" fill="none" xmlns="http://www.w3.org/2000/svg">
<rect width="24" height="24" rx="12" fill="#17253F"/>
<path d="M11.2162 5.16775C11.4628 4.40893 12.5363 4.40893 12.7829 5.16775L14.0453 9.05323C14.1556 9.39258 14.4718 9.62235 14.8287 9.62235H18.9141C19.712 9.62235 20.0437 10.6433 19.3982 11.1123L16.093 13.5137C15.8043 13.7234 15.6836 14.0952 15.7938 14.4345L17.0563 18.32C17.3028 19.0788 16.4343 19.7098 15.7888 19.2409L12.4837 16.8395C12.195 16.6298 11.8041 16.6298 11.5154 16.8395L8.21023 19.2409C7.56473 19.7098 6.69622 19.0788 6.94278 18.32L8.20525 14.4345C8.31551 14.0952 8.19472 13.7234 7.90604 13.5137L4.60086 11.1123C3.95536 10.6433 4.2871 9.62235 5.08498 9.62235H9.17041C9.52723 9.62235 9.84347 9.39258 9.95374 9.05323L11.2162 5.16775Z" fill="#04DA8D"/>
<rect x="25.7432" width="24" height="24" rx="12" fill="#17253F"/>
<path d="M36.9594 5.16775C37.2059 4.40893 38.2795 4.40893 38.526 5.16775L39.7885 9.05323C39.8988 9.39258 40.215 9.62235 40.5718 9.62235H44.6572C45.4551 9.62235 45.7869 10.6433 45.1414 11.1123L41.8362 13.5137C41.5475 13.7234 41.4267 14.0952 41.537 14.4345L42.7994 18.32C43.046 19.0788 42.1775 19.7098 41.532 19.2409L38.2268 16.8395C37.9381 16.6298 37.5472 16.6298 37.2586 16.8395L33.9534 19.2409C33.3079 19.7098 32.4394 19.0788 32.6859 18.32L33.9484 14.4345C34.0587 14.0952 33.9379 13.7234 33.6492 13.5137L30.344 11.1123C29.6985 10.6433 30.0303 9.62235 30.8281 9.62235H34.9136C35.2704 9.62235 35.5866 9.39258 35.6969 9.05323L36.9594 5.16775Z" fill="#04DA8D"/>
<rect x="51.4863" width="24" height="24" rx="12" fill="#17253F"/>
<path d="M62.7025 5.16775C62.9491 4.40893 64.0226 4.40893 64.2692 5.16775L65.5317 9.05323C65.6419 9.39258 65.9582 9.62235 66.315 9.62235H70.4004C71.1983 9.62235 71.53 10.6433 70.8845 11.1123L67.5793 13.5137C67.2907 13.7234 67.1699 14.0952 67.2801 14.4345L68.5426 18.32C68.7892 19.0788 67.9207 19.7098 67.2752 19.2409L63.97 16.8395C63.6813 16.6298 63.2904 16.6298 63.0017 16.8395L59.6966 19.2409C59.0511 19.7098 58.1825 19.0788 58.4291 18.32L59.6916 14.4345C59.8018 14.0952 59.681 13.7234 59.3924 13.5137L56.0872 11.1123C55.4417 10.6433 55.7734 9.62235 56.5713 9.62235H60.6567C61.0136 9.62235 61.3298 9.39258 61.4401 9.05323L62.7025 5.16775Z" fill="#04DA8D"/>
<rect x="77.2295" width="24" height="24" rx="12" fill="#17253F"/>
<path d="M88.4457 5.16775C88.6923 4.40893 89.7658 4.40893 90.0124 5.16775L91.2748 9.05323C91.3851 9.39258 91.7013 9.62235 92.0581 9.62235H96.1436C96.9415 9.62235 97.2732 10.6433 96.6277 11.1123L93.3225 13.5137C93.0338 13.7234 92.913 14.0952 93.0233 14.4345L94.2858 18.32C94.5323 19.0788 93.6638 19.7098 93.0183 19.2409L89.7131 16.8395C89.4245 16.6298 89.0336 16.6298 88.7449 16.8395L85.4397 19.2409C84.7942 19.7098 83.9257 19.0788 84.1723 18.32L85.4347 14.4345C85.545 14.0952 85.4242 13.7234 85.1355 13.5137L81.8304 11.1123C81.1849 10.6433 81.5166 9.62235 82.3145 9.62235H86.3999C86.7567 9.62235 87.073 9.39258 87.1832 9.05323L88.4457 5.16775Z" fill="#04DA8D"/>
<rect x="102.973" width="24" height="24" rx="12" fill="#17253F"/>
<path d="M114.189 5.16775C114.435 4.40893 115.509 4.40893 115.756 5.16775L117.018 9.05323C117.128 9.39258 117.444 9.62235 117.801 9.62235H121.887C122.685 9.62235 123.016 10.6433 122.371 11.1123L119.066 13.5137C118.777 13.7234 118.656 14.0952 118.766 14.4345L120.029 18.32C120.275 19.0788 119.407 19.7098 118.761 19.2409L115.456 16.8395C115.168 16.6298 114.777 16.6298 114.488 16.8395L111.183 19.2409C110.537 19.7098 109.669 19.0788 109.915 18.32L111.178 14.4345C111.288 14.0952 111.167 13.7234 110.879 13.5137L107.574 11.1123C106.928 10.6433 107.26 9.62235 108.058 9.62235H112.143C112.5 9.62235 112.816 9.39258 112.926 9.05323L114.189 5.16775Z" fill="#04DA8D"/>
</svg>
