<svg width="19" height="18" viewBox="0 0 19 18" fill="none" xmlns="http://www.w3.org/2000/svg">
<path d="M4.09089 18H0V5.72727H4.09089V18ZM2.04626 4.09091C0.914723 4.09091 0 3.17373 0 2.04464C0 0.915546 0.916359 0 2.04626 0C3.17371 0 4.09089 0.917182 4.09089 2.04464C4.09089 3.17373 3.17371 4.09091 2.04626 4.09091ZM18.8181 18H14.8851V12.0273C14.8851 10.6028 14.8581 8.77091 12.8405 8.77091C10.7926 8.77091 10.4776 10.3222 10.4776 11.9242V18H6.54542V5.71827H10.3205V7.39636H10.3737C10.8989 6.43091 12.1827 5.41309 14.0972 5.41309C18.0817 5.41309 18.8181 7.95682 18.8181 11.2639V18Z" fill="white"/>
</svg>
