<svg width="366" height="128" viewBox="0 0 366 128" fill="none" xmlns="http://www.w3.org/2000/svg">
<g clip-path="url(#clip0_2191_1948)">
<path d="M53.0555 49.1873C52.9515 49.1873 52.8443 49.1873 52.7402 49.1934V49.1873L69.3896 0.63501L84.4595 49.1873H53.0555Z" fill="#3E5AFD"/>
<path d="M40.2237 61.6399H56.7262V106.292L26.0936 127.362L42.339 79.1923L0.756836 48.3669L52.3794 49.1873L52.7222 49.1934C50.0774 49.2577 47.6347 50.0965 45.6174 51.4862C44.3226 52.3831 43.2053 53.5096 42.3298 54.8014C40.9951 56.7636 40.2207 59.1145 40.2207 61.6399H40.2237Z" fill="#3E5AFD"/>
<path d="M94.1175 80.6127L96.4286 88.1859H81.6342V92.1347C81.6342 92.4745 81.6281 92.8112 81.6159 93.1448C81.5546 94.758 81.3496 96.3253 81.0159 97.813C80.3302 100.874 79.1058 103.629 77.4926 105.882L69.1816 99.662V61.6399H81.6342V75.7332H101.002L94.1175 80.6127Z" fill="#3E5AFD"/>
<path d="M106.665 50.2495C106.031 56.6288 99.7376 61.6399 92.0634 61.6399H84.4688V49.2179L84.683 49.9005L106.665 50.2495Z" fill="#3E5AFD"/>
<path d="M81.6342 61.6399V92.1347C81.6342 92.4745 81.6281 92.8112 81.6159 93.1448C81.5546 94.758 81.3496 96.3253 81.0159 97.813C80.3302 100.874 79.1058 103.629 77.4926 105.882C76.7242 106.954 75.8671 107.912 74.9396 108.735C74.6243 109.017 74.3029 109.277 73.9723 109.525C72.5091 110.621 70.8959 111.401 69.1816 111.796V61.6399H81.6342Z" fill="#24388E"/>
<path d="M106.72 49.1873C106.72 49.5454 106.702 49.9005 106.665 50.2495C106.032 56.6288 99.738 61.6399 92.0638 61.6399H84.4691V49.2179L84.46 49.1873H106.72Z" fill="#24388E"/>
<path d="M106.72 75.7333H81.6343V88.1859H106.72V75.7333Z" fill="#24388E"/>
<path d="M84.46 49.1873L84.4691 49.2179V49.1873H84.46Z" fill="white"/>
<path d="M131.959 65.2031H125.194V88.189H120.685V65.2031H113.92V61.34H131.956V65.2031H131.959Z" fill="#24388E"/>
<path d="M132.048 88.1919V71.2456H136.379V72.7762C136.939 72.1854 137.543 71.717 138.191 71.368C138.899 70.9915 139.783 70.8048 140.845 70.8048C142.113 70.8048 143.248 71.0742 144.249 71.6099L142.48 75.1914C141.773 74.7904 141.035 74.5883 140.27 74.5883C139.122 74.5883 138.222 74.8975 137.573 75.5128C136.777 76.2903 136.379 77.5944 136.379 79.4188V88.195H132.048V88.1919Z" fill="#24388E"/>
<path d="M144.072 71.2426H148.403V80.9432C148.403 82.3666 148.67 83.386 149.199 84.0012C149.848 84.7788 150.791 85.1675 152.028 85.1675C153.265 85.1675 154.207 84.7788 154.856 84.0012C155.386 83.3829 155.652 82.3636 155.652 80.9432V71.2426H159.984V81.0656C159.984 83.5605 159.319 85.4124 157.994 86.6216C156.46 88.0174 154.443 88.7154 151.936 88.7154C149.429 88.7154 147.559 88.0174 146.056 86.6216C144.73 85.4124 144.066 83.5635 144.066 81.0656V71.2426H144.072Z" fill="#24388E"/>
<path d="M174.619 73.7802L171.393 75.7118C170.744 74.7445 169.859 74.2639 168.739 74.2639C168.178 74.2639 167.738 74.4108 167.413 74.7078C167.147 74.9496 167.015 75.2435 167.015 75.5924C167.015 75.9934 167.22 76.3179 167.634 76.5598C167.722 76.6149 167.811 76.6608 167.9 76.7005C167.989 76.7403 168.151 76.8138 168.387 76.9209C168.622 77.0281 168.858 77.1352 169.094 77.2424L171.304 78.2495C172.54 78.8127 173.41 79.3362 173.912 79.8198C174.824 80.6525 175.283 81.6993 175.283 82.9605C175.283 84.4635 174.738 85.7523 173.649 86.8237C172.381 88.0848 170.643 88.7154 168.432 88.7154C166.783 88.7154 165.442 88.3542 164.41 87.6287C163.29 86.8787 162.494 85.8441 162.022 84.5278L165.558 82.9973C165.852 83.7748 166.192 84.3135 166.574 84.6074C167.046 85.0359 167.679 85.2502 168.475 85.2502C169.271 85.2502 169.831 85.0635 170.245 84.687C170.658 84.3105 170.863 83.8697 170.863 83.3585C170.863 82.8748 170.67 82.4463 170.287 82.0697C169.874 81.6932 169.256 81.3443 168.429 81.0228L166.838 80.3372C165.601 79.8015 164.744 79.3178 164.272 78.8893C163.388 78.1117 162.947 77.1597 162.947 76.0302C162.947 74.6068 163.461 73.4007 164.493 72.4058C165.613 71.3314 167.131 70.7957 169.048 70.7957C170.373 70.7957 171.524 71.0926 172.495 71.6803C173.379 72.1915 174.086 72.8895 174.616 73.7741L174.619 73.7802Z" fill="#24388E"/>
<path d="M184.742 74.8669H181.426V88.192H177.095V74.8669H175.283V71.2426H177.095V65.0438H181.426V71.2426H184.742V74.8669Z" fill="#24388E"/>
<path d="M184.962 97.4089L191.813 85.5349L183.854 71.2426H189.07L194.375 81.1452L199.769 71.2426H204.633L189.823 97.4089H184.959H184.962Z" fill="#24388E"/>
<path d="M229.082 61.3399V65.203H218.824V72.0048H228.727V75.8679H218.824V88.1858H214.315V61.3337H229.082V61.3399Z" fill="#24388E"/>
<path d="M243.362 82.4738L246.986 84.3258C246.16 85.6665 245.113 86.7012 243.849 87.4267C242.404 88.2838 240.576 88.7154 238.366 88.7154C235.774 88.7154 233.68 87.9899 232.088 86.542C230.26 84.8768 229.345 82.7187 229.345 80.0616C229.345 77.2699 230.331 74.9496 232.308 73.0976C233.989 71.567 236.067 70.8018 238.541 70.8018C241.014 70.8018 242.946 71.5395 244.51 73.0149C246.249 74.6526 247.118 77.0403 247.118 80.181V80.6646H233.769C233.885 82.0881 234.417 83.2268 235.36 84.087C236.156 84.8125 237.261 85.1737 238.675 85.1737C239.826 85.1737 240.812 84.8921 241.639 84.3288C242.315 83.8452 242.891 83.2299 243.362 82.4768V82.4738ZM234.078 77.4413H242.698C242.52 76.5016 242.079 75.7363 241.372 75.1455C240.604 74.5027 239.634 74.1782 238.455 74.1782C237.218 74.1782 236.199 74.5394 235.406 75.2649C234.757 75.8006 234.316 76.5261 234.081 77.4383L234.078 77.4413Z" fill="#24388E"/>
<path d="M262.46 82.4738L266.085 84.3258C265.258 85.6665 264.211 86.7012 262.947 87.4267C261.502 88.2838 259.675 88.7154 257.464 88.7154C254.872 88.7154 252.778 87.9899 251.186 86.542C249.359 84.8768 248.443 82.7187 248.443 80.0616C248.443 77.2699 249.429 74.9496 251.406 73.0976C253.087 71.567 255.166 70.8018 257.639 70.8018C260.112 70.8018 262.044 71.5395 263.608 73.0149C265.347 74.6526 266.216 77.0403 266.216 80.181V80.6646H252.867C252.983 82.0881 253.516 83.2268 254.458 84.087C255.254 84.8125 256.359 85.1737 257.774 85.1737C258.925 85.1737 259.91 84.8921 260.737 84.3288C261.413 83.8452 261.989 83.2299 262.46 82.4768V82.4738ZM253.176 77.4413H261.796C261.618 76.5016 261.178 75.7363 260.47 75.1455C259.702 74.5027 258.732 74.1782 257.553 74.1782C256.317 74.1782 255.297 74.5394 254.504 75.2649C253.855 75.8006 253.415 76.5261 253.179 77.4383L253.176 77.4413Z" fill="#24388E"/>
<path d="M282.131 73.2139V58.842H286.463V88.1889H282.131V86.4165C280.686 87.9471 278.828 88.7123 276.56 88.7123C273.82 88.7123 271.632 87.8277 269.994 86.0553C268.359 84.2829 267.542 82.1646 267.542 79.6943C267.542 77.0097 268.417 74.8578 270.171 73.2323C271.925 71.6099 274.068 70.7957 276.603 70.7957C278.929 70.7957 280.772 71.6007 282.128 73.2109L282.131 73.2139ZM277.136 74.3435C275.602 74.3435 274.356 74.867 273.401 75.9139C272.443 76.9608 271.965 78.2495 271.965 79.777C271.965 81.3045 272.443 82.5534 273.401 83.6003C274.359 84.6472 275.605 85.1707 277.136 85.1707C278.666 85.1707 279.854 84.7023 280.87 83.7626C281.886 82.8228 282.394 81.5096 282.394 79.8168C282.394 78.124 281.886 76.725 280.87 75.77C279.854 74.818 278.608 74.3404 277.136 74.3404V74.3435Z" fill="#24388E"/>
<path d="M294.07 58.8451V73.217C295.426 71.6069 297.268 70.8018 299.595 70.8018C302.129 70.8018 304.272 71.613 306.026 73.2385C307.78 74.8639 308.656 77.0159 308.656 79.7005C308.656 82.1708 307.838 84.289 306.201 86.0614C304.566 87.8338 302.377 88.7185 299.635 88.7185C297.363 88.7185 295.508 87.9532 294.063 86.4227V88.195H289.732V58.8482H294.063L294.07 58.8451ZM299.065 74.3435C297.59 74.3435 296.347 74.821 295.331 75.773C294.314 76.725 293.806 78.075 293.806 79.8199C293.806 81.5647 294.314 82.8258 295.331 83.7656C296.347 84.7054 297.593 85.1737 299.065 85.1737C300.538 85.1737 301.842 84.6503 302.8 83.6034C303.758 82.5565 304.235 81.2831 304.235 79.7801C304.235 78.2771 303.755 76.9608 302.8 75.9169C301.842 74.87 300.596 74.3466 299.065 74.3466V74.3435Z" fill="#24388E"/>
<path d="M324.573 73.2139V71.2426H328.905V88.1889H324.573V86.4165C323.128 87.9471 321.273 88.7123 319.002 88.7123C316.262 88.7123 314.074 87.8277 312.436 86.0553C310.801 84.2829 309.984 82.1646 309.984 79.6943C309.984 77.0097 310.859 74.8578 312.613 73.2323C314.367 71.6099 316.51 70.7957 319.045 70.7957C321.374 70.7957 323.214 71.6007 324.57 73.2109L324.573 73.2139ZM319.577 74.3435C318.044 74.3435 316.798 74.867 315.843 75.9139C314.885 76.9608 314.407 78.2495 314.407 79.777C314.407 81.3045 314.885 82.5534 315.843 83.6003C316.801 84.6472 318.047 85.1707 319.577 85.1707C321.108 85.1707 322.296 84.7023 323.312 83.7626C324.328 82.8228 324.836 81.5096 324.836 79.8168C324.836 78.124 324.328 76.725 323.312 75.77C322.296 74.818 321.05 74.3404 319.577 74.3404V74.3435Z" fill="#24388E"/>
<path d="M346.589 72.0079V76.4373C345.028 75.0414 343.274 74.3435 341.327 74.3435C339.677 74.3435 338.306 74.8394 337.216 75.8342C336.154 76.8016 335.624 78.1025 335.624 79.7402C335.624 81.3779 336.184 82.786 337.305 83.8054C338.367 84.7176 339.677 85.1737 341.238 85.1737C343.39 85.1737 345.172 84.4482 346.589 83.0003V87.3869C345.028 88.2715 343.142 88.7154 340.929 88.7154C337.95 88.7154 335.593 87.8828 333.855 86.2206C332.085 84.5553 331.201 82.4371 331.201 79.8596C331.201 77.2822 332.144 75.0169 334.029 73.2966C335.857 71.6313 338.345 70.8018 341.501 70.8018C343.298 70.8018 344.994 71.2028 346.586 72.0079H346.589Z" fill="#24388E"/>
<path d="M348.533 58.8451H352.864V76.9209L358.922 71.2457H364.671L356.669 78.2893L365.246 88.192H359.764L353.663 80.9463L352.867 81.6718V88.192H348.536V58.8451H348.533Z" fill="#24388E"/>
</g>
<defs>
<clipPath id="clip0_2191_1948">
<rect width="364.884" height="126.73" fill="white" transform="translate(0.557617 0.63501)"/>
</clipPath>
</defs>
</svg>
