<svg width="132" height="108" viewBox="0 0 132 108" fill="none" xmlns="http://www.w3.org/2000/svg">
<path d="M0.490234 20.694V86.7618C0.490234 98.0045 9.62971 107.105 20.8723 107.105H84.4813C90.122 107.105 95.2098 104.84 98.9019 101.144C102.598 97.4903 104.86 92.4025 104.86 86.7618C104.86 85.4126 106.05 84.3765 107.442 84.5775L129.375 87.9951C131.52 88.3508 132.792 85.8108 131.281 84.2991L105.497 57.9594C105.099 57.5225 104.863 57.0044 104.863 56.4091V20.694C104.863 9.45136 95.7665 0.31189 84.4813 0.31189H20.8723C9.62971 0.31189 0.490234 9.45136 0.490234 20.694Z" fill="#17253F"/>
</svg>
