<svg width="285" height="128" viewBox="0 0 285 128" fill="none" xmlns="http://www.w3.org/2000/svg">
<path d="M16.7171 20.227V54.8091H12.2064V20.227H1.06881V15.8277H27.8546V20.227H16.7171ZM36.5728 33.3136V54.8091H32.0621V33.3136C32.0621 27.0766 37.074 22.009 43.4224 21.9533H46.4852V26.4083H43.4224C39.747 26.464 36.5728 29.4712 36.5728 33.3136ZM64.8017 55.366C57.1725 55.366 50.8798 49.1846 50.7684 41.6111V21.9533H55.112L55.1677 41.6111C55.3348 46.7344 59.5114 50.9666 64.8017 50.9666C70.0363 50.9666 74.2129 46.7344 74.38 41.6111L74.4357 21.9533H78.7793V41.6111C78.6679 49.1846 72.3752 55.366 64.8017 55.366ZM111.036 51.6349V54.8091H106.581V51.6349C106.525 47.4026 104.075 44.841 99.6753 44.7853H95.2203C88.8718 44.7296 83.86 39.662 83.86 33.3693C83.86 27.0766 88.8718 22.009 95.2203 21.9533H106.97V26.4083H95.2203C91.5449 26.464 88.3707 29.4712 88.3707 33.3693C88.3707 37.2118 91.5449 40.2189 95.2203 40.2746H99.6753C107.36 40.3303 111.036 44.2841 111.036 51.6349ZM130.282 50.8553V55.366H127.721C121.372 55.3103 116.416 50.2427 116.416 44.0057V26.3526H115.024V21.9533H116.416V15.8277H120.815V21.9533H127.386V26.3526H120.815V44.0057C120.815 47.8481 124.045 50.7996 127.721 50.8553H130.282ZM160.99 21.9533V63.1622H156.591V51.5792C154.085 53.9181 150.688 55.366 147.012 55.366C139.383 55.366 133.146 49.1846 133.035 41.6111V21.9533H137.378L137.434 41.6111C137.546 46.7344 141.778 50.9666 147.012 50.9666C152.247 50.9666 156.591 46.7344 156.591 41.6111V21.9533H160.99Z" fill="#17253F"/>
<path d="M16.7171 20.227V19.8218H16.3119V20.227H16.7171ZM16.7171 54.8091V55.2142H17.1222V54.8091H16.7171ZM12.2064 54.8091H11.8012V55.2142H12.2064V54.8091ZM12.2064 20.227H12.6115V19.8218H12.2064V20.227ZM1.06881 20.227H0.663661V20.6321H1.06881V20.227ZM1.06881 15.8277V15.4225H0.663661V15.8277H1.06881ZM27.8546 15.8277H28.2598V15.4225H27.8546V15.8277ZM27.8546 20.227V20.6321H28.2598V20.227H27.8546ZM16.3119 20.227V54.8091H17.1222V20.227H16.3119ZM16.7171 54.4039H12.2064V55.2142H16.7171V54.4039ZM12.6115 54.8091V20.227H11.8012V54.8091H12.6115ZM12.2064 19.8218H1.06881V20.6321H12.2064V19.8218ZM1.47396 20.227V15.8277H0.663661V20.227H1.47396ZM1.06881 16.2328H27.8546V15.4225H1.06881V16.2328ZM27.4495 15.8277V20.227H28.2598V15.8277H27.4495ZM27.8546 19.8218H16.7171V20.6321H27.8546V19.8218ZM36.5728 54.8091V55.2142H36.9779V54.8091H36.5728ZM32.0621 54.8091H31.6569V55.2142H32.0621V54.8091ZM43.4224 21.9533V21.5481L43.4188 21.5482L43.4224 21.9533ZM46.4852 21.9533H46.8904V21.5482H46.4852V21.9533ZM46.4852 26.4083V26.8135H46.8904V26.4083H46.4852ZM43.4224 26.4083V26.0031L43.4162 26.0032L43.4224 26.4083ZM36.1676 33.3136V54.8091H36.9779V33.3136H36.1676ZM36.5728 54.4039H32.0621V55.2142H36.5728V54.4039ZM32.4672 54.8091V33.3136H31.6569V54.8091H32.4672ZM32.4672 33.3136C32.4672 27.301 37.2978 22.4122 43.4259 22.3584L43.4188 21.5482C36.8501 21.6058 31.6569 26.8522 31.6569 33.3136H32.4672ZM43.4224 22.3585H46.4852V21.5482H43.4224V22.3585ZM46.0801 21.9533V26.4083H46.8904V21.9533H46.0801ZM46.4852 26.0032H43.4224V26.8135H46.4852V26.0032ZM43.4162 26.0032C39.5296 26.0621 36.1676 29.2399 36.1676 33.3136H36.9779C36.9779 29.7024 39.9644 26.8659 43.4285 26.8134L43.4162 26.0032ZM50.7684 41.6111H50.3632L50.3633 41.617L50.7684 41.6111ZM50.7684 21.9533V21.5482H50.3632V21.9533H50.7684ZM55.112 21.9533L55.5172 21.9522L55.516 21.5482H55.112V21.9533ZM55.1677 41.6111L54.7624 41.6122L54.7628 41.6243L55.1677 41.6111ZM74.38 41.6111L74.7851 41.6243L74.7851 41.6122L74.38 41.6111ZM74.4357 21.9533V21.5482H74.0317L74.0305 21.9522L74.4357 21.9533ZM78.7793 21.9533H79.1845V21.5482H78.7793V21.9533ZM78.7793 41.6111L79.1845 41.617V41.6111H78.7793ZM64.8017 54.9608C57.3921 54.9608 51.2816 48.9555 51.1735 41.6051L50.3633 41.617C50.4779 49.4138 56.9528 55.7711 64.8017 55.7711V54.9608ZM51.1735 41.6111V21.9533H50.3632V41.6111H51.1735ZM50.7684 22.3585H55.112V21.5482H50.7684V22.3585ZM54.7069 21.9545L54.7626 41.6122L55.5729 41.6099L55.5172 21.9522L54.7069 21.9545ZM54.7628 41.6243C54.9368 46.9599 59.2866 51.3718 64.8017 51.3718V50.5615C59.7361 50.5615 55.7328 46.5088 55.5726 41.5979L54.7628 41.6243ZM64.8017 51.3718C70.2626 51.3718 74.611 46.9584 74.7849 41.6243L73.9751 41.5979C73.8149 46.5103 69.8101 50.5615 64.8017 50.5615V51.3718ZM74.7851 41.6122L74.8408 21.9545L74.0305 21.9522L73.9748 41.6099L74.7851 41.6122ZM74.4357 22.3585H78.7793V21.5482H74.4357V22.3585ZM78.3742 21.9533V41.6111H79.1845V21.9533H78.3742ZM78.3742 41.6051C78.2661 48.9565 72.1545 54.9608 64.8017 54.9608V55.7711C72.5959 55.7711 79.0698 49.4127 79.1844 41.617L78.3742 41.6051ZM111.036 54.8091V55.2142H111.441V54.8091H111.036ZM106.581 54.8091H106.175V55.2142H106.581V54.8091ZM106.581 51.6349H106.986L106.986 51.6296L106.581 51.6349ZM99.6753 44.7853L99.6804 44.3801H99.6753V44.7853ZM95.2203 44.7853L95.2167 45.1904H95.2203V44.7853ZM95.2203 21.9533V21.5481L95.2167 21.5482L95.2203 21.9533ZM106.97 21.9533H107.376V21.5482H106.97V21.9533ZM106.97 26.4083V26.8135H107.376V26.4083H106.97ZM95.2203 26.4083V26.0031L95.2141 26.0032L95.2203 26.4083ZM95.2203 40.2746L95.2141 40.6797H95.2203V40.2746ZM99.6753 40.2746L99.6782 39.8694H99.6753V40.2746ZM110.63 51.6349V54.8091H111.441V51.6349H110.63ZM111.036 54.4039H106.581V55.2142H111.036V54.4039ZM106.986 54.8091V51.6349H106.175V54.8091H106.986ZM106.986 51.6296C106.957 49.437 106.306 47.6274 105.044 46.3582C103.782 45.0885 101.958 44.409 99.6804 44.3802L99.6701 45.1904C101.792 45.2173 103.393 45.8464 104.469 46.9295C105.547 48.0131 106.149 49.6005 106.175 51.6402L106.986 51.6296ZM99.6753 44.3801H95.2203V45.1904H99.6753V44.3801ZM95.2238 44.3802C89.097 44.3264 84.2651 39.4389 84.2651 33.3693H83.4548C83.4548 39.8851 88.6467 45.1328 95.2167 45.1904L95.2238 44.3802ZM84.2651 33.3693C84.2651 27.2997 89.097 22.4122 95.2238 22.3584L95.2167 21.5482C88.6467 21.6058 83.4548 26.8535 83.4548 33.3693H84.2651ZM95.2203 22.3585H106.97V21.5482H95.2203V22.3585ZM106.565 21.9533V26.4083H107.376V21.9533H106.565ZM106.97 26.0032H95.2203V26.8135H106.97V26.0032ZM95.2141 26.0032C91.3253 26.0622 87.9655 29.242 87.9655 33.3693H88.7758C88.7758 29.7003 91.7644 26.8659 95.2264 26.8134L95.2141 26.0032ZM87.9655 33.3693C87.9655 37.443 91.3274 40.6208 95.2141 40.6797L95.2264 39.8695C91.7623 39.817 88.7758 36.9805 88.7758 33.3693H87.9655ZM95.2203 40.6797H99.6753V39.8694H95.2203V40.6797ZM99.6723 40.6797C103.45 40.7071 106.17 41.6914 107.948 43.5029C109.728 45.3152 110.63 48.0222 110.63 51.6349H111.441C111.441 47.8968 110.506 44.9515 108.526 42.9352C106.546 40.9182 103.586 39.8978 99.6782 39.8694L99.6723 40.6797ZM130.282 50.8553H130.687V50.4501H130.282V50.8553ZM130.282 55.366V55.7711H130.687V55.366H130.282ZM127.721 55.366L127.717 55.7711H127.721V55.366ZM116.416 26.3526H116.821V25.9475H116.416V26.3526ZM115.024 26.3526H114.619V26.7578H115.024V26.3526ZM115.024 21.9533V21.5482H114.619V21.9533H115.024ZM116.416 21.9533V22.3585H116.821V21.9533H116.416ZM116.416 15.8277V15.4225H116.011V15.8277H116.416ZM120.815 15.8277H121.22V15.4225H120.815V15.8277ZM120.815 21.9533H120.41V22.3585H120.815V21.9533ZM127.386 21.9533H127.792V21.5482H127.386V21.9533ZM127.386 26.3526V26.7578H127.792V26.3526H127.386ZM120.815 26.3526V25.9475H120.41V26.3526H120.815ZM127.721 50.8553L127.714 51.2604H127.721V50.8553ZM129.877 50.8553V55.366H130.687V50.8553H129.877ZM130.282 54.9608H127.721V55.7711H130.282V54.9608ZM127.724 54.9608C121.599 54.9071 116.821 50.0209 116.821 44.0057H116.011C116.011 50.4645 121.146 55.7134 127.717 55.7711L127.724 54.9608ZM116.821 44.0057V26.3526H116.011V44.0057H116.821ZM116.416 25.9475H115.024V26.7578H116.416V25.9475ZM115.429 26.3526V21.9533H114.619V26.3526H115.429ZM115.024 22.3585H116.416V21.5482H115.024V22.3585ZM116.821 21.9533V15.8277H116.011V21.9533H116.821ZM116.416 16.2328H120.815V15.4225H116.416V16.2328ZM120.41 15.8277V21.9533H121.22V15.8277H120.41ZM120.815 22.3585H127.386V21.5482H120.815V22.3585ZM126.981 21.9533V26.3526H127.792V21.9533H126.981ZM127.386 25.9475H120.815V26.7578H127.386V25.9475ZM120.41 26.3526V44.0057H121.22V26.3526H120.41ZM120.41 44.0057C120.41 48.0877 123.836 51.2016 127.714 51.2604L127.727 50.4501C124.254 50.3975 121.22 47.6085 121.22 44.0057H120.41ZM127.721 51.2604H130.282V50.4501H127.721V51.2604ZM160.99 21.9533H161.395V21.5482H160.99V21.9533ZM160.99 63.1622V63.5674H161.395V63.1622H160.99ZM156.591 63.1622H156.186V63.5674H156.591V63.1622ZM156.591 51.5792H156.996V50.6469L156.314 51.283L156.591 51.5792ZM133.035 41.6111H132.63L132.63 41.617L133.035 41.6111ZM133.035 21.9533V21.5482H132.63V21.9533H133.035ZM137.378 21.9533L137.784 21.9522L137.782 21.5482H137.378V21.9533ZM137.434 41.6111L137.029 41.6122L137.029 41.6199L137.434 41.6111ZM156.591 21.9533V21.5482H156.186V21.9533H156.591ZM160.585 21.9533V63.1622H161.395V21.9533H160.585ZM160.99 62.7571H156.591V63.5674H160.99V62.7571ZM156.996 63.1622V51.5792H156.186V63.1622H156.996ZM156.314 51.283C153.88 53.5551 150.581 54.9608 147.012 54.9608V55.7711C150.795 55.7711 154.29 54.2811 156.867 51.8754L156.314 51.283ZM147.012 54.9608C139.605 54.9608 133.548 48.9576 133.44 41.6051L132.63 41.617C132.744 49.4117 139.161 55.7711 147.012 55.7711V54.9608ZM133.44 41.6111V21.9533H132.63V41.6111H133.44ZM133.035 22.3585H137.378V21.5482H133.035V22.3585ZM136.973 21.9545L137.029 41.6122L137.839 41.6099L137.784 21.9522L136.973 21.9545ZM137.029 41.6199C137.145 46.9614 141.555 51.3718 147.012 51.3718V50.5615C142 50.5615 137.946 46.5074 137.839 41.6023L137.029 41.6199ZM147.012 51.3718C152.462 51.3718 156.996 46.9673 156.996 41.6111H156.186C156.186 46.5014 152.033 50.5615 147.012 50.5615V51.3718ZM156.996 41.6111V21.9533H156.186V41.6111H156.996ZM156.591 22.3585H160.99V21.5482H156.591V22.3585Z" fill="#17253F"/>
<path d="M8.69754 94.3377V110.543H4.13115V71.5614H30.6385V75.7937H8.69754V90.1054L25.9051 85.539L26.9631 89.4929L8.69754 94.3377ZM51.4157 111.1C42.0602 111.1 34.4866 103.526 34.4866 94.0593C34.4866 84.7037 42.0602 77.1302 51.4157 77.1302C59.4904 77.1302 64.7808 83.0331 66.2843 88.4905L42.1158 102.468C44.4547 105.03 47.7403 106.645 51.4157 106.7C55.0911 106.812 58.4324 105.308 60.8826 102.747L64.1125 105.642C60.7156 109.652 55.3695 111.1 51.4157 111.1ZM39.8326 98.8484L61.1054 86.7642C59.1006 83.757 55.8707 81.5295 51.4157 81.5295C44.5104 81.5295 38.886 87.154 38.886 94.0593C38.886 95.7299 39.2201 97.3449 39.8326 98.8484ZM87.6345 111.1C78.2789 111.1 70.7054 103.526 70.7054 94.0593C70.7054 84.7037 78.2789 77.1302 87.6345 77.1302C95.7092 77.1302 101 83.0331 102.503 88.4905L78.3346 102.468C80.6735 105.03 83.9591 106.645 87.6345 106.7C91.3099 106.812 94.6511 105.308 97.1014 102.747L100.331 105.642C96.9343 109.652 91.5883 111.1 87.6345 111.1ZM76.0514 98.8484L97.3242 86.7642C95.3194 83.757 92.0895 81.5295 87.6345 81.5295C80.7292 81.5295 75.1047 87.154 75.1047 94.0593C75.1047 95.7299 75.4389 97.3449 76.0514 98.8484ZM123.965 111.1C114.442 111.1 106.924 103.582 106.924 94.0036C106.924 84.648 114.442 77.1302 123.965 77.1302C128.921 77.1302 133.376 79.2463 136.439 82.5876V71.5614H140.838V105.976H136.439V105.587C133.376 108.984 128.921 111.1 123.965 111.1ZM123.965 106.645C130.87 106.645 136.439 101.076 136.439 94.0036C136.439 87.154 130.814 81.5295 123.965 81.5295C117.004 81.5295 111.379 87.154 111.379 94.0036C111.379 101.02 117.004 106.645 123.965 106.645ZM164.784 111.1C159.828 111.1 155.373 108.984 152.31 105.587V105.976H147.911V71.5614H152.31V82.5876C155.373 79.2463 159.828 77.1302 164.784 77.1302C174.307 77.1302 181.825 84.648 181.825 94.0036C181.825 103.582 174.307 111.1 164.784 111.1ZM164.784 106.645C171.745 106.645 177.37 101.02 177.37 94.0036C177.37 87.154 171.745 81.5295 164.784 81.5295C157.935 81.5295 152.31 87.154 152.31 94.0036C152.31 101.076 157.879 106.645 164.784 106.645ZM203.309 111.1C193.786 111.1 186.268 103.582 186.268 94.0036C186.268 84.648 193.786 77.1302 203.309 77.1302C212.664 77.1302 220.182 84.648 220.182 94.0036V105.976H215.783V105.587C212.72 108.984 208.265 111.1 203.309 111.1ZM203.309 106.645C210.214 106.645 215.783 101.076 215.783 94.0036C215.783 87.154 210.158 81.5295 203.309 81.5295C196.348 81.5295 190.723 87.154 190.723 94.0036C190.723 101.02 196.348 106.645 203.309 106.645ZM241.646 111.1C232.235 111.1 224.605 103.526 224.605 94.0593C224.605 84.7037 232.235 77.1302 241.646 77.1302C246.713 77.1302 251.336 79.4691 254.398 83.0331L251.948 86.9312C249.665 83.6457 245.934 81.5295 241.646 81.5295C234.741 81.5295 229.005 87.154 229.005 94.0593C229.005 100.965 234.741 106.7 241.646 106.7C245.6 106.7 249.219 104.751 251.447 101.8L254.621 104.974C251.503 108.761 246.825 111.1 241.646 111.1ZM265.649 92.2773V110.543H261.305V69.8908H265.649V85.9846L273.389 77.6871H279.014L268.879 88.7132L283.747 110.543H278.791L265.816 92.0545L265.649 92.2773Z" fill="#17253F"/>
<path d="M8.69754 94.3377L8.59367 93.9461L8.29239 94.026V94.3377H8.69754ZM8.69754 110.543V110.948H9.10269V110.543H8.69754ZM4.13115 110.543H3.726V110.948H4.13115V110.543ZM4.13115 71.5614V71.1563H3.726V71.5614H4.13115ZM30.6385 71.5614H31.0437V71.1563H30.6385V71.5614ZM30.6385 75.7937V76.1988H31.0437V75.7937H30.6385ZM8.69754 75.7937V75.3885H8.29239V75.7937H8.69754ZM8.69754 90.1054H8.29239V90.6321L8.80146 90.497L8.69754 90.1054ZM25.9051 85.539L26.2964 85.4343L26.1919 85.0438L25.8011 85.1475L25.9051 85.539ZM26.9631 89.4929L27.067 89.8845L27.4595 89.7804L27.3545 89.3881L26.9631 89.4929ZM8.29239 94.3377V110.543H9.10269V94.3377H8.29239ZM8.69754 110.138H4.13115V110.948H8.69754V110.138ZM4.5363 110.543V71.5614H3.726V110.543H4.5363ZM4.13115 71.9666H30.6385V71.1563H4.13115V71.9666ZM30.2334 71.5614V75.7937H31.0437V71.5614H30.2334ZM30.6385 75.3885H8.69754V76.1988H30.6385V75.3885ZM8.29239 75.7937V90.1054H9.10269V75.7937H8.29239ZM8.80146 90.497L26.009 85.9306L25.8011 85.1475L8.59362 89.7138L8.80146 90.497ZM25.5137 85.6438L26.5717 89.5976L27.3545 89.3881L26.2964 85.4343L25.5137 85.6438ZM26.8593 89.1013L8.59367 93.9461L8.80141 94.7293L27.067 89.8845L26.8593 89.1013ZM66.2843 88.4905L66.4872 88.8412L66.758 88.6846L66.6749 88.3829L66.2843 88.4905ZM42.1158 102.468L41.913 102.117L41.4772 102.369L41.8166 102.741L42.1158 102.468ZM51.4157 106.7L51.428 106.295L51.4218 106.295L51.4157 106.7ZM60.8826 102.747L61.1531 102.445L60.861 102.183L60.5898 102.467L60.8826 102.747ZM64.1125 105.642L64.4216 105.904L64.6763 105.604L64.383 105.341L64.1125 105.642ZM39.8326 98.8484L39.4574 99.0013L39.6315 99.4286L40.0328 99.2007L39.8326 98.8484ZM61.1054 86.7642L61.3055 87.1165L61.6839 86.9015L61.4425 86.5394L61.1054 86.7642ZM51.4157 110.695C42.2856 110.695 34.8918 103.304 34.8918 94.0593H34.0815C34.0815 103.748 41.8347 111.505 51.4157 111.505V110.695ZM34.8918 94.0593C34.8918 84.9275 42.2839 77.5353 51.4157 77.5353V76.725C41.8364 76.725 34.0815 84.48 34.0815 94.0593H34.8918ZM51.4157 77.5353C59.2707 77.5353 64.4279 83.2776 65.8937 88.5981L66.6749 88.3829C65.1336 82.7886 59.7101 76.725 51.4157 76.725V77.5353ZM66.0815 88.1398L41.913 102.117L42.3187 102.819L66.4872 88.8412L66.0815 88.1398ZM41.8166 102.741C44.2261 105.38 47.6155 107.048 51.4096 107.105L51.4218 106.295C47.8651 106.241 44.6834 104.679 42.415 102.195L41.8166 102.741ZM51.4034 107.105C55.2018 107.22 58.6516 105.665 61.1754 103.027L60.5898 102.467C58.2131 104.951 54.9804 106.403 51.428 106.295L51.4034 107.105ZM60.6122 103.048L63.842 105.944L64.383 105.341L61.1531 102.445L60.6122 103.048ZM63.8034 105.38C60.5078 109.27 55.2942 110.695 51.4157 110.695V111.505C55.4449 111.505 60.9233 110.033 64.4216 105.904L63.8034 105.38ZM40.0328 99.2007L61.3055 87.1165L60.9053 86.4119L39.6325 98.4961L40.0328 99.2007ZM61.4425 86.5394C59.3739 83.4366 56.0254 81.1244 51.4157 81.1244V81.9347C55.716 81.9347 58.8273 84.0775 60.7683 86.9889L61.4425 86.5394ZM51.4157 81.1244C44.2867 81.1244 38.4808 86.9302 38.4808 94.0593H39.2911C39.2911 87.3778 44.7342 81.9347 51.4157 81.9347V81.1244ZM38.4808 94.0593C38.4808 95.7845 38.8259 97.4512 39.4574 99.0013L40.2079 98.6956C39.6142 97.2385 39.2911 95.6753 39.2911 94.0593H38.4808ZM102.503 88.4905L102.706 88.8412L102.977 88.6846L102.894 88.3829L102.503 88.4905ZM78.3346 102.468L78.1318 102.117L77.6959 102.369L78.0354 102.741L78.3346 102.468ZM87.6345 106.7L87.6468 106.295L87.6406 106.295L87.6345 106.7ZM97.1014 102.747L97.3719 102.445L97.0798 102.183L96.8086 102.467L97.1014 102.747ZM100.331 105.642L100.64 105.904L100.895 105.604L100.602 105.341L100.331 105.642ZM76.0514 98.8484L75.6762 99.0013L75.8503 99.4286L76.2516 99.2007L76.0514 98.8484ZM97.3242 86.7642L97.5243 87.1165L97.9026 86.9015L97.6613 86.5394L97.3242 86.7642ZM87.6345 110.695C78.5044 110.695 71.1106 103.304 71.1106 94.0593H70.3003C70.3003 103.748 78.0535 111.505 87.6345 111.505V110.695ZM71.1106 94.0593C71.1106 84.9275 78.5027 77.5353 87.6345 77.5353V76.725C78.0552 76.725 70.3003 84.48 70.3003 94.0593H71.1106ZM87.6345 77.5353C95.4895 77.5353 100.647 83.2776 102.113 88.5981L102.894 88.3829C101.352 82.7886 95.9289 76.725 87.6345 76.725V77.5353ZM102.3 88.1398L78.1318 102.117L78.5375 102.819L102.706 88.8412L102.3 88.1398ZM78.0354 102.741C80.4448 105.38 83.8343 107.048 87.6283 107.105L87.6406 106.295C84.0839 106.241 80.9022 104.679 78.6338 102.195L78.0354 102.741ZM87.6222 107.105C91.4206 107.22 94.8704 105.665 97.3942 103.027L96.8086 102.467C94.4319 104.951 91.1991 106.403 87.6468 106.295L87.6222 107.105ZM96.8309 103.048L100.061 105.944L100.602 105.341L97.3719 102.445L96.8309 103.048ZM100.022 105.38C96.7266 109.27 91.513 110.695 87.6345 110.695V111.505C91.6637 111.505 97.1421 110.033 100.64 105.904L100.022 105.38ZM76.2516 99.2007L97.5243 87.1165L97.124 86.4119L75.8513 98.4961L76.2516 99.2007ZM97.6613 86.5394C95.5927 83.4366 92.2442 81.1244 87.6345 81.1244V81.9347C91.9348 81.9347 95.0461 84.0775 96.9871 86.9889L97.6613 86.5394ZM87.6345 81.1244C80.5055 81.1244 74.6996 86.9302 74.6996 94.0593H75.5099C75.5099 87.3778 80.953 81.9347 87.6345 81.9347V81.1244ZM74.6996 94.0593C74.6996 95.7845 75.0447 97.4512 75.6762 99.0013L76.4266 98.6956C75.833 97.2385 75.5099 95.6753 75.5099 94.0593H74.6996ZM136.439 82.5876L136.14 82.8614L136.844 83.6292V82.5876H136.439ZM136.439 71.5614V71.1563H136.034V71.5614H136.439ZM140.838 71.5614H141.243V71.1563H140.838V71.5614ZM140.838 105.976V106.382H141.243V105.976H140.838ZM136.439 105.976H136.034V106.382H136.439V105.976ZM136.439 105.587H136.844V104.532L136.138 105.315L136.439 105.587ZM123.965 110.695C114.667 110.695 107.329 103.359 107.329 94.0036H106.519C106.519 103.805 114.217 111.505 123.965 111.505V110.695ZM107.329 94.0036C107.329 84.8744 114.663 77.5353 123.965 77.5353V76.725C114.221 76.725 106.519 84.4217 106.519 94.0036H107.329ZM123.965 77.5353C128.804 77.5353 133.151 79.6011 136.14 82.8614L136.737 82.3138C133.6 78.8916 129.038 76.725 123.965 76.725V77.5353ZM136.844 82.5876V71.5614H136.034V82.5876H136.844ZM136.439 71.9666H140.838V71.1563H136.439V71.9666ZM140.433 71.5614V105.976H141.243V71.5614H140.433ZM140.838 105.571H136.439V106.382H140.838V105.571ZM136.844 105.976V105.587H136.034V105.976H136.844ZM136.138 105.315C133.15 108.629 128.803 110.695 123.965 110.695V111.505C129.038 111.505 133.602 109.338 136.74 105.858L136.138 105.315ZM123.965 107.05C131.097 107.05 136.844 101.296 136.844 94.0036H136.034C136.034 100.856 130.643 106.24 123.965 106.24V107.05ZM136.844 94.0036C136.844 86.9302 131.038 81.1244 123.965 81.1244V81.9347C130.59 81.9347 136.034 87.3778 136.034 94.0036H136.844ZM123.965 81.1244C116.782 81.1244 110.974 86.9279 110.974 94.0036H111.784C111.784 87.3801 117.225 81.9347 123.965 81.9347V81.1244ZM110.974 94.0036C110.974 101.243 116.779 107.05 123.965 107.05V106.24C117.229 106.24 111.784 100.798 111.784 94.0036H110.974ZM152.31 105.587L152.611 105.315L151.905 104.532V105.587H152.31ZM152.31 105.976V106.382H152.715V105.976H152.31ZM147.911 105.976H147.506V106.382H147.911V105.976ZM147.911 71.5614V71.1563H147.506V71.5614H147.911ZM152.31 71.5614H152.715V71.1563H152.31V71.5614ZM152.31 82.5876H151.905V83.6292L152.609 82.8614L152.31 82.5876ZM164.784 110.695C159.946 110.695 155.599 108.629 152.611 105.315L152.009 105.858C155.147 109.338 159.71 111.505 164.784 111.505V110.695ZM151.905 105.587V105.976H152.715V105.587H151.905ZM152.31 105.571H147.911V106.382H152.31V105.571ZM148.316 105.976V71.5614H147.506V105.976H148.316ZM147.911 71.9666H152.31V71.1563H147.911V71.9666ZM151.905 71.5614V82.5876H152.715V71.5614H151.905ZM152.609 82.8614C155.597 79.6011 159.945 77.5353 164.784 77.5353V76.725C159.711 76.725 155.149 78.8916 152.011 82.3138L152.609 82.8614ZM164.784 77.5353C174.086 77.5353 181.42 84.8744 181.42 94.0036H182.23C182.23 84.4217 174.528 76.725 164.784 76.725V77.5353ZM181.42 94.0036C181.42 103.359 174.082 110.695 164.784 110.695V111.505C174.531 111.505 182.23 103.805 182.23 94.0036H181.42ZM164.784 107.05C171.97 107.05 177.775 101.243 177.775 94.0036H176.964C176.964 100.798 171.52 106.24 164.784 106.24V107.05ZM177.775 94.0036C177.775 86.9279 171.967 81.1244 164.784 81.1244V81.9347C171.524 81.9347 176.964 87.3801 176.964 94.0036H177.775ZM164.784 81.1244C157.711 81.1244 151.905 86.9302 151.905 94.0036H152.715C152.715 87.3778 158.158 81.9347 164.784 81.9347V81.1244ZM151.905 94.0036C151.905 101.296 157.652 107.05 164.784 107.05V106.24C158.106 106.24 152.715 100.856 152.715 94.0036H151.905ZM220.182 105.976V106.382H220.587V105.976H220.182ZM215.783 105.976H215.378V106.382H215.783V105.976ZM215.783 105.587H216.188V104.532L215.482 105.315L215.783 105.587ZM203.309 110.695C194.011 110.695 186.674 103.359 186.674 94.0036H185.863C185.863 103.805 193.562 111.505 203.309 111.505V110.695ZM186.674 94.0036C186.674 84.8744 194.007 77.5353 203.309 77.5353V76.725C193.565 76.725 185.863 84.4217 185.863 94.0036H186.674ZM203.309 77.5353C212.441 77.5353 219.777 84.8718 219.777 94.0036H220.587C220.587 84.4243 212.888 76.725 203.309 76.725V77.5353ZM219.777 94.0036V105.976H220.587V94.0036H219.777ZM220.182 105.571H215.783V106.382H220.182V105.571ZM216.188 105.976V105.587H215.378V105.976H216.188ZM215.482 105.315C212.494 108.629 208.147 110.695 203.309 110.695V111.505C208.383 111.505 212.946 109.338 216.084 105.858L215.482 105.315ZM203.309 107.05C210.441 107.05 216.188 101.296 216.188 94.0036H215.378C215.378 100.856 209.987 106.24 203.309 106.24V107.05ZM216.188 94.0036C216.188 86.9302 210.382 81.1244 203.309 81.1244V81.9347C209.935 81.9347 215.378 87.3778 215.378 94.0036H216.188ZM203.309 81.1244C196.126 81.1244 190.318 86.9279 190.318 94.0036H191.129C191.129 87.3801 196.569 81.9347 203.309 81.9347V81.1244ZM190.318 94.0036C190.318 101.243 196.123 107.05 203.309 107.05V106.24C196.573 106.24 191.129 100.798 191.129 94.0036H190.318ZM254.398 83.0331L254.741 83.2487L254.9 82.9957L254.706 82.769L254.398 83.0331ZM251.948 86.9312L251.615 87.1624L251.965 87.6656L252.291 87.1469L251.948 86.9312ZM251.447 101.8L251.733 101.513L251.404 101.184L251.124 101.556L251.447 101.8ZM254.621 104.974L254.934 105.232L255.168 104.948L254.908 104.688L254.621 104.974ZM241.646 110.695C232.458 110.695 225.011 103.302 225.011 94.0593H224.2C224.2 103.751 232.012 111.505 241.646 111.505V110.695ZM225.011 94.0593C225.011 84.9301 232.456 77.5353 241.646 77.5353V76.725C232.014 76.725 224.2 84.4774 224.2 94.0593H225.011ZM241.646 77.5353C246.588 77.5353 251.1 79.817 254.091 83.2972L254.706 82.769C251.571 79.1212 246.839 76.725 241.646 76.725V77.5353ZM254.055 82.8175L251.605 86.7156L252.291 87.1469L254.741 83.2487L254.055 82.8175ZM252.281 86.7C249.925 83.3106 246.073 81.1244 241.646 81.1244V81.9347C245.795 81.9347 249.404 83.9807 251.615 87.1624L252.281 86.7ZM241.646 81.1244C234.522 81.1244 228.6 86.9256 228.6 94.0593H229.41C229.41 87.3824 234.96 81.9347 241.646 81.9347V81.1244ZM228.6 94.0593C228.6 101.188 234.517 107.106 241.646 107.106V106.295C234.964 106.295 229.41 100.741 229.41 94.0593H228.6ZM241.646 107.106C245.733 107.106 249.47 105.092 251.77 102.044L251.124 101.556C248.969 104.411 245.467 106.295 241.646 106.295V107.106ZM251.16 102.086L254.335 105.261L254.908 104.688L251.733 101.513L251.16 102.086ZM254.308 104.717C251.264 108.413 246.7 110.695 241.646 110.695V111.505C246.95 111.505 251.741 109.109 254.934 105.232L254.308 104.717ZM265.649 92.2773L265.324 92.0342L265.243 92.1422V92.2773H265.649ZM265.649 110.543V110.948H266.054V110.543H265.649ZM261.305 110.543H260.9V110.948H261.305V110.543ZM261.305 69.8908V69.4856H260.9V69.8908H261.305ZM265.649 69.8908H266.054V69.4856H265.649V69.8908ZM265.649 85.9846H265.243V87.0128L265.945 86.2609L265.649 85.9846ZM273.389 77.6871V77.2819H273.213L273.093 77.4107L273.389 77.6871ZM279.014 77.6871L279.312 77.9613L279.936 77.2819H279.014V77.6871ZM268.879 88.7132L268.58 88.4391L268.363 88.6757L268.544 88.9413L268.879 88.7132ZM283.747 110.543V110.948H284.513L284.082 110.315L283.747 110.543ZM278.791 110.543L278.459 110.776L278.58 110.948H278.791V110.543ZM265.816 92.0545L266.147 91.8218L265.827 91.3647L265.492 91.8114L265.816 92.0545ZM265.243 92.2773V110.543H266.054V92.2773H265.243ZM265.649 110.138H261.305V110.948H265.649V110.138ZM261.71 110.543V69.8908H260.9V110.543H261.71ZM261.305 70.2959H265.649V69.4856H261.305V70.2959ZM265.243 69.8908V85.9846H266.054V69.8908H265.243ZM265.945 86.2609L273.685 77.9634L273.093 77.4107L265.352 85.7082L265.945 86.2609ZM273.389 78.0922H279.014V77.2819H273.389V78.0922ZM278.715 77.4129L268.58 88.4391L269.177 88.9874L279.312 77.9613L278.715 77.4129ZM268.544 88.9413L283.412 110.771L284.082 110.315L269.213 88.4852L268.544 88.9413ZM283.747 110.138H278.791V110.948H283.747V110.138ZM279.123 110.31L266.147 91.8218L265.484 92.2873L278.459 110.776L279.123 110.31ZM265.492 91.8114L265.324 92.0342L265.973 92.5204L266.14 92.2976L265.492 91.8114Z" fill="#17253F"/>
</svg>
