<svg width="415" height="127" viewBox="0 0 415 127" fill="none" xmlns="http://www.w3.org/2000/svg">
<path d="M0.0693359 30.6184V96.6863C0.0693359 107.929 9.20881 117.03 20.4514 117.03H84.0604C89.7011 117.03 94.7889 114.764 98.481 111.068C102.177 107.415 104.439 102.327 104.439 96.6863C104.439 95.337 105.629 94.3009 107.021 94.5019L128.954 97.9196C131.099 98.2752 132.371 95.7352 130.86 94.2236L105.077 67.8838C104.678 67.4469 104.443 66.9289 104.443 66.3335V30.6184C104.443 19.3758 95.3456 10.2363 84.0604 10.2363H20.4514C9.20881 10.2363 0.0693359 19.3758 0.0693359 30.6184Z" fill="#17253F"/>
<path d="M45.6685 34.7959V50.2753H63.8811V34.7959H45.6685ZM48.8157 53.5912V99.3587C57.3719 97.8675 63.8773 90.4038 63.8773 81.4182V53.5912H48.8157ZM60.4234 34.7959V49.9111H64.989V34.7959H60.4234ZM68.3011 34.7959V49.9111H78.5402C86.8894 49.9111 93.6555 43.1451 93.6555 34.7959H68.3011ZM60.4234 61.4766V76.5919H92.2907V61.4766H60.4234Z" fill="white"/>
<path d="M23.3735 34.7959C14.8211 34.7959 7.89404 41.7268 7.89404 50.2753H64.9893V34.7959H23.3735ZM27.2912 34.7959V99.6309H45.5039V34.7959H27.2912Z" fill="#04DA8D"/>
<path d="M147.296 19.6845V54.2666H142.785V19.6845H131.648V15.2852H158.434V19.6845H147.296ZM167.152 32.7711V54.2666H162.641V32.7711C162.641 26.5341 167.653 21.4665 174.001 21.4108H177.064V25.8658H174.001C170.326 25.9215 167.152 28.9287 167.152 32.7711ZM195.381 54.8235C187.752 54.8235 181.459 48.6421 181.347 41.0686V21.4108H185.691L185.747 41.0686C185.914 46.1919 190.09 50.4241 195.381 50.4241C200.615 50.4241 204.792 46.1919 204.959 41.0686L205.015 21.4108H209.358V41.0686C209.247 48.6421 202.954 54.8235 195.381 54.8235ZM241.615 51.0924V54.2666H237.16V51.0924C237.104 46.8601 234.654 44.2985 230.254 44.2428H225.799C219.451 44.1871 214.439 39.1195 214.439 32.8268C214.439 26.5341 219.451 21.4665 225.799 21.4108H237.549V25.8658H225.799C222.124 25.9215 218.95 28.9287 218.95 32.8268C218.95 36.6693 222.124 39.6764 225.799 39.7321H230.254C237.939 39.7878 241.615 43.7416 241.615 51.0924ZM260.861 50.3128V54.8235H258.3C251.951 54.7678 246.995 49.7002 246.995 43.4632V25.8102H245.603V21.4108H246.995V15.2852H251.394V21.4108H257.966V25.8102H251.394V43.4632C251.394 47.3056 254.624 50.2571 258.3 50.3128H260.861ZM291.569 21.4108V62.6198H287.17V51.0367C284.664 53.3756 281.267 54.8235 277.592 54.8235C269.962 54.8235 263.725 48.6421 263.614 41.0686V21.4108H267.958L268.013 41.0686C268.125 46.1919 272.357 50.4241 277.592 50.4241C282.826 50.4241 287.17 46.1919 287.17 41.0686V21.4108H291.569Z" fill="#17253F"/>
<path d="M147.296 19.6845V19.2794H146.891V19.6845H147.296ZM147.296 54.2666V54.6717H147.701V54.2666H147.296ZM142.785 54.2666H142.38V54.6717H142.785V54.2666ZM142.785 19.6845H143.191V19.2794H142.785V19.6845ZM131.648 19.6845H131.243V20.0897H131.648V19.6845ZM131.648 15.2852V14.88H131.243V15.2852H131.648ZM158.434 15.2852H158.839V14.88H158.434V15.2852ZM158.434 19.6845V20.0897H158.839V19.6845H158.434ZM146.891 19.6845V54.2666H147.701V19.6845H146.891ZM147.296 53.8615H142.785V54.6717H147.296V53.8615ZM143.191 54.2666V19.6845H142.38V54.2666H143.191ZM142.785 19.2794H131.648V20.0897H142.785V19.2794ZM132.053 19.6845V15.2852H131.243V19.6845H132.053ZM131.648 15.6903H158.434V14.88H131.648V15.6903ZM158.029 15.2852V19.6845H158.839V15.2852H158.029ZM158.434 19.2794H147.296V20.0897H158.434V19.2794ZM167.152 54.2666V54.6717H167.557V54.2666H167.152ZM162.641 54.2666H162.236V54.6717H162.641V54.2666ZM174.001 21.4108V21.0057L173.998 21.0057L174.001 21.4108ZM177.064 21.4108H177.469V21.0057H177.064V21.4108ZM177.064 25.8658V26.271H177.469V25.8658H177.064ZM174.001 25.8658V25.4607L173.995 25.4607L174.001 25.8658ZM166.747 32.7711V54.2666H167.557V32.7711H166.747ZM167.152 53.8615H162.641V54.6717H167.152V53.8615ZM163.046 54.2666V32.7711H162.236V54.2666H163.046ZM163.046 32.7711C163.046 26.7585 167.877 21.8697 174.005 21.816L173.998 21.0057C167.429 21.0633 162.236 26.3097 162.236 32.7711H163.046ZM174.001 21.816H177.064V21.0057H174.001V21.816ZM176.659 21.4108V25.8658H177.469V21.4108H176.659ZM177.064 25.4607H174.001V26.271H177.064V25.4607ZM173.995 25.4607C170.109 25.5196 166.747 28.6974 166.747 32.7711H167.557C167.557 29.16 170.544 26.3234 174.008 26.271L173.995 25.4607ZM181.347 41.0686H180.942L180.942 41.0746L181.347 41.0686ZM181.347 21.4108V21.0057H180.942V21.4108H181.347ZM185.691 21.4108L186.096 21.4097L186.095 21.0057H185.691V21.4108ZM185.747 41.0686L185.341 41.0698L185.342 41.0818L185.747 41.0686ZM204.959 41.0686L205.364 41.0818L205.364 41.0698L204.959 41.0686ZM205.015 21.4108V21.0057H204.611L204.61 21.4097L205.015 21.4108ZM209.358 21.4108H209.764V21.0057H209.358V21.4108ZM209.358 41.0686L209.764 41.0746V41.0686H209.358ZM195.381 54.4183C187.971 54.4183 181.861 48.413 181.753 41.0626L180.942 41.0746C181.057 48.8713 187.532 55.2286 195.381 55.2286V54.4183ZM181.753 41.0686V21.4108H180.942V41.0686H181.753ZM181.347 21.816H185.691V21.0057H181.347V21.816ZM185.286 21.412L185.342 41.0698L186.152 41.0675L186.096 21.4097L185.286 21.412ZM185.342 41.0818C185.516 46.4174 189.866 50.8293 195.381 50.8293V50.019C190.315 50.019 186.312 45.9663 186.152 41.0554L185.342 41.0818ZM195.381 50.8293C200.842 50.8293 205.19 46.4159 205.364 41.0818L204.554 41.0554C204.394 45.9679 200.389 50.019 195.381 50.019V50.8293ZM205.364 41.0698L205.42 21.412L204.61 21.4097L204.554 41.0675L205.364 41.0698ZM205.015 21.816H209.358V21.0057H205.015V21.816ZM208.953 21.4108V41.0686H209.764V21.4108H208.953ZM208.953 41.0626C208.845 48.414 202.734 54.4183 195.381 54.4183V55.2286C203.175 55.2286 209.649 48.8702 209.764 41.0746L208.953 41.0626ZM241.615 54.2666V54.6717H242.02V54.2666H241.615ZM237.16 54.2666H236.755V54.6717H237.16V54.2666ZM237.16 51.0924H237.565L237.565 51.0871L237.16 51.0924ZM230.254 44.2428L230.259 43.8377H230.254V44.2428ZM225.799 44.2428L225.796 44.648H225.799V44.2428ZM225.799 21.4108V21.0057L225.796 21.0057L225.799 21.4108ZM237.549 21.4108H237.955V21.0057H237.549V21.4108ZM237.549 25.8658V26.271H237.955V25.8658H237.549ZM225.799 25.8658V25.4607L225.793 25.4607L225.799 25.8658ZM225.799 39.7321L225.793 40.1372H225.799V39.7321ZM230.254 39.7321L230.257 39.327H230.254V39.7321ZM241.21 51.0924V54.2666H242.02V51.0924H241.21ZM241.615 53.8615H237.16V54.6717H241.615V53.8615ZM237.565 54.2666V51.0924H236.755V54.2666H237.565ZM237.565 51.0871C237.536 48.8945 236.885 47.0849 235.623 45.8158C234.361 44.5461 232.537 43.8665 230.259 43.8377L230.249 44.6479C232.371 44.6748 233.972 45.3039 235.049 46.387C236.126 47.4706 236.728 49.058 236.755 51.0977L237.565 51.0871ZM230.254 43.8377H225.799V44.648H230.254V43.8377ZM225.803 43.8377C219.676 43.7839 214.844 38.8964 214.844 32.8268H214.034C214.034 39.3427 219.226 44.5903 225.796 44.6479L225.803 43.8377ZM214.844 32.8268C214.844 26.7572 219.676 21.8697 225.803 21.816L225.796 21.0057C219.226 21.0633 214.034 26.311 214.034 32.8268H214.844ZM225.799 21.816H237.549V21.0057H225.799V21.816ZM237.144 21.4108V25.8658H237.955V21.4108H237.144ZM237.549 25.4607H225.799V26.271H237.549V25.4607ZM225.793 25.4607C221.904 25.5197 218.545 28.6995 218.545 32.8268H219.355C219.355 29.1579 222.344 26.3234 225.805 26.271L225.793 25.4607ZM218.545 32.8268C218.545 36.9006 221.907 40.0783 225.793 40.1372L225.805 39.327C222.341 39.2745 219.355 36.438 219.355 32.8268H218.545ZM225.799 40.1372H230.254V39.327H225.799V40.1372ZM230.251 40.1372C234.029 40.1646 236.749 41.149 238.527 42.9604C240.307 44.7727 241.21 47.4797 241.21 51.0924H242.02C242.02 47.3543 241.085 44.409 239.105 42.3927C237.125 40.3757 234.165 39.3553 230.257 39.327L230.251 40.1372ZM260.861 50.3128H261.266V49.9076H260.861V50.3128ZM260.861 54.8235V55.2286H261.266V54.8235H260.861ZM258.3 54.8235L258.296 55.2286H258.3V54.8235ZM246.995 25.8102H247.4V25.405H246.995V25.8102ZM245.603 25.8102H245.198V26.2153H245.603V25.8102ZM245.603 21.4108V21.0057H245.198V21.4108H245.603ZM246.995 21.4108V21.816H247.4V21.4108H246.995ZM246.995 15.2852V14.88H246.59V15.2852H246.995ZM251.394 15.2852H251.8V14.88H251.394V15.2852ZM251.394 21.4108H250.989V21.816H251.394V21.4108ZM257.966 21.4108H258.371V21.0057H257.966V21.4108ZM257.966 25.8102V26.2153H258.371V25.8102H257.966ZM251.394 25.8102V25.405H250.989V25.8102H251.394ZM258.3 50.3128L258.294 50.7179H258.3V50.3128ZM260.456 50.3128V54.8235H261.266V50.3128H260.456ZM260.861 54.4183H258.3V55.2286H260.861V54.4183ZM258.303 54.4183C252.178 54.3646 247.4 49.4784 247.4 43.4632H246.59C246.59 49.922 251.725 55.171 258.296 55.2286L258.303 54.4183ZM247.4 43.4632V25.8102H246.59V43.4632H247.4ZM246.995 25.405H245.603V26.2153H246.995V25.405ZM246.008 25.8102V21.4108H245.198V25.8102H246.008ZM245.603 21.816H246.995V21.0057H245.603V21.816ZM247.4 21.4108V15.2852H246.59V21.4108H247.4ZM246.995 15.6903H251.394V14.88H246.995V15.6903ZM250.989 15.2852V21.4108H251.8V15.2852H250.989ZM251.394 21.816H257.966V21.0057H251.394V21.816ZM257.56 21.4108V25.8102H258.371V21.4108H257.56ZM257.966 25.405H251.394V26.2153H257.966V25.405ZM250.989 25.8102V43.4632H251.8V25.8102H250.989ZM250.989 43.4632C250.989 47.5452 254.415 50.6591 258.294 50.7179L258.306 49.9077C254.833 49.8551 251.8 47.066 251.8 43.4632H250.989ZM258.3 50.7179H260.861V49.9076H258.3V50.7179ZM291.569 21.4108H291.974V21.0057H291.569V21.4108ZM291.569 62.6198V63.0249H291.974V62.6198H291.569ZM287.17 62.6198H286.765V63.0249H287.17V62.6198ZM287.17 51.0367H287.575V50.1044L286.893 50.7405L287.17 51.0367ZM263.614 41.0686H263.209L263.209 41.0746L263.614 41.0686ZM263.614 21.4108V21.0057H263.209V21.4108H263.614ZM267.958 21.4108L268.363 21.4097L268.362 21.0057H267.958V21.4108ZM268.013 41.0686L267.608 41.0698L267.608 41.0774L268.013 41.0686ZM287.17 21.4108V21.0057H286.765V21.4108H287.17ZM291.164 21.4108V62.6198H291.974V21.4108H291.164ZM291.569 62.2146H287.17V63.0249H291.569V62.2146ZM287.575 62.6198V51.0367H286.765V62.6198H287.575ZM286.893 50.7405C284.459 53.0126 281.16 54.4183 277.592 54.4183V55.2286C281.374 55.2286 284.869 53.7386 287.446 51.3329L286.893 50.7405ZM277.592 54.4183C270.184 54.4183 264.127 48.4151 264.019 41.0626L263.209 41.0746C263.323 48.8692 269.741 55.2286 277.592 55.2286V54.4183ZM264.019 41.0686V21.4108H263.209V41.0686H264.019ZM263.614 21.816H267.958V21.0057H263.614V21.816ZM267.552 21.412L267.608 41.0698L268.418 41.0675L268.363 21.4097L267.552 21.412ZM267.608 41.0774C267.724 46.4189 272.135 50.8293 277.592 50.8293V50.019C272.579 50.019 268.525 45.9649 268.418 41.0598L267.608 41.0774ZM277.592 50.8293C283.041 50.8293 287.575 46.4249 287.575 41.0686H286.765C286.765 45.9589 282.612 50.019 277.592 50.019V50.8293ZM287.575 41.0686V21.4108H286.765V41.0686H287.575ZM287.17 21.816H291.569V21.0057H287.17V21.816Z" fill="#17253F"/>
<path d="M139.277 93.7949V110H134.711V71.0186H161.218V75.2508H139.277V89.5626L156.485 84.9962L157.543 88.95L139.277 93.7949ZM181.995 110.557C172.64 110.557 165.066 102.983 165.066 93.5164C165.066 84.1609 172.64 76.5874 181.995 76.5874C190.07 76.5874 195.36 82.4903 196.864 87.9477L172.695 101.925C175.034 104.487 178.32 106.102 181.995 106.158C185.671 106.269 189.012 104.765 191.462 102.204L194.692 105.099C191.295 109.109 185.949 110.557 181.995 110.557ZM170.412 98.3056L191.685 86.2213C189.68 83.2142 186.45 80.9867 181.995 80.9867C175.09 80.9867 169.466 86.6111 169.466 93.5164C169.466 95.1871 169.8 96.802 170.412 98.3056ZM218.214 110.557C208.859 110.557 201.285 102.983 201.285 93.5164C201.285 84.1609 208.859 76.5874 218.214 76.5874C226.289 76.5874 231.579 82.4903 233.083 87.9477L208.914 101.925C211.253 104.487 214.539 106.102 218.214 106.158C221.889 106.269 225.231 104.765 227.681 102.204L230.911 105.099C227.514 109.109 222.168 110.557 218.214 110.557ZM206.631 98.3056L227.904 86.2213C225.899 83.2142 222.669 80.9867 218.214 80.9867C211.309 80.9867 205.684 86.6111 205.684 93.5164C205.684 95.1871 206.018 96.802 206.631 98.3056ZM254.544 110.557C245.022 110.557 237.504 103.039 237.504 93.4607C237.504 84.1052 245.022 76.5874 254.544 76.5874C259.5 76.5874 263.955 78.7035 267.018 82.0448V71.0186H271.418V105.434H267.018V105.044C263.955 108.441 259.5 110.557 254.544 110.557ZM254.544 106.102C261.45 106.102 267.018 100.533 267.018 93.4607C267.018 86.6111 261.394 80.9867 254.544 80.9867C247.583 80.9867 241.959 86.6111 241.959 93.4607C241.959 100.477 247.583 106.102 254.544 106.102ZM295.364 110.557C290.408 110.557 285.953 108.441 282.89 105.044V105.434H278.49V71.0186H282.89V82.0448C285.953 78.7035 290.408 76.5874 295.364 76.5874C304.886 76.5874 312.404 84.1052 312.404 93.4607C312.404 103.039 304.886 110.557 295.364 110.557ZM295.364 106.102C302.325 106.102 307.949 100.477 307.949 93.4607C307.949 86.6111 302.325 80.9867 295.364 80.9867C288.514 80.9867 282.89 86.6111 282.89 93.4607C282.89 100.533 288.459 106.102 295.364 106.102ZM333.888 110.557C324.366 110.557 316.848 103.039 316.848 93.4607C316.848 84.1052 324.366 76.5874 333.888 76.5874C343.244 76.5874 350.762 84.1052 350.762 93.4607V105.434H346.362V105.044C343.3 108.441 338.845 110.557 333.888 110.557ZM333.888 106.102C340.794 106.102 346.362 100.533 346.362 93.4607C346.362 86.6111 340.738 80.9867 333.888 80.9867C326.927 80.9867 321.303 86.6111 321.303 93.4607C321.303 100.477 326.927 106.102 333.888 106.102ZM372.225 110.557C362.814 110.557 355.185 102.983 355.185 93.5164C355.185 84.1609 362.814 76.5874 372.225 76.5874C377.293 76.5874 381.915 78.9262 384.978 82.4903L382.528 86.3884C380.245 83.1028 376.513 80.9867 372.225 80.9867C365.32 80.9867 359.584 86.6111 359.584 93.5164C359.584 100.422 365.32 106.158 372.225 106.158C376.179 106.158 379.799 104.208 382.027 101.257L385.201 104.431C382.082 108.218 377.404 110.557 372.225 110.557ZM396.228 91.7344V110H391.885V69.3479H396.228V85.4417L403.969 77.1442H409.593L399.458 88.1704L414.327 110H409.371L396.395 91.5117L396.228 91.7344Z" fill="#17253F"/>
<path d="M139.277 93.7949L139.173 93.4033L138.872 93.4832V93.7949H139.277ZM139.277 110V110.405H139.682V110H139.277ZM134.711 110H134.306V110.405H134.711V110ZM134.711 71.0186V70.6134H134.306V71.0186H134.711ZM161.218 71.0186H161.623V70.6134H161.218V71.0186ZM161.218 75.2508V75.656H161.623V75.2508H161.218ZM139.277 75.2508V74.8457H138.872V75.2508H139.277ZM139.277 89.5626H138.872V90.0893L139.381 89.9542L139.277 89.5626ZM156.485 84.9962L156.876 84.8915L156.772 84.5009L156.381 84.6046L156.485 84.9962ZM157.543 88.95L157.647 89.3416L158.039 89.2375L157.934 88.8453L157.543 88.95ZM138.872 93.7949V110H139.682V93.7949H138.872ZM139.277 109.595H134.711V110.405H139.277V109.595ZM135.116 110V71.0186H134.306V110H135.116ZM134.711 71.4237H161.218V70.6134H134.711V71.4237ZM160.813 71.0186V75.2508H161.623V71.0186H160.813ZM161.218 74.8457H139.277V75.656H161.218V74.8457ZM138.872 75.2508V89.5626H139.682V75.2508H138.872ZM139.381 89.9542L156.589 85.3878L156.381 84.6046L139.173 89.171L139.381 89.9542ZM156.093 85.1009L157.151 89.0548L157.934 88.8453L156.876 84.8915L156.093 85.1009ZM157.439 88.5584L139.173 93.4033L139.381 94.1865L157.647 89.3416L157.439 88.5584ZM196.864 87.9477L197.067 88.2984L197.338 88.1417L197.255 87.84L196.864 87.9477ZM172.695 101.925L172.493 101.575L172.057 101.827L172.396 102.198L172.695 101.925ZM181.995 106.158L182.008 105.753L182.001 105.752L181.995 106.158ZM191.462 102.204L191.733 101.902L191.441 101.64L191.169 101.924L191.462 102.204ZM194.692 105.099L195.001 105.361L195.256 105.061L194.963 104.798L194.692 105.099ZM170.412 98.3056L170.037 98.4584L170.211 98.8858L170.612 98.6579L170.412 98.3056ZM191.685 86.2213L191.885 86.5736L192.263 86.3587L192.022 85.9966L191.685 86.2213ZM181.995 110.152C172.865 110.152 165.471 102.761 165.471 93.5164H164.661C164.661 103.205 172.414 110.962 181.995 110.962V110.152ZM165.471 93.5164C165.471 84.3846 172.864 76.9925 181.995 76.9925V76.1822C172.416 76.1822 164.661 83.9371 164.661 93.5164H165.471ZM181.995 76.9925C189.85 76.9925 195.007 82.7348 196.473 88.0553L197.255 87.84C195.713 82.2457 190.29 76.1822 181.995 76.1822V76.9925ZM196.661 87.5969L172.493 101.575L172.898 102.276L197.067 88.2984L196.661 87.5969ZM172.396 102.198C174.806 104.837 178.195 106.505 181.989 106.563L182.001 105.752C178.445 105.699 175.263 104.137 172.995 101.652L172.396 102.198ZM181.983 106.563C185.781 106.678 189.231 105.122 191.755 102.484L191.169 101.924C188.793 104.408 185.56 105.86 182.008 105.753L181.983 106.563ZM191.192 102.505L194.422 105.401L194.963 104.798L191.733 101.902L191.192 102.505ZM194.383 104.838C191.087 108.727 185.874 110.152 181.995 110.152V110.962C186.024 110.962 191.503 109.491 195.001 105.361L194.383 104.838ZM170.612 98.6579L191.885 86.5736L191.485 85.8691L170.212 97.9533L170.612 98.6579ZM192.022 85.9966C189.953 82.8937 186.605 80.5815 181.995 80.5815V81.3918C186.296 81.3918 189.407 83.5346 191.348 86.4461L192.022 85.9966ZM181.995 80.5815C174.866 80.5815 169.06 86.3874 169.06 93.5164H169.871C169.871 86.8349 175.314 81.3918 181.995 81.3918V80.5815ZM169.06 93.5164C169.06 95.2416 169.406 96.9084 170.037 98.4584L170.787 98.1527C170.194 96.6956 169.871 95.1325 169.871 93.5164H169.06ZM233.083 87.9477L233.286 88.2984L233.556 88.1417L233.473 87.84L233.083 87.9477ZM208.914 101.925L208.711 101.575L208.276 101.827L208.615 102.198L208.914 101.925ZM218.214 106.158L218.226 105.753L218.22 105.752L218.214 106.158ZM227.681 102.204L227.951 101.902L227.659 101.64L227.388 101.924L227.681 102.204ZM230.911 105.099L231.22 105.361L231.475 105.061L231.181 104.798L230.911 105.099ZM206.631 98.3056L206.256 98.4584L206.43 98.8858L206.831 98.6579L206.631 98.3056ZM227.904 86.2213L228.104 86.5736L228.482 86.3587L228.241 85.9966L227.904 86.2213ZM218.214 110.152C209.084 110.152 201.69 102.761 201.69 93.5164H200.88C200.88 103.205 208.633 110.962 218.214 110.962V110.152ZM201.69 93.5164C201.69 84.3846 209.082 76.9925 218.214 76.9925V76.1822C208.635 76.1822 200.88 83.9371 200.88 93.5164H201.69ZM218.214 76.9925C226.069 76.9925 231.226 82.7348 232.692 88.0553L233.473 87.84C231.932 82.2457 226.508 76.1822 218.214 76.1822V76.9925ZM232.88 87.5969L208.711 101.575L209.117 102.276L233.286 88.2984L232.88 87.5969ZM208.615 102.198C211.024 104.837 214.414 106.505 218.208 106.563L218.22 105.752C214.663 105.699 211.482 104.137 209.213 101.652L208.615 102.198ZM218.202 106.563C222 106.678 225.45 105.122 227.974 102.484L227.388 101.924C225.011 104.408 221.779 105.86 218.226 105.753L218.202 106.563ZM227.411 102.505L230.64 105.401L231.181 104.798L227.951 101.902L227.411 102.505ZM230.602 104.838C227.306 108.727 222.093 110.152 218.214 110.152V110.962C222.243 110.962 227.722 109.491 231.22 105.361L230.602 104.838ZM206.831 98.6579L228.104 86.5736L227.704 85.8691L206.431 97.9533L206.831 98.6579ZM228.241 85.9966C226.172 82.8937 222.824 80.5815 218.214 80.5815V81.3918C222.514 81.3918 225.626 83.5346 227.567 86.4461L228.241 85.9966ZM218.214 80.5815C211.085 80.5815 205.279 86.3874 205.279 93.5164H206.089C206.089 86.8349 211.533 81.3918 218.214 81.3918V80.5815ZM205.279 93.5164C205.279 95.2416 205.624 96.9084 206.256 98.4584L207.006 98.1527C206.413 96.6956 206.089 95.1325 206.089 93.5164H205.279ZM267.018 82.0448L266.72 82.3185L267.423 83.0863V82.0448H267.018ZM267.018 71.0186V70.6134H266.613V71.0186H267.018ZM271.418 71.0186H271.823V70.6134H271.418V71.0186ZM271.418 105.434V105.839H271.823V105.434H271.418ZM267.018 105.434H266.613V105.839H267.018V105.434ZM267.018 105.044H267.423V103.989L266.717 104.772L267.018 105.044ZM254.544 110.152C245.246 110.152 237.909 102.816 237.909 93.4607H237.099C237.099 103.262 244.797 110.962 254.544 110.962V110.152ZM237.909 93.4607C237.909 84.3316 245.243 76.9925 254.544 76.9925V76.1822C244.8 76.1822 237.099 83.8788 237.099 93.4607H237.909ZM254.544 76.9925C259.383 76.9925 263.731 79.0582 266.72 82.3185L267.317 81.771C264.18 78.3487 259.618 76.1822 254.544 76.1822V76.9925ZM267.423 82.0448V71.0186H266.613V82.0448H267.423ZM267.018 71.4237H271.418V70.6134H267.018V71.4237ZM271.012 71.0186V105.434H271.823V71.0186H271.012ZM271.418 105.028H267.018V105.839H271.418V105.028ZM267.423 105.434V105.044H266.613V105.434H267.423ZM266.717 104.772C263.729 108.086 259.383 110.152 254.544 110.152V110.962C259.618 110.962 264.181 108.795 267.319 105.315L266.717 104.772ZM254.544 106.507C261.677 106.507 267.423 100.753 267.423 93.4607H266.613C266.613 100.313 261.222 105.697 254.544 105.697V106.507ZM267.423 93.4607C267.423 86.3874 261.618 80.5815 254.544 80.5815V81.3918C261.17 81.3918 266.613 86.8349 266.613 93.4607H267.423ZM254.544 80.5815C247.362 80.5815 241.554 86.385 241.554 93.4607H242.364C242.364 86.8372 247.805 81.3918 254.544 81.3918V80.5815ZM241.554 93.4607C241.554 100.7 247.358 106.507 254.544 106.507V105.697C247.808 105.697 242.364 100.255 242.364 93.4607H241.554ZM282.89 105.044L283.191 104.772L282.485 103.989V105.044H282.89ZM282.89 105.434V105.839H283.295V105.434H282.89ZM278.49 105.434H278.085V105.839H278.49V105.434ZM278.49 71.0186V70.6134H278.085V71.0186H278.49ZM282.89 71.0186H283.295V70.6134H282.89V71.0186ZM282.89 82.0448H282.485V83.0863L283.188 82.3185L282.89 82.0448ZM295.364 110.152C290.525 110.152 286.179 108.086 283.191 104.772L282.589 105.315C285.727 108.795 290.29 110.962 295.364 110.962V110.152ZM282.485 105.044V105.434H283.295V105.044H282.485ZM282.89 105.028H278.49V105.839H282.89V105.028ZM278.896 105.434V71.0186H278.085V105.434H278.896ZM278.49 71.4237H282.89V70.6134H278.49V71.4237ZM282.485 71.0186V82.0448H283.295V71.0186H282.485ZM283.188 82.3185C286.177 79.0582 290.525 76.9925 295.364 76.9925V76.1822C290.29 76.1822 285.728 78.3487 282.591 81.771L283.188 82.3185ZM295.364 76.9925C304.665 76.9925 311.999 84.3316 311.999 93.4607H312.809C312.809 83.8788 305.108 76.1822 295.364 76.1822V76.9925ZM311.999 93.4607C311.999 102.816 304.662 110.152 295.364 110.152V110.962C305.111 110.962 312.809 103.262 312.809 93.4607H311.999ZM295.364 106.507C302.55 106.507 308.354 100.7 308.354 93.4607H307.544C307.544 100.255 302.1 105.697 295.364 105.697V106.507ZM308.354 93.4607C308.354 86.385 302.546 80.5815 295.364 80.5815V81.3918C302.103 81.3918 307.544 86.8372 307.544 93.4607H308.354ZM295.364 80.5815C288.29 80.5815 282.485 86.3874 282.485 93.4607H283.295C283.295 86.8349 288.738 81.3918 295.364 81.3918V80.5815ZM282.485 93.4607C282.485 100.753 288.231 106.507 295.364 106.507V105.697C288.686 105.697 283.295 100.313 283.295 93.4607H282.485ZM350.762 105.434V105.839H351.167V105.434H350.762ZM346.362 105.434H345.957V105.839H346.362V105.434ZM346.362 105.044H346.768V103.989L346.062 104.772L346.362 105.044ZM333.888 110.152C324.59 110.152 317.253 102.816 317.253 93.4607H316.443C316.443 103.262 324.141 110.962 333.888 110.962V110.152ZM317.253 93.4607C317.253 84.3316 324.587 76.9925 333.888 76.9925V76.1822C324.145 76.1822 316.443 83.8788 316.443 93.4607H317.253ZM333.888 76.9925C343.02 76.9925 350.357 84.329 350.357 93.4607H351.167C351.167 83.8814 343.468 76.1822 333.888 76.1822V76.9925ZM350.357 93.4607V105.434H351.167V93.4607H350.357ZM350.762 105.028H346.362V105.839H350.762V105.028ZM346.768 105.434V105.044H345.957V105.434H346.768ZM346.062 104.772C343.074 108.086 338.727 110.152 333.888 110.152V110.962C338.962 110.962 343.526 108.795 346.663 105.315L346.062 104.772ZM333.888 106.507C341.021 106.507 346.768 100.753 346.768 93.4607H345.957C345.957 100.313 340.566 105.697 333.888 105.697V106.507ZM346.768 93.4607C346.768 86.3874 340.962 80.5815 333.888 80.5815V81.3918C340.514 81.3918 345.957 86.8349 345.957 93.4607H346.768ZM333.888 80.5815C326.706 80.5815 320.898 86.385 320.898 93.4607H321.708C321.708 86.8372 327.149 81.3918 333.888 81.3918V80.5815ZM320.898 93.4607C320.898 100.7 326.703 106.507 333.888 106.507V105.697C327.152 105.697 321.708 100.255 321.708 93.4607H320.898ZM384.978 82.4903L385.321 82.7059L385.48 82.4528L385.285 82.2262L384.978 82.4903ZM382.528 86.3884L382.195 86.6196L382.545 87.1227L382.871 86.604L382.528 86.3884ZM382.027 101.257L382.313 100.971L381.984 100.641L381.703 101.013L382.027 101.257ZM385.201 104.431L385.513 104.689L385.747 104.405L385.487 104.145L385.201 104.431ZM372.225 110.152C363.037 110.152 355.59 102.759 355.59 93.5164H354.78C354.78 103.208 362.591 110.962 372.225 110.962V110.152ZM355.59 93.5164C355.59 84.3872 363.035 76.9925 372.225 76.9925V76.1822C362.593 76.1822 354.78 83.9345 354.78 93.5164H355.59ZM372.225 76.9925C377.168 76.9925 381.68 79.2742 384.671 82.7543L385.285 82.2262C382.15 78.5783 377.418 76.1822 372.225 76.1822V76.9925ZM384.635 82.2746L382.185 86.1728L382.871 86.604L385.321 82.7059L384.635 82.2746ZM382.86 86.1572C380.505 82.7677 376.652 80.5815 372.225 80.5815V81.3918C376.375 81.3918 379.984 83.4379 382.195 86.6196L382.86 86.1572ZM372.225 80.5815C365.101 80.5815 359.179 86.3827 359.179 93.5164H359.99C359.99 86.8395 365.539 81.3918 372.225 81.3918V80.5815ZM359.179 93.5164C359.179 100.645 365.096 106.563 372.225 106.563V105.752C365.544 105.752 359.99 100.198 359.99 93.5164H359.179ZM372.225 106.563C376.312 106.563 380.049 104.549 382.35 101.501L381.703 101.013C379.549 103.868 376.046 105.752 372.225 105.752V106.563ZM381.74 101.544L384.914 104.718L385.487 104.145L382.313 100.971L381.74 101.544ZM384.888 104.174C381.844 107.87 377.28 110.152 372.225 110.152V110.962C377.529 110.962 382.32 108.566 385.513 104.689L384.888 104.174ZM396.228 91.7344L395.904 91.4913L395.823 91.5994V91.7344H396.228ZM396.228 110V110.405H396.633V110H396.228ZM391.885 110H391.479V110.405H391.885V110ZM391.885 69.3479V68.9428H391.479V69.3479H391.885ZM396.228 69.3479H396.633V68.9428H396.228V69.3479ZM396.228 85.4417H395.823V86.4699L396.524 85.7181L396.228 85.4417ZM403.969 77.1442V76.7391H403.793L403.673 76.8679L403.969 77.1442ZM409.593 77.1442L409.892 77.4184L410.516 76.7391H409.593V77.1442ZM399.458 88.1704L399.16 87.8962L398.942 88.1328L399.123 88.3985L399.458 88.1704ZM414.327 110V110.405H415.093L414.662 109.772L414.327 110ZM409.371 110L409.039 110.233L409.16 110.405H409.371V110ZM396.395 91.5117L396.727 91.2789L396.406 90.8219L396.071 91.2686L396.395 91.5117ZM395.823 91.7344V110H396.633V91.7344H395.823ZM396.228 109.595H391.885V110.405H396.228V109.595ZM392.29 110V69.3479H391.479V110H392.29ZM391.885 69.7531H396.228V68.9428H391.885V69.7531ZM395.823 69.3479V85.4417H396.633V69.3479H395.823ZM396.524 85.7181L404.265 77.4206L403.673 76.8679L395.932 85.1653L396.524 85.7181ZM403.969 77.5494H409.593V76.7391H403.969V77.5494ZM409.295 76.8701L399.16 87.8962L399.756 88.4446L409.892 77.4184L409.295 76.8701ZM399.123 88.3985L413.992 110.228L414.662 109.772L399.793 87.9423L399.123 88.3985ZM414.327 109.595H409.371V110.405H414.327V109.595ZM409.702 109.767L396.727 91.2789L396.064 91.7444L409.039 110.233L409.702 109.767ZM396.071 91.2686L395.904 91.4913L396.552 91.9775L396.719 91.7548L396.071 91.2686Z" fill="#17253F"/>
</svg>
