<svg width="38" height="38" viewBox="0 0 38 38" fill="none" xmlns="http://www.w3.org/2000/svg">
<rect x="0.284363" y="0.550781" width="37" height="37" rx="18.5" fill="#17253F"/>
<path d="M17.5767 8.51729C17.9568 7.34743 19.6119 7.34743 19.992 8.51728L21.9383 14.5074C22.1083 15.0306 22.5958 15.3848 23.1459 15.3848H29.4443C30.6744 15.3848 31.1858 16.9588 30.1906 17.6818L25.0952 21.3839C24.6501 21.7073 24.4639 22.2804 24.6339 22.8036L26.5802 28.7937C26.9603 29.9635 25.6213 30.9363 24.6262 30.2133L19.5307 26.5112C19.0857 26.1879 18.483 26.1879 18.038 26.5112L12.9425 30.2133C11.9474 30.9363 10.6084 29.9635 10.9885 28.7937L12.9348 22.8036C13.1048 22.2804 12.9186 21.7073 12.4736 21.3839L7.37807 17.6818C6.38293 16.9588 6.89436 15.3848 8.12443 15.3848H14.4228C14.9729 15.3848 15.4604 15.0306 15.6304 14.5074L17.5767 8.51729Z" fill="#04DA8D"/>
</svg>
