<svg width="41" height="40" viewBox="0 0 41 40" fill="none" xmlns="http://www.w3.org/2000/svg">
<g clip-path="url(#clip0_511_11)">
<path d="M11.4394 13.1338H6.12695C5.65234 13.1338 5.26758 12.749 5.26758 12.2744V6.96191C5.26758 6.4873 5.65234 6.10254 6.12695 6.10254H11.4394C11.914 6.10254 12.2988 6.4873 12.2988 6.96191V12.2744C12.2988 12.749 11.914 13.1338 11.4394 13.1338ZM6.98632 11.415H10.5801V7.82129H6.98632V11.415Z" fill="#04DA8D"/>
<path d="M20.5019 13.1338H15.1895C14.7148 13.1338 14.3301 12.749 14.3301 12.2744V6.96191C14.3301 6.4873 14.7148 6.10254 15.1895 6.10254H20.5019C20.9765 6.10254 21.3613 6.4873 21.3613 6.96191V12.2744C21.3613 12.749 20.9765 13.1338 20.5019 13.1338ZM16.0488 11.415H19.6426V7.82129H16.0488V11.415Z" fill="#04DA8D"/>
<path d="M29.5644 13.1338H24.252C23.7773 13.1338 23.3926 12.749 23.3926 12.2744V6.96191C23.3926 6.4873 23.7773 6.10254 24.252 6.10254H29.5644C30.039 6.10254 30.4238 6.4873 30.4238 6.96191V12.2744C30.4238 12.749 30.039 13.1338 29.5644 13.1338ZM25.1113 11.415H28.7051V7.82129H25.1113V11.415Z" fill="#04DA8D"/>
<path d="M34.5908 29.6875H29.2783C28.8037 29.6875 28.4189 29.3027 28.4189 28.8281V23.5156C28.4189 23.041 28.8037 22.6562 29.2783 22.6562H34.5908C35.0654 22.6562 35.4502 23.041 35.4502 23.5156V28.8281C35.4502 29.3027 35.0654 29.6875 34.5908 29.6875ZM30.1377 27.9687H33.7314V24.375H30.1377V27.9687Z" fill="#04DA8D"/>
<path d="M6.83008 16.5713H10.7363C11.2109 16.5713 11.5957 16.1865 11.5957 15.7119C11.5957 15.2373 11.2109 14.8525 10.7363 14.8525H6.83008C6.35547 14.8525 5.9707 15.2373 5.9707 15.7119C5.9707 16.1865 6.35547 16.5713 6.83008 16.5713Z" fill="#1A1A1A"/>
<path d="M15.9026 16.5713H19.8088C20.2834 16.5713 20.6682 16.1865 20.6682 15.7119C20.6682 15.2373 20.2834 14.8525 19.8088 14.8525H15.9026C15.428 14.8525 15.0432 15.2373 15.0432 15.7119C15.0432 16.1865 15.428 16.5713 15.9026 16.5713Z" fill="#1A1A1A"/>
<path d="M6.83008 20.0088H10.7363C11.2109 20.0088 11.5957 19.624 11.5957 19.1494C11.5957 18.6748 11.2109 18.29 10.7363 18.29H6.83008C6.35547 18.29 5.9707 18.6748 5.9707 19.1494C5.9707 19.624 6.35547 20.0088 6.83008 20.0088Z" fill="#1A1A1A"/>
<path d="M15.9026 20.0088H19.8088C20.2834 20.0088 20.6682 19.624 20.6682 19.1494C20.6682 18.6748 20.2834 18.29 19.8088 18.29H15.9026C15.428 18.29 15.0432 18.6748 15.0432 19.1494C15.0432 19.624 15.428 20.0088 15.9026 20.0088Z" fill="#1A1A1A"/>
<path d="M37.2988 15.7812H35.6581V3.62726C35.6581 1.62718 34.031 0 32.0309 0H3.66046C1.66039 0 0.0332031 1.62718 0.0332031 3.62726V24.2477C0.0332031 26.2478 1.66039 27.8749 3.66046 27.8749H13.6236V31.7599C13.6236 32.9434 12.6608 33.9063 11.4772 33.9063H9.74733C9.27272 33.9063 8.88795 34.291 8.88795 34.7656C8.88795 35.2402 9.27272 35.625 9.74733 35.625H23.836V37.2656C23.836 38.7734 25.0627 40 26.5704 40H37.2988C38.8065 40 40.0331 38.7734 40.0331 37.2656V18.5156C40.0331 17.0079 38.8065 15.7812 37.2988 15.7812ZM38.3144 18.5156V19.2187H25.5549V18.5156C25.5549 17.9556 26.0105 17.5 26.5705 17.5H37.2988C37.8588 17.5 38.3144 17.9556 38.3144 18.5156ZM22.0678 27.8749H23.8361V33.8722C22.8324 33.6931 22.0678 32.8144 22.0678 31.7599V27.8749ZM25.5549 20.9375H38.3144V34.8437H25.5549V20.9375ZM3.66046 1.71875H32.031C33.0833 1.71875 33.9394 2.57492 33.9394 3.62726V15.7812H26.5705C25.0628 15.7812 23.8361 17.0079 23.8361 18.5156V21.7276H1.75195V3.62726C1.75195 2.57492 2.60804 1.71875 3.66046 1.71875ZM1.75195 24.2477V23.4464H23.8361V26.1562H3.66046C2.60804 26.1562 1.75195 25.3 1.75195 24.2477ZM15.3423 31.7599V27.8749H20.349V31.7599C20.349 32.5535 20.5897 33.2918 21.0015 33.9063H14.6897C15.1016 33.2918 15.3423 32.5535 15.3423 31.7599ZM37.2988 38.2812H26.5705C26.0105 38.2812 25.5549 37.8256 25.5549 37.2656V36.5624H38.3144V37.2656C38.3144 37.8256 37.8588 38.2812 37.2988 38.2812Z" fill="#1A1A1A"/>
<path d="M33.8877 31.4062H29.9814C29.5068 31.4062 29.1221 31.791 29.1221 32.2656C29.1221 32.7402 29.5068 33.125 29.9814 33.125H33.8877C34.3623 33.125 34.7471 32.7402 34.7471 32.2656C34.7471 31.791 34.3623 31.4062 33.8877 31.4062Z" fill="#1A1A1A"/>
</g>
<defs>
<clipPath id="clip0_511_11">
<rect width="40.078" height="40" fill="white" transform="translate(-0.00585938)"/>
</clipPath>
</defs>
</svg>
