<svg width="36" height="36" viewBox="0 0 36 36" fill="none" xmlns="http://www.w3.org/2000/svg">
<path d="M7.90174 26.5121C9.97106 26.7794 11.7764 27.6197 13.0546 28.7775C13.3223 29.0199 13.2226 29.7919 12.9021 29.9583C11.3717 30.7534 9.41216 31.1076 7.34283 30.8403C5.27351 30.5731 3.4682 29.7328 2.18994 28.575C1.92223 28.3326 2.02194 27.5606 2.34243 27.3941C3.87282 26.5991 5.83241 26.2449 7.90174 26.5121Z" fill="url(#paint0_linear_1_2287)"/>
<path d="M7.90174 26.5121C9.97106 26.7794 11.7764 27.6197 13.0546 28.7775C13.3223 29.0199 13.2226 29.7919 12.9021 29.9583C11.3717 30.7534 9.41216 31.1076 7.34283 30.8403C5.27351 30.5731 3.4682 29.7328 2.18994 28.575C1.92223 28.3326 2.02194 27.5606 2.34243 27.3941C3.87282 26.5991 5.83241 26.2449 7.90174 26.5121Z" fill="url(#paint1_linear_1_2287)"/>
<path d="M8.14402 23.6143C10.3571 24.5737 12.0933 26.0854 13.1424 27.7806C13.3621 28.1356 13.0042 28.9612 12.5949 29.0435C10.6404 29.4366 8.35025 29.2025 6.13729 28.2431C3.92426 27.2837 2.18805 25.7721 1.13888 24.0768C0.919202 23.7218 1.27709 22.8963 1.68639 22.8139C3.6409 22.4209 5.93099 22.6549 8.14402 23.6143Z" fill="url(#paint2_linear_1_2287)"/>
<path d="M8.14402 23.6143C10.3571 24.5737 12.0933 26.0854 13.1424 27.7806C13.3621 28.1356 13.0042 28.9612 12.5949 29.0435C10.6404 29.4366 8.35025 29.2025 6.13729 28.2431C3.92426 27.2837 2.18805 25.7721 1.13888 24.0768C0.919202 23.7218 1.27709 22.8963 1.68639 22.8139C3.6409 22.4209 5.93099 22.6549 8.14402 23.6143Z" fill="url(#paint3_linear_1_2287)"/>
<path d="M12.1286 18.9627C13.015 21.2059 13.1739 23.5025 12.717 25.4431C12.6213 25.8495 11.7844 26.1802 11.4368 25.9489C9.77682 24.8448 8.32294 23.0599 7.43655 20.8167C6.55016 18.5735 6.39129 16.2769 6.84821 14.3363C6.94387 13.9299 7.78072 13.5992 8.12832 13.8304C9.78835 14.9345 11.2422 16.7194 12.1286 18.9627Z" fill="url(#paint4_linear_1_2287)"/>
<path d="M12.1286 18.9627C13.015 21.2059 13.1739 23.5025 12.717 25.4431C12.6213 25.8495 11.7844 26.1802 11.4368 25.9489C9.77682 24.8448 8.32294 23.0599 7.43655 20.8167C6.55016 18.5735 6.39129 16.2769 6.84821 14.3363C6.94387 13.9299 7.78072 13.5992 8.12832 13.8304C9.78835 14.9345 11.2422 16.7194 12.1286 18.9627Z" fill="url(#paint5_linear_1_2287)"/>
<path d="M8.8985 19.047C11.155 21.0756 12.6222 23.5725 13.1963 26.0139C13.3165 26.5252 12.5598 27.367 12.0386 27.3016C9.55005 26.9896 6.91174 25.7955 4.65527 23.7668C2.3988 21.7382 0.931611 19.2413 0.357474 16.7999C0.237239 16.2886 0.993993 15.4468 1.51515 15.5121C4.00365 15.8242 6.64203 17.0184 8.8985 19.047Z" fill="url(#paint6_linear_1_2287)"/>
<path d="M1.39111 19.5737C2.15871 21.0682 3.25483 22.5076 4.65524 23.7667C6.91171 25.7953 9.55002 26.9895 12.0386 27.3015C12.5597 27.3669 13.3165 26.5251 13.1963 26.0138C12.6221 23.5724 11.1549 21.0755 8.89847 19.0469C7.56978 17.8523 6.10856 16.9474 4.6236 16.3413L1.39111 19.5737Z" fill="url(#paint7_linear_1_2287)"/>
<path d="M27.7874 26.5121C25.7181 26.7794 23.9128 27.6197 22.6345 28.7775C22.3668 29.0199 22.4665 29.7919 22.787 29.9583C24.3174 30.7534 26.277 31.1076 28.3463 30.8403C30.4156 30.5731 32.221 29.7328 33.4992 28.575C33.7669 28.3326 33.6672 27.5606 33.3467 27.3941C31.8163 26.5991 29.8567 26.2449 27.7874 26.5121Z" fill="url(#paint8_linear_1_2287)"/>
<path d="M27.7874 26.5121C25.7181 26.7794 23.9128 27.6197 22.6345 28.7775C22.3668 29.0199 22.4665 29.7919 22.787 29.9583C24.3174 30.7534 26.277 31.1076 28.3463 30.8403C30.4156 30.5731 32.221 29.7328 33.4992 28.575C33.7669 28.3326 33.6672 27.5606 33.3467 27.3941C31.8163 26.5991 29.8567 26.2449 27.7874 26.5121Z" fill="url(#paint9_linear_1_2287)"/>
<path d="M27.5455 23.6143C25.3325 24.5737 23.5963 26.0854 22.5471 27.7806C22.3274 28.1356 22.6853 28.9612 23.0946 29.0435C25.0491 29.4366 27.3393 29.2025 29.5522 28.2431C31.7653 27.2837 33.5015 25.7721 34.5506 24.0768C34.7703 23.7218 34.4124 22.8963 34.0031 22.8139C32.0486 22.4209 29.7585 22.6549 27.5455 23.6143Z" fill="url(#paint10_linear_1_2287)"/>
<path d="M27.5455 23.6143C25.3325 24.5737 23.5963 26.0854 22.5471 27.7806C22.3274 28.1356 22.6853 28.9612 23.0946 29.0435C25.0491 29.4366 27.3393 29.2025 29.5522 28.2431C31.7653 27.2837 33.5015 25.7721 34.5506 24.0768C34.7703 23.7218 34.4124 22.8963 34.0031 22.8139C32.0486 22.4209 29.7585 22.6549 27.5455 23.6143Z" fill="url(#paint11_linear_1_2287)"/>
<path d="M23.5608 18.9627C22.6744 21.2059 22.5156 23.5025 22.9725 25.4431C23.0681 25.8495 23.905 26.1802 24.2526 25.9489C25.9126 24.8448 27.3665 23.0599 28.2529 20.8167C29.1393 18.5735 29.2981 16.2769 28.8412 14.3363C28.7456 13.9299 27.9087 13.5992 27.5611 13.8304C25.9011 14.9345 24.4472 16.7194 23.5608 18.9627Z" fill="url(#paint12_linear_1_2287)"/>
<path d="M23.5608 18.9627C22.6744 21.2059 22.5156 23.5025 22.9725 25.4431C23.0681 25.8495 23.905 26.1802 24.2526 25.9489C25.9126 24.8448 27.3665 23.0599 28.2529 20.8167C29.1393 18.5735 29.2981 16.2769 28.8412 14.3363C28.7456 13.9299 27.9087 13.5992 27.5611 13.8304C25.9011 14.9345 24.4472 16.7194 23.5608 18.9627Z" fill="url(#paint13_linear_1_2287)"/>
<path d="M26.7908 19.047C24.5343 21.0756 23.0671 23.5725 22.493 26.0139C22.3727 26.5252 23.1295 27.367 23.6506 27.3016C26.1392 26.9896 28.7775 25.7955 31.034 23.7668C33.2905 21.7382 34.7577 19.2413 35.3318 16.7999C35.452 16.2886 34.6953 15.4468 34.1741 15.5121C31.6856 15.8242 29.0472 17.0184 26.7908 19.047Z" fill="url(#paint14_linear_1_2287)"/>
<path d="M34.2981 19.5737C33.5305 21.0682 32.4344 22.5076 31.034 23.7667C28.7775 25.7953 26.1392 26.9895 23.6506 27.3015C23.1295 27.3669 22.3727 26.5251 22.493 26.0138C23.0671 23.5724 24.5343 21.0755 26.7908 19.0469C28.1195 17.8523 29.5807 16.9474 31.0656 16.3413L34.2981 19.5737Z" fill="url(#paint15_linear_1_2287)"/>
<path d="M17.8447 35.5813C23.8721 35.5813 28.7582 30.6951 28.7582 24.6677C28.7582 18.6403 23.8721 13.7542 17.8447 13.7542C11.8173 13.7542 6.93115 18.6403 6.93115 24.6677C6.93115 30.6951 11.8173 35.5813 17.8447 35.5813Z" fill="url(#paint16_linear_1_2287)"/>
<path d="M17.8446 33.3665C22.6489 33.3665 26.5435 29.4719 26.5435 24.6676C26.5435 19.8634 22.6489 15.9688 17.8446 15.9688C13.0404 15.9688 9.14575 19.8634 9.14575 24.6676C9.14575 29.4719 13.0404 33.3665 17.8446 33.3665Z" fill="url(#paint17_linear_1_2287)"/>
<path d="M17.8447 32.1358C21.9692 32.1358 25.3128 28.7922 25.3128 24.6677C25.3128 20.5433 21.9692 17.1997 17.8447 17.1997C13.7203 17.1997 10.3767 20.5433 10.3767 24.6677C10.3767 28.7922 13.7203 32.1358 17.8447 32.1358Z" fill="url(#paint18_linear_1_2287)"/>
<path d="M6.93115 24.6677C6.93115 30.6951 11.8173 35.5813 17.8447 35.5813C23.8721 35.5813 28.7582 30.6951 28.7582 24.6677C28.7582 24.6254 28.7571 24.5833 28.7567 24.541H6.93273C6.93225 24.5833 6.93115 24.6254 6.93115 24.6677Z" fill="url(#paint19_linear_1_2287)"/>
<path d="M20.9057 35.1453C24.3445 34.1424 27.081 31.493 28.2046 28.1074L22.8892 22.792L21.6909 22.8508L18.4568 19.6167L14.5151 28.7548L20.9057 35.1453Z" fill="url(#paint20_linear_1_2287)"/>
<path d="M22.3198 22.2962L20.1795 21.7791C19.9804 21.731 19.8064 21.6102 19.6916 21.4406L18.4578 19.6168C18.3085 19.3963 18.08 19.2779 17.8447 19.2588C17.6094 19.2779 17.3808 19.3963 17.2316 19.6168L15.9978 21.4406C15.883 21.6102 15.7091 21.731 15.5099 21.7791L13.3696 22.2962C12.789 22.4364 12.5471 23.1294 12.9142 23.6006L14.2674 25.3375C14.3933 25.4992 14.4544 25.7019 14.4386 25.9061L14.269 28.1014C14.223 28.6969 14.8072 29.1412 15.3688 28.9377L17.439 28.1874C17.5698 28.14 17.7093 28.1278 17.8447 28.1488C17.9802 28.1279 18.1196 28.1401 18.2504 28.1874L20.3206 28.9377C20.8821 29.1411 21.4664 28.6969 21.4204 28.1014L21.2508 25.9061C21.235 25.7019 21.2961 25.4992 21.422 25.3375L22.7752 23.6006C23.1423 23.1294 22.9003 22.4364 22.3198 22.2962Z" fill="url(#paint21_linear_1_2287)"/>
<path d="M18.2502 28.1874L20.3204 28.9377C20.8819 29.1411 21.4662 28.6969 21.4202 28.1014L21.2506 25.9061C21.2348 25.7019 21.2959 25.4992 21.4218 25.3375L22.775 23.6006C23.1421 23.1294 22.9001 22.4364 22.3195 22.2962L20.1793 21.7791C19.9802 21.731 19.8062 21.6102 19.6914 21.4406L18.4576 19.6168C18.3083 19.3963 18.0797 19.2779 17.8445 19.2588V28.1488C17.98 28.1278 18.1195 28.14 18.2502 28.1874Z" fill="url(#paint22_linear_1_2287)"/>
<path d="M22.3197 22.2962L20.1794 21.7791C20.1063 21.7614 20.0367 21.7338 19.9721 21.6978L14.5161 28.7549C14.7302 28.9618 15.0531 29.0521 15.3687 28.9377L17.4389 28.1875C17.5697 28.1401 17.7092 28.1279 17.8446 28.1489C17.9801 28.1279 18.1195 28.1402 18.2503 28.1875L20.3205 28.9377C20.882 29.1412 21.4663 28.697 21.4203 28.1015L21.2507 25.9062C21.2349 25.702 21.296 25.4992 21.4219 25.3376L22.7752 23.6007C23.1422 23.1294 22.9003 22.4365 22.3197 22.2962Z" fill="url(#paint23_linear_1_2287)"/>
<path d="M13.3696 22.2962L15.5099 21.7791C15.583 21.7614 15.6526 21.7338 15.7172 21.6978L21.1732 28.7549C20.9591 28.9618 20.6363 29.0521 20.3206 28.9377L18.2504 28.1875C18.1196 28.1401 17.9801 28.1279 17.8447 28.1489C17.7092 28.1279 17.5698 28.1402 17.439 28.1875L15.3688 28.9377C14.8073 29.1412 14.223 28.697 14.269 28.1015L14.4386 25.9062C14.4544 25.702 14.3933 25.4992 14.2674 25.3376L12.9142 23.6007C12.5471 23.1294 12.789 22.4365 13.3696 22.2962Z" fill="url(#paint24_linear_1_2287)"/>
<path d="M12.7998 22.792C12.6981 23.0487 12.7225 23.3545 12.914 23.6004L14.2673 25.3374C14.3932 25.499 14.4542 25.7017 14.4384 25.906L14.2689 28.1013C14.2229 28.6968 14.8071 29.1411 15.3687 28.9375L17.4388 28.1873C17.5696 28.1399 17.7092 28.1276 17.8446 28.1486C17.98 28.1277 18.1195 28.1399 18.2503 28.1873L20.3204 28.9375C20.8819 29.141 21.4662 28.6968 21.4203 28.1013L21.2507 25.906C21.2419 25.7927 21.2576 25.68 21.2941 25.5744L12.7998 22.792Z" fill="url(#paint25_linear_1_2287)"/>
<path d="M22.8901 22.792C22.9918 23.0487 22.9675 23.3545 22.7759 23.6004L21.4226 25.3374C21.2967 25.499 21.2357 25.7017 21.2515 25.906L21.421 28.1013C21.467 28.6968 20.8827 29.1411 20.3212 28.9375L18.2511 28.1873C18.1203 28.1399 17.9807 28.1276 17.8453 28.1486C17.7099 28.1277 17.5704 28.1399 17.4396 28.1873L15.3695 28.9375C14.808 29.141 14.2237 28.6968 14.2696 28.1013L14.4392 25.906C14.448 25.7927 14.4323 25.68 14.3958 25.5744L22.8901 22.792Z" fill="url(#paint26_linear_1_2287)"/>
<path d="M17.8448 13.7542C17.7995 13.7542 17.7546 13.7553 17.7094 13.7559L16.0251 15.4401L28.3205 27.7355C28.605 26.7622 28.7583 25.7329 28.7583 24.6676C28.7583 18.6403 23.8722 13.7542 17.8448 13.7542Z" fill="url(#paint27_linear_1_2287)"/>
<path d="M11.2566 0.809814V6.57452L17.8448 13.1628L24.4331 6.57452V0.809814H11.2566Z" fill="url(#paint28_linear_1_2287)"/>
<path d="M11.2566 0.809814V2.60387L17.8228 9.17008C17.8349 9.18223 17.8547 9.18223 17.8669 9.17008L24.4331 2.60387V0.809814H11.2566Z" fill="url(#paint29_linear_1_2287)"/>
<path d="M11.2566 0.809814V2.60387L17.8228 9.17008C17.8349 9.18223 17.8547 9.18223 17.8669 9.17008L24.4331 2.60387V0.809814H11.2566Z" fill="url(#paint30_linear_1_2287)"/>
<path d="M17.8448 10.2083C17.5732 10.2083 17.3016 10.1049 17.0949 9.89816L11.2566 4.05981V6.57474L17.8448 13.163L24.4331 6.57474V4.05981L18.5947 9.89816C18.388 10.1049 18.1165 10.2083 17.8448 10.2083Z" fill="url(#paint31_linear_1_2287)"/>
<path d="M17.8448 10.2083C17.5732 10.2083 17.3016 10.1049 17.0949 9.89816L11.2566 4.05981V6.57474L17.8448 13.163L24.4331 6.57474V4.05981L18.5947 9.89816C18.388 10.1049 18.1165 10.2083 17.8448 10.2083Z" fill="url(#paint32_linear_1_2287)"/>
<path d="M17.8448 10.2083C18.1165 10.2083 18.388 10.1049 18.5947 9.89816L24.4331 4.05981V6.57474L17.8448 13.163L11.2566 6.57474V4.05981L17.0949 9.89816C17.3016 10.1049 17.5733 10.2083 17.8448 10.2083Z" fill="url(#paint33_linear_1_2287)"/>
<path d="M17.1222 11.6661L11.5158 6.05969C11.0954 5.63928 10.4137 5.63928 9.99329 6.05969C9.57288 6.48011 9.57288 7.16178 9.99329 7.58219L17.8447 15.4337L25.6961 7.58226C26.1166 7.16185 26.1166 6.48017 25.6961 6.05976C25.2757 5.63935 24.594 5.63935 24.1736 6.05976L18.5672 11.6662C18.1681 12.0652 17.5212 12.0652 17.1222 11.6661Z" fill="url(#paint34_linear_1_2287)"/>
<path d="M9.99325 6.07246L17.018 13.0972C17.4746 13.5538 18.2149 13.5538 18.6715 13.0972L25.6962 6.07246C25.6982 6.0704 25.6999 6.06813 25.7019 6.06608C25.6999 6.06402 25.6982 6.06175 25.6962 6.05969C25.2758 5.63928 24.5941 5.63928 24.1737 6.05969L18.5672 11.6661C18.1682 12.0651 17.5213 12.0651 17.1223 11.6661L11.5158 6.05969C11.0954 5.63928 10.4137 5.63928 9.99331 6.05969C9.99125 6.06175 9.98961 6.06402 9.98755 6.06608C9.98954 6.06813 9.99119 6.0704 9.99325 6.07246Z" fill="url(#paint35_linear_1_2287)"/>
<path d="M17.8446 15.4339L23.3869 9.8916H20.3418L18.567 11.6664C18.168 12.0654 17.5211 12.0654 17.1221 11.6664L15.3473 9.8916H12.3022L17.8446 15.4339Z" fill="url(#paint36_linear_1_2287)"/>
<path d="M17.1584 14.7475L17.8447 15.4338L24.874 8.40454H21.8289L18.5672 11.6662C18.1798 12.0536 17.5595 12.0637 17.1584 11.6989V14.7475Z" fill="url(#paint37_linear_1_2287)"/>
<path d="M17.8449 16.1937C19.2661 16.1937 20.4183 15.0415 20.4183 13.6203C20.4183 12.199 19.2661 11.0469 17.8449 11.0469C16.4236 11.0469 15.2715 12.199 15.2715 13.6203C15.2715 15.0415 16.4236 16.1937 17.8449 16.1937Z" fill="url(#paint38_linear_1_2287)"/>
<path d="M17.8447 15.0955C18.6596 15.0955 19.3201 14.4349 19.3201 13.6201C19.3201 12.8053 18.6596 12.1448 17.8447 12.1448C17.0299 12.1448 16.3694 12.8053 16.3694 13.6201C16.3694 14.4349 17.0299 15.0955 17.8447 15.0955Z" fill="url(#paint39_linear_1_2287)"/>
<path d="M25.4282 3.14312H10.2612C9.82546 3.14312 9.47217 2.78983 9.47217 2.35405V1.37013C9.47217 0.934349 9.82546 0.581055 10.2612 0.581055H25.4283C25.864 0.581055 26.2173 0.934349 26.2173 1.37013V2.35411C26.2173 2.7899 25.864 3.14312 25.4282 3.14312Z" fill="url(#paint40_linear_1_2287)"/>
<defs>
<linearGradient id="paint0_linear_1_2287" x1="5.33521" y1="25.5229" x2="7.59991" y2="28.6454" gradientUnits="userSpaceOnUse">
<stop stop-color="#FEF0AE"/>
<stop offset="1" stop-color="#FBC56D"/>
</linearGradient>
<linearGradient id="paint1_linear_1_2287" x1="5.12898" y1="27.5255" x2="8.69761" y2="29.1726" gradientUnits="userSpaceOnUse">
<stop stop-color="#DC8758" stop-opacity="0"/>
<stop offset="0.9957" stop-color="#DC8758" stop-opacity="0.996"/>
<stop offset="1" stop-color="#DC8758"/>
</linearGradient>
<linearGradient id="paint2_linear_1_2287" x1="3.01261" y1="22.8611" x2="6.75281" y2="25.6405" gradientUnits="userSpaceOnUse">
<stop stop-color="#FEF0AE"/>
<stop offset="1" stop-color="#FBC56D"/>
</linearGradient>
<linearGradient id="paint3_linear_1_2287" x1="4.58061" y1="25.97" x2="7.41719" y2="25.9243" gradientUnits="userSpaceOnUse">
<stop stop-color="#DC8758" stop-opacity="0"/>
<stop offset="0.9957" stop-color="#DC8758" stop-opacity="0.996"/>
<stop offset="1" stop-color="#DC8758"/>
</linearGradient>
<linearGradient id="paint4_linear_1_2287" x1="10.5265" y1="16.4676" x2="9.66866" y2="20.4137" gradientUnits="userSpaceOnUse">
<stop stop-color="#FEF0AE"/>
<stop offset="1" stop-color="#FBC56D"/>
</linearGradient>
<linearGradient id="paint5_linear_1_2287" x1="6.81966" y1="16.865" x2="9.01574" y2="19.1068" gradientUnits="userSpaceOnUse">
<stop stop-color="#DC8758" stop-opacity="0"/>
<stop offset="0.9957" stop-color="#DC8758" stop-opacity="0.996"/>
<stop offset="1" stop-color="#DC8758"/>
</linearGradient>
<linearGradient id="paint6_linear_1_2287" x1="5.50055" y1="17.4154" x2="7.38781" y2="23.3173" gradientUnits="userSpaceOnUse">
<stop stop-color="#FEF0AE"/>
<stop offset="1" stop-color="#FBC56D"/>
</linearGradient>
<linearGradient id="paint7_linear_1_2287" x1="5.88072" y1="20.629" x2="8.30553" y2="22.7336" gradientUnits="userSpaceOnUse">
<stop stop-color="#DC8758" stop-opacity="0"/>
<stop offset="0.9957" stop-color="#DC8758" stop-opacity="0.996"/>
<stop offset="1" stop-color="#DC8758"/>
</linearGradient>
<linearGradient id="paint8_linear_1_2287" x1="30.3539" y1="25.5229" x2="28.0892" y2="28.6454" gradientUnits="userSpaceOnUse">
<stop stop-color="#FEF0AE"/>
<stop offset="1" stop-color="#FBC56D"/>
</linearGradient>
<linearGradient id="paint9_linear_1_2287" x1="30.5602" y1="27.5255" x2="26.9915" y2="29.1726" gradientUnits="userSpaceOnUse">
<stop stop-color="#DC8758" stop-opacity="0"/>
<stop offset="0.9957" stop-color="#DC8758" stop-opacity="0.996"/>
<stop offset="1" stop-color="#DC8758"/>
</linearGradient>
<linearGradient id="paint10_linear_1_2287" x1="32.6769" y1="22.8611" x2="28.9367" y2="25.6405" gradientUnits="userSpaceOnUse">
<stop stop-color="#FEF0AE"/>
<stop offset="1" stop-color="#FBC56D"/>
</linearGradient>
<linearGradient id="paint11_linear_1_2287" x1="31.1089" y1="25.97" x2="28.2723" y2="25.9243" gradientUnits="userSpaceOnUse">
<stop stop-color="#DC8758" stop-opacity="0"/>
<stop offset="0.9957" stop-color="#DC8758" stop-opacity="0.996"/>
<stop offset="1" stop-color="#DC8758"/>
</linearGradient>
<linearGradient id="paint12_linear_1_2287" x1="25.1629" y1="16.4676" x2="26.0208" y2="20.4137" gradientUnits="userSpaceOnUse">
<stop stop-color="#FEF0AE"/>
<stop offset="1" stop-color="#FBC56D"/>
</linearGradient>
<linearGradient id="paint13_linear_1_2287" x1="28.8698" y1="16.865" x2="26.6737" y2="19.1068" gradientUnits="userSpaceOnUse">
<stop stop-color="#DC8758" stop-opacity="0"/>
<stop offset="0.9957" stop-color="#DC8758" stop-opacity="0.996"/>
<stop offset="1" stop-color="#DC8758"/>
</linearGradient>
<linearGradient id="paint14_linear_1_2287" x1="30.1887" y1="17.4154" x2="28.3015" y2="23.3173" gradientUnits="userSpaceOnUse">
<stop stop-color="#FEF0AE"/>
<stop offset="1" stop-color="#FBC56D"/>
</linearGradient>
<linearGradient id="paint15_linear_1_2287" x1="29.8085" y1="20.629" x2="27.3837" y2="22.7336" gradientUnits="userSpaceOnUse">
<stop stop-color="#DC8758" stop-opacity="0"/>
<stop offset="0.9957" stop-color="#DC8758" stop-opacity="0.996"/>
<stop offset="1" stop-color="#DC8758"/>
</linearGradient>
<linearGradient id="paint16_linear_1_2287" x1="11.1161" y1="17.9391" x2="22.626" y2="29.449" gradientUnits="userSpaceOnUse">
<stop stop-color="#FEF0AE"/>
<stop offset="1" stop-color="#FBC56D"/>
</linearGradient>
<linearGradient id="paint17_linear_1_2287" x1="23.4944" y1="30.3174" x2="12.03" y2="18.853" gradientUnits="userSpaceOnUse">
<stop stop-color="#FEF0AE"/>
<stop offset="1" stop-color="#FBC56D"/>
</linearGradient>
<linearGradient id="paint18_linear_1_2287" x1="12.4157" y1="19.2387" x2="21.3522" y2="28.1752" gradientUnits="userSpaceOnUse">
<stop stop-color="#FEF0AE"/>
<stop offset="1" stop-color="#FBC56D"/>
</linearGradient>
<linearGradient id="paint19_linear_1_2287" x1="17.8447" y1="27.8608" x2="17.8447" y2="35.0241" gradientUnits="userSpaceOnUse">
<stop stop-color="#DC8758" stop-opacity="0"/>
<stop offset="0.9957" stop-color="#DC8758" stop-opacity="0.996"/>
<stop offset="1" stop-color="#DC8758"/>
</linearGradient>
<linearGradient id="paint20_linear_1_2287" x1="24.3811" y1="30.3393" x2="15.368" y2="24.6661" gradientUnits="userSpaceOnUse">
<stop stop-color="#DC8758" stop-opacity="0"/>
<stop offset="0.9957" stop-color="#DC8758" stop-opacity="0.996"/>
<stop offset="1" stop-color="#DC8758"/>
</linearGradient>
<linearGradient id="paint21_linear_1_2287" x1="15.5713" y1="22.5932" x2="19.6709" y2="26.6927" gradientUnits="userSpaceOnUse">
<stop stop-color="#FBC56D"/>
<stop offset="1" stop-color="#C5715A"/>
</linearGradient>
<linearGradient id="paint22_linear_1_2287" x1="20.3009" y1="23.7109" x2="14.6348" y2="26.0533" gradientUnits="userSpaceOnUse">
<stop stop-color="#8C3D27" stop-opacity="0"/>
<stop offset="1" stop-color="#8C3D27"/>
</linearGradient>
<linearGradient id="paint23_linear_1_2287" x1="18.8216" y1="25.7217" x2="15.7195" y2="24.3922" gradientUnits="userSpaceOnUse">
<stop stop-color="#8C3D27" stop-opacity="0"/>
<stop offset="1" stop-color="#8C3D27"/>
</linearGradient>
<linearGradient id="paint24_linear_1_2287" x1="16.8677" y1="25.7217" x2="19.9698" y2="24.3922" gradientUnits="userSpaceOnUse">
<stop stop-color="#8C3D27" stop-opacity="0"/>
<stop offset="1" stop-color="#8C3D27"/>
</linearGradient>
<linearGradient id="paint25_linear_1_2287" x1="16.9366" y1="25.8771" x2="18.9307" y2="22.6722" gradientUnits="userSpaceOnUse">
<stop stop-color="#8C3D27" stop-opacity="0"/>
<stop offset="1" stop-color="#8C3D27"/>
</linearGradient>
<linearGradient id="paint26_linear_1_2287" x1="18.5996" y1="25.4724" x2="18.4335" y2="22.3386" gradientUnits="userSpaceOnUse">
<stop stop-color="#8C3D27" stop-opacity="0"/>
<stop offset="1" stop-color="#8C3D27"/>
</linearGradient>
<linearGradient id="paint27_linear_1_2287" x1="23.2227" y1="20.0572" x2="19.0136" y2="12.6912" gradientUnits="userSpaceOnUse">
<stop stop-color="#DC8758" stop-opacity="0"/>
<stop offset="0.9957" stop-color="#DC8758" stop-opacity="0.996"/>
<stop offset="1" stop-color="#DC8758"/>
</linearGradient>
<linearGradient id="paint28_linear_1_2287" x1="18.3329" y1="4.47061" x2="21.0437" y2="8.79414" gradientUnits="userSpaceOnUse">
<stop stop-color="#F9F5F3"/>
<stop offset="1" stop-color="#D8E8F0"/>
</linearGradient>
<linearGradient id="paint29_linear_1_2287" x1="15.6291" y1="-0.834019" x2="24.0474" y2="8.81953" gradientUnits="userSpaceOnUse">
<stop stop-color="#FD4755"/>
<stop offset="1" stop-color="#A72B2B"/>
</linearGradient>
<linearGradient id="paint30_linear_1_2287" x1="17.8448" y1="5.1448" x2="17.8448" y2="2.87777" gradientUnits="userSpaceOnUse">
<stop stop-color="#A72B2B" stop-opacity="0"/>
<stop offset="1" stop-color="#42210B"/>
</linearGradient>
<linearGradient id="paint31_linear_1_2287" x1="13.8408" y1="0.725617" x2="22.259" y2="10.3792" gradientUnits="userSpaceOnUse">
<stop stop-color="#FD4755"/>
<stop offset="1" stop-color="#A72B2B"/>
</linearGradient>
<linearGradient id="paint32_linear_1_2287" x1="20.4523" y1="7.92471" x2="21.6238" y2="9.09618" gradientUnits="userSpaceOnUse">
<stop stop-color="#A72B2B" stop-opacity="0"/>
<stop offset="1" stop-color="#42210B"/>
</linearGradient>
<linearGradient id="paint33_linear_1_2287" x1="15.2373" y1="7.92471" x2="14.0659" y2="9.09618" gradientUnits="userSpaceOnUse">
<stop stop-color="#A72B2B" stop-opacity="0"/>
<stop offset="1" stop-color="#42210B"/>
</linearGradient>
<linearGradient id="paint34_linear_1_2287" x1="23.7937" y1="12.77" x2="9.72097" y2="-1.30273" gradientUnits="userSpaceOnUse">
<stop stop-color="#FEF0AE"/>
<stop offset="1" stop-color="#FBC56D"/>
</linearGradient>
<linearGradient id="paint35_linear_1_2287" x1="17.8447" y1="6.18556" x2="17.8447" y2="15.7961" gradientUnits="userSpaceOnUse">
<stop stop-color="#FEF0AE"/>
<stop offset="1" stop-color="#FBC56D"/>
</linearGradient>
<linearGradient id="paint36_linear_1_2287" x1="17.8446" y1="11.7674" x2="17.8446" y2="14.9273" gradientUnits="userSpaceOnUse">
<stop stop-color="#DC8758" stop-opacity="0"/>
<stop offset="0.9957" stop-color="#DC8758" stop-opacity="0.996"/>
<stop offset="1" stop-color="#DC8758"/>
</linearGradient>
<linearGradient id="paint37_linear_1_2287" x1="21.0885" y1="9.9781" x2="19.167" y2="11.934" gradientUnits="userSpaceOnUse">
<stop stop-color="#DC8758" stop-opacity="0"/>
<stop offset="0.9957" stop-color="#DC8758" stop-opacity="0.996"/>
<stop offset="1" stop-color="#DC8758"/>
</linearGradient>
<linearGradient id="paint38_linear_1_2287" x1="16.3694" y1="12.1448" x2="20.0087" y2="15.7841" gradientUnits="userSpaceOnUse">
<stop stop-color="#FBC56D"/>
<stop offset="1" stop-color="#C5715A"/>
</linearGradient>
<linearGradient id="paint39_linear_1_2287" x1="19.2859" y1="15.0613" x2="15.8767" y2="11.6521" gradientUnits="userSpaceOnUse">
<stop stop-color="#FBC56D"/>
<stop offset="1" stop-color="#C5715A"/>
</linearGradient>
<linearGradient id="paint40_linear_1_2287" x1="17.8447" y1="1.35881" x2="17.8447" y2="2.78887" gradientUnits="userSpaceOnUse">
<stop stop-color="#FEF0AE"/>
<stop offset="1" stop-color="#FBC56D"/>
</linearGradient>
</defs>
</svg>
