<svg width="13" height="15" viewBox="0 0 13 15" fill="none" xmlns="http://www.w3.org/2000/svg">
<g clip-path="url(#clip0_511_158)">
<path d="M12.3135 10.4104V4.77048C12.3135 4.42145 12.1273 4.09898 11.8251 3.92451L6.94072 1.10448C6.63848 0.930016 6.26609 0.930016 5.96385 1.10448L1.0795 3.92451C0.777256 4.09898 0.591064 4.42155 0.591064 4.77048V10.4104C0.591064 10.7595 0.777256 11.0819 1.0795 11.2564L5.96385 14.0764C6.26609 14.2509 6.63848 14.2509 6.94072 14.0764L11.8251 11.2564C12.1273 11.0819 12.3135 10.7595 12.3135 10.4104Z" fill="#FFC91D"/>
<path d="M11.8248 3.92463L11.7321 3.87109C11.7911 3.99809 11.8248 4.13739 11.8248 4.28216V9.92212C11.8248 10.2712 11.6386 10.5936 11.3363 10.7681L6.45196 13.588C6.14972 13.7625 5.77734 13.7625 5.47509 13.588L0.68335 10.8215C0.766677 11.0007 0.902266 11.1543 1.07918 11.2564L5.96353 14.0764C6.26577 14.2508 6.63816 14.2508 6.9404 14.0764L11.8248 11.2564C12.127 11.082 12.3132 10.7594 12.3132 10.4105V4.7705C12.3132 4.42156 12.127 4.09909 11.8248 3.92463Z" fill="#FFA91A"/>
<path d="M10.9611 9.62914V5.551C10.9611 5.20196 10.775 4.8795 10.4727 4.70503L6.94093 2.66601C6.63869 2.49154 6.2663 2.49154 5.96406 2.66601L2.43228 4.70503C2.13004 4.8795 1.94385 5.20206 1.94385 5.551V9.62914C1.94385 9.97818 2.13004 10.3006 2.43228 10.4751L5.96406 12.5141C6.2663 12.6886 6.63869 12.6886 6.94093 12.5141L10.4727 10.4751C10.775 10.3006 10.9611 9.97818 10.9611 9.62914Z" fill="#F79219"/>
<path d="M10.4724 4.70588L10.3798 4.65234C10.4388 4.77934 10.4724 4.91864 10.4724 5.06341V9.14155C10.4724 9.49059 10.2862 9.81305 9.98395 9.98752L6.45217 12.0265C6.14993 12.201 5.77755 12.201 5.4753 12.0265L2.03613 10.041C2.11946 10.2201 2.25505 10.3738 2.43196 10.4759L5.96374 12.5149C6.26598 12.6893 6.63836 12.6893 6.94061 12.5149L10.4724 10.4759C10.7746 10.3014 10.9608 9.97883 10.9608 9.62989V5.55175C10.9608 5.20281 10.7746 4.88035 10.4724 4.70588Z" fill="#EF7816"/>
<path d="M6.63794 4.928L7.23266 6.75826H9.15719C9.34641 6.75826 9.42515 7.00043 9.27207 7.11169L7.71514 8.24291L8.30986 10.0732C8.36837 10.2532 8.16235 10.4029 8.00918 10.2916L6.45224 9.16039L4.8953 10.2916C4.74223 10.4029 4.53621 10.2532 4.59462 10.0732L5.18934 8.24291L3.63241 7.11169C3.47933 7.00043 3.55797 6.75826 3.74729 6.75826H5.67172L6.26644 4.928C6.32476 4.74796 6.57943 4.74796 6.63794 4.928Z" fill="white"/>
</g>
<defs>
<clipPath id="clip0_511_158">
<rect width="12.3437" height="14.2428" fill="white" transform="translate(0.248047 0.432617)"/>
</clipPath>
</defs>
</svg>
