<svg width="25" height="25" viewBox="0 0 25 25" fill="none" xmlns="http://www.w3.org/2000/svg">
<path d="M3.96387 8.63635L15.9639 8.63635M15.9639 8.63635C15.9639 10.2932 17.307 11.6364 18.9639 11.6364C20.6207 11.6364 21.9639 10.2932 21.9639 8.63635C21.9639 6.9795 20.6207 5.63635 18.9639 5.63635C17.307 5.63635 15.9639 6.9795 15.9639 8.63635ZM9.96387 16.6364L21.9639 16.6364M9.96387 16.6364C9.96387 18.2932 8.62072 19.6364 6.96387 19.6364C5.30701 19.6364 3.96387 18.2932 3.96387 16.6364C3.96387 14.9795 5.30701 13.6364 6.96387 13.6364C8.62072 13.6364 9.96387 14.9795 9.96387 16.6364Z" stroke="#17253F" stroke-width="2" stroke-linecap="round" stroke-linejoin="round"/>
</svg>
