<svg width="25" height="25" viewBox="0 0 25 25" fill="none" xmlns="http://www.w3.org/2000/svg">
<rect x="0.632324" y="0.583984" width="24" height="24" rx="12" fill="#17253F"/>
<path d="M11.849 5.75174C12.0956 4.99291 13.1691 4.99291 13.4157 5.75174L14.6781 9.63721C14.7884 9.97657 15.1046 10.2063 15.4615 10.2063H19.5469C20.3448 10.2063 20.6765 11.2273 20.031 11.6963L16.7258 14.0977C16.4372 14.3074 16.3164 14.6792 16.4266 15.0185L17.6891 18.904C17.9357 19.6628 17.0671 20.2938 16.4216 19.8248L13.1165 17.4235C12.8278 17.2138 12.4369 17.2138 12.1482 17.4235L8.84304 19.8248C8.19755 20.2938 7.32903 19.6628 7.57559 18.904L8.83806 15.0185C8.94832 14.6792 8.82753 14.3074 8.53885 14.0977L5.23367 11.6963C4.58818 11.2273 4.91992 10.2063 5.71779 10.2063H9.80322C10.16 10.2063 10.4763 9.97657 10.5866 9.63721L11.849 5.75174Z" fill="#04DA8D"/>
</svg>
