<svg width="117" height="22" viewBox="0 0 117 22" fill="none" xmlns="http://www.w3.org/2000/svg">
<rect x="0.735107" y="0.213623" width="21" height="21" rx="2.625" fill="#4558F9"/>
<path d="M11.0415 3.03223L12.766 8.33991H18.3469L13.8319 11.6202L15.5564 16.9279L11.0415 13.6476L6.52647 16.9279L8.25105 11.6202L3.73606 8.33991H9.31689L11.0415 3.03223Z" fill="#EAF0F8"/>
<rect x="24.3601" y="0.213623" width="21" height="21" rx="2.625" fill="#4558F9"/>
<path d="M34.6665 3.03223L36.391 8.33991H41.9719L37.4569 11.6202L39.1814 16.9279L34.6665 13.6476L30.1515 16.9279L31.876 11.6202L27.3611 8.33991H32.9419L34.6665 3.03223Z" fill="#EAF0F8"/>
<rect x="47.9851" y="0.213623" width="21" height="21" rx="2.625" fill="#4558F9"/>
<path d="M58.2915 3.03223L60.016 8.33991H65.5969L61.0819 11.6202L62.8064 16.9279L58.2915 13.6476L53.7765 16.9279L55.501 11.6202L50.9861 8.33991H56.5669L58.2915 3.03223Z" fill="#EAF0F8"/>
<rect x="71.6101" y="0.213623" width="21" height="21" rx="2.625" fill="#4558F9"/>
<path d="M81.9165 3.03223L83.641 8.33991H89.2219L84.7069 11.6202L86.4314 16.9279L81.9165 13.6476L77.4015 16.9279L79.126 11.6202L74.6111 8.33991H80.1919L81.9165 3.03223Z" fill="#EAF0F8"/>
<rect x="95.2354" y="0.213623" width="21" height="21" rx="2.625" fill="#4558F9"/>
<path d="M105.541 3.03223L107.266 8.33991H112.847L108.332 11.6202L110.056 16.9279L105.541 13.6476L101.026 16.9279L102.751 11.6202L98.2361 8.33991H103.817L105.541 3.03223Z" fill="#EAF0F8"/>
</svg>
