<svg width="61" height="61" viewBox="0 0 61 61" fill="none" xmlns="http://www.w3.org/2000/svg">
<rect x="0.363281" y="0.772827" width="60" height="60" rx="15" fill="#DEF0FF"/>
<g clip-path="url(#clip0_2191_17908)">
<path d="M10.82 31.7029L23.9746 44.8575C24.2315 45.1144 24.5681 45.2429 24.9046 45.2429C25.2412 45.2429 25.5778 45.1144 25.8347 44.8575C26.3486 44.3436 26.3486 43.5112 25.8347 42.9973L13.6102 30.7728L25.8347 18.5483C26.3486 18.0344 26.3486 17.202 25.8347 16.6881C25.3209 16.1743 24.4884 16.1743 23.9746 16.6881L10.82 29.8427C10.3061 30.3566 10.3061 31.189 10.82 31.7029Z" fill="#1E88E5"/>
<path d="M17.3971 29.8427L30.5517 16.6881C30.9288 16.3117 31.4933 16.1974 31.9854 16.4029C32.4761 16.6059 32.7972 17.0864 32.7972 17.6182V22.88H35.4282C45.1644 22.88 49.8982 29.7644 49.8982 43.9274C49.8982 44.4862 49.545 44.9834 49.0183 45.1684C48.8757 45.2185 48.7279 45.2429 48.5828 45.2429C48.191 45.2429 47.8094 45.0669 47.5551 44.7496C42.6889 38.6656 37.9653 38.6656 35.4282 38.6656H32.7972V43.9274C32.7972 44.4593 32.4761 44.9397 31.9854 45.1427C31.4933 45.3482 30.9288 45.2339 30.5517 44.8575L17.3971 31.7029C16.8833 31.189 16.8833 30.3566 17.3971 29.8427Z" fill="#42A5F5"/>
<g opacity="0.1">
<path d="M17.0117 30.7727C17.0117 31.1144 17.1428 31.4561 17.3933 31.7066L30.5479 44.8612C30.9294 45.2299 31.4946 45.3481 31.9815 45.1374C32.4812 44.9396 32.7972 44.454 32.7972 43.9273V38.6655H35.4282C37.9666 38.6655 42.6889 38.6655 47.5564 44.7431C47.8069 45.0719 48.1884 45.2428 48.5828 45.2428C48.7267 45.2428 48.8718 45.2171 49.017 45.1644C49.5424 44.9794 49.8982 44.4797 49.8982 43.9273C49.8982 38.4676 49.2007 34.1012 47.767 30.7727H17.0117Z" fill="black"/>
<path d="M10.4346 30.7727C10.4346 31.1144 10.5656 31.4561 10.8161 31.7066L23.9707 44.8612C24.2341 45.1117 24.5629 45.2428 24.9046 45.2428C25.2463 45.2428 25.5752 45.1117 25.8386 44.8612C26.3511 44.3487 26.3511 43.506 25.8386 42.9934L13.605 30.7727H10.4346Z" fill="black"/>
</g>
</g>
<defs>
<clipPath id="clip0_2191_17908">
<rect width="40.5988" height="30.213" fill="white" transform="translate(10.0635 15.6663)"/>
</clipPath>
</defs>
</svg>
