<svg width="61" height="61" viewBox="0 0 61 61" fill="none" xmlns="http://www.w3.org/2000/svg">
<rect x="0.363281" y="0.772827" width="60" height="60" rx="15" fill="#FFF8EA"/>
<g clip-path="url(#clip0_2191_17883)">
<path d="M51.6721 25.885C51.3343 24.8456 50.3657 24.1418 49.2727 24.1418L37.0687 24.1417L33.2972 12.5348C32.9594 11.4954 31.9908 10.7916 30.8978 10.7916C30.6278 10.7916 30.3654 10.8349 30.1182 10.9153L30.8978 30.7901L42.7746 50.7327C43.1146 50.6612 43.4432 50.5202 43.737 50.3068C44.6212 49.6644 44.9913 48.5256 44.6535 47.4861L40.8824 35.8793L50.7556 28.7057C51.6399 28.0632 52.0099 26.9245 51.6721 25.885Z" fill="#FFB820"/>
<path d="M49.2728 26.6646L35.2358 26.6645L30.1183 10.9153C29.3649 11.1603 28.7529 11.7522 28.4986 12.5349L24.7271 24.1416L12.523 24.1418C11.43 24.1418 10.4614 24.8456 10.1236 25.885C9.78592 26.9244 10.1559 28.0632 11.0401 28.7057L20.9134 35.8793L17.1423 47.4861C16.8045 48.5255 17.1745 49.6642 18.0588 50.3067C18.9429 50.9491 20.1403 50.9491 21.0246 50.3067L30.898 43.1335L40.7714 50.3067C41.3619 50.7357 42.0915 50.8766 42.7747 50.7327L37.9169 34.9156L49.2728 26.6646Z" fill="#FFD06A"/>
</g>
<defs>
<clipPath id="clip0_2191_17883">
<rect width="41.7959" height="40" fill="white" transform="translate(10 10.79)"/>
</clipPath>
</defs>
</svg>
