<svg width="50" height="50" viewBox="0 0 18 18" fill="none" xmlns="http://www.w3.org/2000/svg">
<g clip-path="url(#clip0_2191_15532)">
<path d="M11.4934 4.3468V3.78157C11.4934 2.99017 11.4934 2.59446 11.3394 2.29219C11.2039 2.0263 10.9877 1.81012 10.7218 1.67465C10.4196 1.52063 10.0239 1.52063 9.23247 1.52063H8.102C7.3106 1.52063 6.9149 1.52063 6.61262 1.67465C6.34673 1.81012 6.13056 2.0263 5.99508 2.29219C5.84106 2.59446 5.84106 2.99017 5.84106 3.78157V4.3468M7.25415 8.23279V11.7655M10.0803 8.23279V11.7655M2.30835 4.3468H15.0261M13.613 4.3468V12.2601C13.613 13.4472 13.613 14.0407 13.382 14.4942C13.1788 14.893 12.8545 15.2172 12.4557 15.4205C12.0023 15.6515 11.4087 15.6515 10.2216 15.6515H7.11284C5.92574 15.6515 5.33219 15.6515 4.87877 15.4205C4.47994 15.2172 4.15568 14.893 3.95246 14.4942C3.72144 14.0407 3.72144 13.4472 3.72144 12.2601V4.3468" stroke="#FF0000" stroke-width="1.41309" stroke-linecap="round" stroke-linejoin="round"/>
</g>
<defs>
<clipPath id="clip0_2191_15532">
<rect width="50" height="50" fill="white" transform="translate(0.188721 0.107544)"/>
</clipPath>
</defs>
</svg>
