<svg width="21" height="22" viewBox="0 0 21 22" fill="none" xmlns="http://www.w3.org/2000/svg">
<path d="M18.4035 7.58983V5.0658C18.4035 4.49849 18.1781 3.95443 17.777 3.55328C17.3759 3.15214 16.8318 2.92678 16.2645 2.92678H13.7939L12.0399 1.17279C11.6392 0.774398 11.097 0.550781 10.5319 0.550781C9.96684 0.550781 9.4247 0.774398 9.02393 1.17279L7.32341 2.92678H4.79938C4.23208 2.92678 3.68801 3.15214 3.28687 3.55328C2.88572 3.95443 2.66036 4.49849 2.66036 5.0658V7.58983L0.906372 9.29035C0.507979 9.69112 0.284363 10.2333 0.284363 10.7984C0.284363 11.3635 0.507979 11.9056 0.906372 12.3064L2.66036 14.0604V16.5309C2.66036 17.0982 2.88572 17.6423 3.28687 18.0434C3.68801 18.4446 4.23208 18.6699 4.79938 18.6699H7.32341L9.02393 20.4239C9.4247 20.8223 9.96684 21.0459 10.5319 21.0459C11.097 21.0459 11.6392 20.8223 12.0399 20.4239L13.7939 18.6699H16.2645C16.8318 18.6699 17.3759 18.4446 17.777 18.0434C18.1781 17.6423 18.4035 17.0982 18.4035 16.5309V14.0604L20.1575 12.3064C20.5559 11.9056 20.7795 11.3635 20.7795 10.7984C20.7795 10.2333 20.5559 9.69112 20.1575 9.29035L18.4035 7.58983Z" fill="#02A570"/>
<path d="M9.3019 14.6865L9.29473 14.6862L9.28755 14.6863C9.10581 14.6873 8.92566 14.6525 8.75742 14.5838C8.58917 14.515 8.43615 14.4138 8.30712 14.2858L8.30713 14.2858L8.30528 14.284L5.74296 11.7882C5.4835 11.5281 5.33777 11.1757 5.33777 10.8082C5.33777 10.4402 5.48397 10.0872 5.74421 9.82699C6.00446 9.56674 6.35742 9.42054 6.72546 9.42054C7.09321 9.42054 7.4459 9.56651 7.70608 9.82636C7.70629 9.82657 7.7065 9.82678 7.70671 9.82699L9.02061 11.1575L9.22177 11.3612L9.42376 11.1584L13.2361 7.32941L13.2361 7.32948L13.241 7.32428C13.5028 7.04781 13.8636 6.88664 14.2441 6.87621C14.6247 6.86579 14.9938 7.00696 15.2703 7.26868L15.4654 7.06253L15.2703 7.26868C15.5467 7.5304 15.7079 7.89123 15.7183 8.27179C15.7287 8.6511 15.5885 9.01905 15.3284 9.29521L10.3376 14.2861C10.3375 14.2862 10.3373 14.2863 10.3372 14.2864C10.2018 14.421 10.0399 14.5261 9.86176 14.595C9.68349 14.6639 9.49284 14.6951 9.3019 14.6865Z" fill="white" stroke="#02A570" stroke-width="0.567751"/>
</svg>
